<?xml version="1.0" encoding="utf-8"?>
<!-- Generator: Adobe Illustrator 19.0.0, SVG Export Plug-In . SVG Version: 6.00 Build 0)  -->
<svg version="1.1" id="图层_1" xmlns="http://www.w3.org/2000/svg" xmlns:xlink="http://www.w3.org/1999/xlink" x="0px" y="0px"
	 viewBox="0 0 200 200" style="enable-background:new 0 0 200 200;" xml:space="preserve">
<style type="text/css">
	.st0{fill-rule:evenodd;clip-rule:evenodd;fill:#588fff;}
</style>
<g>
	<path class="st0" d="M184.7,91.2h-75.4V15.8c0-5.5-4.5-10-10-10c-5.5,0-10,4.5-10,10v75.4H13.8c-5.5,0-10,4.5-10,10
		c0,5.5,4.5,10,10,10h75.4v75.4c0,5.5,4.5,10,10,10c5.5,0,10-4.5,10-10v-75.4h75.4c5.5,0,10-4.5,10-10
		C194.7,95.7,190.2,91.2,184.7,91.2L184.7,91.2z"/>
</g>
</svg>
