<?xml version="1.0" encoding="utf-8"?>
<!-- Generator: Adobe Illustrator 19.0.0, SVG Export Plug-In . SVG Version: 6.00 Build 0)  -->
<svg version="1.1" id="图层_1" xmlns="http://www.w3.org/2000/svg" xmlns:xlink="http://www.w3.org/1999/xlink" x="0px" y="0px"
	 viewBox="-230.1 235.1 26 32.3" style="enable-background:new -230.1 235.1 26 32.3;" xml:space="preserve">
<style type="text/css">
	.st0{fill:url(#SVGID_1_);}
</style>
<linearGradient id="SVGID_1_" gradientUnits="userSpaceOnUse" x1="-230.1396" y1="251.2107" x2="-204.1396" y2="251.2107">
	<stop  offset="6.179420e-007" style="stop-color:#BCD3FF"/>
	<stop  offset="1" style="stop-color:#6497FF"/>
</linearGradient>
<path class="st0" d="M-217.1,254.4c-3.1,0-5.6-2.5-5.6-5.6c0-3.1,2.5-5.6,5.6-5.6s5.6,2.5,5.6,5.6S-214.1,254.4-217.1,254.4z
	 M-217.1,245.1c-2.1,0-3.7,1.7-3.7,3.7c0,2.1,1.7,3.7,3.7,3.7c2.1,0,3.7-1.7,3.7-3.7C-213.4,246.8-215.1,245.1-217.1,245.1z
	 M-206.5,240.6c-0.2-0.2-0.3-0.5-0.5-0.7c0,0-0.1-0.1-0.1-0.1c-0.2-0.2-0.4-0.5-0.6-0.7c-0.1-0.1-0.2-0.2-0.3-0.3
	c-0.2-0.2-0.3-0.3-0.5-0.5c-0.1,0-0.1-0.1-0.1-0.1c-0.4-0.3-1-0.2-1.3,0.2c-0.2,0.3-0.2,0.6-0.1,0.9c0.1,0.1,0.1,0.2,0.3,0.3
	c0,0,0.1,0.1,0.1,0.1c0.1,0.1,0.2,0.1,0.3,0.3s0.3,0.3,0.4,0.4c0.1,0.1,0.2,0.2,0.3,0.3c0.1,0.1,0.2,0.2,0.2,0.3
	c1.5,1.9,2.5,4.3,2.5,7c0,5.4-8.6,14.7-11.1,17.1c-3.6-3.6-11.2-12.2-11.2-17.1c-0.1-6.1,4.9-11.2,11.1-11.2c0.3,0,0.7,0,1,0
	c0.1,0,0.1,0,0.2,0c0.6,0.1,1.3,0.2,1.8,0.4c0.2,0.1,0.3,0.1,0.5,0.2c0,0,0,0,0.1,0c0.5,0.1,1-0.1,1.2-0.5c0.2-0.5,0-1-0.5-1.2
	c-0.2-0.1-0.5-0.2-0.8-0.3c-0.7-0.2-1.3-0.3-2.1-0.4c-0.1,0-0.1,0-0.2,0c-0.1,0-0.3,0-0.3,0c-0.3,0-0.6,0-0.9,0c-7.2,0-13,5.8-13,13
	c0,7,11.9,18.6,12.4,19.1c0.2,0.2,0.4,0.2,0.6,0.2c0.1,0,0.3,0,0.4-0.1c0.5-0.2,12.5-12.1,12.5-19.2
	C-204.1,245.3-205,242.7-206.5,240.6z"/>
</svg>
