<?xml version="1.0" encoding="utf-8"?>
<!-- Generator: Adobe Illustrator 19.0.0, SVG Export Plug-In . SVG Version: 6.00 Build 0)  -->
<svg version="1.1" id="图层_1" xmlns="http://www.w3.org/2000/svg" xmlns:xlink="http://www.w3.org/1999/xlink" x="0px" y="0px"
	 viewBox="13.8 -3 40 36" style="enable-background:new 13.8 -3 40 36;" xml:space="preserve">
<style type="text/css">
	.st0{fill:#FF5400;}
</style>
<path class="st0" d="M53.6,18.4c-0.4-0.6-1.3-0.8-1.9-0.3l-2.5,1.8c0.4-1.6,0.6-3.2,0.6-4.8c0-9.9-8.1-18-18-18c-9.9,0-18,8.1-18,18
	s8.1,18,18,18c3.1,0,6.2-0.8,8.9-2.4c0.1,0,0.3-0.1,0.4-0.2c0.8-0.5,1.5-1,2.2-1.6c0.6-0.5,0.7-1.4,0.2-1.9
	c-0.5-0.6-1.4-0.7-1.9-0.2c-0.5,0.4-1.1,0.8-1.7,1.2c-0.1,0-0.2,0-0.3,0.1c-2.3,1.4-5,2.1-7.8,2.1c-8.4,0-15.2-6.8-15.2-15.2
	S23.4-0.2,31.8-0.2S47.1,6.6,47.1,15c0,1.9-0.4,3.8-1,5.5l-2-4.7c-0.3-0.7-1.1-1-1.8-0.7c-0.7,0.3-1,1.1-0.7,1.8l3.1,7.5
	c0,0.1,0.1,0.1,0.1,0.2c0,0,0,0,0,0.1c0,0,0,0,0,0c0.1,0.2,0.3,0.3,0.4,0.4c0,0,0.1,0,0.1,0c0.1,0.1,0.3,0.1,0.5,0.1
	c0,0,0.1,0,0.1,0c0,0,0,0,0,0c0,0,0.1,0,0.1,0c0.1,0,0.2,0,0.3,0c0,0,0,0,0.1,0c0.1,0,0.2-0.1,0.3-0.2c0,0,0,0,0,0l6.5-4.7
	C53.9,19.9,54,19,53.6,18.4L53.6,18.4z"/>
<g>
	<path class="st0" d="M29.8,6.9h9.1v7.4c0.7,0.8,1.2,1.3,1.5,1.7c0,0.1-0.2,0.2-0.7,0.3c-0.7,0.3-1.3,0.6-2,0.8
		c1.4,0.9,2.3,1.5,2.8,1.9c-0.5,0.4-1.1,1-1.9,1.8c-1.6-1.7-3.5-3.3-5.7-4.7l1.5-1.4l1.6,1.1c0.6-0.4,1.2-0.8,1.8-1.3h-5.6v3.9
		l2.1-0.9c0,0.6,0,1,0.1,1.3c0,0.4,0.1,0.7,0.2,1.1c-2,0.8-3.2,1.3-3.7,1.6h4.3c2.6,0,4.7-0.1,6.1-0.4c-0.7,1-1,1.9-1.1,2.7h-6
		c-1.6,0-2.8,0-3.5-0.1c-0.8-0.1-1.4-0.2-1.8-0.4c-0.5-0.2-1-0.6-1.5-1.1c-0.4-0.3-0.6-0.5-0.7-0.5c-0.2,0-0.8,0.6-1.7,1.8L24.6,24
		c-0.6-0.7-1.1-1.4-1.7-2.2c0.7-0.5,1.6-1.2,2.8-2.2v-4.9H23v-2.2h5v7.1c0.2,0.9,0.9,1.5,2.2,1.9c-0.1-0.1-0.2-0.5-0.5-1.1
		c-0.3-0.6-0.5-0.9-0.5-0.9c0.3-0.2,0.5-0.3,0.5-0.5V6.9z M26.9,6.9c0.6,1.3,1.1,2.5,1.5,3.6L26,11.3c-0.6-1.5-1.1-2.7-1.5-3.5
		L26.9,6.9z M36.4,8.8h-4.2v0.9h4.2V8.8z M36.4,11.5h-4.2v1.2h4.2V11.5z"/>
</g>
</svg>
