<?xml version="1.0" encoding="utf-8"?>
<!-- Generator: Adobe Illustrator 19.0.0, SVG Export Plug-In . SVG Version: 6.00 Build 0)  -->
<svg version="1.1" id="图层_1" xmlns="http://www.w3.org/2000/svg" xmlns:xlink="http://www.w3.org/1999/xlink" x="0px" y="0px"
	 viewBox="13.8 -3 40 36" style="enable-background:new 13.8 -3 40 36;" xml:space="preserve">
<style type="text/css">
	.st0{fill:#FF5400;}
</style>
<path class="st0" d="M53.6,18.4c-0.4-0.6-1.3-0.8-1.9-0.3l-2.5,1.8c0.4-1.6,0.6-3.2,0.6-4.8c0-9.9-8.1-18-18-18c-9.9,0-18,8.1-18,18
	s8.1,18,18,18c3.1,0,6.2-0.8,8.9-2.4c0.1,0,0.3-0.1,0.4-0.2c0.8-0.5,1.5-1,2.2-1.6c0.6-0.5,0.7-1.4,0.2-1.9
	c-0.5-0.6-1.4-0.7-1.9-0.2c-0.5,0.4-1.1,0.8-1.7,1.2c-0.1,0-0.2,0-0.3,0.1c-2.3,1.4-5,2.1-7.8,2.1c-8.4,0-15.2-6.8-15.2-15.2
	S23.4-0.2,31.8-0.2S47.1,6.6,47.1,15c0,1.9-0.4,3.8-1,5.5l-2-4.7c-0.3-0.7-1.1-1-1.8-0.7c-0.7,0.3-1,1.1-0.7,1.8l3.1,7.5
	c0,0.1,0.1,0.1,0.1,0.2c0,0,0,0,0,0.1c0,0,0,0,0,0c0.1,0.2,0.3,0.3,0.4,0.4c0,0,0.1,0,0.1,0c0.1,0.1,0.3,0.1,0.5,0.1
	c0,0,0.1,0,0.1,0c0,0,0,0,0,0c0,0,0.1,0,0.1,0c0.1,0,0.2,0,0.3,0c0,0,0,0,0.1,0c0.1,0,0.2-0.1,0.3-0.2c0,0,0,0,0,0l6.5-4.7
	C53.9,19.9,54,19,53.6,18.4L53.6,18.4z M37.2,9.1c0.5-0.5,0.6-1.4,0-2c-0.5-0.5-1.4-0.6-2,0l-3.4,3.3l-3.4-3.3c-0.5-0.5-1.4-0.5-2,0
	c-0.5,0.5-0.5,1.4,0,2l3.9,3.7v0.8h-2.8c-0.8,0-1.4,0.6-1.4,1.4c0,0.8,0.6,1.4,1.4,1.4h2.8v1.4h-2.8c-0.8,0-1.4,0.6-1.4,1.4
	s0.6,1.4,1.4,1.4h2.8v2.9c0,0.8,0.6,1.4,1.4,1.4c0.8,0,1.4-0.6,1.4-1.4v-2.9h2.8c0.8,0,1.4-0.6,1.4-1.4s-0.6-1.4-1.4-1.4h-2.8v-1.4
	h2.8c0.8,0,1.4-0.6,1.4-1.4c0-0.8-0.6-1.4-1.4-1.4h-2.8V13L37.2,9.1L37.2,9.1z"/>
</svg>
