<?xml version="1.0" encoding="utf-8"?>
<!-- Generator: Adobe Illustrator 19.0.0, SVG Export Plug-In . SVG Version: 6.00 Build 0)  -->
<svg version="1.1" id="图层_1" xmlns="http://www.w3.org/2000/svg" xmlns:xlink="http://www.w3.org/1999/xlink" x="0px" y="0px"
	 viewBox="-92 76 50 50" style="enable-background:new -92 76 50 50;" xml:space="preserve">
<style type="text/css">
	.st0{fill:#FFBA00;}
</style>
<g>
	<path class="st0" d="M-45.2,76h-43.5c-1.8,0-3.2,1.5-3.2,3.2v43.5c0,1.8,1.5,3.2,3.2,3.2h43.5c1.8,0,3.2-1.5,3.2-3.2V79.2
		C-42,77.5-43.5,76-45.2,76z M-49,111c0,1.1-0.9,1.9-2,2H-83c-1.1,0-1.9-0.9-1.9-2v-1.6h36V111z M-49,106.2h-36V91
		c0-1.1,0.9-1.9,2-2H-51c1.1,0,1.9,0.9,1.9,2V106.2z"/>
	<path class="st0" d="M-66.3,100.7c0,0.5,0,1,0.1,1.4c-0.1-0.2-0.3-0.5-0.4-0.7l-4.9-7.6h-1.6v9.9h1.3v-7c0-0.5,0-0.9-0.1-1.4h0
		c0.1,0.2,0.2,0.4,0.3,0.6l5,7.7h1.5v-9.9h-1.3V100.7z"/>
	<path class="st0" d="M-52.2,102.4c-0.5,0-0.8,0.4-0.8,0.8c0,0.2,0.1,0.4,0.2,0.6c0.2,0.2,0.4,0.2,0.6,0.2c0.2,0,0.4-0.1,0.6-0.2
		c0.3-0.3,0.3-0.8,0-1.2C-51.7,102.4-51.9,102.3-52.2,102.4z"/>
	<path class="st0" d="M-58.3,93.8c-1.3-0.1-2.6,0.5-3.5,1.4c-0.9,1.1-1.4,2.4-1.3,3.8c-0.1,1.3,0.4,2.6,1.3,3.6
		c0.9,0.9,2.1,1.4,3.4,1.4c1.3,0.1,2.6-0.5,3.5-1.4c0.9-1.1,1.4-2.4,1.3-3.8c0.1-1.3-0.4-2.6-1.3-3.6
		C-55.9,94.2-57.1,93.7-58.3,93.8z M-56,101.8c-0.6,0.7-1.5,1.1-2.5,1c-0.9,0-1.8-0.4-2.4-1.1c-0.6-0.8-1-1.8-0.9-2.9
		c0-1,0.3-2.1,0.9-2.9c0.6-0.7,1.5-1.1,2.5-1.1c0.9,0,1.8,0.3,2.4,1c0.6,0.8,0.9,1.9,0.9,2.9C-55,99.9-55.3,101-56,101.8z"/>
</g>
</svg>
