<?xml version="1.0" encoding="utf-8"?>
<!-- Generator: Adobe Illustrator 19.0.0, SVG Export Plug-In . SVG Version: 6.00 Build 0)  -->
<svg version="1.1" id="图层_1" xmlns="http://www.w3.org/2000/svg" xmlns:xlink="http://www.w3.org/1999/xlink" x="0px" y="0px"
	 viewBox="-356 6 28 29.9" style="enable-background:new -356 6 28 29.9;" xml:space="preserve">
<style type="text/css">
	.st0{fill:#999999;}
</style>
<path class="st0" d="M-333.6,36h-18.9c-2,0-3.6-1.6-3.6-3.6V11.7c0-2,1.6-3.6,3.6-3.6h14.6c0.6,0,1.1,0.5,1.1,1.1
	c0,0.6-0.5,1.3-1,1.3h-14.6c-0.7,0-1.2,0.5-1.2,1.2v20.8c0,0.7,0.5,1.2,1.2,1.2h18.9c0.6,0,0.7-0.3,0.7-0.9l0.1-17.2
	c0-0.6,0.6-1,1.2-1s1.2,0.5,1.2,1.1v17.1C-330.3,34.5-331.8,36-333.6,36L-333.6,36z"/>
<path class="st0" d="M-339.8,18.8c-0.3,0-0.6-0.2-0.9-0.4c-0.4-0.4-0.5-1.1,0-1.5L-330,6.3c0.4-0.4,1.2-0.4,1.6,0.1
	c0.4,0.4,0.4,1.1,0,1.5L-339,18.5C-339.2,18.7-339.5,18.8-339.8,18.8L-339.8,18.8z"/>
<path class="st0" d="M-344.1,18.9h-6.6c-0.6,0-1-0.6-1-1.2c0-0.6,0.5-1.1,1.1-1.1h6.4c0.6,0,1.1,0.5,1.1,1.1
	C-343.1,18.3-343.5,18.9-344.1,18.9L-344.1,18.9z"/>
<path class="st0" d="M-337.7,25.3h-12.8c-0.6,0-1.1-0.6-1.1-1.2c0-0.6,0.5-1.2,1.1-1.2h12.8c0.6,0,1,0.5,1,1.1
	C-336.7,24.6-337.2,25.3-337.7,25.3L-337.7,25.3z"/>
</svg>
