<?xml version="1.0" encoding="utf-8"?>
<!-- Generator: Adobe Illustrator 19.0.0, SVG Export Plug-In . SVG Version: 6.00 Build 0)  -->
<svg version="1.1" id="图层_1" xmlns="http://www.w3.org/2000/svg" xmlns:xlink="http://www.w3.org/1999/xlink" x="0px" y="0px"
	 viewBox="-280 372 50 50" style="enable-background:new -280 372 50 50;" xml:space="preserve">
<style type="text/css">
	.st0{fill:#5EACFF;}
	.st1{fill:#D4E2FC;}
	.st2{fill:#C2D5FF;}
</style>
<path class="st0" d="M-259.2,410.8c-1.8,0-3.3-1.5-3.3-3.3c0-1.8,1.5-3.3,3.3-3.3c1.8,0,3.3,1.5,3.3,3.3
	C-255.8,409.3-257.3,410.8-259.2,410.8z M-259.2,405.8c-0.9,0-1.7,0.8-1.7,1.7c0,0.9,0.8,1.7,1.7,1.7c0.9,0,1.7-0.8,1.7-1.7
	C-257.5,406.5-258.3,405.8-259.2,405.8z M-249.2,410.8c-1.8,0-3.3-1.5-3.3-3.3c0-1.8,1.5-3.3,3.3-3.3c1.8,0,3.3,1.5,3.3,3.3
	C-245.8,409.3-247.3,410.8-249.2,410.8z M-249.2,405.8c-0.9,0-1.7,0.8-1.7,1.7c0,0.9,0.8,1.7,1.7,1.7c0.9,0,1.7-0.8,1.7-1.7
	C-247.5,406.5-248.3,405.8-249.2,405.8z"/>
<path class="st0" d="M-251.7,408.3h-5c-0.5,0-0.8-0.4-0.8-0.8c0-0.5,0.4-0.8,0.8-0.8h5c0.5,0,0.8,0.4,0.8,0.8
	C-250.8,407.9-251.2,408.3-251.7,408.3z M-261.7,408.3c-0.4,0-0.8-0.3-0.8-0.8l-1.6-22.1h-3.4c-0.5,0-0.8-0.4-0.8-0.8
	s0.4-0.8,0.8-0.8h4.2c0.4,0,0.8,0.3,0.8,0.8l1.7,22.9C-260.8,407.8-261.1,408.3-261.7,408.3L-261.7,408.3z"/>
<path class="st1" d="M-260.4,403.3l17.5-1.2c0.3,0,0.5-0.2,0.6-0.5l2.8-12h-21.7"/>
<path class="st1" d="M-240.8,389.9l-2.4,10.4c0,0.3-0.3,0.4-0.5,0.4l-16.2,1.1c-0.3,0-0.5,0.3-0.5,0.6v0.2c0,0.3,0.3,0.5,0.6,0.5
	l16.9-1.1c0.3,0,0.5-0.2,0.5-0.4l2.7-11.4c0.1-0.3-0.2-0.7-0.5-0.7C-240.5,389.5-240.8,389.7-240.8,389.9z"/>
<path class="st0" d="M-262.1,402.4c-0.4,0-0.8-0.3-0.8-0.8c0-0.5,0.3-0.9,0.8-0.9l17.3-1.2l2.5-10.9h-20.6c-0.5,0-0.8-0.4-0.8-0.8
	c0-0.5,0.4-0.8,0.8-0.8h21.7c0.3,0,0.5,0.1,0.7,0.3c0.2,0.2,0.2,0.5,0.2,0.7l-2.9,12.5c-0.1,0.4-0.4,0.6-0.8,0.6L-262.1,402.4
	L-262.1,402.4z"/>
<path class="st0" d="M-255.4,399.1c-0.4,0-0.7-0.3-0.8-0.7l-1.3-7c-0.1-0.5,0.2-0.9,0.7-1c0.5-0.1,0.9,0.2,1,0.7l1.3,7
	c0.1,0.5-0.2,0.9-0.7,1C-255.3,399.1-255.4,399.1-255.4,399.1z M-250,399.1h-0.1c-0.5-0.1-0.8-0.5-0.7-1l1.3-7
	c0.1-0.5,0.5-0.8,1-0.7c0.5,0.1,0.8,0.5,0.7,1l-1.3,7C-249.3,398.8-249.6,399.1-250,399.1z M-275.9,387.5c-0.3,0-0.4-0.2-0.4-0.4
	v-0.8c0-0.3,0.2-0.4,0.4-0.4s0.4,0.2,0.4,0.4v0.8C-275.5,387.3-275.7,387.5-275.9,387.5z M-274,385.7h-0.8c-0.3,0-0.4-0.2-0.4-0.4
	s0.2-0.4,0.4-0.4h0.8c0.3,0,0.4,0.2,0.4,0.4S-273.8,385.7-274,385.7z M-275.9,384.5c-0.3,0-0.4-0.2-0.4-0.4v-0.8
	c0-0.3,0.2-0.4,0.4-0.4s0.4,0.2,0.4,0.4v0.8C-275.5,384.3-275.7,384.5-275.9,384.5z M-277,385.6h-0.8c-0.3,0-0.4-0.2-0.4-0.4
	s0.2-0.4,0.4-0.4h0.8c0.3,0,0.4,0.2,0.4,0.4S-276.8,385.6-277,385.6z M-235,395.6c-0.1,0-0.2,0-0.3-0.1c-0.2-0.2-0.2-0.4,0-0.6
	l0.5-0.5c0.2-0.2,0.4-0.2,0.6,0c0.2,0.2,0.2,0.4,0,0.6l-0.5,0.5C-234.8,395.6-235,395.6-235,395.6z M-232.4,395.7
	c-0.1,0-0.2,0-0.3-0.1l-0.5-0.5c-0.2-0.2-0.2-0.4,0-0.6c0.2-0.2,0.4-0.2,0.6,0l0.5,0.5c0.2,0.2,0.2,0.4,0,0.6
	C-232.2,395.6-232.3,395.7-232.4,395.7z M-232.9,393.5c-0.1,0-0.2,0-0.3-0.1c-0.2-0.2-0.2-0.4,0-0.6l0.5-0.5c0.2-0.2,0.4-0.2,0.6,0
	c0.2,0.2,0.2,0.4,0,0.6l-0.5,0.5C-232.7,393.5-232.8,393.5-232.9,393.5z M-234.5,393.5c-0.1,0-0.2,0-0.3-0.1l-0.5-0.5
	c-0.2-0.2-0.2-0.4,0-0.6c0.2-0.2,0.4-0.2,0.6,0l0.5,0.5c0.2,0.2,0.2,0.4,0,0.6C-234.3,393.5-234.4,393.5-234.5,393.5z M-272.4,395.8
	c-0.9,0-1.7-0.8-1.7-1.7s0.8-1.7,1.7-1.7s1.7,0.8,1.7,1.7S-271.5,395.8-272.4,395.8z M-272.4,393.3c-0.5,0-0.8,0.4-0.8,0.8
	s0.4,0.8,0.8,0.8s0.8-0.4,0.8-0.8S-271.9,393.3-272.4,393.3z"/>
<path class="st2" d="M-237.7,382.5h-2.5c-0.3,0-0.4-0.2-0.4-0.4s0.2-0.4,0.4-0.4h2.5c0.3,0,0.4,0.2,0.4,0.4
	S-237.5,382.5-237.7,382.5z"/>
<path class="st2" d="M-239,383.8c-0.3,0-0.4-0.2-0.4-0.4v-2.5c0-0.3,0.2-0.4,0.4-0.4s0.4,0.2,0.4,0.4v2.5
	C-238.5,383.6-238.7,383.8-239,383.8z"/>
<path class="st0" d="M-231.3,413.6h-8.3c-0.3,0-0.4-0.2-0.4-0.4s0.2-0.4,0.4-0.4h8.3c0.3,0,0.4,0.2,0.4,0.4
	S-231.1,413.6-231.3,413.6z"/>
<path class="st0" d="M-240.9,413.6h-0.6c-0.3,0-0.4-0.2-0.4-0.4s0.2-0.4,0.4-0.4h0.6c0.3,0,0.4,0.2,0.4,0.4
	S-240.7,413.6-240.9,413.6z"/>
<path class="st0" d="M-243.3,413.6h-2.6c-0.3,0-0.4-0.2-0.4-0.4s0.2-0.4,0.4-0.4h2.6c0.3,0,0.4,0.2,0.4,0.4
	S-243.1,413.6-243.3,413.6z"/>
<path class="st0" d="M-248.6,413.6h-18c-0.3,0-0.4-0.2-0.4-0.4s0.2-0.4,0.4-0.4h18c0.3,0,0.4,0.2,0.4,0.4S-248.4,413.6-248.6,413.6z
	"/>
<path class="st0" d="M-268.8,413.6h-8.1c-0.3,0-0.4-0.2-0.4-0.4s0.2-0.4,0.4-0.4h8.1c0.3,0,0.4,0.2,0.4,0.4
	S-268.6,413.6-268.8,413.6z"/>
</svg>
