<?xml version="1.0" encoding="utf-8"?>
<!-- Generator: Adobe Illustrator 19.0.0, SVG Export Plug-In . SVG Version: 6.00 Build 0)  -->
<svg version="1.1" id="图层_1" xmlns="http://www.w3.org/2000/svg" xmlns:xlink="http://www.w3.org/1999/xlink" x="0px" y="0px"
	 viewBox="-118 4 60 60" style="enable-background:new -118 4 60 60;" xml:space="preserve">
<style type="text/css">
	.st0{fill:#588FFF;}
</style>
<path class="st0" d="M-116.1,4h24c2.4,0.2,1.9,4.5,1.9,7.2v13.1c0,2.8,0.5,6.3-1.4,7.2c-1.3,0.5-4.6,0.2-6.2,0.2l-12.7,0
	c-2.9,0-7,0.7-7.4-1.8v-24C-117.7,5-117.1,4.3-116.1,4L-116.1,4L-116.1,4 M-112.8,9.4v17.1h17.3V9.2h-17.3
	C-112.8,9.2-112.8,9.3-112.8,9.4L-112.8,9.4L-112.8,9.4 M-83.9,4h24c1,0.4,1.7,1,1.9,2.1v23.4c-0.2,1-0.7,1.8-1.7,2.1
	c-1.6,0.4-4.2,0.1-6,0.1h-12.3c-1.9,0-4.6,0.4-6.1-0.1c-2.1-0.7-1.5-4.8-1.5-7.6V11.7C-85.7,8.4-86.5,4.5-83.9,4L-83.9,4L-83.9,4
	 M-80.6,9.4v17.1h17.3V9.2h-17.3C-80.6,9.2-80.6,9.3-80.6,9.4L-80.6,9.4L-80.6,9.4 M-104.9,14.4c2.4-0.5,4.3,1.2,4.4,3.3
	c0.1,2.9-2.9,4.4-5.2,3.3C-108.5,19.7-108.3,15.1-104.9,14.4L-104.9,14.4L-104.9,14.4 M-72.7,14.4c5.7-1,5.6,7.8,0,6.9
	C-76.2,20.8-76.3,15.1-72.7,14.4L-72.7,14.4L-72.7,14.4 M-92.3,64h-23.8c-1-0.3-1.7-0.9-1.9-1.9V38.1c0.2-0.7,0.8-1.5,1.6-1.8
	c1.6-0.4,4.2-0.1,6.1-0.1H-98c1.8,0,4.5-0.4,6.1,0.1c2.2,0.7,1.6,4.7,1.6,7.6v12.6C-90.3,59.7-89.6,63.7-92.3,64L-92.3,64L-92.3,64
	 M-112.8,41.7v17.1h17.3V41.5h-17.3C-112.8,41.5-112.8,41.6-112.8,41.7L-112.8,41.7L-112.8,41.7 M-58,38.5v6.7
	c-0.2,2.3,0,4.9-0.1,7.2h-17.2v-3.9c-1.6-0.2-3.6,0-5.3-0.1c-0.2,5,0,10.4-0.1,15.6l-3.1,0c-2.7-0.5-1.9-4.5-1.9-7.7V43.9
	c0-1.9-0.4-4.6,0.1-6.1c0.5-1.8,2.9-1.5,5.3-1.5h11.7v10.6h5.4c0.1-3.5-0.1-7.2,0.1-10.6C-60.6,36.2-58.2,36.2-58,38.5L-58,38.5
	L-58,38.5 M-104.5,46.6c2.6-0.3,4.7,2.2,3.7,4.9c-1.4,3.7-8,2.3-6.8-2.4C-107.3,47.8-106.3,46.8-104.5,46.6L-104.5,46.6L-104.5,46.6
	 M-69.5,64h-5.8c0.1-2-0.1-4.3,0.1-6.2h5.7V64L-69.5,64L-69.5,64 M-58,57.8v4.1c-0.2,1.1-0.9,1.8-1.9,2.1H-64c0.1-2-0.1-4.3,0.1-6.2
	H-58L-58,57.8L-58,57.8 M-58,57.8L-58,57.8z"/>
</svg>
