<?xml version="1.0" encoding="utf-8"?>
<!-- Generator: Adobe Illustrator 19.0.0, SVG Export Plug-In . SVG Version: 6.00 Build 0)  -->
<svg version="1.1" id="图层_1" xmlns="http://www.w3.org/2000/svg" xmlns:xlink="http://www.w3.org/1999/xlink" x="0px" y="0px"
	 viewBox="-75.9 24.4 17.8 17.8" style="enable-background:new -75.9 24.4 17.8 17.8;" xml:space="preserve">
<style type="text/css">
	.st0{fill:url(#SVGID_1_);}
	.st1{fill:#FFFFFF;}
	.st2{fill:#DFFF99;}
</style>
<linearGradient id="SVGID_1_" gradientUnits="userSpaceOnUse" x1="-74.676" y1="28.8528" x2="-59.3015" y2="37.7293">
	<stop  offset="2.067916e-006" style="stop-color:#02CD8B"/>
	<stop  offset="1" style="stop-color:#B4E658"/>
</linearGradient>
<circle class="st0" cx="-67" cy="33.3" r="8.9"/>
<circle class="st1" cx="-68.6" cy="40.1" r="0.3"/>
<circle class="st1" cx="-60" cy="34.4" r="0.3"/>
<circle class="st1" cx="-72" cy="28.9" r="0.4"/>
<path class="st1" d="M-61.9,33.1c0,0,0,0.1-0.1,0.2c0,0,0.2,0.1,0.4-0.2C-61.6,33.1-61.8,33.2-61.9,33.1z M-62.2,32.9
	c0,0-0.1-0.2,0.1-0.3c0,0-0.4-0.1-0.4,0.4C-62.5,33.1-62.3,33-62.2,32.9z M-62,32.7c0,0.4-0.4,0.5-0.6,0.6c-0.3-1.4-1.6-2.6-3.3-3
	c0.3-0.3,0.5-0.8,0.5-1.3c0-1-0.8-1.8-1.8-1.8S-69,28-69,29c0,0.5,0.2,0.9,0.5,1.2c-0.5,0.1-1,0.3-1.4,0.5c-0.2-0.1-0.5-0.3-0.6-0.6
	c0,0-0.5,0.3-0.1,1.1c-0.6,0.5-1.1,1.2-1.2,1.9h-0.3c-0.2,0-0.3,0.1-0.3,0.3l0,0V35c0,0.2,0.1,0.3,0.3,0.3h0h0.6
	c0.4,0.7,1,1.3,1.7,1.7c0,0.1,0,0.2,0,0.2c0,0.5,0.4,1,0.8,1c0.4,0,0.7-0.3,0.8-0.7c0.3,0.1,0.7,0.1,1,0.1c0.4,0,0.7,0,1.1-0.1
	c0.2,0.5,0.6,0.8,1.1,0.7c0,0,0.1,0,0.1,0c0,0,0.1,0,0.1-0.1c0,0,0,0,0,0l0,0c0.3-0.2,0.4-0.7,0.3-1.2c0,0,0,0,0,0
	c1.2-0.7,2-1.8,2-3.1c0-0.1,0-0.1,0-0.2C-61.6,33.3-62,32.7-62,32.7z M-70.4,33c-0.2,0-0.4-0.2-0.4-0.4c0-0.2,0.2-0.4,0.4-0.4
	s0.4,0.2,0.4,0.4C-70,32.8-70.2,33-70.4,33z M-67.2,30.2c-0.7,0-1.2-0.6-1.2-1.2c0-0.7,0.6-1.2,1.2-1.2c0.7,0,1.2,0.6,1.2,1.2
	C-66,29.7-66.5,30.2-67.2,30.2z M-66.8,28.2l-0.3,0.6c0,0,0,0.1-0.1,0.1h0c0,0,0-0.1-0.1-0.1l-0.3-0.6h-0.3l0.4,0.8h-0.4v0.2h0.4
	v0.2h-0.4v0.2h0.4v0.4h0.2v-0.4h0.4v-0.2h-0.4v-0.2h0.4V29H-67l0.4-0.8H-66.8z"/>
<path class="st2" d="M-61.9,33.1c0,0,0,0.1-0.1,0.2c0,0,0.2,0.1,0.4-0.2C-61.6,33.1-61.8,33.2-61.9,33.1z M-71.6,35.3
	c0.4,0.7,1,1.3,1.7,1.7c0,0.1,0,0.2,0,0.2c0,0.5,0.4,1,0.8,1c0.4,0,0.7-0.3,0.8-0.7c0.3,0.1,0.7,0.1,1,0.1c0.4,0,0.7,0,1.1-0.1
	c0.2,0.5,0.6,0.8,1.1,0.7c0,0,0.1,0,0.1,0c0,0,0.1,0,0.1-0.1c0,0,0,0,0,0l0,0c0.3-0.2,0.4-0.7,0.3-1.2c0,0,0,0,0,0
	c1.2-0.7,2-1.8,2-3.1c0-0.1,0-0.1,0-0.2c0.9-0.3,0.6-1,0.6-1C-62,33.1-65.4,38.8-71.6,35.3"/>
</svg>
