<?xml version="1.0" encoding="utf-8"?>
<!-- Generator: Adobe Illustrator 19.0.0, SVG Export Plug-In . SVG Version: 6.00 Build 0)  -->
<svg version="1.1" id="图层_1" xmlns="http://www.w3.org/2000/svg" xmlns:xlink="http://www.w3.org/1999/xlink" x="0px" y="0px"
	 viewBox="-75 77 48 48" style="enable-background:new -75 77 48 48;" xml:space="preserve">
<style type="text/css">
	.st0{fill:#565656;}
</style>
<path class="st0" d="M-63.7,77c3.1,0,6,1.3,8,3.3c0,0,0,0,0.1,0.1c2,2,3.2,4.8,3.2,7.9v10c0,0.7-0.6,1.2-1.2,1.2c0,0,0,0,0,0h-10.1
	c-3.1,0-5.9-1.3-8-3.3l0,0l0,0c-2-2-3.3-4.9-3.3-8c0-3.1,1.3-5.9,3.3-8C-69.6,78.3-66.8,77-63.7,77z M-57.5,82.1
	c-1.7-1.7-3.9-2.6-6.2-2.6c-2.3,0-4.6,0.9-6.2,2.6c-1.6,1.6-2.6,3.8-2.6,6.2c0,2.4,1,4.6,2.6,6.2v0c1.7,1.7,3.9,2.6,6.2,2.6h8.8
	v-8.8C-54.9,85.9-55.8,83.7-57.5,82.1L-57.5,82.1z M-41.8,104.8c-0.7,0-1.2-0.6-1.2-1.2c0-0.7,0.6-1.2,1.2-1.2h3.4
	c3.1,0,6,1.3,8,3.3c0,0,0,0,0.1,0.1c2,2,3.2,4.8,3.2,7.9c0,3.1-1.3,5.9-3.3,8l0,0c-2,2-4.9,3.3-8,3.3c-3.1,0-5.9-1.3-8-3.3l0,0l0,0
	c-2-2-3.3-4.9-3.3-8v-10c0-0.7,0.6-1.2,1.2-1.2c0.7,0,1.2,0.6,1.2,1.2v10c0,2.4,1,4.6,2.6,6.2v0c1.6,1.6,3.8,2.6,6.2,2.6
	s4.6-1,6.2-2.6c1.7-1.7,2.6-3.9,2.6-6.2c0-2.4-1-4.6-2.5-6.2l-0.1-0.1c-1.7-1.7-3.9-2.6-6.2-2.6C-38.4,104.8-41.8,104.8-41.8,104.8z
	 M-63.7,122.4c2.4,0,4.6-1,6.2-2.6c1.7-1.7,2.6-3.9,2.6-6.2v-8.8h-8.8c-2.3,0-4.6,0.9-6.2,2.6c-1.6,1.6-2.6,3.8-2.6,6.2
	c0,2.4,1,4.6,2.6,6.2l0.1,0.1C-68.2,121.5-66,122.4-63.7,122.4z M-55.7,121.6c-2,2-4.9,3.3-8,3.3c-3.1,0-5.9-1.2-7.9-3.2
	c0,0,0,0-0.1-0.1c-2-2-3.3-4.9-3.3-8c0-3.1,1.3-5.9,3.3-8c2-2,4.9-3.3,8-3.3h10.1c0.7,0,1.2,0.6,1.2,1.2v10
	C-52.4,116.7-53.6,119.5-55.7,121.6C-55.7,121.6-55.7,121.6-55.7,121.6z M-38.4,79.5c-2.3,0-4.6,0.9-6.2,2.6
	c-1.6,1.6-2.6,3.8-2.6,6.2v8.8h8.8c2.4,0,4.6-1,6.2-2.6c1.6-1.6,2.6-3.8,2.6-6.2s-1-4.6-2.6-6.2h0C-33.8,80.4-36,79.5-38.4,79.5z
	 M-46.4,80.3c2-2,4.9-3.3,8-3.3c3.1,0,6,1.3,8,3.3l0,0l0,0c2,2,3.3,4.9,3.3,8c0,3.1-1.3,5.9-3.3,8l0,0c-2,2-4.9,3.3-8,3.3h-10.1
	c-0.7,0-1.2-0.6-1.2-1.2v-10C-49.7,85.2-48.4,82.4-46.4,80.3z"/>
</svg>
