<?xml version="1.0" encoding="utf-8"?>
<!-- Generator: Adobe Illustrator 19.0.0, SVG Export Plug-In . SVG Version: 6.00 Build 0)  -->
<svg version="1.1" id="图层_1" xmlns="http://www.w3.org/2000/svg" xmlns:xlink="http://www.w3.org/1999/xlink" x="0px" y="0px"
	 viewBox="-289 381 32 32" style="enable-background:new -289 381 32 32;" xml:space="preserve">
<style type="text/css">
	.st0{fill:#999999;}
</style>
<path class="st0" d="M-280.1,392.8c-1,0-1.8,0.8-1.8,1.8s0.8,1.8,1.8,1.8s1.8-0.8,1.8-1.8C-278.3,393.6-279.1,392.8-280.1,392.8z
	 M-273,392.8c-1,0-1.8,0.8-1.8,1.8s0.8,1.8,1.8,1.8c1,0,1.8-0.8,1.8-1.8C-271.3,393.6-272.1,392.8-273,392.8z M-266,392.8
	c-1,0-1.8,0.8-1.8,1.8s0.8,1.8,1.8,1.8s1.8-0.8,1.8-1.8C-264.3,393.6-265,392.8-266,392.8z M-262.5,383.7h-21.1
	c-1.9,0-3.5,1.6-3.5,3.6V401c0,2,1.6,3.9,3.6,3.9h5.3c0.9,1,4.8,5,4.8,5c0.2,0.2,0.4,0.2,0.6,0c0,0,2.8-3.2,4.7-5h5.5
	c2,0,3.6-1.9,3.6-3.9v-13.7C-259,385.3-260.6,383.7-262.5,383.7z M-260.7,401c0,1-0.8,2.1-1.8,2.1h-5.4c-0.7,0-1.2,0.7-1.2,0.7
	l-3.8,3.9l-3.8-3.9c0,0-0.7-0.7-1.3-0.7h-5.4c-1,0-1.8-1.1-1.8-2.1v-13.7c0-1,0.8-1.8,1.8-1.8h21.1c1,0,1.8,0.8,1.8,1.8V401z"/>
</svg>
