<?xml version="1.0" encoding="utf-8"?>
<!-- Generator: Adobe Illustrator 19.0.0, SVG Export Plug-In . SVG Version: 6.00 Build 0)  -->
<svg version="1.1" id="图层_1" xmlns="http://www.w3.org/2000/svg" xmlns:xlink="http://www.w3.org/1999/xlink" x="0px" y="0px"
	 viewBox="0 0 32 32" style="enable-background:new 0 0 32 32;" xml:space="preserve">
<style type="text/css">
	.st0{fill:#C7DBFF;}
	.st1{font-family:'PingFang-SC-Medium';}
	.st2{font-size:5.0704px;}
</style>
<path class="st0" d="M13.3,28c-0.1,0-0.2-0.1-0.3-0.1c0.1-0.2,0.4-0.1,0-0.2c0,0.2-0.1,0.3-0.1,0.4c0,0-0.2,0.1-0.1,0.1
	c0.2-0.1,0.2,0.1,0.4,0.1C13.2,28.1,13.2,28,13.3,28c0,0.1,0,0.2,0,0.3c0.1,0.1,0.1,0.2,0.4,0.1c0.1-0.1-0.1,0-0.1-0.1
	c0.2,0,0.6-0.1,0.5,0.1v-0.1c-0.1,0.1-0.1,0.1-0.2,0.2c0.3,0,0.6,0.1,0.7-0.1v0.2c0.1,0,0.1-0.3,0.1-0.4c0.1-0.1,0.1,0.1,0.1,0
	c-0.1-0.1-0.1-0.1,0-0.2c-0.2-0.1-0.4-0.1-0.7,0c0-0.1-0.1-0.1-0.2-0.1c0,0.1,0.1,0.1,0,0.1s-0.1-0.1-0.1-0.1
	c-0.1,0.1-0.3,0.1-0.4,0C13.3,27.8,13.3,27.9,13.3,28z M12.2,28c0.1,0,0.2,0,0.3,0.1c-0.1-0.1,0.1-0.2,0.1-0.3
	c0.1,0-0.1,0.2,0.1,0.1c0.1-0.1-0.1-0.1-0.1-0.2h0.1v-0.2c-0.1,0-0.2,0.1-0.3,0.1c0.1-0.1,0-0.1,0-0.1c-0.6-0.1-1.1-0.3-1.6-0.5V27
	c0-0.1-0.2,0-0.1-0.1c-0.1,0-0.2,0.1-0.3-0.1c0,0,0.1,0.1,0,0.1c0,0-0.1,0.1-0.1,0s0.1,0,0.1-0.1c-0.1-0.1-0.3-0.3-0.6-0.3
	c0,0.1-0.1,0.1-0.1,0.1c0-0.1,0.1-0.1,0.1-0.2c-0.2-0.1-0.4-0.3-0.6-0.4L9,26.2c-0.1-0.1-0.1-0.1-0.2-0.1c0.1-0.3-0.4-0.4-0.6-0.5
	c0.1-0.2-0.2-0.1-0.1-0.3c-0.1-0.1-0.1,0.1-0.1,0.1c0-0.1-0.1,0-0.1-0.1c-0.1-0.1-0.1,0.1-0.1,0.1c0.1,0,0.1-0.1,0.1,0
	c-0.1,0.1,0,0.4-0.1,0.4c0.1-0.1-0.1-0.1-0.1-0.1v-0.1h0.2c-0.1-0.1-0.1-0.2,0-0.3c0,0.1,0,0.1,0,0c0-0.1-0.1,0.1-0.2,0.1
	c-0.1,0.1,0.1,0.1,0,0.1c0,0,0-0.1-0.1-0.1c-0.1,0.1-0.1,0.2-0.1,0.4c0.2,0,0.2,0.1,0.4,0.2c0-0.1,0-0.1,0.1-0.1v0.2
	c0.4,0.2,0.7,0.5,1.1,0.7c0.1-0.3,0.3,0.1,0.4-0.1c0,0.1,0.1,0.1,0.1,0.1c-0.1,0-0.1,0.1-0.1,0.2c0.3-0.1,0.4,0.1,0.5,0.2
	c0.1-0.1-0.1-0.1,0-0.2c0.1,0.1,0.1,0.1,0.1,0.3c0.3,0.1,0.5,0.1,0.8,0.3c0.1-0.1-0.1-0.1-0.1-0.3c0.1-0.1,0,0.1,0.1,0.1
	c0.1-0.1,0.1-0.1,0.1-0.3c0.1,0.1,0.3,0.2,0.1,0.4c0,0,0-0.1-0.1-0.1c0,0.1,0.1,0.2,0.1,0.3c0.3-0.1,0.3,0.1,0.5,0.1
	c0-0.1,0.1-0.1,0.1-0.2c0,0,0.1,0.1,0.1,0.2h0.2c-0.1,0.1,0,0.1,0,0.2C11.8,27.9,11.9,27.9,12.2,28C12.1,28,12.1,28,12.2,28z
	 M20.6,24c0.1-0.1,0.1-0.1,0.2-0.2c0.1-0.1-0.1,0.1-0.1-0.1c0.2,0.1,0.3,0,0.3-0.1c0.1,0,0,0.1,0,0.1c0.1,0,0.1-0.2,0.4-0.1
	c0.1-0.1-0.1-0.1,0-0.2c0,0,0.1,0.1,0.1,0.1l0,0v0c0,0,0.1-0.1,0.1-0.1h0.1v-0.1c0,0,0.1,0,0.1,0V23c0.4-0.1,0.5-0.5,0.8-0.7
	c0-0.3,0.3-0.3,0.3-0.6h0.1c0-0.1,0.1-0.4,0-0.5c0.2,0.1,0.3-0.1,0.4-0.1c0.5-0.9,0.8-1.6,1.1-2.7c-0.2-0.1-0.2,0.2-0.4,0.1
	c-0.3,1.3-0.6,1.9-1.3,2.7c0,0.1,0.1,0.4,0,0.5c-0.1-0.1-0.1-0.1-0.3-0.1c-0.6,0.7-1.2,1.4-2,1.9v0.1c-0.3-0.1-0.5,0.1-0.6,0.4
	c-0.5,0.1-0.8,0.5-1.4,0.6c0,0.1,0.1,0.1,0,0.1c-0.1-0.1-0.5,0-0.6,0.2c-0.1,0,0.1-0.2-0.1-0.1c-0.2,0.1-0.6,0.1-0.7,0.3
	c-0.1-0.1-0.2,0-0.3,0.1c-0.4-0.1-1,0.1-1.6,0.1c0,0,0,0.1-0.1,0.1c0-0.1,0.1-0.1,0.1-0.1c-0.4,0-0.7-0.1-1,0.1v-0.1
	c-0.2,0-0.4,0-0.5-0.1c-0.1,0.1-0.1,0.1-0.1,0.2c0-0.1-0.1-0.1-0.1-0.1c0.1,0,0.1-0.1,0.1-0.1c-0.2,0-0.4-0.1-0.5-0.1
	c0,0.1,0.1,0.1,0,0.1c-0.1-0.1-0.4-0.2-0.5-0.3c0,0.1,0.1,0.1,0,0.1c0,0-0.1,0.1-0.1,0c0,0,0.1,0,0.1-0.1c-0.2,0-0.4-0.1-0.6-0.1
	c-0.1,0,0,0.1-0.1,0.1c0,0-0.1,0.1-0.1,0c0.1,0,0.1,0,0.1-0.1c-0.1-0.1-0.3,0.1-0.4,0c0-0.1,0.2,0.1,0.1-0.1c-0.4-0.1-0.6-0.4-1-0.5
	c0,0.1-0.1,0.1-0.1,0.1c-0.1-0.1,0.1-0.1,0.1-0.2c-0.5-0.3-0.9-0.6-1.3-0.9c0,0.1,0,0.1-0.1,0.1c-0.1,0.1,0.1,0,0.1,0.1
	c0.1,0,0-0.1,0.1-0.1c0.1,0.1-0.1,0.1-0.1,0.3c0.1-0.1,0.1,0.1,0.2,0.1c0-0.1,0.1-0.2,0.1-0.3c-0.1,0.1,0,0.2,0,0.3H9.6
	c0.1,0.1,0.2,0.2,0.4,0.3c0.1-0.1-0.1,0-0.1-0.1h0.1c0,0.1,0.1,0.2,0.1,0.3c0.1,0,0.1-0.1,0.1-0.1c0.1,0.2,0.4,0.4,0.8,0.4
	c-0.1,0.1,0,0.1,0,0.1c0.1,0,0.2,0.1,0.3,0.1c0-0.1,0.1-0.1,0.2-0.1c-0.1,0-0.1,0.1-0.1,0.2c0.1,0,0.3,0,0.4,0.1
	c0.1,0.1,0-0.1,0.1-0.1c-0.1,0.1,0.1,0,0.1,0.1c0.6,0.1,1.4,0.6,2.1,0.4c0.1,0,0,0.1,0.1,0.1s0.1-0.1,0.2-0.1v0.1
	c0.2-0.1,0.4,0,0.6,0.1c-0.1-0.1,0.1-0.1,0.1-0.2c-0.1,0-0.1,0.1-0.2,0c0.1-0.1,0.1-0.1,0.2-0.1c0,0.1,0.1,0,0.1,0.1v0.1
	c-0.1,0-0.1,0-0.1,0.1c0.4,0,0.8-0.1,1.3-0.1c0-0.1-0.1-0.1,0-0.1v0.1c0.1-0.1,0.5-0.1,0.6-0.2c0,0,0,0.1,0.1,0.1
	c0.6-0.2,1.3-0.3,1.7-0.6c0.2,0,0.6-0.1,0.6-0.3c0,0,0,0.1,0.1,0.1C19.9,24.3,20.3,24.2,20.6,24C20.6,24,20.6,24,20.6,24z
	 M15.6,28.2c0.4,0,0.7-0.1,0.9,0c0.2,0,0.5-0.1,0.8-0.1c0,0,0,0.1,0,0.1h0.1c0-0.1,0-0.1,0-0.2c0.1,0,0.1-0.1,0.2-0.1
	c0.1,0.1-0.1,0.1-0.1,0.1c0.2-0.1,0.5-0.1,0.6-0.2c0.1,0,0.1,0,0.1,0.1c0.1,0,0.1-0.1,0.3-0.1c0,0.1,0,0.1,0.1,0.1
	c0.1-0.1,0.2-0.1,0.4-0.1c0-0.1-0.1-0.2,0-0.2c0.1,0.2,0.3,0.1,0.4,0.1c0,0-0.1-0.1-0.1-0.1h0.1v0.1c0,0,0,0,0,0
	c0.1,0,0.2,0,0.3-0.1c0,0,0,0,0.1,0c0,0,0,0,0,0c0.3-0.1,0.5-0.2,0.7-0.3c0,0.1,0.1,0.1,0.1,0v-0.1c0.2-0.1,0.5-0.2,0.7-0.4v0h0.2
	c0-0.1,0.1-0.2,0-0.1c0,0,0,0-0.1,0c0.1,0,0.1-0.1,0.2-0.1c0-0.1,0-0.1,0,0c0,0,0.1,0,0.1-0.1c0.1,0,0.2-0.1,0.3-0.2
	c0-0.1-0.1-0.1,0-0.2c0,0.1,0,0.1,0.1,0.1c0.5-0.2,0.8-0.6,1.3-0.8c0.1-0.1-0.1,0-0.1-0.1c0.1-0.1,0,0.1,0.1,0.1
	c0-0.1-0.1-0.2,0-0.2s-0.1,0.2,0.1,0.1c0.4-0.6,1.1-0.9,1.4-1.6c-0.1,0-0.1,0.1-0.1,0c0.1,0,0.1-0.1,0.1-0.1v0.1
	c0.2-0.1,0.3-0.4,0.4-0.6c0.1-0.1,0.1-0.1,0.2-0.1c0.1-0.1,0-0.2,0.1-0.3c0.1-0.1,0.2-0.1,0.3-0.2c0.1-0.1,0.1-0.3,0.1-0.4
	c0-0.1,0.1,0,0.1-0.1V22l0.2-0.2c0.1-0.2,0.1-0.5,0.2-0.6c0.1,0,0.1,0,0.1-0.1s-0.1-0.2,0-0.3c0-0.1,0.1-0.1,0.1-0.1v-0.2
	c0,0,0.1,0,0.1-0.1v-0.2c0,0,0.1-0.1,0.1-0.1c0-0.2,0-0.4,0.1-0.6c0,0,0.1-0.1,0.1-0.1c0.1-0.4,0.1-0.9,0.2-1.3l-0.6-0.1
	c-0.3,1.6-0.7,3-1.6,3.9c-0.1,0.1,0.1,0,0.1,0.1c-0.1,0-0.1,0.1-0.2,0.1c-0.1,0.2-0.1,0.4-0.1,0.7l-0.1-0.1c0.1,0,0.1,0,0.1-0.1
	c-0.1,0.2-0.3,0.4-0.4,0.6c-0.1,0.1,0.1,0.1,0.1,0.2c0,0-0.1,0-0.1-0.1c-0.1,0.1-0.3,0.3-0.3,0.5c-0.1,0.1-0.1,0-0.1,0
	c0,0.1,0,0.2-0.2,0.2c-0.1,0.3-0.6,0.5-0.5,0.8l-0.1-0.1v0.1c-0.5,0.1-0.7,0.6-1.2,0.8c0,0.1,0.1,0.1,0.1,0.1
	c-0.1-0.1-0.2,0.1-0.4,0.1v0.1c-0.7,0.4-1.4,0.7-2.1,1.1c-0.1-0.1-0.4,0.1-0.5,0.2c0,0,0-0.1-0.1-0.1c-0.3,0.2-0.8,0.3-1.2,0.4
	c-0.1,0.1,0.1,0.1,0.1,0.2c-0.1,0-0.1,0.1-0.2,0c0.1,0,0.1,0,0.1-0.1c-0.1,0.1,0-0.1-0.1-0.1c-0.2,0.1-0.7,0-0.8,0.2
	c-0.1-0.1-0.5,0-0.6,0c0.1,0.1-0.1,0.1,0,0.4c0.1,0,0.1-0.1,0.1,0s0.1,0.1,0,0.1c0,0-0.1,0-0.1-0.1c-0.1-0.1,0,0.1-0.1,0.1
	c0.1-0.1-0.1-0.1-0.1-0.1c-0.1-0.1,0.1-0.1,0.1-0.1c-0.2,0-0.1,0.4-0.4,0.2c0-0.1-0.1-0.1,0-0.1c0.1-0.1,0,0.2,0.1,0.1v-0.4
	c-0.1-0.1-0.2,0.1-0.3,0c0,0.1-0.3,0.1-0.4,0.1c0,0.1,0.1,0.2,0,0.2c-0.1-0.2-0.1,0.1-0.1,0.1c-0.1-0.1,0.1-0.1,0.1-0.3h-0.4
	c0,0.1,0.2,0.1,0.2,0.1c0,0,0,0.1-0.1,0.1s0-0.1-0.1-0.1c0.1,0.1,0.1,0.2,0,0.4c0.1,0,0.2,0,0.4,0c0,0-0.1,0.1-0.1,0.1
	c0,0.1,0,0.1,0.1,0.1C15.4,28.3,15.6,28.3,15.6,28.2z M15.6,28.2L15.6,28.2L15.6,28.2z M24.2,7.9c0,0.2,0.4,0.2,0.2,0.3
	c0.1,0,0.1-0.1,0.2,0c0,0-0.1-0.1,0-0.1c0.1,0.1,0.1,0,0.1,0c0,0.1,0.1,0.1,0.1,0.4h-0.1v0.1c0.1,0,0.1,0,0.3-0.1
	c0,0.1-0.1,0.1-0.2,0.1C25,8.8,24.9,8.8,25,9l0.7-0.2c-0.1,0-0.1,0.1-0.1,0V8.6c-0.1-0.1-0.2-0.2-0.3-0.4c-0.1-0.1-0.1,0.1-0.1,0
	c0,0,0.1,0,0.1-0.1c-0.1-0.1-0.1-0.1-0.1-0.1c-0.1-0.1-0.1,0.1-0.2,0H25c0-0.1-0.1-0.1-0.1-0.3h-0.2V7.6c-0.6-0.3-0.6-1-1.4-1
	c0,0,0.1,0.1,0,0.1c0.1-0.1-0.1-0.2,0-0.3c0.1,0.1,0.1-0.1,0.2,0.1c0-0.2-0.3-0.4-0.5-0.3c0,0.1,0.1,0,0.1,0.1
	c-0.1,0.2-0.3,0.6,0,0.6c0.1,0.1,0-0.1,0.1-0.1c0.1,0.1-0.1,0-0.1,0.1c0.3,0.2,0.4,0.6,0.9,0.6c0,0.1-0.2-0.1-0.1,0.1
	c0.1,0,0.1,0.1,0.1,0.2C24.1,7.9,24.2,7.9,24.2,7.9C24.2,7.9,24.2,7.9,24.2,7.9z M4.4,11c0.1-0.1,0-0.3,0.2-0.3
	c0-0.1-0.1-0.1-0.1-0.2c0,0.1,0.1,0,0.1,0.1c0.1,0.1,0-0.1,0.1-0.1l0.1,0.1c-0.1,0-0.1,0.1-0.2,0.1c0.1,0.1-0.1,0.1-0.1,0.2
	c0.1,0,0.1,0.1,0.2,0.1c0.1-0.1-0.1,0-0.1-0.1c0.1,0.1,0-0.1,0.1-0.1c0,0,0,0.1,0.1,0.1C5,10,5.4,9.3,6,8.8V8.6h0.1
	c0-0.4,0.4-0.3,0.4-0.6h0.1C6.8,7.7,7,7.5,7.2,7.4c0.3-0.2,0.4-0.5,0.7-0.6C8,6.6,8,6.6,8.1,6.5c0.2,0.1,0.1-0.1,0.4-0.1
	c0.3-0.4,1-0.6,1.4-1c1.1-0.4,2-0.9,3.3-1.1c0.1-0.1-0.1-0.1,0-0.1c0.8,0.1,2-0.1,3.1-0.1c0-0.1,0-0.1,0.1-0.1
	c-0.1,0.1,0.1,0.1,0.1,0.1c0.3-0.1,0.6,0.1,0.7,0c0.1,0.1,0.6,0.3,0.6,0v0.2c0.1,0,0.3,0,0.4,0.1c0.1-0.1-0.1-0.1-0.1-0.2
	c0.1,0.1,0-0.1,0.1-0.1c0.1,0.1-0.1,0-0.1,0.1c0.1,0,0.1,0.1,0.1,0.1c0.3,0,0.6,0.1,0.8,0.2c0,0,0-0.1,0.1-0.1
	c-0.1-0.1,0.1-0.1-0.1-0.3h0.1c0,0.1,0,0.1,0.1,0.1c-0.1,0.1-0.1,0.1-0.1,0.4c0.1,0.1,0-0.1,0.1-0.1c0,0,0.1-0.1,0.1,0
	c0,0-0.1,0-0.1,0.1c0.1,0,0.1,0,0.1,0.1c0.1,0.1,0.1-0.1,0.1-0.1v0.1c1.1,0.4,2,1,2.9,1.6c0-0.1,0.1-0.1,0.2-0.1
	c-0.1,0,0,0.1-0.1,0.1c0,0,0-0.1-0.1-0.1c0,0.1,0.1,0.1,0.2,0.1c0.1-0.2,0.1-0.5,0.1-0.7c-0.2,0.1-0.2-0.2-0.4-0.1
	c0.1-0.1,0-0.1,0-0.1c-0.8-0.4-1.5-0.8-2.3-1.2c-0.1,0,0,0.1-0.1,0.1V4.2c-0.4,0-0.6-0.4-0.9-0.2C19,4,19,4,19,4.1
	c-0.1,0.1-0.3,0.1-0.4,0.1c0-0.1,0.1-0.1,0.1-0.2c0.1-0.1-0.1,0.1,0.1,0.1c0-0.1,0.1,0,0.1-0.1c-0.5-0.1-1-0.3-1.6-0.4
	c0,0.1,0,0.1-0.1,0.1c0.1-0.1-0.1-0.1-0.3-0.1c0,0.1-0.1,0.1-0.2,0.1V3.5c-0.4-0.1-0.6,0.2-0.7-0.1c-0.2,0.1-0.2,0-0.4,0.1
	c-0.2-0.1-0.7,0-1.1,0.1c0,0.1-0.2,0.1-0.1,0.2c0,0-0.1,0-0.1,0v0l0,0c0,0,0,0,0,0c0-0.1,0.1-0.1,0.1-0.1c-0.6-0.1-0.8,0.1-1.3,0.1
	c0.1,0.1-0.1,0.1-0.1,0.1C12.5,3.8,12,4,11.7,4.1c-0.1,0.1,0-0.1-0.1-0.1c-0.3,0.1-0.6,0.1-0.8,0.3c0,0.1,0.1,0.1,0,0.1
	c-0.1-0.2-0.3,0-0.4,0c0,0.1,0.1,0.2,0,0.2s0.1-0.3-0.1-0.2l-0.1,0.1c-1.9,0.8-3.3,2-4.5,3.4c0,0.1,0.1,0.1,0.1,0.1
	c-0.1-0.1,0,0.1-0.1,0.1c0-0.1,0.1-0.1-0.1-0.1c0-0.1,0.1,0.1,0,0.1c-0.1,0,0.1-0.1-0.1,0.1C5.4,8.4,5.3,8.4,5.3,8.5v0.1
	c-0.1,0-0.1,0-0.2,0.1c0,0.1,0,0.2-0.1,0.3C5,9.1,5,9,4.9,9.2L4.7,9.2c0,0.1,0,0.2-0.1,0.3c0.1,0.1,0-0.2,0.1-0.1
	c0,0.1-0.1,0.2-0.1,0.4c0,0,0,0.1,0,0.1h0C4.7,9.9,4.7,10,4.7,10c0.2-0.1,0.1-0.1,0.1-0.2H4.5c-0.1,0.3-0.2,0.6-0.4,0.8
	c0.1,0,0.1,0.2,0,0.3c0,0,0-0.1-0.1-0.1c0,0,0,0.1,0.1,0.1c-0.1,0-0.1,0.4-0.3,0.3C3.9,11.1,3.9,11,4,10.8H3.8
	c0,0.1,0.1,0.3-0.1,0.3c0,0.1,0.1,0.1,0.1,0.2H3.6c0.1,0.1-0.1,0.1-0.1,0.2c0.1-0.1,0.1,0.1,0.2,0.1c0.1-0.1,0-0.2,0.1-0.2
	c-0.1,0.2-0.1,0.3,0,0.5c-0.1,0-0.2,0.1-0.2,0c-0.1-0.1,0.1-0.1,0.1-0.1c-0.2,0.1-0.1-0.1-0.3-0.1c0.1,0.3-0.1,0.4,0,0.6H3.3
	c0,0.5-0.2,0.8-0.3,1.3c-0.1,0.5,0,0.6-0.1,1.1h0.6c0-1.3,0.4-2.1,0.7-3.1c0,0-0.1-0.1,0-0.2c0.1,0-0.1,0.3,0.1,0.2
	c-0.1-0.4,0.1-0.4,0.1-0.6C4.4,11.1,4.4,11.1,4.4,11z M4.3,11c-0.1,0-0.2,0-0.2-0.1v0.2C4.2,11.2,4.3,11.1,4.3,11z M15.8,6.4H16v0.1
	c0.1,0,0.2-0.1,0.3-0.1c0.4,0.1,0.5,0.1,1,0.1v0.3c0.1,0,0-0.2,0.2-0.1c0,0.1-0.1,0.1-0.1,0.2c-0.3,0.1-0.3-0.1-0.6-0.1
	c0-0.1,0.1-0.1,0.2-0.1V6.7c-0.1-0.1-0.4,0-0.3,0.1c-0.1-0.1-0.4,0-0.5-0.1c-0.1,0.1-0.2,0-0.4,0C15.8,6.5,15.9,6.5,15.8,6.4z
	 M21.1,8.5c0.1,0.1,0.2,0.1,0.4,0.1c0,0.1-0.1,0.1-0.1,0.2C21.4,8.7,21.1,8.7,21.1,8.5C21,8.5,21.2,8.6,21.1,8.5z M22,9.3h0.2
	c0,0.1,0,0.1,0.1,0.1c-0.1,0.1-0.1,0.1-0.2,0.1C22,9.5,22,9.5,22,9.3z M22.3,9.4C22.3,9.4,22.3,9.5,22.3,9.4c0,0.1,0.2,0,0.1,0.1
	c-0.1-0.1-0.1,0.1-0.2,0.1C22.2,9.5,22.3,9.5,22.3,9.4z M6.3,13.6v0.3c-0.1,0-0.3,0.1-0.4,0.1C6,13.9,6,13.6,6.3,13.6z M14.9,27.9
	c0.1,0,0.1,0.1,0.1,0.1h-0.1C14.8,27.9,14.9,28,14.9,27.9z M15.8,28.4c-0.1-0.1,0-0.1,0-0.1h-0.1L15.8,28.4
	C15.8,28.3,15.8,28.5,15.8,28.4z M6.6,24.2c0.1,0.1-0.1,0.1-0.1,0.2c0.1,0.1,0.1-0.1,0.2-0.1v-0.1L6.6,24.2z M6.5,24.5
	c0-0.1,0.1-0.2-0.1-0.2C6.5,24.3,6.4,24.5,6.5,24.5z M6.6,24.8c0.1,0,0.1-0.1,0.1-0.1c-0.1,0.1,0-0.1-0.1-0.1V24.8z M15.2,6.5
	c0.1,0.1,0.1,0.1,0.1,0.1c-0.5-0.1-1,0.2-1.3,0.1c-0.3,0.2-0.9,0.1-1.2,0.4c-0.1,0-0.1,0-0.1-0.1c-0.1,0.1-0.3,0.1-0.4,0.3
	c-1,0.2-1.7,0.8-2.5,1.3c0-0.1,0.1-0.2,0.1-0.4c0-0.1-0.1,0-0.1,0c0.5-0.4,1.1-0.8,1.8-1.1c0-0.1,0.1-0.1,0.1-0.1
	c0.5,0,0.6-0.3,1.1-0.3v0.1c0.1,0,0-0.1,0-0.2c0.1,0.1,0.2-0.1,0.1,0.1c0.1,0.1,0-0.1,0.1-0.1c0.1-0.1-0.1,0-0.1-0.1
	c0.3-0.1,0.7-0.2,0.8,0C14,6.6,14,6.4,14,6.4c0.1,0-0.1,0.1,0.1,0.1c0.1,0,0.1-0.1,0.1-0.1c0.1-0.1,0.6-0.1,0.7,0
	c0-0.1,0.2-0.1,0.3-0.1L15.2,6.5L15.2,6.5c0.1,0,0-0.1,0-0.1h0.4c0,0.1-0.1,0.1-0.1,0.1c0,0.1,0.1,0.1,0.1,0.1h-0.4
	C15.4,6.5,15.3,6.5,15.2,6.5z M14.3,6.6c0.1,0,0.2-0.1,0.3-0.1C14.5,6.5,14.4,6.5,14.3,6.6z M18.3,7c0-0.1,0.4-0.1,0.4,0
	c0,0,0-0.1,0.1-0.1c0.1,0.1,0.4,0.3,0.5,0.2v0.1H19c0,0.1,0.1,0.1,0.1,0.1c0.1,0,0-0.1,0.1-0.1c0,0.1,0,0.1,0.1,0.1
	c-0.1,0.1-0.1,0.1-0.1,0.1c-0.2,0-0.4-0.1-0.4-0.2c0.1-0.1,0,0.1,0.1,0.1c0-0.1-0.1-0.1-0.1-0.2c-0.1,0,0,0.1,0,0.2
	C18.4,7.3,18.2,7.3,18,7c-0.1,0.1-0.3-0.1-0.5,0V6.6c0.1-0.1,0.1,0.1,0.2,0.1c-0.1,0.1,0,0.1,0,0.2C18.1,7,18.4,6.7,18.3,7z
	 M19.9,7.5c0.3-0.1,0.2,0.1,0.4,0.1c0,0.1-0.1,0.2,0,0.3c0-0.1,0.1-0.1,0.1-0.2c0.1-0.1,0,0.1,0.1,0.1c-0.1,0.1-0.1,0.1,0,0.2
	c-0.1,0-0.2,0-0.2,0.1C20.2,8,20.1,8,20,7.9c0-0.1,0.1-0.1,0.1-0.1C20,7.7,20,7.7,19.9,7.5C19.8,7.7,20,7.7,20,7.8
	c-0.1-0.1-0.3-0.1-0.3-0.2c-0.1,0-0.1,0.1-0.2,0.1c0-0.1-0.1-0.1,0-0.1h0.1c0.1-0.1-0.1-0.1-0.1-0.2c0.1,0,0.2,0.1,0.4,0.1L19.9,7.5
	z M9,8.7c0.1,0,0.1,0,0.1-0.1h0.1c0.1,0,0-0.1,0-0.1c0.1-0.1,0,0.1,0.1,0.1c0.1-0.1-0.1,0-0.1-0.1c0.1,0,0.1-0.1,0.2-0.1
	c0,0.2-0.1,0.3-0.1,0.5C9.3,8.8,9.3,9,9,9.1c0,0.1-0.1,0.2-0.2,0.3H8.7c0-0.1,0.1-0.1,0.1-0.2c0-0.1-0.1,0-0.1,0
	c-0.1,0.1-0.1,0.3,0,0.4c-0.6,0.5-0.9,1.3-1.6,1.9c0-0.1,0-0.1,0.1-0.1c0-0.1-0.1,0-0.2,0c0.1-0.1,0.2-0.1,0.2-0.4
	c0.1-0.1,0,0.1,0,0.1C7.3,11,7.4,11,7.6,11v-0.1c0-0.1-0.1,0-0.1,0c-0.1-0.1,0.1-0.1,0.1-0.3c0.2,0,0.1-0.3,0.4-0.2v-0.2
	c0.1-0.1,0,0.1,0.1,0.1C7.8,10,8.2,10,8.1,9.7c0.1,0.1,0.3-0.4,0.4-0.1c0.1,0,0-0.1,0-0.2c0.1-0.1,0.1-0.2,0.4-0.2
	c0.1,0.1,0,0.2,0,0.3C9,9.1,9.1,9,9,8.7z M21.6,8.8C21.9,8.7,21.9,9.2,22,9c0,0.1-0.1,0.3-0.1,0.4c0-0.1-0.1-0.1-0.3-0.2
	C21.6,9,21.7,9,21.8,9C21.8,8.9,21.7,8.9,21.6,8.8c-0.1,0.1,0,0.2,0,0.2h-0.1h0.1C21.5,8.9,21.6,8.8,21.6,8.8z M6.9,11.7
	c0-0.1-0.1-0.2-0.1-0.3c0.1,0,0.1-0.1,0.1-0.1h0.3c0,0.2-0.1,0.1,0,0.3c-0.3,0.3-0.3,0.8-0.6,1.1c0.1,0.2-0.1,0.3-0.1,0.4
	c-0.1,0-0.1-0.1-0.1-0.1H6.3c-0.1,0.1,0,0.3,0,0.4c-0.1,0-0.1,0.1-0.1,0.1H6.1c0.1-0.7,0.4-1.2,0.6-1.8H6.9z M14.9,28.2
	c0,0.1-0.2,0.1-0.1,0.3h-0.1C14.6,28.3,14.8,28.2,14.9,28.2z M20.6,7.9c0.1,0,0.1,0.1,0.1,0.1v0.1C21,8,21,8.2,21.1,8.2v0.2
	C21,8.3,21,8.4,21,8.4c-0.1,0-0.1-0.1-0.3-0.1c-0.1-0.1,0-0.2-0.1-0.2c0-0.1,0.1-0.1,0.1-0.1C20.7,8,20.6,8,20.6,7.9z M15.3,21.1
	c0.1,0,0.2,0.1,0.2,0.1C15.4,21.3,15.4,21.2,15.3,21.1z"/>
<path class="st0" d="M26.5,17.3c-0.2,0-0.2,0.1-0.3,0.1c0.1-0.1-0.1-0.1-0.1-0.2c-0.1,0-0.1,0.2,0.1,0.1c-0.5,0.2-1,0.4-1.5,0.5
	c0-0.1-0.1-0.2-0.2-0.2c0,0.1,0.1,0.1,0.1,0.2c-0.5,0.1-1.1,0.5-1.6,0.3c-0.1,0,0,0.1-0.1,0.1c-2,0.6-4,1.1-6,1.7
	c-0.1,0-0.1-0.1-0.1-0.1s0,0.1-0.1,0.2c-0.5,0.1-0.8,0.2-1.1,0.2c0-0.1,0.2,0,0.2-0.2c0.1,0,0.1,0.1,0.2,0.1s0-0.2,0.1-0.1
	c0-0.1-0.1-0.2-0.1-0.3c0.1,0.1,0.1,0.1,0.1-0.1c0.1,0,0.2,0,0.2,0.1c0.1,0,0-0.1,0.1-0.1c0.9-0.2,1.6-0.5,2.5-0.7
	c0.3,0,0.6-0.1,0.9-0.3c0.2,0.1,0.4-0.1,0.7-0.1c0.1,0.1-0.1,0.1-0.1,0.1c0.1,0.1,0.2-0.2,0.3-0.3c0.1-0.1,0.2,0.1,0.3-0.1
	c0,0.1-0.1,0.2,0.1,0.2c0.1,0,0-0.1,0.1-0.2c0.7-0.2,1.4-0.5,2.3-0.5c0.2-0.2,0.7-0.2,1-0.4c0.3,0.1,0.7-0.2,1.1-0.2
	c0,0.2,0.2,0.2,0.2,0.3c0.1-0.1-0.2-0.2-0.2-0.4c0.2-0.1,0.1,0.1,0.2,0.1s0-0.1,0.1-0.2c0.2,0.1,0.3-0.1,0.3,0
	c0.3-0.1,0.8-0.3,1.1-0.2c0.1-0.1-0.1,0-0.1-0.1c0.1,0,0.2,0.1,0.2-0.1c0.4,0.1-0.2,0.1,0.3-0.1c0.1,0.1-0.1,0-0.1,0.1
	c0.1,0,0.1-0.2,0.2-0.2c0.7,0.1,1.2-0.5,1.7-0.3c0.1-0.1,0.2-0.3,0-0.4c-0.1,0,0.1,0.2-0.1,0.2c0-0.8-0.5-1.4-0.3-2
	c0.1-0.1,0,0.1,0.1,0.1c0.1-0.1-0.1-0.1-0.1-0.2c0.1,0,0.1,0,0.1-0.1s-0.1,0-0.2-0.1c-0.1,0,0,0.1-0.1,0.2c-0.3-0.6-0.4-1.5-0.7-2.2
	c-0.1-0.1,0.1-0.2,0.1-0.2s-0.1,0-0.1-0.1c-0.2-0.7-0.3-1.3-0.5-2c0.2,0.1,0.1-0.2,0.3-0.2c-0.1,0-0.1-0.1-0.2-0.2
	c-0.1,0,0,0.2-0.1,0.3c-0.2,0.1-0.1-0.2-0.2-0.3c0-0.1,0.2,0,0.2,0c0.1-0.1,0-0.2,0.1-0.2l-0.1-0.1c-0.1,0,0,0.2-0.1,0.1
	c-0.1,0,0-0.1-0.1-0.1c-0.2-0.1-0.2,0.1-0.3,0.1C27,9,27.2,9,27.2,9.1c-0.2,0.1-0.4,0.2-0.6,0.3c-0.1,0.1,0-0.1-0.1-0.1
	c-0.1,0.1,1.2-0.1,1-0.1V8.9h-0.1c-0.1,0.1,0,0.2-0.1,0.3c-1.3,0.3-2.4,0.7-3.6,0.9V9.9c-0.1,0-0.1,0.1-0.1,0.1
	c0.1,0.1,0.1,0.1,0.1,0.3c-2.2,0.6-4.5,1.2-6.7,1.9c-0.3-0.1-0.6,0.3-0.8,0.1c-0.1,0.1-0.1,0.1-0.1,0.2c-0.2-0.1-0.5,0.1-0.6,0.1
	v-0.2h-0.2c0.1,0.1,0.1,0.1,0,0.2c-0.1-0.1-0.2,0.1-0.4,0c-0.1,0,0,0.1-0.1,0.2c-0.2-0.1,0.2-0.3,0-0.4h0.2v-0.1
	c-0.1,0-0.1,0.1-0.2,0.1c-0.1,0.1-0.1,0.2-0.2,0.2c0.1-0.1,0.1-0.1,0.1-0.2c-0.1,0.1-0.2,0.1-0.3,0.1c0.2,0,0.1,0.2,0.3,0.2v0.2
	c-0.1-0.1-0.1-0.3-0.3-0.3c0,0.1-0.1,0.2-0.2,0.2c0.1,0.1,0.1-0.1,0.2-0.1v0.1c-0.1,0-0.2,0-0.2,0.1c-0.1-0.1-0.2-0.1-0.3-0.2
	c-0.1,0.1,0,0.1,0,0.2c-0.1-0.1-0.2-0.2-0.2-0.4c-0.1-0.1-0.1,0.1-0.2,0.1c0.1,0.1,0.1,0.1,0.2,0.1v0.2c0.1,0.1,0-0.1,0.1-0.1
	c0.1,0.1-0.1,0-0.1,0.1c-2.2,0.6-4.4,1.2-6.6,1.8c-0.3,0-0.5,0.1-0.7,0.2c-0.1,0-0.1-0.1-0.1-0.1H6.3c-0.1,0.1,0.1,0.1,0.1,0.2
	c-0.2-0.1-0.3,0.2-0.5,0c-0.1,0.2-0.5,0.3-0.7,0.1c0,0.1,0.1,0.1,0.1,0.2C5,15.3,5.2,15.1,5,15.1c0,0.1,0.1,0.1,0.1,0.1
	c-0.2,0.1-0.2-0.1-0.4-0.3c-0.1,0.1,0.1,0.1,0,0.2c-0.1,0,0.2,0.4,0,0.4C4.7,15.4,5,15,4.9,15c-0.1,0.1-0.1,0.1-0.1,0.2
	c-0.2,0-0.3,0.1-0.6,0.1c0-0.1,0.1-0.1,0.1-0.1c-0.1,0-0.2,0.1-0.2,0.2c-0.1,0-0.1,0-0.1-0.1c-0.1,0,0,0.1-0.1,0.1
	C4,15.3,4.6,15,4.5,15.1V15c-0.1,0-0.1,0.1-0.2,0.2c0.1,0.1,0.1-0.1,0.2-0.1v0.1c-0.3,0.2-0.5,0.5-0.7,0.3c-0.1,0,0.1,0.1,0,0.1
	c-0.2,0.1-0.4,0.1-0.5,0.1c0-0.1,0-0.1,0.1-0.2c-0.1-0.1-0.2-0.2-0.3-0.2c0.1,0.1,0.1,0.1,0.3,0.1c-0.1,0.1-0.1,0.2-0.2,0.3
	C3,15.9,3,15.7,3,15.7c-0.1,0.1-0.1,0.1-0.1,0.2c-0.2,0-0.4,0.1-0.6,0.1c0-0.1,0.1-0.2-0.1-0.2c-0.1,0,0,0.1-0.1,0.2
	c0,0.1-0.1-0.1-0.1-0.1C2,16,2,16.1,1.7,16.1v-0.2c-0.1,0,0.1,0.2-0.1,0.1v-0.1c-0.1,0-0.1-0.1-0.2-0.1c-0.1,0.1-0.1,0.3-0.1,0.5
	h0.1c0.1,0,0-0.2,0.1-0.2c0.1-0.1,0.1,0.1,0.2,0.1c0,0.2,0.1,0.4,0.1,0.5c0,0-0.1,0-0.1-0.1h0c0-0.1,0.1-0.1,0.1-0.2
	c0.1,0.1,0.1,0.1-0.1,0.1c-0.1,0,0,0.1-0.1,0.1H1.4c0-0.4-0.2-0.5-0.2-0.8c0.1,0,0.1,0.1,0.2,0.1c0.1,0,0-0.1,0.1-0.1
	c0.2,0.1,0.3-0.2,0.5,0c0.1-0.1,0.2-0.1,0.2-0.2c0.1-0.1,0.1,0.1,0.1,0.1c0-0.2,0.2-0.1,0.5-0.2c-0.1,0.1,0.1,0.1,0.1,0.2h0.1v-0.1
	c0-0.1-0.2,0-0.1-0.1c0.1-0.1,0.3-0.3,0.4-0.1c0.1,0,0-0.1,0.1-0.1c0.1,0,0.1,0.1,0.1,0.1c0.3-0.2,1-0.2,1.4-0.4L4.5,15
	C5,14.9,4.4,15,5,14.9c-0.1,0.2,0.1,0.1,0.2,0.1c0-0.1-0.1-0.1-0.1-0.2c0.6-0.1,1-0.4,1.6-0.4c0.1,0,0-0.1,0.1-0.1
	c0.4-0.1,0.9-0.2,1.3-0.4c0.6-0.1,1.1-0.3,1.6-0.4c1.3-0.3,2.5-0.6,3.6-1c0.3,0,0.6-0.2,0.9-0.1c0.1,0,0-0.1,0.1-0.1
	c0.1,0,0.2-0.1,0.2,0.1c0-0.1,0.1-0.1,0.1-0.1c2.8-0.8,5.7-1.6,8.6-2.3c0.1,0,0.1,0.2,0.2,0.1c0.1-0.1-0.1-0.1-0.1-0.2
	c0.5-0.1,1-0.2,1.5-0.4l0.5-0.2c0.7-0.1,1.1-0.3,1.7-0.4C26.9,9.2,27,9.2,27,9.2C27.2,9.1,26.9,9.1,27,9c0.7-0.2,0.1-0.1,0.9-0.2
	c0,0.3,0.2,0.5,0.1,0.6c0,0.1,0.1,0,0.1,0.1c0,0.4,0.3,0.8,0.2,1.2c0.2,0.2,0.2,0.6,0.3,0.8c-0.1,0-0.1-0.1-0.2-0.1
	c0.3,0.2,0.4,0.6,0.3,1c0.1,0-0.1-0.2,0.1-0.2c-0.1,0.4,0.3,0.6,0.1,0.9c0.3,0.4,0.2,1.2,0.6,1.6c0.1,0.7,0.3,1.1,0.4,1.7
	c-1.3,0.4-1.3,0.5-2.6,0.8L26.5,17.3L26.5,17.3z M15.4,12.3c0,0.1,0.2,0.1,0.2,0.1c-0.1-0.1,0.1-0.1,0.1-0.2
	C15.7,12.3,15.6,12.4,15.4,12.3z M27.7,9c0-0.1-0.1-0.2-0.2-0.1C27.6,8.9,27.6,9,27.7,9z M27.7,9.9c0-0.1-0.1-0.2-0.1-0.2
	C27.6,9.7,27.6,9.8,27.7,9.9z M26.1,9.5c0.1-0.1,0.2-0.1,0.2-0.1h-0.2V9.5z M23.8,10c0.2,0.1,0.1-0.1,0.3-0.1V9.8
	C23.9,9.7,23.9,9.9,23.8,10z M23.4,10c0.1-0.1-0.1-0.1-0.1-0.1C23.2,10,23.3,10,23.4,10z M28.1,11.9c0.1-0.1,0.2-0.1,0.2-0.1h-0.1
	C28.2,11.8,28,11.8,28.1,11.9z M28.2,12.3c0.1,0,0.1-0.2,0.1-0.3c-0.1,0-0.1,0-0.2-0.1C28.1,12.1,28.3,12.1,28.2,12.3z M29,14.6
	v-0.2h-0.1C28.8,14.5,28.9,14.5,29,14.6z M29.2,14.6H29c0.1,0.2-0.1,0.1-0.1,0.3c0.1,0,0.1,0,0.1,0.1c0.1,0,0.1-0.1,0.2-0.1v-0.2
	c-0.1-0.1,0,0.2-0.1,0.2c0-0.1-0.1-0.1-0.1-0.1h0.1C29.2,14.7,29.2,14.6,29.2,14.6z M29.2,15.4c0.1-0.1,0.1-0.1,0.1-0.2
	C29.2,15.1,29.2,15.2,29.2,15.4z M26.4,17.3v-0.1h-0.1C26.2,17.3,26.3,17.3,26.4,17.3z M16.9,19.6H17c0-0.1-0.1-0.1-0.1-0.1V19.6z
	 M16.5,19.9v-0.2h-0.1C16.4,19.8,16.4,19.9,16.5,19.9z M6.7,14.7c0.1,0.1,0.2-0.2,0.1-0.1C6.8,14.7,6.7,14.7,6.7,14.7z M4.9,15.2
	c0,0.1-0.2,0-0.1,0.1C5,15.3,5,15.2,5,15.1L4.9,15.2L4.9,15.2L4.9,15.2z M4.6,15.2v-0.1H4.5C4.4,15.2,4.5,15.2,4.6,15.2z M3.6,15.7
	c0.1-0.1-0.1-0.1-0.2-0.1C3.4,15.7,3.5,15.7,3.6,15.7z M2.5,15.9c0-0.1-0.1-0.2-0.1-0.2C2.5,15.7,2.4,15.9,2.5,15.9z M2.8,15.9v-0.1
	H2.7C2.7,15.8,2.7,15.9,2.8,15.9z M2.5,19.1v-0.2c-0.1,0-0.1,0.2-0.1,0.1c0.1-0.7-0.3-1.4-0.4-2.1c-0.1-0.1,0,0.1-0.1,0.1
	c0-0.1,0.2-0.4,0-0.4v0.3c-0.1,0-0.1,0.1-0.1,0.1c0-0.1-0.1-0.1-0.1-0.1c-0.1,0.1-0.1,0.2-0.2,0.1c0.1,0.1,0.1,0.2,0.1,0.4
	c0.1,0.1,0.2,0,0.2,0.1c0,0.1-0.2,0-0.1,0.1c0.2,0.4,0.2,1,0.5,1.2c-0.1,0.2,0.1,0.6,0.2,0.8c0,0.1-0.1,0.1-0.1,0.1l0.9,3.2
	c0.1,0.1,0.2,0,0.2,0.1c-0.1,0.1,0,0.1-0.1,0.1c-0.1,0-0.1-0.1-0.1-0.1c0,0.2,0,0.4,0.2,0.5c-0.2,0.1,0,0.3,0,0.4
	c1.3-0.3,0.6-0.1,1.8-0.4L5.6,23c0.3-0.1,0.6-0.2,1-0.3c0-0.1-0.2-0.1-0.1-0.2c0.1,0.1,0.1,0.1,0.1,0.2c1.6-0.3,3.1-0.8,4.7-1.2
	c0.1-0.1,0-0.1,0.1-0.1c0.2,0.1,0.5-0.1,0.7-0.1c0.1-0.1,0-0.1,0.1-0.1c0.3,0.1,1.1-0.3,1.8-0.4c0.1-0.1-0.1-0.1,0-0.1
	c-0.1,0.1,0.1,0.1,0.2,0.1c0.1-0.1,0.1-0.2,0.2-0.4c0.1,0,0.1,0.2,0,0.2c0.3,0.1,0.5-0.1,0.7-0.1c0.1-0.1-0.2,0-0.1-0.1
	c-0.1-0.1,0,0.1-0.1,0.1c-0.1-0.1,0.1,0,0.1-0.1c-0.2,0.1-0.3,0.2-0.4,0.3c0.1-0.2,0.1-0.2,0.1-0.4c0.1,0.1,0.2,0.1,0.2,0.1
	c0-0.2,0.1-0.2,0.2-0.3c0.1,0.2,0.3,0.1,0.5,0.1c-0.1-0.1,0.1-0.1,0.1-0.1c-0.1-0.1-0.1-0.2-0.2-0.2c0,0.1,0,0.1-0.1,0.1
	c-0.1,0.1,0.1,0,0.1,0.1c-0.1-0.1-0.2,0-0.2-0.1c0-0.1,0.1-0.1,0.1-0.1c-0.3,0.1-0.5,0.2-0.9,0.2c0.1,0.2-0.3,0.1-0.1,0.2
	c-0.1,0-0.2-0.1-0.1-0.1c-0.2,0-0.4,0.1-0.3,0.2c0-0.1,0-0.1,0.1-0.1c-0.1,0.1,0,0.2-0.1,0.2c-0.1-0.1-0.1-0.1-0.2-0.1
	c0-0.1,0.1-0.1,0.1-0.1c-0.2-0.1-0.2,0.1-0.3,0.1c-0.2-0.1-0.6,0.2-1,0.2c-0.1,0.1,0,0.1-0.1,0.1c-0.1,0.1-0.2-0.1-0.2-0.1
	c0,0.2-0.2,0.2-0.3,0.3c-0.1-0.1,0.1-0.1,0.1-0.2c-0.1,0.1-0.2,0.2-0.3,0.1c-0.1,0.1-0.2,0.1-0.4,0.1c-0.6,0.2-1.3,0.4-2,0.5
	c-0.1,0.1,0,0.1-0.1,0.2c0-0.1-0.1-0.1-0.1-0.1c-0.1,0.1,0,0.1-0.1,0.1c0-0.1-0.1-0.1-0.2-0.1c-2.1,0.6-2.6,0.6-4.7,1.2
	c0.1,0,0.1,0,0.1,0.1c-0.2,0.1-0.1-0.1-0.3-0.1c-0.1,0.1-0.1,0.2-0.2,0.4c-0.2-0.2,0-0.4-0.1-0.6c-0.1,0.1-0.2,0.2-0.2,0.1
	c0-0.1,0.1-0.1,0.2-0.1v-0.2c-0.1,0-0.1,0.1-0.1,0.1c0.1-0.4-0.2-0.8-0.2-1.2C3.1,21,3,21.1,3,21C3,21,3,20.9,3,21
	c0.1,0.2-0.2,0.2-0.2,0.4c-0.1,0-0.1,0-0.1-0.1c0.2-0.1,0.1-0.4,0.3-0.5c-0.1-0.6-0.2-1.1-0.5-1.5L2.5,19.1
	C2.5,19.1,2.5,19.1,2.5,19.1C2.6,19.1,2.6,19.1,2.5,19.1z M2.1,16.1c0-0.1-0.1-0.2-0.2-0.2C1.9,15.9,1.9,16.1,2.1,16.1z"/>
<text transform="matrix(0.9657 -0.2596 0.2596 0.9657 8.6462 20.0882)" class="st0 st1 st2">待付款</text>
</svg>
