<?xml version="1.0" encoding="utf-8"?>
<!-- Generator: Adobe Illustrator 19.0.0, SVG Export Plug-In . SVG Version: 6.00 Build 0)  -->
<svg version="1.1" id="图层_1" xmlns="http://www.w3.org/2000/svg" xmlns:xlink="http://www.w3.org/1999/xlink" x="0px" y="0px"
	 viewBox="-88 81.4 40 39.1" style="enable-background:new -88 81.4 40 39.1;" xml:space="preserve">
<style type="text/css">
	.st0{fill:#246BF9;}
</style>
<path class="st0" d="M-60.6,109.7c-2.6,0-4.7-2.1-4.7-4.7c0-2.6,2.1-4.7,4.7-4.7H-48v-7.3c0-2-1.6-3.6-3.6-3.6h-32.8
	c-2,0-3.6,1.6-3.6,3.6v23.9c0,2,1.6,3.6,3.6,3.6h32.8c2,0,3.6-1.6,3.6-3.6v-7.3H-60.6z"/>
<path class="st0" d="M-60.6,102.8c-1.2,0-2.2,1-2.2,2.2c0,1.2,1,2.2,2.2,2.2c1.2,0,2.2-1,2.2-2.2C-58.3,103.8-59.3,102.8-60.6,102.8
	z M-53.6,88.3l-2.7-6.1c-0.3-0.6-1-0.9-1.6-0.6l0,0l-14.8,6.7c0,0-0.1,0-0.1,0H-53.6z"/>
</svg>
