<?xml version="1.0" encoding="utf-8"?>
<!-- Generator: Adobe Illustrator 19.0.0, SVG Export Plug-In . SVG Version: 6.00 Build 0)  -->
<svg version="1.1" id="图层_1" xmlns="http://www.w3.org/2000/svg" xmlns:xlink="http://www.w3.org/1999/xlink" x="0px" y="0px"
	 viewBox="-128 -5.9 80 80" style="enable-background:new -128 -5.9 80 80;" xml:space="preserve">
<style type="text/css">
	.st0{fill:#FFFFFF;}
</style>
<path class="st0" d="M-98.1,44.9v16.5c0,0.3,0.3,0.6,0.6,0.4l5-2c0.2-0.1,0.3-0.2,0.3-0.4v-9.5c0-0.1,0-0.2-0.1-0.3l-5-5
	C-97.6,44.2-98.1,44.4-98.1,44.9z M-85.5,56.3l-4.1-4.1c-0.3-0.3-0.8-0.1-0.8,0.3v5.7c0,0.3,0.3,0.6,0.6,0.4l4.1-1.6
	C-85.3,57-85.3,56.6-85.5,56.3z M-111.1,31.6l-2.4,6c0,0.1,0,0.1,0,0.2v29.7c0,0.3,0.3,0.6,0.6,0.4l5-2c0.2-0.1,0.3-0.2,0.3-0.4
	V34.4c0-0.1,0-0.2-0.1-0.3l-2.6-2.6C-110.6,31.3-111,31.3-111.1,31.6z M-105.8,37.1v27.3c0,0.3,0.3,0.6,0.6,0.4l5-2
	c0.2-0.1,0.3-0.2,0.3-0.4V42.1c0-0.1,0-0.2-0.1-0.3l-5-5C-105.3,36.5-105.8,36.7-105.8,37.1z M-128,74.1l4.7-1.9
	c0.2-0.1,0.3-0.2,0.3-0.4V61.6L-128,74.1z M-121.2,57.2v13.5c0,0.3,0.3,0.6,0.6,0.4l5-2c0.2-0.1,0.3-0.2,0.3-0.4v-24
	c0-0.5-0.7-0.6-0.9-0.2l-5,12.5C-121.2,57-121.2,57.1-121.2,57.2z M-66.5,11.1l-2.4-0.8L-94.2,39l28.6-25.4L-66.5,11.1z M-59.3,36
	l-1.6-1.8l-24.9,11l26.5-6.4V36z M-92.2,6.5l2,1.7l-8,25.4L-95,7L-92.2,6.5z M-55-0.4l-1.4,4c0,0.1,0,0.3,0.1,0.4l2.5,3.4L-58,7.5
	c-0.2,0-0.3,0.1-0.4,0.2l-2.5,3.5l-1.3-4.1c0-0.1-0.2-0.3-0.3-0.3l-4.1-1.3L-63,3c0.1-0.1,0.2-0.2,0.2-0.4l-0.1-4.3l3.4,2.5
	C-59.3,1-59.2,1.1-59,1L-55-0.4z M-51.5,20.8l-1.9,2.2c-0.1,0.1-0.1,0.3-0.1,0.4l0.7,2.8l-2.7-1.1c-0.1-0.1-0.3,0-0.4,0l-2.4,1.6
	l0.2-2.9c0-0.2-0.1-0.3-0.2-0.4l-2.3-1.8l2.8-0.7c0.1,0,0.3-0.1,0.3-0.3l1-2.7l1.5,2.5c0.1,0.1,0.2,0.2,0.4,0.2L-51.5,20.8z
	 M-60.3,47.7l-1.7,1.1l0,2l-1.6-1.3l-1.9,0.6l0.7-1.9l-1.2-1.7l2,0.1l1.2-1.6l0.6,2L-60.3,47.7z M-48,36l-1.6,1.6l0.4,2.2l-2-1l-2,1
	l0.4-2.2l-1.6-1.6l2.2-0.3l1-2l1,2L-48,36z M-78,50l-0.9,1l0.3,1.3l-1.2-0.5l-1.1,0.7l0.1-1.3l-1-0.9l1.3-0.3l0.5-1.2l0.7,1.2
	L-78,50z M-78.1-5.9l0,2.6c0,0.2,0.1,0.3,0.2,0.4l2.1,1.5l-2.5,0.8c-0.1,0-0.3,0.2-0.3,0.3l-0.8,2.5L-80.9,0
	c-0.1-0.1-0.2-0.2-0.4-0.2l-2.6,0l1.7-2.3l-0.9-2.7l2.5,0.8c0.1,0,0.3,0,0.4-0.1L-78.1-5.9z M-97.1-3.3l0.5,2.2l2.1,0.9l-2,1.1
	l-0.2,2.3l-1.7-1.5l-2.2,0.5l0.9-2.1l-1.2-2l2.3,0.3L-97.1-3.3z M-103.8,15.6l0.3,1.7l1.6,0.7l-1.5,0.8l-0.1,1.7l-1.3-1.1l-1.7,0.4
	l0.7-1.6l-0.9-1.5l1.7,0.2L-103.8,15.6z"/>
</svg>
