<?xml version="1.0" encoding="utf-8"?>
<!-- Generator: Adobe Illustrator 19.0.0, SVG Export Plug-In . SVG Version: 6.00 Build 0)  -->
<svg version="1.1" id="图层_1" xmlns="http://www.w3.org/2000/svg" xmlns:xlink="http://www.w3.org/1999/xlink" x="0px" y="0px"
	 viewBox="-357 6 30 30" style="enable-background:new -357 6 30 30;" xml:space="preserve">
<style type="text/css">
	.st0{fill:#999999;}
</style>
<path class="st0" d="M-338.8,29.6c-0.6,0-1.1-0.5-1.1-1.1V16.7c0-0.6,0.5-1.1,1.1-1.1c0.6,0,1.1,0.5,1.1,1.1v11.8
	C-337.7,29.1-338.2,29.6-338.8,29.6L-338.8,29.6L-338.8,29.6L-338.8,29.6z M-345.2,29.6c-0.6,0-1.1-0.5-1.1-1.1V16.7
	c0-0.6,0.5-1.1,1.1-1.1c0.6,0,1.1,0.5,1.1,1.1v11.8C-344.1,29.1-344.6,29.6-345.2,29.6L-345.2,29.6L-345.2,29.6L-345.2,29.6z
	 M-328.1,11.4h-5.4V9.2c0-1.8-1.4-3.2-3.2-3.2h-10.7c-1.8,0-3.2,1.4-3.2,3.2v2.1h-5.4c-0.6,0-1.1,0.5-1.1,1.1s0.5,1.1,1.1,1.1h27.9
	c0.6,0,1.1-0.5,1.1-1.1C-327,11.9-327.5,11.4-328.1,11.4L-328.1,11.4L-328.1,11.4L-328.1,11.4z M-348.4,9.2c0-0.6,0.5-1.1,1.1-1.1
	h10.7c0.6,0,1,0.5,1,1.1v2.1h-12.9L-348.4,9.2L-348.4,9.2z M-334.5,36h-15c-1.8,0-3.2-1.4-3.2-3.2V16.7c0-0.6,0.5-1.1,1.1-1.1
	c0.6,0,1.1,0.5,1.1,1.1v16.1c0,0.6,0.5,1.1,1.1,1.1h15c0.6,0,1.1-0.5,1.1-1.1v-16c0-0.6,0.5-1.1,1.1-1.1c0.6,0,1.1,0.5,1.1,1.1v16
	C-331.3,34.6-332.7,36-334.5,36L-334.5,36L-334.5,36L-334.5,36z"/>
</svg>
