<?xml version="1.0" encoding="utf-8"?>
<!-- Generator: Adobe Illustrator 19.0.0, SVG Export Plug-In . SVG Version: 6.00 Build 0)  -->
<svg version="1.1" id="图层_1" xmlns="http://www.w3.org/2000/svg" xmlns:xlink="http://www.w3.org/1999/xlink" x="0px" y="0px"
	 viewBox="-354.8 8.4 26 26" style="enable-background:new -354.8 8.4 26 26;" xml:space="preserve">
<style type="text/css">
	.st0{fill:#D7D7D7;}
</style>
<path class="st0" d="M-330,34.4c-0.3,0-0.6-0.1-0.8-0.3l-23.7-23.7c-0.4-0.4-0.4-1.2,0-1.6s1.2-0.4,1.6,0l23.7,23.7
	c0.4,0.4,0.4,1.2,0,1.6C-329.4,34.3-329.7,34.4-330,34.4z"/>
<path class="st0" d="M-353.7,34.4c-0.3,0-0.6-0.1-0.8-0.3c-0.4-0.4-0.4-1.2,0-1.6l23.7-23.7c0.4-0.4,1.2-0.4,1.6,0
	c0.4,0.4,0.4,1.2,0,1.6l-23.7,23.7C-353.1,34.3-353.4,34.4-353.7,34.4z"/>
</svg>
