<?xml version="1.0" encoding="utf-8"?>
<!-- Generator: Adobe Illustrator 19.0.0, SVG Export Plug-In . SVG Version: 6.00 Build 0)  -->
<svg version="1.1" id="图层_1" xmlns="http://www.w3.org/2000/svg" xmlns:xlink="http://www.w3.org/1999/xlink" x="0px" y="0px"
	 viewBox="-362 0.9 40 40" style="enable-background:new -362 0.9 40 40;" xml:space="preserve">
<style type="text/css">
	.st0{fill:#5090CD;}
</style>
<path class="st0" d="M-362,4.2h40v36.5h-40V4.2z M-324.5,16.4h0.4c1.2,0,2.1-1,2.1-2.3V4.6c0-2-1.5-3.6-3.4-3.6h-33.1
	c-1.9,0-3.4,1.6-3.4,3.6v9.5c0,1.3,1,2.3,2.1,2.3h0.4v20.9c0,2,1.5,3.6,3.4,3.6h28c1.9,0,3.4-1.6,3.4-3.6L-324.5,16.4L-324.5,16.4z
	 M-326.3,37.3c0,0.5-0.2,0.9-0.5,1.3c-0.3,0.3-0.7,0.5-1.2,0.5l-28,0c-0.9,0-1.7-0.8-1.7-1.8V16.4h31.4L-326.3,37.3L-326.3,37.3z
	 M-360.2,14.5v-10c0-1,0.8-1.8,1.7-1.8h33.1c0.9,0,1.7,0.8,1.7,1.8v10L-360.2,14.5z M-337.2,21.3h-9.6c-1.9,0-3.4,1.6-3.4,3.6
	c0,2,1.5,3.6,3.4,3.6h9.6c1.9,0,3.4-1.6,3.4-3.6C-333.8,23-335.3,21.3-337.2,21.3z M-337.2,26.8h-9.6c-0.9,0-1.7-0.8-1.7-1.8
	c0-1,0.8-1.8,1.7-1.8h9.6c0.9,0,1.7,0.8,1.7,1.8C-335.5,26-336.2,26.8-337.2,26.8z"/>
</svg>
