<?xml version="1.0" encoding="utf-8"?>
<!-- Generator: Adobe Illustrator 19.0.0, SVG Export Plug-In . SVG Version: 6.00 Build 0)  -->
<svg version="1.1" id="图层_1" xmlns="http://www.w3.org/2000/svg" xmlns:xlink="http://www.w3.org/1999/xlink" x="0px" y="0px"
	 viewBox="-362.1 0.9 40 40" style="enable-background:new -362.1 0.9 40 40;" xml:space="preserve">
<style type="text/css">
	.st0{fill:#FAA319;}
</style>
<path class="st0" d="M-329.7,27.9L-329.7,27.9c0.7,0,1.3,0.6,1.3,1.3v3.9h2.6c0.7,0,1.3,0.6,1.3,1.3l0,0c0,0.7-0.6,1.3-1.3,1.3h-3.5
	c-0.1,0-0.2,0-0.3,0c0,0-0.1,0-0.1,0l0,0c-0.7,0-1.3-0.6-1.3-1.3v-5.1C-331,28.5-330.4,27.9-329.7,27.9L-329.7,27.9L-329.7,27.9z
	 M-352,0.9c-1.4,3-2.7,6-2.9,9.4c-0.5,6.6,2.9,11.2,9.4,12.7c0.4,0.1,0.9,0.9,0.9,1.4c0.1,4.7,0,9.5,0,14.2c0,0.6,0.1,1.2,0.1,1.8
	h9.5c-0.2-0.1-0.3-0.3-0.5-0.5c-0.8-0.8-1.4-1.7-1.9-2.7c-0.5-1.1-0.7-2.2-0.7-3.4c0-0.3,0-0.6,0-0.9l-1.4,1.5
	c-0.2,0.2-0.3,0.4-0.6,0.9c-0.2-0.7-0.3-0.9-0.3-1.2c0-3.3,0-6.6,0-9.9c0-0.9,0.2-1.3,1.2-1.4c4.6-0.6,8.6-4.7,9.1-9.5
	c0.5-4.5-0.7-8.7-3.1-12.5h-0.9c-1.2,2.1-2.5,4.1-3.9,6.5c-1.4-2.4-2.7-4.4-3.9-6.5h-0.9c-1.3,2.1-2.5,4.1-4,6.5
	c-1.4-2.3-2.6-4.4-3.8-6.5L-352,0.9L-352,0.9z M-330.5,25.2c1.8-1.8,3.5-3.6,5.3-5.3c0.4-0.4,1-0.6,1.5-0.9c0.2,0.6,0.6,1.2,0.6,1.8
	c0.1,2.3,0,4.6,0,6.9c-0.8-0.8-1.7-1.4-2.7-1.8c-1.1-0.5-2.2-0.7-3.4-0.7C-329.7,25.1-330.1,25.2-330.5,25.2L-330.5,25.2
	L-330.5,25.2z M-352,40.4c-0.4-0.2-0.7-0.3-1.1-0.5c-5.2-1.7-8.7-6-8.9-11.4c-0.1-2.6-0.1-5.2,0-7.8c0-0.6,0.4-1.1,0.6-1.6
	c0.5,0.3,1.2,0.4,1.5,0.8c4.5,4.5,9,9,13.4,13.5c0.4,0.5,0.7,1.2,0.8,1.9c0.1,1.7,0,3.5,0,5.2C-347.8,40.4-349.9,40.4-352,40.4
	L-352,40.4L-352,40.4z M-329.3,26.7c-4,0-7.2,3.2-7.2,7.1s3.2,7.1,7.2,7.1c4,0,7.2-3.2,7.2-7.1C-322.1,29.9-325.3,26.7-329.3,26.7z"
	/>
</svg>
