<?xml version="1.0" encoding="utf-8"?>
<!-- Generator: Adobe Illustrator 19.0.0, SVG Export Plug-In . SVG Version: 6.00 Build 0)  -->
<svg version="1.1" id="图层_1" xmlns="http://www.w3.org/2000/svg" xmlns:xlink="http://www.w3.org/1999/xlink" x="0px" y="0px"
	 viewBox="-362 1 40 40" style="enable-background:new -362 1 40 40;" xml:space="preserve">
<style type="text/css">
	.st0{fill:#00AAEE;}
</style>
<path class="st0" d="M-322,24.1l-0.2-0.3c-0.1-0.2-0.2-0.4-0.3-0.5l-4.1-8.2l-1.5-2.6l-6,0V9.6c0-1.3-0.6-1.9-2-1.9h-3
	c0.1,0.5,0,0.8,0,1.3c0,1.5-0.3,2.9-0.9,4.2c-0.6,1.3-1.4,2.4-2.5,3.4c-1,1-2.3,1.8-3.6,2.3c-1.4,0.6-2.9,0.8-4.4,0.8
	c-1.6,0-3.1-0.3-4.5-0.8c-1.4-0.5-2.6-1.3-3.6-2.3c-1-1-1.8-2.1-2.5-3.4c-0.6-1.3-0.9-2.8-0.9-4.3c0-0.1,0-0.2,0-0.3
	c-0.1,0.2-0.1,0.4-0.1,0.6v21.9c0,0.9,0.5,1.6,1.2,2c1.2-2.5,3.9-4.2,6.9-4.2c3.2,0,5.7,1.6,6.8,4.3h8c1.2-2.6,3.5-4.2,6.6-4.2
	c3.2,0,5.2,1.6,6.4,4.2h2c1.4,0,1.9-0.8,1.9-2.1v-6.8C-322.1,24.3-322.1,24.2-322,24.1L-322,24.1z M-335,22v-6.7h5l2,6.7H-335z
	 M-332.2,31.3c-2.8,0-5.1,2.2-5.1,4.9s2.3,4.9,5.1,4.9c2.8,0,5.1-2.2,5.1-4.9C-327.1,33.4-329.4,31.3-332.2,31.3z M-353.7,31.3
	c-2.8,0-5.1,2.2-5.1,4.9s2.3,4.9,5.1,4.9c2.8,0,5.2-2.2,5.2-4.9S-350.8,31.3-353.7,31.3z M-356.4,14.6c0.8,0.7,1.7,1.3,2.7,1.7
	c1,0.4,2.1,0.6,3.3,0.6c1.2,0,2.2-0.2,3.3-0.6c1-0.4,1.9-1,2.7-1.7c0.8-0.7,1.4-1.6,1.8-2.5c0.4-1,0.7-2,0.7-3.1
	c0-1.1-0.2-2.1-0.7-3.1c-0.4-1-1.1-1.8-1.8-2.5c-0.8-0.7-1.7-1.3-2.7-1.7c-1-0.4-2.1-0.6-3.3-0.6c-1.2,0-2.3,0.2-3.3,0.6
	c-1,0.4-1.9,1-2.7,1.7c-0.8,0.7-1.4,1.6-1.8,2.5c-0.4,1-0.7,2-0.7,3.1c0,1.1,0.2,2.1,0.7,3.1C-357.8,13.1-357.2,13.9-356.4,14.6z
	 M-352,2.9h2v5.7l5,0l0,0.9v1l-7,0L-352,2.9z"/>
</svg>
