<?xml version="1.0" encoding="utf-8"?>
<!-- Generator: Adobe Illustrator 19.0.0, SVG Export Plug-In . SVG Version: 6.00 Build 0)  -->
<svg version="1.1" id="图层_1" xmlns="http://www.w3.org/2000/svg" xmlns:xlink="http://www.w3.org/1999/xlink" x="0px" y="0px"
	 viewBox="-147.3 -14.9 120 95.1" style="enable-background:new -147.3 -14.9 120 95.1;" xml:space="preserve">
<style type="text/css">
	.st0{fill:#FFFFFF;}
	.st1{fill:#00C9B8;}
	.st2{fill:#588FFF;}
	.st3{fill:#E3F1FF;}
	.st4{fill:#7BFFEF;}
	.st5{fill:#66DFD4;}
	.st6{fill:#FFFFFF;stroke:#FFFFFF;stroke-linejoin:round;stroke-miterlimit:10;}
</style>
<path class="st0" d="M-63.8,27.2c9.8,0,17.7,8,17.7,17.8s-8,17.8-17.7,17.8s-17.7-8-17.7-17.8S-73.6,27.2-63.8,27.2z"/>
<path class="st1" d="M-131.7,62.4h-1.7v-1.7c0-0.4-0.4-0.8-0.8-0.8s-0.8,0.4-0.8,0.8v1.7h-1.6c-0.4,0-0.8,0.4-0.8,0.8
	s0.4,0.8,0.8,0.8h1.7v1.7c0,0.4,0.4,0.8,0.8,0.8s0.8-0.4,0.8-0.8V64h1.7c0.4,0,0.8-0.4,0.8-0.8S-131.2,62.4-131.7,62.4z"/>
<g>
	<path class="st0" d="M-63.3,10.8h-53.9c-1.3,0-2.4,1.1-2.4,2.3v64.7c0,1.3,1.1,2.3,2.4,2.3h53.9c1.3,0,2.4-1.1,2.4-2.3V13.1
		C-60.9,11.8-62,10.8-63.3,10.8 M-68.3,74.6h-44.4c-1.3,0-2.4-1.1-2.4-2.3v-53c0-1.3,1.1-2.3,2.4-2.3h44.4c1.3,0,2.4,1.1,2.4,2.3v53
		C-65.9,73.5-66.9,74.6-68.3,74.6z"/>
	<path class="st0" d="M-72,14.1h-35.9c-0.9,0-1.6-0.7-1.6-1.5V8.7c0-0.9,0.7-1.5,1.6-1.5H-72c0.9,0,1.6,0.7,1.6,1.5v3.9
		C-70.4,13.4-71,14.1-72,14.1z"/>
	<path class="st0" d="M-84.7,9.8h-10.4c-0.9,0-1.6-0.7-1.6-1.5V2.9c0-0.9,0.7-1.5,1.6-1.5h10.4c0.9,0,1.6,0.7,1.6,1.5v5.4
		C-83.1,9.1-83.9,9.8-84.7,9.8z"/>
</g>
<path class="st0" d="M-105.9,58.6h27.1c0.9,0,1.6,0.7,1.6,1.6v0.9c0,0.9-0.7,1.6-1.6,1.6h-27.1c-0.9,0-1.6-0.7-1.6-1.6v-0.9
	C-107.5,59.4-106.7,58.6-105.9,58.6z M-105.9,47.8h21.7c0.9,0,1.6,0.7,1.6,1.6v0.9c0,0.9-0.7,1.6-1.6,1.6h-21.7
	c-0.9,0-1.6-0.7-1.6-1.6v-0.9C-107.5,48.5-106.7,47.8-105.9,47.8z M-105.9,37h21.7c0.9,0,1.6,0.7,1.6,1.6v0.9c0,0.9-0.7,1.6-1.6,1.6
	h-21.7c-0.9,0-1.6-0.7-1.6-1.6v-0.9C-107.5,37.7-106.7,37-105.9,37z"/>
<path class="st0" d="M-105.9,26.3h27.1c0.9,0,1.6,0.7,1.6,1.6v0.9c0,0.9-0.7,1.6-1.6,1.6h-27.1c-0.9,0-1.6-0.7-1.6-1.6v-0.9
	C-107.5,26.9-106.7,26.3-105.9,26.3z"/>
<path class="st2" d="M-65.4-14.8l-1,1.8c-0.3,0.6-0.9,1.1-1.4,1.4l-1.8,1c-0.1,0.1-0.1,0.3,0,0.3l1.8,1c0.6,0.3,1.1,0.9,1.4,1.4
	l1,1.8c0.1,0.1,0.3,0.1,0.3,0l1-1.8c0.3-0.6,0.9-1.1,1.4-1.4l1.8-1c0.1-0.1,0.1-0.3,0-0.3l-1.8-1c-0.6-0.3-1.1-0.9-1.4-1.4l-1-1.8
	C-65.2-14.9-65.3-14.9-65.4-14.8z"/>
<path class="st3" d="M-29.1,31.9c0.8-0.2,1.5,0.3,1.7,1c0.2,0.8-0.3,1.6-1,1.8l-10.1,2.8c-0.8,0.2-1.5-0.3-1.7-1
	c-0.2-0.8,0.3-1.6,1-1.8L-29.1,31.9z M-147.3,23.1c0.2-0.8,1-1.2,1.7-1l10.1,2.8c0.8,0.2,1.2,1,1,1.8s-1,1.2-1.7,1l-10-2.9
	C-147,24.7-147.5,23.9-147.3,23.1z M-109.4-8.6c0.7-0.4,1.5-0.2,1.9,0.5l5.2,9.5c0.4,0.7,0.2,1.6-0.5,2c-0.7,0.4-1.5,0.2-1.9-0.5
	l-5.2-9.5C-110.3-7.3-110-8.2-109.4-8.6z"/>
<g>
	<path class="st2" d="M-41.8,56.9c-0.5,0-0.8,0.4-0.8,0.8s0.4,0.8,0.8,0.8h1.6v-1.6H-41.8z"/>
	<path class="st2" d="M-36.9,56.9h-1.7v1.6h1.7c0.4,0,0.8-0.4,0.8-0.8S-36.5,56.9-36.9,56.9z"/>
	<path class="st2" d="M-38.6,55.3c0-0.4-0.4-0.8-0.8-0.8c-0.4,0-0.8,0.4-0.8,0.8v1.6v1.6v1.7c0,0.4,0.4,0.8,0.8,0.8
		c0.4,0,0.8-0.4,0.8-0.8v-1.7v-1.6V55.3z"/>
</g>
<path class="st4" d="M-47.9,10c1.2,0,2.1,1,2.1,2.2s-1,2.2-2.1,2.2c-1.2,0-2.1-1-2.1-2.2C-50.1,11-49.1,10-47.9,10 M-47.9,9
	c-1.8,0-3.2,1.4-3.2,3.3c0,1.8,1.4,3.3,3.2,3.3s3.2-1.4,3.2-3.3C-44.7,10.4-46.2,9-47.9,9z"/>
<path class="st0" d="M-88.1,5.6c0,1.2-1,2.2-2.2,2.2s-2.2-1-2.2-2.2c0-1.2,1-2.2,2.2-2.2S-88.1,4.4-88.1,5.6z"/>
<path class="st5" d="M-126.9,9l-0.9,1.6c-0.3,0.5-0.7,1-1.3,1.3l-1.6,0.9c-0.1,0.1-0.1,0.2,0,0.3l1.6,0.9c0.5,0.3,1,0.7,1.3,1.3
	l0.9,1.6c0.1,0.1,0.2,0.1,0.3,0l0.9-1.6c0.3-0.5,0.7-1,1.3-1.3l1.6-0.9c0.1-0.1,0.1-0.2,0-0.3l-1.6-0.9c-0.5-0.3-1-0.7-1.3-1.3
	l-0.9-1.6C-126.7,8.9-126.8,8.9-126.9,9z"/>
<path class="st5" d="M-63.8,29c8.7,0,15.9,7.1,15.9,16S-55,61-63.8,61s-15.9-7.1-15.9-16S-72.6,29-63.8,29z"/>
<path class="st6" d="M-69.9,44.1c-0.3-0.3-0.7-0.3-1,0c-0.3,0.3-0.3,0.7,0,1l5.8,5.8c0.3,0.3,0.7,0.3,1,0l8.6-10
	c0.3-0.3,0.3-0.7,0-1c-0.3-0.3-0.7-0.3-1,0l-8.1,9.5L-69.9,44.1L-69.9,44.1z"/>
</svg>
