<?xml version="1.0" encoding="utf-8"?>
<!-- Generator: Adobe Illustrator 21.0.0, SVG Export Plug-In . SVG Version: 6.00 Build 0)  -->
<svg version="1.1" id="图层_1" xmlns="http://www.w3.org/2000/svg" xmlns:xlink="http://www.w3.org/1999/xlink" x="0px" y="0px"
	 viewBox="0 0 20 20" style="enable-background:new 0 0 20 20;" xml:space="preserve">
<style type="text/css">
	.st0{fill:#588FFF;}
</style>
<g>
	<path class="st0" d="M16,19.6H3.2c-1.8,0-3.2-1.4-3.2-3.2V3.6c0-1.8,1.4-3.2,3.2-3.2h9.9c0.4,0,0.8,0.3,0.8,0.6s-0.3,0.6-0.6,0.6
		h-10c-1,0-1.8,0.9-1.8,1.9v12.9c0,1,0.9,1.9,1.9,1.9h12.9c1,0,1.9-0.9,1.9-1.9V7.7c0-0.4,0.3-0.6,0.6-0.6c0.4,0,0.6,0.3,0.6,0.6
		v8.7C19.2,18.2,17.8,19.6,16,19.6z"/>
	<path class="st0" d="M5.2,15.1c-0.1,0-0.4-0.1-0.5-0.3c-0.3-0.3-0.3-0.6,0-0.9L18.9,1.1c0.3-0.3,0.6-0.3,0.9,0
		C20,1.4,20,1.8,19.8,2L5.6,14.9C5.5,15.1,5.4,15.1,5.2,15.1z"/>
</g>
</svg>
