<?xml version="1.0" encoding="utf-8"?>
<!-- Generator: Adobe Illustrator 19.0.0, SVG Export Plug-In . SVG Version: 6.00 Build 0)  -->
<svg version="1.1" id="图层_1" xmlns="http://www.w3.org/2000/svg" xmlns:xlink="http://www.w3.org/1999/xlink" x="0px" y="0px"
	 viewBox="-358 2 32 32" style="enable-background:new -358 2 32 32;" xml:space="preserve">
<style type="text/css">
	.st0{fill:#FF5000;}
</style>
<path class="st0" d="M-337.3,7.9c-1,0-2,0.2-2.9,0.7c-0.7,0.3-1.2,0.8-1.9,1.2l0,0c0,0,0,0-0.1-0.1c-1.3-1.2-2.9-1.8-4.6-1.8
	c-1.1,0-2.3,0.3-3.3,0.9c-2.4,1.4-3.7,4.2-3.2,6.9c0.3,1.6,1,2.9,2.2,4c2.1,2.1,5.7,5.8,7.7,7.8c0.4,0.4,0.9,0.6,1.4,0.6
	s1-0.2,1.4-0.6c2.1-2.1,5.8-5.9,8-8.1c1.5-1.6,2.2-3.6,1.9-5.8C-331.1,10.2-334.1,7.9-337.3,7.9L-337.3,7.9z"/>
</svg>
