<?xml version="1.0" encoding="utf-8"?>
<!-- Generator: Adobe Illustrator 19.0.0, SVG Export Plug-In . SVG Version: 6.00 Build 0)  -->
<svg version="1.1" id="图层_1" xmlns="http://www.w3.org/2000/svg" xmlns:xlink="http://www.w3.org/1999/xlink" x="0px" y="0px"
	 viewBox="-289 381 32 32" style="enable-background:new -289 381 32 32;" xml:space="preserve">
<style type="text/css">
	.st0{fill:#999999;}
</style>
<path class="st0" d="M-268.1,388.6c2.5,0,4.7,1.8,5,4.3c0.2,1.7-0.2,3.1-1.4,4.4c-2.5,2.6-7.1,7.2-8,8.1c-0.1,0.1-0.2,0.1-0.3,0.1
	c-0.1,0-0.2,0-0.3-0.1c-2-2-5.6-5.7-7.7-7.8c-0.9-1-1.5-2-1.7-3.1c-0.4-2.1,0.6-4.1,2.4-5.2c0.8-0.4,1.7-0.7,2.5-0.7
	c1.3,0,2.5,0.5,3.5,1.4c0.4,0.4,0.8,0.5,1.2,0.5c0.5,0,0.8-0.2,0.9-0.3c0.2-0.1,0.4-0.3,0.7-0.4c0.4-0.3,0.7-0.5,1.1-0.7
	C-269.6,388.7-268.8,388.6-268.1,388.6 M-268.1,386.9c-1,0-2,0.2-2.9,0.7c-0.7,0.3-1.2,0.8-1.9,1.2l0,0c0,0,0,0-0.1-0.1
	c-1.3-1.2-2.9-1.8-4.6-1.8c-1.1,0-2.3,0.3-3.3,0.9c-2.4,1.4-3.7,4.2-3.2,6.9c0.3,1.6,1,2.9,2.2,4c2.1,2.1,5.7,5.8,7.7,7.8
	c0.4,0.4,0.9,0.6,1.4,0.6c0.5,0,1-0.2,1.4-0.6c2.1-2.1,5.8-5.9,8-8.1c1.5-1.6,2.2-3.6,1.9-5.8C-261.9,389.2-264.9,386.9-268.1,386.9
	L-268.1,386.9z"/>
</svg>
