<?xml version="1.0" encoding="utf-8"?>
<!-- Generator: Adobe Illustrator 19.0.0, SVG Export Plug-In . SVG Version: 6.00 Build 0)  -->
<svg version="1.1" id="图层_1" xmlns="http://www.w3.org/2000/svg" xmlns:xlink="http://www.w3.org/1999/xlink" x="0px" y="0px"
	 viewBox="-168.8 -42.3 394 119.7" style="enable-background:new -168.8 -42.3 394 119.7;" xml:space="preserve">
<style type="text/css">
	.st0{fill:#3D3D3D;}
	.st1{fill:#FFEED4;}
	.st2{fill:#75400C;}
	.st3{fill:#B26919;}
	.st4{fill:#FF9700;}
	.st5{fill:#F7C843;}
	.st6{fill:#F4A222;}
	.st7{fill:#FFFFFF;}
</style>
<path class="st0" d="M224,54.5c-1.1,11.5-7.7,18-17.1,19.2c-11.4,1.5-179,3.7-201.1,3.7c-23,0-143.6-1.4-154.6-3.7
	c-9.2-2-15.9-8.7-17.1-19.2c-1-9.2-2.9-13.4-2.9-36.8c0-20.5,1-27.8,2.9-36.8c2.2-10.2,8-16.8,17.1-19.2c10.4-2.8,137-4,154.6-4
	c20.5,0,190.4,3.1,201.1,4c9.4,0.8,16.5,8.6,17.1,19.2c0.8,15.7,1.2,17.3,1.2,38.6C225.2,39.2,224.8,45.8,224,54.5z"/>
<path class="st1" d="M222.4,51c-0.4,10.2-7.6,16.6-16.6,18.5c-10.2,2.2-178.5,3.6-200,3.6c-22.4,0-143.2-1.4-153.5-3.6
	c-9.8-2.1-15.1-10.5-16.6-18.5c-1.2-6.2-2.8-13-2.8-35.5c0-19.8,2.8-35.5,2.8-35.5c2.5-9.8,7.8-16.2,16.6-18.5
	c10.2-2.7,136.3-3.9,153.5-3.9c20,0,189.8,1.8,200,3.9c11.2,2.3,16.6,8.3,16.6,18.5c1.6,15.1,1.2,16.7,1.2,37.3
	C223.6,36.3,222.7,42.6,222.4,51z"/>
<path class="st2" d="M217.8,45.6c-0.4,9.4-6.1,15-15.4,17c-9.5,2-176.9,3.3-196.9,3.3c-20.7,0-142-1.8-150.3-3.3
	c-8.4-1.5-13.9-6.2-15.4-17c-1.1-8.1-2.6-11.9-2.6-32.5c0-18.2,0.9-24.6,2.6-32.5c2-9,7.2-14.9,15.4-17C-135.4-38.9-10.3-40,5.5-40
	c18.5,0,187.3,2.2,196.9,3.5c8.2,1.2,15.4,7.6,15.4,17c1.5,13.8,1.1,15.3,1.1,34.2C218.9,32.1,218.1,37.9,217.8,45.6z"/>
<path class="st3" d="M216.3,43.8c-0.4,9-6.5,14.6-14.9,16.3C192.1,61.9,25,63.3,5.6,63.3c-20.1,0-141.5-2.2-149.2-3.2
	c-8.2-1-13-6.2-14.9-16.3c-1.5-7.7-2.5-11.4-2.5-31.2c0-17.4,2.5-31.2,2.5-31.2c2.2-8.6,7-14.2,14.9-16.3
	c9.1-2.4,133.8-3.4,149.2-3.4c17.9,0,195.7,3.4,195.7,3.4c8.2,0,14.9,7.3,14.9,16.3c1.4,13.3,1.1,14.7,1.1,32.8
	C217.3,30.8,216.6,36.4,216.3,43.8z"/>
<path class="st4" d="M216.3,36.2c-0.4,8.2-6.7,14.8-14.9,14.8c0,0-176.4,2.9-195.7,2.9c-20.1,0-149.2-2.9-149.2-2.9
	c-8.2,0-14.1-6.3-15.1-14.4c-0.9-7-2.4-10.7-2.4-28.6c0-15.8,0.8-21.4,2.5-28.3c1.9-7.9,7-12.9,14.9-14.8
	c9.1-2.2,133.8-3.1,149.2-3.1c17.9,0,186.4,2.4,195.7,3.1c8.2,0.6,14.4,6.6,14.9,14.8c0.7,12.1,1.1,13.3,1.1,29.7
	C217.3,24.4,216.6,29.5,216.3,36.2z"/>
<path class="st5" d="M216.3,34.2v2c0,8.2-6.5,14.5-14.7,15.2c-9.3,0.7-176.6,2.5-196,2.5c-20.1,0-140.2-1.9-149.5-2.6
	c-8.2-0.7-14.1-6.6-14.7-14.7v-0.2c0.8,7.8,7.3,11.7,15.1,12.6c9.3,1.1,129.1,2.9,149.2,2.9C25,51.9,192,49.7,201.3,49
	C209.6,48.4,216.3,42.4,216.3,34.2z"/>
<path class="st6" d="M217.4-3.9c0,2.1,0,4.6,0,7.7C217.4,0.7,217.4-1.7,217.4-3.9z"/>
<path class="st7" d="M216.6-15.6c-3.5-3.3-7.7-7.1-11.8-7.1c0,0-181.6-4.4-202.9-4.4c-18.4,0-145.5,1.3-156.4,4.4
	c-1.3,0.4-2.5,0.9-3.6,1.5c2.1-7.4,7.1-12.2,14.7-14c9.1-2.2,133.8-3.1,149.2-3.1c17.9,0,186.5,1.6,195.7,3.1
	c8.2,1.3,14.4,6.6,14.9,14.8C216.4-18.6,216.5-17,216.6-15.6z"/>
<path class="st7" d="M-134.5-19.1c0.3,1.2-0.4,2.4-1.5,2.8c0,0-2.4,1.2-5.2,2.1c-2.8,0.9-5.4,1.3-5.4,1.3c-1.2,0.4-2.4-0.2-2.7-1.4
	c0,0-0.8-1.3-1.5-3.9c-0.6-2.2-0.7-4.1-0.7-4.1c0-1.2,0.5-2.1,1.5-2.8c1.2-0.7,3-1.5,5.1-2.2c2.5-0.8,5.4-1.3,5.4-1.3
	c1.2-0.4,2.4,0.2,2.7,1.4c0.7,1.6,0.7,1.8,1.3,4.1C-135.1-21.7-134.8-20.4-134.5-19.1z M-123-24.2c0.1,0.7-0.4,1.3-1.1,1.3
	c0,0-1.5,0.4-3,0.6c-1.6,0.2-3.1,0.1-3.1,0.1c-0.7,0.1-1.3-0.4-1.3-1.1c0,0,0,0,0,0c0,0-0.3-0.8-0.4-2.3c-0.1-0.8-0.1-1.6,0-2.3
	c0.1-0.7,0.5-1.1,1.1-1.3c0.7-0.3,1.8-0.4,3-0.6c1.5-0.2,3.1-0.1,3.1-0.1c0.7-0.1,1.2,0.4,1.3,1.1c0,0,0,0,0,0
	c0.2,1,0.2,1.1,0.3,2.4C-123-25.2-123-24.2-123-24.2z"/>
</svg>
