<?xml version="1.0" encoding="utf-8"?>
<!-- Generator: Adobe Illustrator 19.0.0, SVG Export Plug-In . SVG Version: 6.00 Build 0)  -->
<svg version="1.1" id="图层_1" xmlns="http://www.w3.org/2000/svg" xmlns:xlink="http://www.w3.org/1999/xlink" x="0px" y="0px"
	 viewBox="-358 5 32 32" style="enable-background:new -358 5 32 32;" xml:space="preserve">
<style type="text/css">
	.st0{fill:#D7D7D7;}
</style>
<path class="st0" d="M-328,21c0,7.7-6.3,14-14,14s-14-6.3-14-14s6.3-14,14-14S-328,13.3-328,21z M-329.5,21
	c0-6.9-5.6-12.5-12.5-12.5s-12.5,5.6-12.5,12.5s5.6,12.5,12.5,12.5S-329.5,27.9-329.5,21z"/>
<path class="st0" d="M-343,12.1h1.2v9.6h-1.2V12.1z"/>
<path class="st0" d="M-342.1,20.7l6.8,6.8l-0.9,0.9l-6.8-6.8C-343,21.6-342.1,20.7-342.1,20.7z"/>
</svg>
