<?xml version="1.0" encoding="utf-8"?>
<!-- Generator: Adobe Illustrator 19.0.0, SVG Export Plug-In . SVG Version: 6.00 Build 0)  -->
<svg version="1.1" id="图层_1" xmlns="http://www.w3.org/2000/svg" xmlns:xlink="http://www.w3.org/1999/xlink" x="0px" y="0px"
	 viewBox="-14 -62 212 190" style="enable-background:new -14 -62 212 190;" xml:space="preserve">
<style type="text/css">
	.st0{fill:#C7DBFF;}
</style>
<path class="st0" d="M75,123.7c-0.9,0.4-1.4-0.6-2-0.6c1.1-1.6,3.2-0.5,0-1.6c0,1.6-0.5,2.2-0.5,3.3c0,0-1.5,0.5-1.1,0.5
	c1.5-0.5,1.5,1.1,3.2,0.5C74.7,124.8,74.7,124.3,75,123.7c0.1,1,0.2,1.7-0.4,2.1c1.1,0.5,1.1,1.6,2.6,1.1c0.5-1.1-1.1,0-0.5-1.1
	c1.5,0,4.7-1.1,3.7,1.1v-1.1c-1.1,0.5-1.1,1.1-1.5,1.6c2.1,0,4.7,0.5,5.2-1.1v1.6c0.5,0,0.5-2.2,0.5-3.3c1.1-0.5,0.5,0.5,0.5,0
	c-0.5-1.1-0.5-0.5,0-1.6c-1.5-0.5-3.2-0.5-5.2,0c0-0.5-1.1-1.1-1.5-1.1c0,0.5,0.5,1.1,0,1.1s-0.5-0.5-0.5-1.1
	c-1.1,0.5-2.1,0.5-2.6,0C74.9,122.6,75,123.3,75,123.7z M66.7,124.2c0.7,0.2,1.3,0.4,2.1,0.6c-0.5-1.1,0.5-1.6,0.5-2.2
	c0.5,0-0.5,1.6,0.5,1.1c0.5-1.1-0.5-1.1-0.5-1.6h1.1v-1.7c-1.1,0-1.5,0.5-2.1,0.5c0.5-0.5,0-0.5,0-1.1c-4.3-0.5-7.9-2.2-11.6-3.8
	v0.5c0-1.1-1.5,0-1.1-1.1c-1.1,0-1.5,0.5-2.1-0.5c0,0,0.5,1.1,0,1.1c0,0-0.5,0.5-0.5,0s1.1,0,0.5-1.1c-1.1-1.1-2.1-2.2-4.3-2.2
	c0,0.5-0.5,1.1-1.1,1.1c0-0.5,1.1-0.5,0.5-1.6c-1.5-0.5-2.6-2.2-4.3-2.7l-1.1,1.1c-0.5-0.5-1.1-0.5-1.5-1.1c0.5-2.2-2.6-3.3-4.7-3.8
	c0.5-1.6-1.5-0.5-1.1-2.2c-0.5-0.5-0.5,0.5-1.1,0.5c0-0.5-1.1,0-0.5-1.1c-0.5-0.5-0.5,0.5-1.1,0.5c0.5,0,1.1-0.5,1.1,0
	c-0.5,1.1,0,2.7-1.1,2.7c0.5-1.1-1.1-0.5-1.1-1.1v-1.1h1.3c-1.1-0.5-1.1-1.6,0-2.2c0,0.5,0,0.5,0,0c0-1.1-0.5,0.5-1.5,1.1
	c-0.5,0.5,1.1,0.5,0,1.1c0,0,0-0.5-0.5-0.5c-0.5,0.5-0.5,1.6-0.5,2.7c1.5,0,1.5,1.1,2.6,1.6c0-0.5,0-1.1,0.5-1.1v1.6
	c2.6,1.6,5.2,3.8,8.4,5.3c0.5-2.2,2.1,1.1,3.2-0.5c0,0.5,0.5,0.5,0.5,1.1c-1.1,0-1.1,0.5-1.1,1.6c2.1-0.5,2.6,0.5,3.7,1.6
	c0.5-0.5-1.1-1.1,0-1.6c0.5,0.5,0.5,1.1,0.5,2.2c2.1,0.5,3.7,1.1,5.8,2.2c0.5-1.1-1.1-1.1-1.1-2.2c1.1-0.5,0,1.1,1.1,0.5
	c0.5-0.5,0.5-1.1,0.5-2.2c0.5,0.5,2.1,1.6,1.1,2.7c0,0,0-0.5-0.5-0.5c0,1.1,0.5,1.6,0.5,2.2c2.1-0.5,2.1,0.5,3.7,0.5
	c0-0.5,0.5-1.1,0.5-1.6c0,0,0.5,0.5,0.5,1.6h1.5c-0.5,1.1,0,1.1,0,1.6c1.2,0.4,2.3,0.6,3.4,1C66.5,124.1,66.6,124.2,66.7,124.2z
	 M129.3,93.4c0.6-0.5,1.1-1,1.5-1.6c0.5-0.5-1.1,0.5-0.5-0.5c1.5,0.5,2.1,0,2.1-1.1c0.5,0,0,0.5,0,1.1c1.1,0,0.5-1.6,2.6-1.1
	c0.5-0.5-1.1-1.1,0-1.6c0.4,0.4,0.7,0.5,0.9,0.5l0.1,0.1v-0.1c0.4-0.1,0.6-0.6,0.9-1h0.6v-0.5c0.2-0.1,0.6-0.1,1.1-0.1v-1.1
	c2.6-1.1,3.7-3.8,6.3-5.3c0-2.2,2.1-2.2,2.1-4.4h1.3c0-1.1,1.1-2.7,0-3.8c1.5,0.5,2.1-0.5,2.6-1.1c3.7-7,6.3-11.9,8.4-20.5
	c-1.5-0.5-1.5,1.6-3.2,1.1c-2.1,9.7-4.7,14.1-9.5,20.5c0,1.1,0.5,3.3,0,3.8c-0.5-0.5-1.1-0.5-2.1-0.5c-4.3,5.3-8.9,10.8-14.7,14.6
	v0.5c-2.1-0.5-3.7,1.1-4.7,2.7c-3.7,0.5-6.3,3.8-10.6,4.4c0,0.5,0.5,1.1,0,1.1c-1.1-1.1-3.7,0-4.3,1.6c-0.5,0,0.5-1.6-0.5-1.1
	c-1.5,1.1-4.3,1.1-5.2,2.2c-0.5-1.1-1.5,0-2.1,0.5c-3.2-1.1-7.4,1.1-11.6,0.5c0,0,0,0.5-0.5,0.5c0-0.5,0.5-0.5,0.5-0.5
	c-3.2,0-5.2-0.5-7.4,0.5v-1.1c-1.5,0-2.6,0-3.7-0.5c-1.1,0.5-1.1,1.1-1.1,1.6c0-0.5-0.5-0.5-0.5-0.5c0.5,0,0.5-0.5,0.5-1.1
	c-1.5,0-2.6-0.5-3.7-1.1c0,0.5,0.5,1.1,0,1.1c-1.1-1.1-2.6-1.6-3.7-2.2c0,0.5,0.5,1.1,0,1.1c0,0-0.5,0.5-0.5,0c0,0,0.5,0,0.5-0.5
	c-1.5,0-2.6-0.5-4.3-1.1c-0.5,0,0,1.1-0.5,1.1c0,0-0.5,0.5-0.5,0c0.5,0,0.5,0,0.5-1.1c-1.1-0.5-2.1,0.5-3.2,0c0-0.5,1.5,0.5,1.1-0.5
	c-3.2-0.5-4.3-3.3-7.4-3.8c0,0.5-0.5,1.1-1.1,1.1c-0.5-1.1,0.5-1.1,0.5-1.6c-3.7-2.2-6.9-4.9-10-7c0,0.5,0,1.1-1.1,1.1
	c-0.5,1.1,1.1,0,0.5,1.1c0.5,0,0-1.1,1.1-1.1c0.5,1.1-1.1,1.1-0.5,2.2c1.1-0.5,1.1,0.5,1.5,0.5c0-1.1,0.5-1.6,1.1-2.2
	c-0.5,1.1,0,1.6,0,2.2h-1.1c0.5,1.1,1.5,1.6,2.6,2.2c0.5-1.1-1.1,0-0.5-1.1H51c0,1.1,0.5,1.6,0.5,2.2c0.5,0,0.5-0.5,0.5-0.5
	c1.1,1.6,2.6,3.3,5.8,3.3c-0.5,0.5,0,0.5,0,1.1c1.1,0,1.5,0.5,2.1,0.5c0-0.5,1.1-1.1,1.5-0.5c-0.5,0-0.5,0.5-0.5,1.6
	c1.1,0,2.1,0,2.6,1.1c1.1,0.5,0-1.1,1.1-0.5c-0.5,1.1,1.1,0,0.5,1.1c4.7,1.1,10.6,4.4,15.8,3.3c0.5,0,0,1.1,1.1,1.1s0.5-1.1,1.5-1.1
	v1.1c1.5-0.5,3.2,0,4.7,0.5c-0.5-1.1,0.5-1.1,0.5-1.6c-0.5,0-1.1,1.1-1.5,0c0.5-0.5,1.1-0.5,1.5-1.1c0,0.5,1.1,0,1.1,0.5v0.5
	c-1.1,0-1.1,0-1.1,1.1c3.2,0,5.8-0.5,10-0.5c0-0.5-0.5-1.1,0-1.1v1.1c1.1-1.1,3.7-0.5,4.7-1.6c0,0,0,0.5,0.5,0.5
	c4.3-1.6,9.5-2.2,12.7-4.9c1.5,0,4.3-0.5,4.7-2.2c0,0,0,0.5,0.5,0.5c2-1.6,4.6-2.7,6.6-4.2C129.2,93.5,129.3,93.5,129.3,93.4z
	 M92,125.9c3-0.2,5.3-0.8,6.9,0c1.7-0.4,3.9-0.5,5.6-1c-0.1,0.2-0.4,0.5-0.4,1h1.1c0-0.6,0.1-1,0.1-1.2c0.6-0.2,1.1-0.5,1.4-0.8
	c0.5,0.5-0.5,0.5-0.5,1.1c1.5-0.5,3.7-0.5,4.3-1.6c0.5,0,0.5,0,0.5,0.5c1.1,0,1.1-1.1,2.1-1.1c0,0.5,0,1.1,0.5,1.1
	c1.1-0.5,1.5-1.1,3.2-1.1c0-0.5-0.5-1.6,0-1.6c0.5,1.6,2.1,0.5,3.2,0.5c0-0.4-0.7-0.7-0.7-1.1h0.7v0.5c0.1,0,0.2,0,0.4-0.1
	c0.8-0.1,1.5-0.4,2.4-0.6c0,0.2,0.1,0.4,0.5,0.1c0-0.1,0.1-0.2,0.1-0.2c1.9-0.6,3.7-1.3,5.3-2.1c0.2,0.5,0.6,0.6,0.9,0.2v-0.7
	c1.8-0.8,3.6-1.8,5.2-2.8v0.2h1.5c0-0.5,0.5-1.6,0-1.1c-0.1,0.1-0.4,0.2-0.5,0.2c0.5-0.2,0.9-0.5,1.5-0.8c0-0.5,0-0.5,0,0
	c0.4,0,0.6-0.2,0.8-0.5c0.7-0.4,1.5-0.7,2.4-1.2c0-0.5-0.5-1.1,0-1.6c0,0.5,0,1.1,0.5,1.1c3.7-1.6,6.3-4.4,9.5-6.4
	c0.5-1.1-1.1,0-0.5-1.1c1.1-0.5,0,1.1,1.1,0.5c0-0.5-0.5-1.6,0-1.6s-0.5,1.6,0.5,1.1c3.2-4.4,7.9-7,10.6-11.9c-0.5,0-1.1,0.5-1.1,0
	c0.5,0,0.5-0.5,1.1-0.5v1.1c1.5-0.5,2.1-2.7,3.2-4.4c0.5-0.5,1.1-0.5,1.5-1.1c0.5-0.5,0-1.6,0.5-2.2c0.5-0.5,1.5-1.1,2.1-1.6
	c0.5-1.1,0.5-2.2,1.1-3.3c0-0.5,1.1,0,1.1-0.5v-1.1l1.5-1.6c0.5-1.6,1.1-3.8,1.5-4.9c0.5,0,1.1,0,1.1-0.5s-0.5-1.6,0-2.2
	c0-0.5,1.1-0.5,1.1-1.1v-1.6c0,0,1.1,0,1.1-0.5v-1.6c0,0,1.1-0.5,1.1-1.1c0-1.6,0-3.3,0.5-4.9c0,0,1.1-0.5,1.1-1.1
	c0.5-3.3,0.5-7,1.5-9.7l-4.3-1.1c-2.1,11.9-5.2,22.7-11.6,29.6c-0.5,1.1,1.1,0,0.5,1.1c-0.5,0-0.5,1.1-1.5,0.5
	c-0.5,1.6-1.1,3.3-1.1,5.3l-0.5-0.5c0.5,0,0.5,0,0.5-1.1c-1.1,1.6-2.1,2.7-3.2,4.4c-0.5,0.5,1.1,1.1,0.5,1.6c0,0-0.5,0-0.5-1.1
	c-1.1,1.1-2.1,2.2-2.1,3.8c-0.5,0.5-0.5,0-1.1,0c0,0.5,0,1.6-1.5,1.6c-1.1,2.2-4.7,3.8-3.7,5.9l-1.1-1.1v1.1
	c-3.7,1.1-5.2,4.9-8.9,6.4c0,0.5,0.5,0.5,0.5,0.5c-1.1-0.5-1.5,0.5-2.6,0.5v1.1c-5.2,3.3-10.6,5.3-15.3,8.6
	c-0.5-0.5-3.2,0.5-3.7,1.6c0,0,0-0.5-0.5-0.5c-2.1,1.6-5.8,2.2-8.9,2.7c-0.5,1.1,0.5,0.5,0.5,1.6c-0.5,0-1.1,0.5-1.5,0
	c0.5,0,0.5,0,0.5-0.5c-1.1,0.5,0-1.1-1.1-0.5c-1.5,1.1-5.2,0-6.3,1.6c-1.1-1.1-3.7,0-4.7,0c1.1,1.1-0.5,1.1,0,2.7
	c0.5,0,1.1-0.5,1.1,0s0.5,1.1,0,1.1c0,0-0.5,0-0.5-1.1c-1.1-0.5,0,1.1-1.1,0.5c0.5-1.1-1.1-0.5-1.1-1.1c-0.5-0.5,0.5-0.5,0.5-1.1
	c-1.5,0-1.1,2.7-3.2,1.6c0-0.5-0.5-1.1,0-1.1c1.1-0.5,0,1.6,1.1,1.1v-2.7c-1.1-0.5-1.5,1.1-2.1,0c0,1.1-2.1,0.5-2.6,0.5
	c0,0.5,0.5,1.6,0,1.6c-0.5-1.6-0.5,1.1-1.1,0.5c-0.5-1.1,1.1-1.1,0.5-2.2h-2.6c0,0.5,1.5,0.5,1.5,1.1c0,0,0,1.1-0.5,1.1
	s0-1.1-1.1-0.5c0.5,0.5,1.1,1.6,0,2.7c0.9,0.1,1.8,0.1,2.6,0.1c-0.2,0.2-0.6,0.5-0.9,0.5c0,0.5,0,1.1,0.5,1.1
	C90.4,126.4,91.9,126.4,92,125.9z M91.9,125.9h-0.2H91.9z M156.1-28.5c-0.4,1.7,3.2,1.3,1.8,2.3c0.5,0,0.5-0.5,1.5,0
	c0,0-0.5-0.5,0-0.5c0.5,1.1,0.5,0,1.1,0c0,0.5,1.1,1.1,0.5,2.7h-1.1v1.1c1.1,0,1.1,0,2.1-0.5c0,0.5-0.5,1.1-1.5,1.1
	c1.1,1.1,0.5,1.1,1.5,2.2l5.2-1.6c-0.5,0-1.1,0.5-1.1,0v-1.1c-1.1-0.5-1.5-1.6-2.1-2.7c-0.5-0.5-0.5,1.1-1.1,0c0,0,0.5,0,0.5-0.5
	c-0.5-0.5-1.1-0.5-1.1-1.1c-0.5-0.5-1.1,1.1-1.5,0h1.1c0-0.5-1.1-1.1-1.1-2.2h-1.5v-1.6c-4.3-2.2-4.7-7.5-10.6-7.5
	c0,0,0.5,1.1,0,1.1c0.5-1.1-1.1-1.6,0-2.2c0.6,1.1,0.6-0.4,1.6,0.5c0-1.6-2.1-3.3-3.7-2.2c0,0.5,1.1,0,1.1,0.5
	c-0.5,1.6-2.1,4.4,0,4.9c1.1,0.5,0-1.1,1.1-0.5c0.5,1.1-1.1,0-0.5,1.1c2.1,1.6,3.2,4.4,6.9,4.9c0,0.5-1.5-0.5-1.1,0.5
	c0.5,0,1.1,0.5,1.1,1.6c0.4,0.1,0.5,0.1,0.5,0C155.9-28.4,156-28.5,156.1-28.5z M9.1-4.9c0.7-0.7,0.4-2.5,1.3-2.5
	c0-0.5-1.1-1.1-0.5-1.6c0,0.5,1.1,0,0.5,1.1c0.5,0.5,0-0.5,0.5-0.5l0.5,0.5c-0.5,0-0.5,1.1-1.5,0.5c0.5,1.1-0.5,1.1-0.5,1.6
	c1.1,0,0.5,1.1,1.5,0.5c0.5-1.1-1.1,0-0.5-1.1c0.5,0.5,0-1.1,0.5-1.1c0,0,0,0.5,0.5,0.5c2.6-5.3,5.2-10.8,9.5-14.6v-1.6H22
	c0-2.7,2.6-2.2,3.2-4.9h1.1c0.5-1.6,2.1-3.3,3.7-4.4c2.1-1.6,3.2-3.8,5.2-4.4c0.5-1.1,1.1-1.6,1.5-2.2c1.5,0.5,1.1-1.1,2.6-1.1
	c2.1-3.3,7.4-4.4,10.6-7.5c7.9-2.7,14.7-7,24.8-8.1c0.5-0.5-1.1-0.5,0-1.1c6.3,0.5,14.7-1.1,23.1-0.5c0-0.5,0-1.1,1.1-0.5
	c-0.5,0.5,0.5,0.5,0.5,1.1c2.1-0.5,4.3,1.1,5.2,0c1.1,1.1,4.3,2.2,4.7,0v1.6c1.1,0,2.1,0,2.6,0.5c0.5-1.1-0.5-1.1-0.5-1.6
	c1.1,0.5,0-1.1,1.1-0.5c0.5,1.1-1.1,0-0.5,1.1c0.5,0,0.5,0.5,0.5,1.1c2.1,0,4.3,1.1,5.8,1.6c0,0,0-0.5,0.5-0.5
	c-1.1-0.5,0.5-1.1-0.5-2.2h1c0,0.5,0,0.5,0.5,1.1c-1.1,0.5-1.1,1.1-1.1,2.7c0.5,0.5,0-1.1,0.5-1.1c0,0,0.5-0.5,0.5,0
	c0,0-0.5,0-0.5,0.5c0.5,0,0.5,0,0.5,0.5c0.5,0.5,0.5-0.5,1.1-0.5v1.1c8.4,2.7,14.7,7.5,21.6,11.9c0-0.5,1.1-1.1,1.5-0.5
	c-0.5,0,0,1.1-0.5,1.1c0,0,0-0.5-0.5-0.5c0,0.5,1.1,0.5,1.5,0.5c0.5-1.6,0.5-3.8,0.5-5.3c-1.5,0.5-1.5-1.6-3.2-1.1
	c0.5-0.5,0-0.5,0-1.1c-5.8-3.3-11-6.4-16.8-9.2c-0.5,0,0,1.1-1.1,0.5v-1.1c-2.6,0-4.3-2.7-6.9-1.6c0.5,0,0.5,0,0.5,0.5
	c-1.1,0.5-2.1,0.5-3.2,1.1c0-1.1,1.1-0.5,1.1-1.6c0.5-0.5-0.5,1.1,0.5,0.5c0-0.5,1.1,0,0.5-1.1c-3.7-1.1-7.4-2.2-11.6-2.7
	c0,0.5,0,1.1-0.5,1.1c0.5-1.1-1.1-1.1-2.1-1.1c0,0.5-0.5,1.1-1.5,1.1v-1.6c-2.8-0.4-5,1.6-5.4-0.4c-1.5,0.5-1.5,0-3.2,0.5
	c-1.5-1.1-5.2,0-8.4,0.5c0,1.1-1.5,0.5-0.5,1.6c-0.2,0-0.7,0.1-1.1,0.2v-0.2l-0.2,0.2c-0.2,0-0.4,0-0.4-0.2c0-0.5,1.1-0.5,0.5-1.1
	c-4.3-0.5-6.3,1.1-10,0.5c0.5,0.5-0.5,0.5-0.5,1.1c-2.1-0.5-5.8,1.1-7.9,2.2c-1.1,0.5,0-1.1-1.1-0.5c-2.1,1.1-4.3,1.1-6.3,2.2
	c0,0.5,0.5,1.1,0,1.1c-0.5-1.6-2.1,0-2.6,0c0,0.5,0.5,1.6,0,1.6s0.5-2.2-0.5-1.6l-1.1,1.1C37.8-47,27.8-37.9,18.3-27.1
	c0,0.5,1.1,0.5,1.1,1.1c-1.1-0.5,0,1.1-1.1,0.5c0-0.5,0.5-1.1-0.5-1.1c0-0.5,0.5,1.1,0,1.1c-1.1,0,0.5-0.5-0.5,0.5
	c-0.5,0.5-1.5,0.5-1.5,1.1v1.1c-0.5,0-1.1,0-1.5,0.5c0,0.5,0,1.6-0.5,2.2c-0.5,1.1-0.5,0.5-1.1,1.6L11.6-18c0,0.5,0,1.6-0.5,2.2
	c1.1,0.5,0-1.6,1.1-1.1c0,1.1-0.5,1.6-0.5,2.7c0,0,0.2,0.5,0.4,1.1h-0.4c-0.7,0-0.5,0.5-0.7,0.8c1.2-0.8,0.7-0.8,0.7-1.8h-2
	c-1.1,2.2-1.5,4.4-2.6,5.9c0.5,0,0.5,1.6,0,2.2c0,0,0-0.5-0.5-0.5c0.2,0.2,0.2,0.7,0.5,1.1C6-5.4,6.6-2.1,5-3.2
	c0.5-1.1,0.5-1.6,1.1-2.7H5c0,0.5,0.5,2.2-0.5,2.2c0,0.5,1.1,0.5,0.5,1.6H3.5C4-1,3-1,3-0.5C4.1-1,4.1,0,4.5,0
	c0.5-0.5,0-1.6,1.1-1.6C5.1,0,5.1,0.6,5.6,2.2c-0.5,0-1.5,0.5-1.5,0C3.6,1.7,4.6,1.7,4.6,1.1C3.1,1.6,3.5,0.6,2.5,0.6
	C3,2.8,2,3.3,2.5,5H1.3c0,3.8-1.5,6.4-2.1,10.2c-0.5,3.8,0,4.9-1.1,8.6h4.7C2.8,13.6,5.4,8.1,8,0.6c0,0-0.5-1.1,0-1.6
	c0.5,0-0.5,2.2,0.5,1.6C8-2.1,9.6-2.1,9.6-3.8C9.4-4,9.3-4.4,9.1-4.9z M8.7-4.6c-0.9,0-1.3-0.2-1.5-0.5v1.6C8-3.5,8.6-3.9,8.7-4.6z
	 M93.5-39.7H95v1.1c1.1,0,1.5-0.5,2.1-1.1c3.2,1.1,3.7,1.1,7.4,1.1v2.2c1.1,0,0-1.6,1.5-1.1c0,0.5-1.1,0.5-0.5,1.6
	c-2.1,0.5-2.1-1.1-4.3-0.5c0-1.1,1.1-0.5,1.5-0.5v-0.5c-1.1-0.5-2.6,0-2.1,1.1c-0.5-1.1-3.2,0-3.7-1.1c-0.5,1.1-1.5,0-2.6,0
	C93.5-39.1,94.1-38.6,93.5-39.7z M133.1-23.6c1.1,0.5,1.5,0.5,3.2,0.5c0,0.5-1.1,0.5-0.5,1.6c-0.5-1.1-2.6-1.1-3.2-1.6
	C132.1-23.6,133.6-22.9,133.1-23.6z M139.4-17.6h1.5c0,0.5,0,0.5,0.5,0.5c-0.5,0.5-0.5,1.1-1.5,1.1
	C139.9-16.5,139.4-16.5,139.4-17.6z M142-17C142-17,142-16.5,142-17c0,1.1,1.5,0,1.1,1.1c-1.1-0.5-0.5,0.5-1.5,0.5
	C141-16.5,142-15.9,142-17z M23.5,14.8V17c-1.1,0-2.1,0.5-2.6,0.5C21.4,17,21.4,14.8,23.5,14.8z M86.8,123.6c0.5,0,0.5,0.5,0.5,1.1
	h-1.1C86.2,123.6,87.2,124.2,86.8,123.6z M93.5,126.9c-0.5-0.5,0-0.5,0-1.1H93v1.1C93.5,126.4,93.5,128,93.5,126.9z M25.7,95.6
	c0.5,1.1-0.5,1.1-0.5,1.6c1.1,0.5,1.1-0.5,1.5-0.5v-1.1H25.7z M24.6,97.3c0-0.5,0.5-1.6-0.5-1.6C24.6,96.2,24,97.3,24.6,97.3z
	 M25.7,99.5c0.5,0,1.1-0.5,1.1-1.1c-1.1,0.5,0-1.1-1.1-0.5V99.5z M88.9-39.1c0.5,0.5,0.5,0.5,0.5,1.1c-3.7-0.5-7.4,1.6-10,0.5
	c-2.1,1.6-6.9,1.1-8.9,2.7c-0.5,0-0.5,0-0.5-0.5c-0.5,1.1-2.1,1.1-3.2,2.2c-7.4,1.6-12.7,6.4-18.4,9.7c0-1.1,1.1-1.6,1.1-2.7
	c0-0.5-0.5,0-1.1,0c3.7-3.3,8.4-5.9,13.6-8.1c0-0.5,1.1-0.5,0.5-1.1c3.7,0,4.7-2.2,8.4-2.2v1.1c0.5,0,0-1.1,0-1.6
	c1.1,1.1,1.5-0.5,1.1,1.1c1.1,0.5,0-1.1,1.1-0.5c0.5-1.1-1.1,0-0.5-1.1c2.1-0.5,5.2-1.6,6.3,0c1.1,0,1.1-1.1,1.5-1.1
	c1.1,0-0.5,1.1,0.5,1.1c1.1,0,0.5-0.5,0.5-1.1c1.1-0.5,4.3-1.1,5.2,0c0-0.5,1.5-0.5,2.1-0.5v1h0.5c0.5,0,0-0.5,0-1.1h2.6
	c0,0.5-0.5,1.1-1.1,1.1c0,0.5,1.1,0.5,1.1,1.1h-2.6C90.4-38.6,89.8-39.1,88.9-39.1z M82.5-38.1c1.1,0,1.5-0.5,2.1-1.1
	C84.1-38.6,83.1-39.1,82.5-38.1z M112-35.3c0-1.1,2.6-1.1,2.6,0c0,0,0-0.5,0.5-0.5c0.5,1.1,2.6,2.2,3.7,1.6v1.1h-1.1
	c0,0.5,0.5,0.5,0.5,0.5c0.5,0,0-1.1,0.5-0.5c0,0.5,0,0.5,0.5,0.5c-0.5,0.5-0.5,0.5-0.5,1.1c-1.5,0-3.2-0.5-3.2-1.6
	c1.1-0.5,0,1.1,1.1,0.5c0-0.5-1.1-1.1-1.1-1.6c-0.5,0,0,1.1,0,1.6c-2.1-0.5-4.3-0.5-5.2-2.7c-1.1,1.1-2.1-0.5-3.7,0V-38
	c1.1-0.5,0.5,0.5,1.5,0.5c-0.5,1.1,0,1.1,0,1.6C110.5-35.3,113.1-37.5,112-35.3z M124.1-31.1c2.2-0.5,1.6,1.1,3.2,1.1
	c0,0.5-1.1,1.6,0,2.2c0-0.5,0.5-1.1,0.5-1.6c1.1-0.5,0,1.1,1.1,0.5c-0.5,1.1-0.5,0.5,0,1.6c-1.1,0-1.5,0-1.5,0.5
	c-1.1-0.5-1.5-1.1-2.6-1.6c0-0.5,0.5-0.5,1.1-1.1C125.2-30,124.6-30,124.1-31.1c-0.5,1.1,1.1,1.1,0.5,2.2c-1.1-0.5-2.1-0.5-2.1-1.6
	c-0.5,0-0.5,1.1-1.5,0.5c0-0.5-0.5-0.5,0-1.1h1.1c0.5-1.1-0.5-0.5-0.5-1.6c1.1,0,1.5,1.1,2.6,0.5L124.1-31.1z M43.6-22.5
	c0.5,0,1.1,0,1.1-0.5h1.1c0.5,0,0-1.1,0-1.1c1.1-0.5,0,1.1,1.1,0.5c0.5-1.1-1.1,0-0.5-1.1c1.1,0,0.5-1.1,1.5-1.1
	c0,1.6-1.1,2.2-0.5,3.8c-1.5,0.5-2.1,2.2-4.3,2.7c0,1.1-1.1,1.6-1.5,2.2h-0.5c0-1.1,1.1-0.5,1.1-1.6c0-0.5-0.5,0-0.5,0
	c-0.5,1.1-1.1,2.2,0,3.3C37-11.6,34.8-5.7,30.1-1.3c0-1.1,0-1.1,0.5-1.1c0-0.5-1.1,0-1.5,0c0.5-1.1,1.5-1.1,1.5-2.7
	c0.5-0.5,0,1.1,0,1.1c0.5-0.5,1.1-1.1,2.1-1.1v-0.6c0-0.5-0.5,0-1.1,0c-0.5-1.1,0.5-1.1,0.5-2.2c1.5,0,1.1-2.2,2.6-1.6v-1.6
	c1.1-0.5,0,1.1,1.1,0.5c-1.5-1.6,1.5-2.2,1.1-3.8c1.1,0.5,2.1-3.3,2.6-1.1c0.5,0,0-1.1,0-1.6c1.1-0.5,1.1-1.6,2.6-1.6
	c0.5,0.5,0,1.6,0,2.2C43-19.2,44-20.3,43.6-22.5z M136.8-21.9c2.1-0.5,2.1,3.3,3.2,1.6c0,1.1-0.5,2.2-1.1,2.7c0-1.1-1.1-1.1-2.1-1.6
	c0-0.5,0.5-1.1,1.5-1.1C137.9-20.8,137.3-20.8,136.8-21.9c-0.5,0.5,0,1.6,0,1.6h-1.1h0.5C136.2-20.8,136.8-21.4,136.8-21.9z
	 M27.7,0.7c0-1.1-0.5-1.6-0.5-2.2c0.5,0,0.5-0.5,0.5-0.5h2.1c0,1.6-1.1,1.1,0,2.2c-2.1,2.2-2.1,6.4-4.3,8.6C26,10.4,25,11,25,11.5
	c-1.1,0-0.5-1.1-1.1-0.5h-0.5c-0.5,0.5,0,2.2,0,2.7c-0.5,0-0.5,0.5-0.5,0.5h-1.5c1.1-5.3,3.2-9.2,4.7-13.5H27.7z M86.8,125.8
	c0,0.5-1.5,0.5-1.1,2.2h-1.1C84.6,126.4,86.2,125.3,86.8,125.8z M129.3-28.4c0.5,0,0.5,1.1,1.1,0.5v1.1c1.5-0.5,1.5,0.5,2.6,0.5v1.6
	c-1.1-0.5-0.5,0.5-1.1,0.5c-0.5,0-1.1-0.5-2.1-0.5c-0.5-0.5,0-1.6-0.5-1.6c0-1.1,1.1-0.5,0.5-1.1C129.9-27.3,129.3-27.3,129.3-28.4z
	 M89.8,71.9c1.1,0,1.5,0.5,1.5,1.1C90.4,73,90.4,72.4,89.8,71.9z"/>
<path class="st0" d="M172.9,43.3c-1.3,0-1.3,0.5-2.5,0.5c0.4-0.9-0.9-0.5-0.9-1.3c-0.4,0-0.4,1.3,0.4,0.9c-3.4,1.7-7.1,3.1-11.4,3.5
	c0-0.9-0.4-1.3-1.3-1.3c0,0.5,0.9,0.9,0.4,1.7c-3.8,0.5-8,3.5-11.9,2.2c-0.4,0,0,0.5-0.4,0.9c-14.8,4.4-30,8.4-44.7,12.9
	c-0.9,0-0.4-0.9-0.9-0.9s0,0.9-0.4,1.3c-3.4,0.5-5.9,1.7-8.5,1.3c0-0.9,1.6,0,1.3-1.3c0.9,0,0.9,0.5,1.3,0.5c0.4,0,0-1.3,0.9-0.9
	c0-0.5-0.4-1.3-0.4-2.2c0.4,0.9,0.9,0.5,0.9-0.5c0.9,0,1.6,0,1.6,0.5c0.4,0,0-0.5,0.4-0.9c6.4-1.3,12.2-3.5,18.6-5.4
	c2.5,0,4.6-0.9,6.8-2.2c1.3,0.9,3-0.9,5.1-0.9c0.4,0.9-0.4,0.5-0.9,0.9c0.9,0.5,1.3-1.3,2.5-2.2c0.9-0.5,1.6,0.5,2.1-0.5
	c0,0.5-0.4,1.3,0.4,1.3c0.4,0,0-0.9,0.4-1.3c5.5-1.3,10.1-3.5,16.9-4c1.6-1.7,5.5-1.7,7.1-3.1c2.1,0.9,5.1-1.7,8.5-1.7
	c0,1.3,1.3,1.3,1.3,2.2c0.4-0.9-1.6-1.3-1.3-2.7c1.3-0.5,0.9,0.9,1.3,0.9s0-0.9,0.4-1.3c1.3,0.5,2.5-0.9,2.5,0
	c2.1-0.9,5.9-2.2,8-1.7c0.4-0.9-0.9,0-0.4-0.9c0.4,0,1.6,0.5,1.6-0.5c3,0.5-1.3,0.5,2.1-0.5c0.4,0.9-0.9,0-0.4,0.9
	c0.9,0,0.9-1.3,1.3-1.3c5.1,0.5,8.9-4,12.6-2.2c0.9-0.5,1.3-2.2,0-2.7c-0.9,0,0.4,1.7-0.9,1.3c0-5.8-3.8-10.3-2.5-15.5
	c0.9-0.5,0,0.9,0.9,0.9c0.9-0.5-0.4-0.9-0.4-1.3c0.4,0,0.4,0,0.4-0.5s-0.9,0-1.3-0.5c-0.4,0,0,0.9-0.4,1.3c-2.1-4.9-3-11.5-5.1-16.9
	c-0.4-0.9,0.4-1.3,0.4-1.7s-0.4,0-0.9-0.5c-1.3-5.4-2.5-9.8-3.8-15.1c1.3,0.9,0.9-1.3,2.1-1.3c-0.9,0-0.9-0.5-1.3-1.3
	c-0.4,0,0,1.3-0.4,2.2c-1.6,0.5-0.4-1.7-1.6-2.2c0-0.5,1.3,0,1.3,0c0.4-0.5,0-1.3,0.9-1.3l-0.9-0.9c-0.9,0,0,1.3-0.4,0.9
	c-0.9,0,0-0.5-0.4-0.9c-1.3-0.5-1.3,0.9-2.1,0.9c0,0.9,0.9,0.9,0.9,1.7c-1.3,0.9-3,1.3-4.2,2.2c-0.9,0.5,0-0.9-0.9-0.9
	c-0.4,0.5,8.9-0.9,7.6-0.9v-1.7h-0.9c-0.4,0.5,0,1.7-0.4,2.2c-9.3,2.2-17.7,5.4-27,7.1V-13c-0.4,0-0.4,0.5-0.9,0.5
	c0.4,0.5,0.9,0.9,0.4,2.2C135-5.9,118.1-1.4,102.1,3.9c-2.5-0.5-4.2,2.2-5.9,0.5c-0.4,0.5-0.4,0.9-0.9,1.3c-1.3-0.9-3.4,0.5-4.6,0.9
	V5.3h-1.3c0.4,0.9,0.4,0.5,0,1.3c-0.9-0.9-1.3,0.5-3,0c-0.4,0,0,0.9-0.4,1.3c-1.6-0.9,1.3-2.2,0-2.7h1.2V4.3c-0.9,0-0.4,0.9-1.3,0.5
	C85.5,5.2,85.5,6,84.6,6c0.4-0.5,0.9-0.5,0.9-1.3c-0.4,0.5-1.3,0.9-2.1,0.9c1.3,0,0.4,1.7,2.1,1.3v1.3C84.6,7.8,84.6,6,83.4,6
	c0,0.9-0.9,1.3-1.3,1.7c0.4,0.9,0.9-0.9,1.6-0.5v0.9c-0.9,0-1.3,0-1.6,0.5C81.6,7.8,80.4,8.3,80,7c-0.9,0.5,0,0.9,0,1.3
	c-0.5-0.5-1.3-1.3-1.3-2.7c-0.9-0.5-0.9,0.5-1.3,0.9c0.4,0.5,0.4,0.9,1.3,0.9v1.7c0.9,0.5,0-0.9,0.9-0.5c0.4,0.9-0.9,0-0.4,0.9
	c-16.5,4.4-33,8.9-49,13.7c-2.1,0-3.4,0.9-5.1,1.3c-0.4,0-0.4-0.5-0.4-0.9h-1.4c-0.4,0.9,0.9,0.5,0.4,1.3c-1.3-0.5-2.5,1.3-3.4,0
	c-0.9,1.7-3.8,2.2-5.5,0.9c0,0.9,0.9,0.5,0.4,1.3c-1.3,0.5-0.4-1.3-1.6-0.9c0,0.5,0.4,0.5,0.4,0.9c-1.6,0.5-1.6-0.5-3-2.2
	c-0.9,0.5,0.4,0.9,0,1.3c-0.9,0,1.3,3.1,0,2.7c0-0.5,2.5-3.1,2.1-3.5c-0.4,0.5-0.4,0.9-0.4,1.3c-1.6,0-2.5,0.5-4.2,0.9
	c0-0.5,0.4-0.5,0.4-0.9c-0.9,0-1.3,0.5-1.3,1.3c-0.4,0-0.4,0-0.4-0.5c-0.4,0,0,0.5-0.4,0.9c-0.9-0.9,3.8-3.1,3-2.2v-0.6
	c-0.9,0-0.9,0.9-1.3,1.3c0.4,0.9,0.4-0.9,1.3-0.5v0.9c-2.5,1.3-3.4,3.5-5.1,2.2c-0.9,0,0.4,0.5,0,0.9c-1.3,0.5-3,0.5-3.8,0.9
	c0-0.9,0-0.9,0.4-1.3c-0.9-0.5-1.6-1.7-2.5-1.3c0.4,0.9,0.9,0.9,2.1,0.9c-0.4,0.9-0.4,1.7-1.3,2.2c-0.9,0-0.4-0.9-0.9-0.9
	c-0.4,0.5-0.4,0.9-0.9,1.3c-1.6,0-3,0.5-4.2,0.9c0-0.5,0.4-1.3-0.4-1.3c-0.4,0,0,0.9-0.4,1.3c0,0.9-0.4-0.5-0.4-0.9
	c-1.3,0.5-1.3,1.7-3,1.3v-1.3c-0.9,0,0.4,1.3-0.9,0.9v-0.9c-0.9,0-0.9-0.5-1.6-0.5c-0.9,0.9-0.4,2.2-0.4,3.5h0.9
	c0.4,0,0-1.3,0.4-1.7c0.9-0.5,0.9,0.5,1.3,0.5c0,1.7,0.4,2.7,0.4,4c0,0-0.4,0-0.4-0.5h-0.2c0-0.9,0.9-0.5,0.4-1.3
	c0.4,0.9,0.4,0.5-0.4,0.5c-0.4,0,0,0.5-0.4,0.9h-1.2c0-2.7-1.3-3.5-1.3-6.2c0.9,0,0.9,0.5,1.3,0.5s0-0.5,0.4-0.9
	c1.6,0.5,2.5-1.3,3.8,0c0.4-0.5,1.3-0.5,1.3-1.3c0.9-0.5,0.9,0.5,0.9,0.9c0-1.7,1.6-0.9,3.4-1.7c-0.4,0.9,0.9,0.5,0.4,1.7h0.9v-0.9
	c0-0.9-1.3,0-0.9-0.5c0.4-0.9,2.1-2.2,3-0.9c0.4,0,0-0.5,0.4-0.9c0.4,0,0.4,0.5,0.9,0.5c2.5-1.7,7.1-1.7,10.1-3.1l-2,0.8
	c3.4-0.9-0.4,0,3.4-0.5c-0.4,1.3,0.9,0.9,1.3,0.9c0-0.9-0.9-0.5-0.4-1.3c4.2-0.5,7.6-3.1,11.9-2.7c0.4,0,0-0.5,0.4-0.9
	c3-0.9,6.4-1.7,9.3-2.7c4.2-0.5,8-2.2,11.9-3.1c9.3-2.2,18.6-4.9,27-7.6c2.5,0,4.2-1.7,6.8-0.9c0.4,0,0-0.5,0.4-0.9
	c0.4,0,1.6-0.5,1.3,0.5c0-0.5,0.9-0.5,0.9-0.9c21.2-5.9,42.2-12,63.8-17.8c0.9,0,0.4,1.3,1.3,0.9c0.4-0.9-0.9-0.5-0.4-1.3
	c3.8-0.5,7.1-1.7,11-2.7l3.8-1.3c5.1-0.5,8.5-2.2,12.6-3.1c-0.4,0.9,0.4,0.9,0.9,1.3c0.9-0.5-0.9-0.5-0.4-1.3
	c5.5-1.3,0.9-0.9,6.4-1.7c0,2.2,1.3,3.5,0.4,4.9c0,0.5,0.4,0,0.9,0.5c0,3.1,2.5,6.2,1.3,8.9c1.3,1.3,1.3,4.4,2.1,6.2
	c-0.9,0-0.4-0.9-1.3-0.5c2.1,1.3,3,4.4,2.5,7.6c0.9,0-0.4-1.7,0.9-1.3c-0.4,2.7,2.1,4.9,0.9,7.1c2.5,3.1,1.6,9.3,4.2,12.5
	c0.4,5.4,2.1,8.4,3,12.9c-9.7,2.7-9.7,3.5-19,6.2h-5.9v-0.2H172.9z M91,5.2c0,0.9,1.3,0.5,1.3,0.9c-0.4-0.9,0.4-0.9,0.4-1.3
	C92.7,4.8,92.3,5.7,91,5.2z M182.3-20.1c0-0.9-0.4-1.3-1.3-0.9C180.9-20.5,181.4-20.1,182.3-20.1z M181.8-13.4
	c0-0.9-0.4-1.3-0.9-1.3C180.9-14.8,180.9-13.9,181.8-13.4z M170-16.1c0.4-0.5,1.3-0.5,1.3-0.9H170V-16.1z M153-12.6
	c1.3,0.5,0.9-0.9,2.1-0.5V-14C153.9-14.3,153.5-13.4,153-12.6z M149.7-12.1c0.4-0.9-0.4-0.9-0.9-0.9
	C148.9-12.1,149.3-12.1,149.7-12.1z M184.8,2.1c0.4-0.5,1.3-0.5,1.3-0.9h-0.9C185.5,1.6,184.3,1.1,184.8,2.1z M186,5.2
	c0.9,0,0.4-1.3,0.4-2.2c-0.9,0-0.9,0-1.3-0.5C185.1,3.8,186.4,3.4,186,5.2z M191.5,22.1v-1.3h-0.9C190.3,21.6,191,21.6,191.5,22.1z
	 M192.8,22.1h-0.9c0.4,1.3-0.9,0.9-0.9,2.2c0.4,0,0.9,0,0.9,0.5c0.9,0,0.4-0.9,1.3-0.5V23c-0.9-0.5,0,1.3-0.9,1.3
	c0-0.5-0.9-0.5-0.9-0.9h0.9C192.8,22.9,192.8,22.5,192.8,22.1z M192.8,28.3c0.4-0.5,0.9-0.9,0.9-1.7
	C193.1,26.5,193.1,27.4,192.8,28.3z M172,43v-1h-0.9C170.8,43,171.3,43.3,172,43z M102,60.7h0.9c0-0.5-0.4-0.9-0.9-0.9V60.7z
	 M99,62.4v-1.3h-0.8C97.8,62,98.2,62.4,99,62.4z M26.4,23.4c0.9,0.5,1.3-1.3,0.4-0.9C26.8,22.9,26.4,22.9,26.4,23.4z M12.9,26.9
	c0,0.5-1.3,0-0.9,0.9c1.3,0,1.6-0.5,1.6-1.3h-0.9v0.3L12.9,26.9z M10.8,27.4v-1H9.9C9.5,26.9,9.9,27.4,10.8,27.4z M3.2,30.5
	C3.6,29.6,2.3,30,1.9,30C1.4,31,2.8,30.5,3.2,30.5z M-4.8,32.2c0-0.9-0.4-1.3-0.9-1.3C-5.3,31-5.7,32.2-4.8,32.2z M-2.7,32.2v-0.8
	h-0.9C-3.6,31.8-3.6,32.2-2.7,32.2z M-4.7,56.4v-1.7c-0.4,0-0.4,1.3-0.9,0.5c0.9-5.4-2.1-10.6-3-16c-0.9-0.5,0,0.9-0.9,0.5
	c0-0.9,1.3-2.7,0-3.1v2.2c-0.4,0-0.4,0.5-0.9,0.5c0-0.9-0.4-0.9-0.9-0.9c-0.4,0.9-0.4,1.7-1.3,0.9c0.4,0.9,0.4,1.3,0.4,2.7
	c0.4,0.5,1.3,0,1.3,0.5c0,0.9-1.3,0-0.9,0.9c1.6,2.7,1.3,7.6,3.8,9.3c-0.9,1.3,0.4,4.9,1.3,5.8c0,0.5-0.4,0.5-0.4,0.9l6.4,24
	c0.4,0.5,1.3,0,1.3,0.5c-0.4,0.5,0,0.9-0.4,0.9s-0.4-0.5-0.9-0.5c0,1.7,0,3.1,1.3,3.5c-1.3,0.9,0,2.2,0,3.1
	c9.3-2.2,4.2-0.5,13.5-2.7l3.8-1.7c2.1-0.9,4.6-1.7,7.1-2.2c0-0.9-1.6-0.9-0.9-1.7c0.4,0.5,0.9,0.9,0.9,1.3
	c12.2-2.2,23.2-6.2,35-9.3c0.4-0.5,0-0.9,0.4-0.9c1.6,0.9,3.4-0.5,5.1-0.5c0.4-0.5,0-0.9,0.4-0.9c2.9,0.7,8.8-2.4,13.4-2.9
	c0.4-0.5-0.9-0.9,0-0.9c-0.4,0.9,0.9,0.5,1.3,0.5c0.4-0.5,0.4-1.7,1.3-2.7c0.4,0,0.4,1.7,0,1.7c2.5,0.5,3.4-0.9,5.5-0.9
	c0.4-0.9-1.3,0-0.9-0.9c-0.9-0.5,0,0.9-0.9,0.5c-0.4-0.9,0.9,0,0.4-0.9c-1.3,0.5-2.1,1.3-3,2.2c0.4-1.7,0.4-1.7,0.4-2.7
	c0.4,0.5,1.3,0.5,1.6,0.9c0-1.3,0.9-1.7,1.6-2.2c0.4,1.7,2.1,0.9,3.8,0.9C90,64,90.8,64,90.8,64.4c-0.4-0.5-0.4-1.3-1.3-1.3
	c0,0.5,0,0.5-0.4,0.5c-0.4,0.9,0.9,0,0.4,0.9c-0.4-0.5-1.3,0-1.3-0.5s0.4-0.5,0.4-0.9c-2.1,0.5-3.8,1.3-6.4,1.3
	c0.4,1.7-2.1,0.5-0.9,1.7c-0.9,0-1.6-0.5-0.9-0.9c-1.3,0-3,0.5-2.1,1.3c0-0.5,0-0.5,0.4-0.5c-0.4,0.5,0,1.3-0.4,1.3
	c-0.4-0.5-0.9-0.5-1.3-0.9c0-0.5,0.4-0.5,0.4-0.9c-0.8-0.5-1.1,0.4-1.6,0.9c-1.6-0.9-4.6,1.3-7.1,1.3c-0.4,0.5,0,0.9-0.4,0.9
	c-0.9,0.5-1.3-0.5-1.6-0.5c0,1.3-1.6,1.3-2.1,2.2C64.2,69.4,65,69.8,65,69c-0.9,0.5-1.6,1.3-2.5,0.5c-0.4,0.9-1.6,0.9-3,0.9
	c-4.6,1.3-9.7,3.1-15.2,4c-0.9,0.5,0,0.9-0.4,1.3c0-0.5-0.4-0.9-0.9-0.9c-0.4,0.5,0,0.9-0.4,0.9c0-0.5-0.4-0.5-1.3-0.5
	c-15.6,4.9-19,4.4-35,9.3c0.4,0,0.4,0,0.4,0.5c-1.3,0.5-0.9-0.9-2.1-0.5c-0.4,0.9-0.9,1.7-1.3,2.7c-1.6-1.3,0-3.1-0.9-4.9
	c-0.4,0.5-1.3,1.3-1.6,0.5c0-0.9,0.9-0.5,1.3-0.5v-1.7c-0.4,0-0.4,0.5-0.9,0.5c0.9-3.1-1.3-5.8-1.3-9.3c-0.4-0.5-0.9,0-0.9-0.5
	s-0.4-0.9-0.4-0.5c0.4,1.7-1.3,1.7-1.3,3.1c-0.4,0-0.9,0-0.9-0.5c1.3-0.5,0.9-3.1,2.1-4C-1.9,65-2.8,61-4.9,57.9V57
	c0.2-0.1,0.4-0.2,0.4-0.8C-4.4,56.4-4.5,56.4-4.7,56.4z M-8.2,33.6c0-0.9-0.4-1.3-1.3-1.3C-9.5,32.7-9.5,33.6-8.2,33.6z"/>
<g>
	<path class="st0" d="M20,39.7l15-4.1c-1-1.3-2.1-2.5-3.3-3.6l2.8-1.3c1.2,1.4,2.3,2.7,3.3,4.1l14.3-3.9l0.7,2.6l-32.1,8.8L20,39.7z
		 M33.4,41.9c-1.8,4.5-4.4,8.6-7.7,12.5l-2.3-1.8c3.3-3.7,5.8-7.7,7.6-11.8L33.4,41.9z M47.6,44.7c-0.8,3.9-2.2,7.4-4,10.6
		c4.6,1.8,10,2.7,16.1,2.6l-1,2.9c-6.4-0.1-11.9-1.2-16.6-3.2c-3.2,4.5-7.5,8.3-12.9,11.4L27,67c5.3-3.1,9.5-6.6,12.5-10.6
		c-3.3-1.7-6.2-3.9-8.7-6.6l1.9-1.9c2.4,2.6,5.2,4.6,8.4,6.2c1.9-3.1,3.2-6.4,3.9-9.9L47.6,44.7z M42.8,37.4c5,2.2,9.2,4.5,12.7,7
		l-1.4,2.5c-3.1-2.4-7.3-4.8-12.6-7.2L42.8,37.4z"/>
	<path class="st0" d="M64,38.4l-3.4-13.1l22.2-6.1l3.4,13.1l-14.3,3.9c-0.4,1.1-0.9,2.3-1.5,3.6l19.2-5.3c0.9,4,1.6,7.3,1.9,9.8
		c0.3,2.5,0.2,4.4-0.3,5.5c-0.5,1.1-1.6,2-3.3,2.5l-4.7,1.3l-1.3-2.3c1.5-0.3,2.9-0.7,4.2-1c1.8-0.5,2.8-1.5,3-3.1
		c0.2-1.6-0.3-4.8-1.3-9.7l-3.5,1c-1.3,8-5,14-11.2,18.2L70.8,55c5.9-3.8,9.4-9,10.7-15.6l-4.8,1.3c-1.4,4.9-4.7,9.2-9.8,13.1
		l-2.2-1.6c4.7-3.4,7.8-7,9.2-10.7L68.4,43c-1.5,1.9-3.2,3.7-5.3,5.5l-2-2c3.9-3,6.6-6.2,7.9-9.4L64,38.4z M64.5,30.1l17.1-4.7
		l-0.8-3.2l-17.1,4.7L64.5,30.1z M83,30.7l-0.8-3.2l-17.1,4.7l0.8,3.2L83,30.7z"/>
	<path class="st0" d="M116.3,8.4c2.1,0.8,3.9,1.8,5.5,2.9l-1.2,2.2l4.4-1.2l0.7,2.6l-11.1,2.9c1.4,4.5,2.8,8,4.2,10.5
		c0.4,0.7,0.8,1.5,1.4,2.4c1-3.4,1.6-7.3,1.7-11.6l2.6,0.4c-0.2,5.4-1,10-2.4,14c0.8,1.1,1.7,1.9,2.4,2.6c1.7,1.5,2.9,2.1,3.6,1.9
		s0.8-2.3,0.3-6.3l2.7,0.7c0.4,5.2-0.2,8-1.8,8.4c-1.5,0.4-3.4-0.2-5.8-2c-0.9-0.7-1.8-1.6-2.6-2.6c-1.7,3.7-4.1,6.8-7.1,9.3l-2-1.8
		c3.2-2.7,5.6-6,7.3-9.9c-0.9-1.3-1.8-2.7-2.5-4.1c-1.6-2.8-3.1-6.5-4.7-11.2L99.4,22l1.6,6.2l8.9-2.4c1.6,6.2,2.4,10.3,2.4,12.3
		c0,1.7-1,2.9-2.8,3.4c-0.5,0.1-1.5,0.4-3.1,0.7L105,40c1.4-0.3,2.6-0.6,3.6-0.9c0.8-0.3,1.2-0.9,1.1-2.1c-0.1-1.2-0.7-3.9-1.7-8.1
		l-6.3,1.7l0.3,1.1c1.6,6.7,1.6,12.4-0.1,17.2l-2.5-1.3c1.4-4,1.4-9.1-0.1-15.2l-3.2-12.2l15-4.1c-0.6-1.8-1.1-3.7-1.6-5.7l2.7-0.7
		c0.5,2.1,1.1,4,1.6,5.7l6.8-1.9c-1.4-1-3.3-2-5.5-2.9L116.3,8.4z"/>
	<path class="st0" d="M134.4,10.2l-5.2,1.4L128.5,9l13.1-3.6l0.7,2.6l-5.2,1.4l4.7,17.8c1.6-1,3.3-2.2,5.2-3.7l0.7,2.7
		c-3.7,2.9-7.8,5.5-12.1,7.8l-1.4-2.5c1.9-0.9,3.6-1.9,5.2-2.8L134.4,10.2z M147.3,0.1l2.7-0.7l1.8,6.9l9.2-2.5
		c3.2,11.8,5,19.3,5.3,22.3c0.4,3.1-1.3,5.2-5,6.2L158,33l-1.3-2.3c1.4-0.3,2.5-0.6,3.5-0.9c2.4-0.7,3.5-2.1,3.3-4.2
		c-0.2-2-1.7-8.2-4.3-18.6l-6.6,1.8l0.1,0.4c2.8,11.1,2,20-2.3,26.6l-2.6-1.3c4.1-6.1,4.9-14.3,2.3-24.6L150,9.5l-5.4,1.5l-0.7-2.6
		l5.4-1.5L147.3,0.1z"/>
</g>
</svg>
