<?xml version="1.0" encoding="utf-8"?>
<!-- Generator: Adobe Illustrator 19.0.0, SVG Export Plug-In . SVG Version: 6.00 Build 0)  -->
<svg version="1.1" id="图层_1" xmlns="http://www.w3.org/2000/svg" xmlns:xlink="http://www.w3.org/1999/xlink" x="0px" y="0px"
	 viewBox="-75.9 24.4 17.8 17.8" style="enable-background:new -75.9 24.4 17.8 17.8;" xml:space="preserve">
<style type="text/css">
	.st0{fill:url(#SVGID_1_);}
	.st1{fill:#FFFFFF;}
	.st2{fill:#FFF8A4;}
</style>
<linearGradient id="SVGID_1_" gradientUnits="userSpaceOnUse" x1="-74.676" y1="28.8528" x2="-59.3015" y2="37.7293">
	<stop  offset="1.240750e-006" style="stop-color:#FF9C00"/>
	<stop  offset="1" style="stop-color:#FFF000"/>
</linearGradient>
<circle class="st0" cx="-67" cy="33.3" r="8.9"/>
<circle class="st1" cx="-72.2" cy="39" r="0.3"/>
<circle class="st1" cx="-63.6" cy="40.2" r="0.3"/>
<circle class="st1" cx="-60" cy="34.4" r="0.3"/>
<circle class="st1" cx="-72" cy="28.9" r="0.4"/>
<path class="st1" d="M-68.1,29.2c-0.2-0.2-0.6-0.4-0.8-0.4c-0.1,0-0.2,0-0.3,0.1c0,0-0.1,0.1-0.1,0.2c0,0.2,0.1,0.5,0.4,0.7
	c0.3,0.3,0.9,0.5,1.3,0.5c0.1,0,0.2,0,0.2,0C-67.5,30.3-67.6,29.7-68.1,29.2L-68.1,29.2z M-66.4,30.5c0,0,0.1,0,0.2,0
	c0.4,0,0.9-0.2,1.3-0.5c0.3-0.3,0.4-0.5,0.4-0.7c0-0.2-0.1-0.2-0.1-0.2c-0.1-0.1-0.3-0.1-0.3-0.1c-0.3,0-0.6,0.1-0.8,0.4
	C-66.4,29.7-66.5,30.3-66.4,30.5L-66.4,30.5L-66.4,30.5z M-67.4,38.2h-3.3c-0.4,0-0.7-0.3-0.7-0.7v-2.6h4.1V38.2L-67.4,38.2
	L-67.4,38.2z M-62.6,37.5c0,0.4-0.3,0.7-0.7,0.7h-3.3v-3.3h4.1V37.5L-62.6,37.5z M-62.6,34.2h-4.1v-3c-0.1,0-0.3-0.1-0.4-0.2
	c0,0,0,0,0,0c0,0,0,0,0,0c-0.1,0.1-0.2,0.2-0.4,0.2v3h-4.1v-2.6c0-0.4,0.3-0.7,0.7-0.7h1.7c-0.2-0.1-0.4-0.2-0.5-0.4
	c-0.7-0.6-0.8-1.6-0.3-2.1c0.2-0.2,0.5-0.3,0.9-0.3c0.5,0,1,0.2,1.4,0.6c0.2,0.2,0.4,0.5,0.6,0.8c0.1-0.3,0.3-0.6,0.6-0.8
	c0.4-0.4,0.9-0.6,1.4-0.6c0.3,0,0.6,0.1,0.9,0.3c0.5,0.5,0.4,1.4-0.3,2.1c-0.1,0.1-0.3,0.3-0.5,0.4h1.7c0.4,0,0.7,0.3,0.7,0.7V34.2
	L-62.6,34.2L-62.6,34.2z"/>
<path class="st2" d="M-67.4,38.2L-67.4,38.2L-67.4,38.2h-3.3c-0.4,0-0.7-0.3-0.7-0.7v-2.6 M-62.6,34.9v2.6l0,0
	c0,0.4-0.3,0.7-0.7,0.7h-3.3"/>
</svg>
