<?xml version="1.0" encoding="utf-8"?>
<!-- Generator: Adobe Illustrator 19.0.0, SVG Export Plug-In . SVG Version: 6.00 Build 0)  -->
<svg version="1.1" id="图层_1" xmlns="http://www.w3.org/2000/svg" xmlns:xlink="http://www.w3.org/1999/xlink" x="0px" y="0px"
	 viewBox="-260 234.3 86 33.5" style="enable-background:new -260 234.3 86 33.5;" xml:space="preserve">
<style type="text/css">
	.st0{fill:#999999;}
</style>
<path class="st0" d="M-224,262.4c-3-3-4.8-7-4.8-11.4c0-2.5,2-4.5,4.4-4.5c2.5,0,4.5,2,4.5,4.4c0,4.3,4,7.8,8.8,7.8l19.4,0
	c2.6,0,5-1,6.7-2.6c1-1,2.1-2.7,2.1-5.2c0-2.7-1.3-4.4-2.5-5.4c-1.7-1.5-3.9-2.3-6.4-2.3l-11.1,0c0-2.6-4.4-8.9-7.3-8.9l18.4,0
	c4.7,0,9.1,1.6,12.4,4.6c3.4,3.1,5.4,7.4,5.4,12c0,4.3-1.7,8.4-4.7,11.5c-3.3,3.3-8,5.2-13,5.2l-19.4,0
	C-216.2,267.7-220.8,265.7-224,262.4z M-222.9,234.3l-19.4,0c-4.9,0-9.6,1.9-13,5.2c-3.1,3.1-4.7,7.2-4.7,11.5c0,4.6,1.9,8.9,5.4,12
	c3.3,3,7.7,4.6,12.4,4.6l18.4,0c-2.9,0-7.3-6.3-7.3-8.9l-11.1,0c-2.5,0-4.7-0.8-6.4-2.3c-1.1-1-2.4-2.8-2.4-5.4
	c0-2.5,1.2-4.2,2.1-5.2c1.6-1.7,4.1-2.6,6.7-2.6l19.4,0c4.9,0,8.8,3.5,8.8,7.8c0,2.5,2,4.4,4.5,4.4c2.5,0,4.4-2,4.4-4.5
	c0-4.4-1.9-8.4-4.8-11.4C-213.2,236.3-217.8,234.3-222.9,234.3z"/>
</svg>
