<?xml version="1.0" encoding="utf-8"?>
<!-- Generator: Adobe Illustrator 19.0.0, SVG Export Plug-In . SVG Version: 6.00 Build 0)  -->
<svg version="1.1" id="图层_1" xmlns="http://www.w3.org/2000/svg" xmlns:xlink="http://www.w3.org/1999/xlink" x="0px" y="0px"
	 viewBox="-281 373 48 48" style="enable-background:new -281 373 48 48;" xml:space="preserve">
<style type="text/css">
	.st0{fill:url(#SVGID_1_);}
</style>
<linearGradient id="SVGID_1_" gradientUnits="userSpaceOnUse" x1="-269.8974" y1="397" x2="-244.1025" y2="397">
	<stop  offset="3.993217e-007" style="stop-color:#C1D6FF"/>
	<stop  offset="1" style="stop-color:#578EFF"/>
</linearGradient>
<path class="st0" d="M-244.1,388.9c0-7.1-5.8-12.9-12.9-12.9c-7.1,0-12.9,5.8-12.9,12.9c0,2.4,0.6,4.5,1.7,6.4h0L-257,418l11.2-22.6
	h0C-244.7,393.5-244.1,391.3-244.1,388.9z M-257,392.8c-3,0-5.4-2.4-5.4-5.4c0-3,2.4-5.4,5.4-5.4c3,0,5.4,2.4,5.4,5.4
	C-251.6,390.3-254,392.8-257,392.8z"/>
</svg>
