<?xml version="1.0" encoding="utf-8"?>
<!-- Generator: Adobe Illustrator 19.0.0, SVG Export Plug-In . SVG Version: 6.00 Build 0)  -->
<svg version="1.1" id="图层_1" xmlns="http://www.w3.org/2000/svg" xmlns:xlink="http://www.w3.org/1999/xlink" x="0px" y="0px"
	 viewBox="-75 77 48 48" style="enable-background:new -75 77 48 48;" xml:space="preserve" class='run'>
<style type="text/css">
	.st0{fill:#588FFF;}
	.run {
		animation: 1s run;
	}

	@keyframes run {
		from {
			-webkit-clip-path: circle(0%);
			clip-path: circle(0%);
		}
		to {
			-webkit-clip-path: circle(100%);
			clip-path: circle(100%);
		}
	}
</style>
<path class="st0" d="M-62.9,121.4L-62.9,121.4L-62.9,121.4L-62.9,121.4L-62.9,121.4L-62.9,121.4z"/>
<path class="st0" d="M-32.6,120.8"/>
<path class="st0" d="M-70.2,122.1c-0.8,0-1.3-0.6-1.3-1.3c0-0.2,0.1-0.4,0.2-0.6c1.6-7.3,7.1-13.2,14.3-15.4
	c-4.1-2.2-6.9-6.4-6.9-11.4c0-7.2,6-13.1,13.2-13.1s13.2,5.9,13.2,13.1c0,4.9-2.8,9.1-6.9,11.4c7.2,2.2,12.7,8.1,14.3,15.4l0,0l0,0
	c0.1,0.2,0.2,0.4,0.2,0.6c0,0.7-0.6,1.3-1.3,1.3"/>
<path class="st0" d="M-40.2,93.4c0-5.8-4.8-10.5-10.7-10.5s-10.7,4.7-10.7,10.5s4.8,10.5,10.8,10.5C-44.9,103.9-40.2,99.2-40.2,93.4
	L-40.2,93.4L-40.2,93.4z"/>
</svg>
