<?xml version="1.0" standalone="no"?><!DOCTYPE svg PUBLIC "-//W3C//DTD SVG 1.1//EN" "http://www.w3.org/Graphics/SVG/1.1/DTD/svg11.dtd"><svg t="1513155396946" class="icon" style="" viewBox="0 0 1024 1024" version="1.1" xmlns="http://www.w3.org/2000/svg" p-id="1878" xmlns:xlink="http://www.w3.org/1999/xlink" width="200" height="200"><defs><style type="text/css"></style></defs><path d="M281.614889 554.720987 316.666196 495.989351l108.952434 0 56.034201 0 105.431238 0 95.474468 0 68.89102 0-1.74883 5.0449 4.601808-5.0449 67.001997 0c-11.515265-106.378819-64.976874-181.298136-106.795305-207.815069 1.216711 8.468882 23.524786 168.017668-13.380752 196.136076-36.901445 28.114314 17.745153-297.229518-255.438717-479.320717C424.238191 351.616196 314.722938 315.2745 196.766432 495.989351l76.146261 0L281.614889 554.720987z" fill="#d81e06" p-id="1879"></path><path d="M798.998503 812.593126 652.033313 812.593126l3.968381-13.372565-12.079106 13.372565L499.425613 812.593126l-4.375657 0L292.687062 812.593126l-56.038294 0-68.614727 0-9.801227-63.321164-14.407128 24.134677c29.439496 134.991484 168.94683 237.320057 336.921519 237.320057 32.19526 0 63.228043-4.02671 92.77294-11.048637l15.378246 1.632173c0.205685 0.011256 0.641613 0.034792 0.618077 0.030699-0.112564 0.030699-0.225127 0.066515-0.341784 0.093121-0.132006-0.007163-0.427742 0.004093-0.427742 0.004093 0.144286 0.011256 0.287549 0.023536 0.431835 0.034792 51.665707-11.30958 100.32801-33.220612 140.618645-66.053392 51.455929-41.938158 85.36932-99.041714 104.836697-162.293293L798.998503 812.593126z" fill="#d81e06" p-id="1880"></path><path d="M268.656763 768.595053l-54.717206 0-21.869077-141.3104c-1.13894-7.321756-1.582031-13.252839-1.375324-17.757432l-0.816598 0c-3.497661 7.513114-9.945513 19.125593-19.318998 34.822087l-74.15286 124.245745L45.73974 768.595053l130.370233-218.435964 58.288544 0 20.334117 137.357368c1.344624 9.105379 2.064009 14.893198 2.110057 17.337877l0.816598 0c2.047636-5.258771 7.52437-15.32401 16.393365-30.185486l74.308403-124.509758 50.66696 0L268.656763 768.595053z" fill="#d81e06" p-id="1881"></path><path d="M475.399407 768.595053 326.94633 768.595053l130.370233-218.435964 142.627395 0-22.723537 38.071084-89.204671 0-30.721699 51.472302 82.877569 0-22.638603 37.927821-82.877569 0-31.565926 52.894697 95.030353 0L475.399407 768.595053z" fill="#d81e06" p-id="1882"></path><path d="M978.26026 550.158065 781.02413 768.595053l-59.388599 0 42.253336-142.43706c2.336208-7.692193 5.77554-15.743566 10.330276-24.095791l-0.648776 0c-6.913457 9.778714-13.218046 17.796318-18.907629 24.095791L625.959471 768.595053l-61.693084 0 63.500243-218.435964 58.623165 0-51.157123 148.069337c-2.238994 6.482645-5.977132 14.655791-11.227716 24.530696l1.12666 0c5.142114-7.695263 11.815093-16.105816 20.085454-25.226544l134.574998-147.373489 56.82317 0-46.625924 149.207253c-1.798972 5.907547-5.071506 13.625322-9.766434 23.105231l0.812505 0c5.308913-8.16189 11.32493-16.155958 18.049075-23.967878l124.94057-148.344606L978.26026 550.159088z" fill="#d81e06" p-id="1883"></path><path d="M268.656763 768.595053l-54.717206 0-21.869077-141.3104c-1.13894-7.321756-1.582031-13.252839-1.375324-17.757432l-0.816598 0c-3.497661 7.513114-9.945513 19.125593-19.318998 34.822087l-74.15286 124.245745L45.73974 768.595053l130.370233-218.435964 58.288544 0 20.334117 137.357368c1.344624 9.105379 2.064009 14.893198 2.110057 17.337877l0.816598 0c2.047636-5.258771 7.52437-15.32401 16.393365-30.185486l74.308403-124.509758 50.66696 0L268.656763 768.595053z" fill="#d81e06" p-id="1884"></path><path d="M475.399407 768.595053 326.94633 768.595053l130.370233-218.435964 142.627395 0-22.723537 38.071084-89.204671 0-30.721699 51.472302 82.877569 0-22.638603 37.927821-82.877569 0-31.565926 52.894697 95.030353 0L475.399407 768.595053z" fill="#d81e06" p-id="1885"></path><path d="M978.26026 550.158065 781.02413 768.595053l-59.388599 0 42.253336-142.43706c2.336208-7.692193 5.77554-15.743566 10.330276-24.095791l-0.648776 0c-6.913457 9.778714-13.218046 17.796318-18.907629 24.095791L625.959471 768.595053l-61.693084 0 63.500243-218.435964 58.623165 0-51.157123 148.069337c-2.238994 6.482645-5.977132 14.655791-11.227716 24.530696l1.12666 0c5.142114-7.695263 11.815093-16.105816 20.085454-25.226544l134.574998-147.373489 56.82317 0-46.625924 149.207253c-1.798972 5.907547-5.071506 13.625322-9.766434 23.105231l0.812505 0c5.308913-8.16189 11.32493-16.155958 18.049075-23.967878l124.94057-148.344606L978.26026 550.159088z" fill="#d81e06" p-id="1886"></path></svg>