<?xml version="1.0" encoding="utf-8"?>
<!-- Generator: Adobe Illustrator 19.0.0, SVG Export Plug-In . SVG Version: 6.00 Build 0)  -->
<svg version="1.1" xmlns="http://www.w3.org/2000/svg" xmlns:xlink="http://www.w3.org/1999/xlink" x="0px" y="0px"
	 viewBox="-68.4 -85 170 170" style="enable-background:new -68.4 -85 170 170;" xml:space="preserve">
<style type="text/css">
	.st0{fill:#FFFFFF;}
	.st1{fill:#D7D7D7;}
</style>
<g id="图层_1">
	<circle class="st0" cx="16.6" cy="0" r="85"/>
	<path class="st1" d="M66.1-41.3H-34.3c-4,0-7.3,3.3-7.3,7.3l0,0v69.1c0,4,3.3,7.3,7.3,7.3h5.5c0.4,1.1,1,2.1,1.8,3
		c0.2,0.2,0.5,0.4,0.8,0.5c9.1,2.4,11.4,5.3,11.9,6.8c0.6,1.7,0.6,2.7,0.5,3.1c-0.1,0.1-0.1,23.4-0.1,23.4l4.1,1.3
		c0,0-0.3-23.2-0.2-24.6c-0.1-2.7-0.9-4.4-0.9-4.4c-1.8-4-6.1-6.8-13.9-9c-0.7-0.8-0.9-1.4-0.9-1.9v0c0-0.7,0.4-1.4,1.2-2l0.1,0
		c0.3-0.2,0.6-0.4,1-0.6c0.3-0.2,0.7-0.3,1.1-0.4c0.6-0.1,1.7-0.3,3.4-0.3c3,0,6.6,0.6,10.6,1.8c0.7,0.3,1.3,0.6,2,0.9
		c1.1,0.6,2.1,1.2,3.1,1.9l0.2,0.1C10.4,51.4,8.9,56.1,8.9,56.1C8.5,57,8.8,58,9.6,58.5c0.2,0.1,0.5,0.2,0.8,0.2
		c0.6,0,1.2-0.4,1.5-0.9c0.5-1,2.4-6.3-8.7-15.3h30.8c-11,9.1-9.2,14.3-8.7,15.3c0.3,0.6,0.9,1,1.6,1c0.2,0,0.5-0.1,0.8-0.2
		c0.8-0.4,1.2-1.4,0.8-2.3c0,0,0,0,0,0c0,0-1.6-4.8,11.8-14.2c1.7-1.2,3.5-2.2,5.4-3c4-1.2,7.5-1.8,10.5-1.8c1.7,0,2.8,0.2,3.4,0.3
		c0.4,0.1,0.8,0.3,1.1,0.4c0.1,0,0.1,0.1,0.2,0.1c0.3,0.2,0.6,0.3,0.8,0.5l0,0c0.8,0.6,1.2,1.3,1.2,2l0,0c-0.1,0.7-0.4,1.4-0.9,1.9
		c-7.9,2.1-12.6,5.1-13.9,9c-0.4,1.3-0.5,1.6-0.7,4.8c0.3,0.7,0.4,22.4,0.4,22.4l3.4-1.4l-0.2-21.5c0.1-1.9,0.4-3.1,0.4-3.1
		c0.5-1.5,2.8-4.5,11.9-6.9c0.3-0.1,0.6-0.2,0.8-0.5c0.8-0.8,1.5-1.9,1.9-3c4-0.1,7.1-3.3,7.1-7.3V-34C73.4-38,70.2-41.3,66.1-41.3
		 M-23.1-7.9h15.5c0.7,2.3,1.8,8.2-0.9,15.6l-0.2,0.5c-1.3,3.5-2.9,7.9,0.7,17C-5.8,30.8-7.1,34-8,35.3h0l-0.5-0.2
		c-1.9-0.7-3.9-1.3-6-1.5c-0.2,0-0.3,0-0.5-0.1c-0.9-0.1-1.7-0.2-2.6-0.2l-0.6,0c-0.7,0-1.3,0.1-2,0.1l-0.5,0.1
		c-0.1,0-0.2,0.1-0.4,0.1c0.6-2.9,1-7.2-0.9-10c-2-3.1-2.5-12.5,0-19.7C-20.9,0.9-22.2-4.7-23.1-7.9 M45.4,25.3
		c3.5-9.1,1.9-13.5,0.7-17l-0.2-0.5C43.3,0.3,44.4-5.5,45-7.8h15.5C59.6-4.7,58.4,0.9,59.4,4c2.5,7.2,2,16.6,0,19.7
		c-1.9,2.9-1.5,7.1-0.9,10l-0.4-0.1l-0.3,0c-0.8-0.1-1.5-0.2-2.3-0.2l-0.3,0c-3.3,0-6.6,0.7-9.7,1.9C44.6,34,43.3,30.8,45.4,25.3
		 M69.9,35.1c0,2-1.6,3.7-3.6,3.8c-0.2-0.7-0.6-1.4-1.1-1.9l-0.2-0.2l-0.1-0.1c-0.3-0.3-0.6-0.5-0.9-0.8l-0.3-0.2
		c-0.3-0.2-0.5-0.3-0.8-0.5L62.5,35l-0.1,0c0,0,0,0,0,0c-0.7-2.2-1.6-7-0.1-9.3c2.9-4.4,3.1-15,0.4-22.8C62,0.7,63.1-4.4,64.2-7.9
		h0.7c1,0,1.7-0.8,1.7-1.7c0-1-0.8-1.7-1.7-1.7H42.3c-0.9-0.4-1.9-0.1-2.3,0.8c-0.4,0.9-0.1,1.9,0.8,2.3c0.2,0.1,0.5,0.2,0.8,0.2
		C40.7-5,39.9,1.2,42.6,8.9l0.2,0.5c1.1,3.1,2.4,6.7-0.6,14.6c-2.5,6.4-1.2,10.6,0.1,12.8c-1.2,0.6-2.3,1.3-3.5,2.1H-1.3l-0.3-0.2
		c-1-0.7-2.1-1.4-3.2-1.9c1.3-2.2,2.6-6.4,0.1-12.8c-3-7.9-1.8-11.4-0.6-14.6l0.2-0.5C-2.4,1.2-3.3-5-4-8.1c0.9-0.4,1.2-1.5,0.8-2.3
		c-0.3-0.6-0.9-0.9-1.5-0.9h-22.6c-1,0-1.7,0.8-1.7,1.7s0.8,1.7,1.7,1.7c0,0,0,0,0,0h0.7c1.1,3.5,2.2,8.6,1.5,10.7
		c-2.6,7.6-2.4,18.5,0.4,22.8c1.5,2.3,0.5,7.1-0.1,9.3c0,0-0.1,0-0.1,0.1l-0.4,0.2c-0.3,0.1-0.5,0.3-0.7,0.5l-0.3,0.2
		c-0.3,0.2-0.6,0.5-0.8,0.7l-0.1,0.1c-0.1,0.1-0.2,0.1-0.2,0.2c-0.2,0.2-0.4,0.5-0.6,0.8l0,0c-0.2,0.4-0.4,0.7-0.6,1.1h-5.5
		c-2.1,0-3.8-1.7-3.8-3.8l0,0V-34c0-2.1,1.7-3.8,3.8-3.8H66.2c2.1,0,3.8,1.7,3.8,3.8L69.9,35.1 M12.2-16c0-1-0.8-1.7-1.7-1.7
		c-5.9,0-10.9-3.7-13.3-5.4c-0.4-0.3-0.9-0.6-1.3-0.9c-0.9-0.4-1.9-0.1-2.3,0.8c-0.4,0.8-0.1,1.7,0.6,2.2c0.2,0.1,0.6,0.4,1,0.7
		c2.7,2,8.3,6.1,15.4,6.1C11.4-14.2,12.2-15,12.2-16 M37.2-24c-0.3,0.2-0.7,0.5-1.3,0.9c-2.4,1.8-7.4,5.4-13.3,5.4
		c-1,0-1.7,0.8-1.7,1.7c0,1,0.8,1.7,1.7,1.7h0c7,0,12.7-4.1,15.4-6.1c0.4-0.3,0.8-0.6,1-0.7c0.8-0.5,1.1-1.6,0.6-2.4
		C39.1-24.2,38-24.5,37.2-24 M28.4,23.4l-11.7-5.3c-0.5-0.2-1-0.2-1.5,0L4.8,23.4c-0.9,0.4-1.2,1.5-0.8,2.3c0,0,0,0,0,0
		c0.4,0.9,1.5,1.2,2.3,0.8l9.6-4.9l11,4.9c0.9,0.4,1.9,0,2.3-0.8c0,0,0,0,0,0C29.6,24.8,29.2,23.7,28.4,23.4
		C28.4,23.4,28.4,23.4,28.4,23.4"/>
</g>
<g id="图层_2">
</g>
</svg>
