<?xml version="1.0" encoding="utf-8"?>
<!-- Generator: Adobe Illustrator 19.0.0, SVG Export Plug-In . SVG Version: 6.00 Build 0)  -->
<svg version="1.1" id="图层_1" xmlns="http://www.w3.org/2000/svg" xmlns:xlink="http://www.w3.org/1999/xlink" x="0px" y="0px"
	 viewBox="-85.5 85.9 37 30.1" style="enable-background:new -85.5 85.9 37 30.1;" xml:space="preserve">
<style type="text/css">
	.st0{fill:#D7D7D7;}
</style>
<path class="st0" d="M-67,89.3c-10.2,0-18.5,8.4-18.5,11.8s8.3,11.8,18.5,11.8s18.5-8.4,18.5-11.8S-56.8,89.3-67,89.3L-67,89.3z
	 M-67,109.4c-4.6,0-8.4-3.8-8.4-8.4c0-4.6,3.8-8.4,8.4-8.4c4.6,0,8.4,3.8,8.4,8.4C-58.6,105.7-62.4,109.4-67,109.4L-67,109.4z"/>
<path class="st0" d="M-67,95.2c-3.2,0-5.8,2.6-5.8,5.8c0,3.2,2.6,5.8,5.8,5.8c3.2,0,5.8-2.6,5.8-5.8C-61.2,97.8-63.8,95.2-67,95.2
	L-67,95.2z"/>
<rect x="-68.3" y="79.2" transform="matrix(0.6489 -0.7609 0.7609 0.6489 -100.3047 -15.5497)" class="st0" width="2.6" height="43.4"/>
</svg>
