<?xml version="1.0" encoding="utf-8"?>
<!-- Generator: Adobe Illustrator 19.0.0, SVG Export Plug-In . SVG Version: 6.00 Build 0)  -->
<svg version="1.1" id="图层_1" xmlns="http://www.w3.org/2000/svg" xmlns:xlink="http://www.w3.org/1999/xlink" x="0px" y="0px"
	 viewBox="-401 -58 118 158.4" style="enable-background:new -401 -58 118 158.4;" xml:space="preserve">
<style type="text/css">
	.st0{fill:url(#SVGID_1_);}
	.st1{fill:url(#SVGID_2_);}
	.st2{fill:url(#SVGID_3_);}
	.st3{fill:url(#SVGID_4_);}
	.st4{fill:url(#SVGID_5_);}
	.st5{fill:url(#SVGID_6_);}
	.st6{fill:url(#SVGID_7_);}
	.st7{fill:url(#SVGID_8_);}
	.st8{fill:url(#SVGID_9_);}
</style>
<linearGradient id="SVGID_1_" gradientUnits="userSpaceOnUse" x1="-377.1384" y1="3.0777" x2="-328.8236" y2="3.0777">
	<stop  offset="6.179420e-007" style="stop-color:#BCD3FF"/>
	<stop  offset="1" style="stop-color:#6497FF"/>
</linearGradient>
<path class="st0" d="M-375.8,9c-0.6,0-1.2-0.4-1.3-1.1c-0.1-0.7,0.3-1.4,1-1.6l45.7-9.2c0.7-0.1,1.4,0.3,1.6,1
	c0.1,0.7-0.3,1.4-1,1.6L-375.5,9C-375.6,9-375.7,9-375.8,9z"/>
<linearGradient id="SVGID_2_" gradientUnits="userSpaceOnUse" x1="-373.6184" y1="20.6051" x2="-325.3036" y2="20.6051">
	<stop  offset="6.179420e-007" style="stop-color:#BCD3FF"/>
	<stop  offset="1" style="stop-color:#6497FF"/>
</linearGradient>
<path class="st1" d="M-372.3,26.5c-0.6,0-1.2-0.4-1.3-1.1c-0.1-0.7,0.3-1.4,1-1.6l45.7-9.2c0.7-0.1,1.4,0.3,1.6,1
	c0.1,0.7-0.3,1.4-1,1.6l-45.7,9.2C-372.1,26.5-372.2,26.5-372.3,26.5z"/>
<linearGradient id="SVGID_3_" gradientUnits="userSpaceOnUse" x1="-369.9681" y1="40.7886" x2="-341.64" y2="40.7886">
	<stop  offset="6.179420e-007" style="stop-color:#BCD3FF"/>
	<stop  offset="1" style="stop-color:#6497FF"/>
</linearGradient>
<path class="st2" d="M-368.6,44.7c-0.6,0-1.2-0.4-1.3-1.1c-0.1-0.7,0.3-1.4,1-1.6l25.7-5.2c0.7-0.1,1.4,0.3,1.6,1
	c0.1,0.7-0.3,1.4-1,1.6l-25.7,5.2C-368.5,44.7-368.6,44.7-368.6,44.7z"/>
<linearGradient id="SVGID_4_" gradientUnits="userSpaceOnUse" x1="-400.9579" y1="32.239" x2="-291.8416" y2="32.239">
	<stop  offset="6.179420e-007" style="stop-color:#BCD3FF"/>
	<stop  offset="1" style="stop-color:#6497FF"/>
</linearGradient>
<path class="st3" d="M-291.9,73.7l-19.9-99.2c-0.5-2.7-3.2-4.5-5.9-4l-19.1,3.8c-1,0.2-2-0.2-2.5-1c-0.7-1.3-1.8-2.5-3.1-3.4
	c-2.1-1.4-4.6-1.9-7-1.4l-18.8,3.8c-4.1,0.8-7.1,4.3-7.5,8.3c-0.1,1-0.9,1.7-1.9,1.9l-19.1,3.8c-2.7,0.5-4.5,3.2-4,5.9l20.4,101.5
	c0.1,0.7,0.5,1.3,1.1,1.7c0.4,0.3,1,0.4,1.5,0.4c0.2,0,0.3,0,0.5-0.1l1.5-0.3h71.6c0.7,0,1.3-0.6,1.3-1.3c0-0.7-0.6-1.3-1.3-1.3
	h-34.1c-2.9,0-3.3-4.2-0.5-4.7l42.9-8.6C-293.2,79.1-291.4,76.4-291.9,73.7z M-376.3,87.9l-18.9-94c-0.3-1.3,0.6-2.6,1.9-2.8
	l20.9-4.2c0.7-0.1,1.3-0.5,1.7-1.1c0.4-0.6,0.5-1.3,0.4-2l-0.3-1.4c-0.4-2.2,1-4.4,3.2-4.8l18.8-3.8c1.1-0.2,2.1,0,3.1,0.6
	c0.9,0.6,1.5,1.5,1.7,2.6l0.3,1.4c0.3,1.4,1.7,2.4,3.1,2.1l20.9-4.2c1.3-0.3,2.6,0.6,2.8,1.9l18.9,94c0.3,1.3-0.6,2.6-1.9,2.8
	l-73.9,14.8C-374.7,90.1-376,89.2-376.3,87.9z"/>
<linearGradient id="SVGID_5_" gradientUnits="userSpaceOnUse" x1="-379.152" y1="99.4169" x2="-343.8632" y2="99.4169">
	<stop  offset="6.179420e-007" style="stop-color:#BCD3FF"/>
	<stop  offset="1" style="stop-color:#6497FF"/>
</linearGradient>
<path class="st4" d="M-344.9,100.5h-33.2c-0.6,0-1.1-0.5-1.1-1.1s0.5-1.1,1.1-1.1l33.2,0c0.6,0,1.1,0.5,1.1,1.1
	C-343.9,100-344.3,100.5-344.9,100.5z"/>
<linearGradient id="SVGID_6_" gradientUnits="userSpaceOnUse" x1="-311.7689" y1="-50.6598" x2="-306.4557" y2="-50.6598">
	<stop  offset="6.179420e-007" style="stop-color:#BCD3FF"/>
	<stop  offset="1" style="stop-color:#6497FF"/>
</linearGradient>
<path class="st5" d="M-309.1-43.4c-1.5,0-2.7-1.2-2.7-2.7v-9.3c0-1.5,1.2-2.7,2.7-2.7s2.7,1.2,2.7,2.7v9.3
	C-306.5-44.5-307.6-43.4-309.1-43.4z"/>
<linearGradient id="SVGID_7_" gradientUnits="userSpaceOnUse" x1="-296.7318" y1="-18.4898" x2="-282.9579" y2="-18.4898">
	<stop  offset="6.179420e-007" style="stop-color:#BCD3FF"/>
	<stop  offset="1" style="stop-color:#6497FF"/>
</linearGradient>
<path class="st6" d="M-285.6-13.9c-0.4,0-0.7-0.1-1.1-0.2l-8.5-3.9c-1.3-0.6-1.9-2.2-1.3-3.5c0.6-1.3,2.2-1.9,3.5-1.3l8.5,3.9
	c1.3,0.6,1.9,2.2,1.3,3.5C-283.6-14.5-284.6-13.9-285.6-13.9z"/>
<linearGradient id="SVGID_8_" gradientUnits="userSpaceOnUse" x1="-298.2783" y1="-39.9004" x2="-283.8875" y2="-39.9004">
	<stop  offset="6.179420e-007" style="stop-color:#BCD3FF"/>
	<stop  offset="1" style="stop-color:#6497FF"/>
</linearGradient>
<path class="st7" d="M-295.6-35c-1,0-1.9-0.5-2.4-1.5c-0.7-1.3-0.1-2.9,1.2-3.6l9.1-4.5c1.3-0.7,2.9-0.1,3.6,1.2
	c0.7,1.3,0.1,2.9-1.2,3.6l-9.1,4.5C-294.8-35.1-295.2-35-295.6-35z"/>
<linearGradient id="SVGID_9_" gradientUnits="userSpaceOnUse" x1="-366.1212" y1="-18.49" x2="-346.8183" y2="-18.49">
	<stop  offset="6.179420e-007" style="stop-color:#BCD3FF"/>
	<stop  offset="1" style="stop-color:#6497FF"/>
</linearGradient>
<path class="st8" d="M-349-16.6l-13.6,2.8c-1.5,0.3-2.9-0.7-3.2-2.1l-0.3-1.2c-0.3-1.5,0.7-2.9,2.1-3.2l13.6-2.8
	c1.5-0.3,2.9,0.7,3.2,2.1l0.3,1.2C-346.6-18.4-347.5-16.9-349-16.6z"/>
</svg>
