<?xml version="1.0" encoding="utf-8"?>
<!-- Generator: Adobe Illustrator 19.0.0, SVG Export Plug-In . SVG Version: 6.00 Build 0)  -->
<svg version="1.1" id="图层_1" xmlns="http://www.w3.org/2000/svg" xmlns:xlink="http://www.w3.org/1999/xlink" x="0px" y="0px"
	 viewBox="-92 76 50 50" style="enable-background:new -92 76 50 50;" xml:space="preserve">
<style type="text/css">
	.st0{fill:#0588FF;}
</style>
<path class="st0" d="M-77.9,90.2c-1.5,1.5-1.4,3.8,0,5.3c1.5,1.5,3.8,1.4,5.3,0c1.5-1.5,1.4-3.8,0-5.3
	C-74.1,88.7-76.5,88.7-77.9,90.2z"/>
<path class="st0" d="M-45.2,76h-43.5c-1.8,0-3.2,1.5-3.2,3.2v43.5c0,1.8,1.5,3.2,3.2,3.2h43.5c1.8,0,3.2-1.5,3.2-3.2l0-43.5
	C-42,77.4-43.5,76-45.2,76z M-56.1,116.5l0-4.7l-4.7,0l0-4.7l-4.7,0l-2.8-2.8c-3.7,1.8-8.2,1.2-11.3-1.9c-3.9-3.9-3.9-10.2-0.1-14.1
	c3.9-3.9,10.2-3.9,14.1-0.1c3.1,3,3.7,7.6,2,11.3l12.2,12.1l0,4.7L-56.1,116.5z"/>
</svg>
