<?xml version="1.0" encoding="utf-8"?>
<!-- Generator: Adobe Illustrator 19.0.0, SVG Export Plug-In . SVG Version: 6.00 Build 0)  -->
<svg version="1.1" id="图层_1" xmlns="http://www.w3.org/2000/svg" xmlns:xlink="http://www.w3.org/1999/xlink" x="0px" y="0px"
	 viewBox="-92.7 76.6 50 50" style="enable-background:new -92.7 76.6 50 50;" xml:space="preserve">
<style type="text/css">
	.st0{fill:#33A9FC;}
</style>
<path class="st0" d="M-45.9,76.6h-43.5c-1.8,0-3.2,1.5-3.2,3.2v43.5c0,1.8,1.5,3.2,3.2,3.2h43.5c1.8,0,3.2-1.5,3.2-3.2V79.8
	C-42.7,78.1-44.1,76.6-45.9,76.6z M-67.6,117.1c-8.6,0-15.6-7-15.6-15.6c0-7.8,5.8-14.3,13.2-15.4v17.7h17.7
	C-53.3,111.3-59.8,117.1-67.6,117.1z M-64.1,99.2V86.1c6.7,1,12.1,6.3,13.1,13.1H-64.1z"/>
</svg>
