<?xml version="1.0" encoding="utf-8"?>
<!-- Generator: Adobe Illustrator 19.0.0, SVG Export Plug-In . SVG Version: 6.00 Build 0)  -->
<svg version="1.1" id="图层_1" xmlns="http://www.w3.org/2000/svg" xmlns:xlink="http://www.w3.org/1999/xlink" x="0px" y="0px"
	 viewBox="-83 90.8 32 20.5" style="enable-background:new -83 90.8 32 20.5;" xml:space="preserve">
<style type="text/css">
	.st0{fill:#578EFF;}
	.st1{fill:#D8DCFF;}
	.st2{fill:#D9DBFF;}
	.st3{fill:#DADAFF;}
	.st4{fill:#DAD8FF;}
	.st5{fill:#DBD7FF;}
	.st6{fill:#E1F4FD;}
	.st7{fill:#D3DAFF;}
	.st8{fill:#D4D9FF;}
	.st9{fill:#D4D8FF;}
	.st10{fill:#D5D7FF;}
	.st11{fill:#D5D6FF;}
	.st12{fill:#D6D5FF;}
	.st13{fill:#D6D4FF;}
	.st14{fill:#D7D3FF;}
	.st15{fill:#D7D2FF;}
	.st16{fill:#D8D0FF;}
	.st17{fill:#D8CFFF;}
	.st18{fill:#D9CEFF;}
	.st19{fill:#D9CDFF;}
	.st20{fill:#DACCFF;}
	.st21{fill:#DACBFF;}
	.st22{fill:#DBCAFF;}
	.st23{fill:#DBC9FF;}
	.st24{fill:#DAD7F4;}
	.st25{fill:#FFFFFF;}
	.st26{fill:#FFD3A3;}
	.st27{fill:#C3EFFF;}
	.st28{fill:#A8E65B;}
	.st29{fill:#F7D664;}
	.st30{fill:#FF609A;}
	.st31{fill:#B6D4FF;}
	.st32{fill:#3980FF;}
</style>
<path class="st0" d="M-64.7,105c-0.2-0.1-0.4-0.2-0.5-0.3l-5.7-5.2c-0.6-0.6-0.7-1.6-0.1-2.2l2.6-2.9c0.6-0.6,1.6-0.7,2.2-0.1
	l5.7,5.2c0.6,0.6,0.7,1.6,0.1,2.2l-2.6,2.9c-0.3,0.3-0.7,0.5-1.1,0.5C-64.3,105.1-64.5,105.1-64.7,105z M-64.8,104.6
	c0.2,0.2,0.5,0.3,0.8,0.3s0.6-0.1,0.8-0.4l2.8-3c0.2-0.2,0.3-0.5,0.3-0.8c0-0.3,0-0.6-0.2-0.8l-6-5.5c-0.2-0.2-0.5-0.3-0.8-0.3
	s-0.6,0.2-0.8,0.4l-2.8,3c-0.2,0.2-0.3,0.5-0.3,0.8c0,0.3,0.1,0.6,0.4,0.8L-64.8,104.6z"/>
<path class="st1" d="M-67,106h3.2v5.3H-67V106z"/>
<path class="st2" d="M-63.8,106h3.2v5.3h-3.2V106z"/>
<path class="st3" d="M-60.6,106h3.2v5.3h-3.2V106z"/>
<path class="st4" d="M-57.4,106h3.2v5.3h-3.2V106z"/>
<path class="st5" d="M-54.2,106h3.2v5.3h-3.2V106z"/>
<path class="st6" d="M-66.7,97.2h-10.6c-0.5,0-1,0.4-1,1c0,0.2,0.1,0.4,0.2,0.6h-4c-0.5,0-1,0.4-1,1c0,0.5,0.4,1,1,1h1.6
	c-0.3,0.2-0.5,0.5-0.5,0.8c0,0.5,0.4,1,1,1h10.6c0.5,0,1-0.4,1-1c0-0.5-0.4-1-1-1h-1.6c0.3-0.2,0.5-0.5,0.5-0.8
	c0-0.2-0.1-0.4-0.2-0.6h4c0.5,0,1-0.4,1-1C-65.7,97.7-66.2,97.2-66.7,97.2z"/>
<path class="st7" d="M-57.4,103.6h0.1v1.5h-0.1V103.6z"/>
<path class="st8" d="M-57.2,103.6h0.1v1.5h-0.1V103.6z"/>
<path class="st9" d="M-57.1,103.6h0.1v1.5h-0.1V103.6z"/>
<path class="st10" d="M-57,103.6h0.1v1.5H-57V103.6z"/>
<path class="st11" d="M-56.8,103.6h0.1v1.5h-0.1V103.6z"/>
<path class="st12" d="M-56.7,103.6h0.1v1.5h-0.1V103.6z"/>
<path class="st13" d="M-56.5,103.6h0.1v1.5h-0.1V103.6z"/>
<path class="st14" d="M-56.4,103.6h0.1v1.5h-0.1V103.6z"/>
<path class="st15" d="M-56.3,103.6h0.1v1.5h-0.1V103.6z"/>
<path class="st16" d="M-56.1,103.6h0.1v1.5h-0.1V103.6z"/>
<path class="st17" d="M-56,103.6h0.1v1.5H-56V103.6z"/>
<path class="st18" d="M-55.9,103.6h0.1v1.5h-0.1V103.6z"/>
<path class="st19" d="M-55.7,103.6h0.1v1.5h-0.1V103.6z"/>
<path class="st20" d="M-55.6,103.6h0.1v1.5h-0.1V103.6z"/>
<path class="st21" d="M-55.4,103.6h0.1v1.5h-0.1V103.6z"/>
<path class="st22" d="M-55.3,103.6h0.1v1.5h-0.1V103.6z"/>
<path class="st23" d="M-55.2,103.6h0.1v1.5h-0.1V103.6z"/>
<path class="st24" d="M-64.4,106.1l-7.1-6.6c-0.1-0.1-0.1-0.3,0-0.5l4-4.3c0.1-0.1,0.3-0.1,0.5,0l7.1,6.6c0.1,0.1,0.1,0.3,0,0.5
	l-4,4.3C-64.1,106.2-64.3,106.2-64.4,106.1z"/>
<path class="st25" d="M-70.5,95.9l6,2.4l-1.2,3l-6-2.4L-70.5,95.9z"/>
<path class="st26" d="M-64.3,106l-9-3.5c-0.2-0.1-0.2-0.2-0.2-0.4l2.1-5.5c0.1-0.2,0.2-0.2,0.4-0.2l9,3.5c0.2,0.1,0.2,0.2,0.2,0.4
	l-2.1,5.5C-63.9,106-64.1,106.1-64.3,106z"/>
<path class="st0" d="M-65.1,105.4c-0.2,0-0.4,0-0.6-0.1l-7.1-2.9c-0.8-0.3-1.2-1.2-0.9-2l1.5-3.6c0.3-0.8,1.2-1.2,2-0.9l7.1,2.9
	c0.8,0.3,1.2,1.2,0.9,2l-1.5,3.6c-0.2,0.4-0.5,0.7-0.9,0.9C-64.7,105.3-64.9,105.4-65.1,105.4z M-65.4,105c0.3,0.1,0.6,0.1,0.8,0
	c0.3-0.1,0.5-0.3,0.6-0.6l1.6-3.8c0.1-0.3,0.1-0.6,0-0.8c-0.1-0.3-0.2-0.5-0.5-0.6l-7.6-3.1c-0.3-0.1-0.6-0.1-0.9,0
	c-0.3,0.1-0.5,0.4-0.6,0.6l-1.6,3.8c-0.1,0.3-0.1,0.6,0,0.8c0.1,0.3,0.3,0.5,0.6,0.6L-65.4,105z"/>
<path class="st27" d="M-66.3,91.7c0.1,0,0.1-0.2,0-0.2c-0.1,0-0.1-0.1,0-0.2c0.1-0.1,0-0.2-0.1-0.2c-0.1,0-0.1-0.1-0.1-0.1
	c0-0.1-0.1-0.2-0.1-0.1c-0.1,0.1-0.2,0-0.2-0.1c0-0.1-0.1-0.1-0.2,0c0,0.1-0.1,0.1-0.2,0c0-0.1-0.2-0.1-0.2,0c0,0.1-0.1,0.1-0.2,0.1
	c-0.1-0.1-0.2,0-0.2,0.1c0,0.1,0,0.2-0.1,0.1c-0.1,0-0.2,0.1-0.1,0.2c0.1,0.1,0,0.2-0.1,0.2c-0.1,0-0.1,0.1,0,0.2
	c0.1,0,0.1,0.1,0,0.2c-0.1,0-0.1,0.2,0,0.2c0.1,0,0.1,0.1,0.1,0.2c-0.1,0.1,0,0.2,0.1,0.1c0.1,0,0.2,0,0.1,0.1
	c0,0.1,0.1,0.2,0.2,0.1c0.1-0.1,0.2,0,0.2,0c0,0.1,0.2,0.1,0.2,0c0-0.1,0.1-0.1,0.2,0c0.1,0.1,0.2,0,0.2-0.1c0-0.1,0.1-0.1,0.1-0.1
	c0.1,0.1,0.2,0,0.1-0.1c0-0.1,0-0.2,0.1-0.1c0.1,0,0.2-0.1,0.1-0.2C-66.4,91.8-66.3,91.7-66.3,91.7z M-67.1,92.1
	c-0.2,0-0.4-0.2-0.4-0.4s0.2-0.4,0.4-0.4s0.4,0.2,0.4,0.4C-66.7,91.9-66.9,92.1-67.1,92.1z"/>
<path class="st28" d="M-75.3,91.9c0.1,0,0.1-0.1,0-0.1c-0.1,0-0.1-0.1,0-0.1c0.1,0,0-0.1-0.1-0.1c-0.1,0-0.1,0-0.1-0.1
	c0-0.1,0-0.1-0.1-0.1c0,0-0.1,0-0.1-0.1c0-0.1-0.1-0.1-0.1,0c0,0.1-0.1,0.1-0.1,0c0-0.1-0.1-0.1-0.1,0c0,0.1-0.1,0.1-0.1,0
	c-0.1-0.1-0.1,0-0.1,0.1c0,0.1,0,0.1-0.1,0.1c-0.1,0-0.1,0.1-0.1,0.1c0,0,0,0.1,0,0.1c-0.1,0-0.1,0.1,0,0.1c0.1,0,0.1,0.1,0,0.1
	c-0.1,0,0,0.1,0,0.1c0.1,0,0.1,0.1,0.1,0.1c0,0.1,0,0.1,0.1,0.1c0.1,0,0.1,0,0.1,0.1c0,0.1,0.1,0.1,0.1,0.1c0,0,0.1,0,0.1,0
	c0,0.1,0.1,0.1,0.1,0c0-0.1,0.1-0.1,0.1,0c0,0.1,0.1,0,0.1,0c0-0.1,0.1-0.1,0.1-0.1c0.1,0,0.1,0,0.1-0.1c0-0.1,0-0.1,0.1-0.1
	c0.1,0,0.1-0.1,0-0.1C-75.3,92-75.3,92-75.3,91.9z M-75.9,92.2c-0.2,0-0.3-0.1-0.3-0.3c0-0.2,0.1-0.3,0.3-0.3s0.3,0.1,0.3,0.3
	C-75.6,92.1-75.7,92.2-75.9,92.2z"/>
<path class="st29" d="M-79.1,97c0,0.3,0.1,0.6,0.2,0.6c0.1,0,0.2-0.2,0.2-0.5v0c0-0.3-0.1-0.6-0.2-0.6S-79.1,96.7-79.1,97z"/>
<path class="st29" d="M-79.6,97.3c0.3,0.3,0.6,0.6,0.7,0.5c0.1-0.1-0.1-0.5-0.5-0.7c-0.3-0.3-0.6-0.6-0.7-0.5
	C-80.2,96.7-80,97.1-79.6,97.3C-79.7,97.4-79.7,97.4-79.6,97.3z"/>
<path class="st29" d="M-80.3,97.8c0,0.1,0.2,0.2,0.6,0.2s0.6-0.1,0.6-0.2v0c0-0.1-0.2-0.2-0.6-0.2S-80.3,97.7-80.3,97.8L-80.3,97.8z
	"/>
<path class="st29" d="M-79.4,98.5c0.2-0.2,0.3-0.4,0.3-0.5c-0.1-0.1-0.3,0.1-0.5,0.3c0,0,0,0,0,0c-0.2,0.2-0.3,0.4-0.3,0.5
	C-79.8,98.8-79.6,98.7-79.4,98.5C-79.4,98.5-79.4,98.5-79.4,98.5z"/>
<path class="st29" d="M-79.1,98.6c0,0.3,0.1,0.6,0.2,0.6c0.1,0,0.2-0.2,0.2-0.5v0c0-0.3-0.1-0.6-0.2-0.6S-79.1,98.3-79.1,98.6z"/>
<path class="st29" d="M-78.2,98.2c-0.5-0.5-0.9-0.9-1-0.8c-0.2,0.2,0.1,0.7,0.6,1.2c0,0,0,0,0.2-0.2c0.5,0.5,0.9,0.9,1,0.8
	C-77.3,99.1-77.6,98.6-78.2,98.2z"/>
<path class="st29" d="M-78.7,97.8c0,0.1,0.2,0.2,0.6,0.2s0.6-0.1,0.6-0.2v0c0-0.1-0.2-0.2-0.6-0.2C-78.4,97.6-78.7,97.7-78.7,97.8
	L-78.7,97.8z"/>
<path class="st29" d="M-78.5,97.1c-0.2,0.2-0.3,0.4-0.3,0.5c0.1,0.1,0.3-0.1,0.5-0.3c0,0,0,0,0,0c0.2-0.2,0.3-0.4,0.3-0.5
	C-78,96.8-78.2,96.9-78.5,97.1C-78.5,97.1-78.5,97.1-78.5,97.1z"/>
<path class="st30" d="M-72.4,93.1c0,0.2,0.1,0.4,0.1,0.4s0.1-0.2,0.1-0.4s-0.1-0.4-0.1-0.4S-72.4,92.9-72.4,93.1L-72.4,93.1z"/>
<path class="st30" d="M-73.3,93.6c0,0.1,0.2,0.1,0.4,0.1s0.4-0.1,0.4-0.1l0,0c0-0.1-0.2-0.1-0.4-0.1S-73.3,93.5-73.3,93.6z"/>
<path class="st30" d="M-72.5,94.1c0,0.2,0.1,0.4,0.1,0.4s0.1-0.2,0.1-0.4s-0.1-0.4-0.1-0.4S-72.5,93.9-72.5,94.1z"/>
<path class="st30" d="M-72.2,93.6c0,0.1,0.2,0.1,0.4,0.1s0.4-0.1,0.4-0.1c0-0.1-0.2-0.1-0.4-0.1S-72.2,93.5-72.2,93.6z"/>
<path class="st25" d="M-72.9,98.7h12v1.3h-12V98.7z"/>
<path class="st31" d="M-57.4,102L-57.4,102l0-2c0-0.7-0.6-1.3-1.3-1.3h-14.4c-0.7,0-1.3,0.6-1.3,1.3v2c0.1,0,0.1,0,0.2,0
	c1,0,1.8,0.9,1.8,2.1s-0.8,2.1-1.8,2.1c-0.1,0-0.1,0-0.2,0v2.2c0,0.7,0.6,1.3,1.3,1.3h14.4c0.7,0,1.3-0.6,1.3-1.3v-2.2h0
	c-1,0-1.8-0.9-1.8-2.1S-58.4,102-57.4,102z"/>
<path class="st0" d="M-58.8,110h-14.5c-0.9,0-1.6-0.7-1.6-1.6v-2.4l0.3,0c0,0,0.1,0,0.1,0c0.8,0,1.5-0.9,1.5-1.9s-0.7-1.9-1.5-1.9
	c0,0-0.1,0-0.1,0l-0.3,0V100c0-0.9,0.7-1.6,1.6-1.6h3.7c0.1,0,0.2,0.1,0.2,0.2c0,0.1-0.1,0.2-0.2,0.2h-3.8c-0.6,0-1.1,0.6-1.1,1.2
	l0,1.8c1.1,0.1,1.9,1.1,1.9,2.3c0,1.3-0.8,2.1-1.9,2.2l0,2.1c0,0.6,0.5,1.2,1.1,1.2l14.4,0c0.6,0,1.2-0.5,1.2-1.1l0-2.2
	c-1-0.1-1.8-1.1-1.8-2.3c0-1.2,0.8-2.1,1.8-2.3l0-2c0-0.6-0.5-1-1.1-1l-7.8,0c-0.1,0-0.3-0.1-0.2-0.2c0-0.1,0.1-0.2,0.2-0.2l7.7,0
	c0.9,0,1.6,0.7,1.6,1.6v2.2l-0.3,0c-0.8,0-1.6,0.9-1.6,1.9s0.8,1.9,1.6,1.9h0.3v0.2v2.2C-57.2,109.3-57.9,110-58.8,110z"/>
<path class="st0" d="M-67.5,98.8h-0.9c-0.1,0-0.3-0.1-0.3-0.2s0.1-0.2,0.3-0.2h0.9c0.1,0,0.3,0.1,0.3,0.2
	C-67.2,98.7-67.3,98.8-67.5,98.8z"/>
<path class="st0" d="M-68,98.6h0.3v1H-68V98.6z M-67.8,108.2H-68v-1.6h0.3V108.2z M-67.8,106.1H-68v-1.6h0.3V106.1z M-67.8,104H-68
	v-1.6h0.3V104z M-67.8,101.8H-68v-1.6h0.3V101.8z M-68,108.8h0.3v1H-68V108.8z"/>
<path class="st32" d="M-66.8,103.5c0,0.2,0.2,0.4,0.4,0.4c0.2,0,0.4-0.2,0.4-0.4v0c0-0.2-0.2-0.4-0.4-0.4
	C-66.6,103.1-66.8,103.2-66.8,103.5L-66.8,103.5z"/>
<path class="st32" d="M-62,103.5c0,0.2,0.2,0.4,0.4,0.4c0.2,0,0.4-0.2,0.4-0.4v0c0-0.2-0.2-0.4-0.4-0.4
	C-61.9,103.1-62,103.2-62,103.5L-62,103.5z"/>
<path class="st32" d="M-62,106.5C-62,106.5-62.1,106.5-62,106.5c-0.5-0.9-1.2-1.5-2-1.5c-0.8,0-1.5,0.5-1.8,1.3c0,0.1-0.1,0.1-0.1,0
	c-0.1,0-0.1-0.1,0-0.1c0.4-0.9,1.2-1.4,2-1.4c0.9,0,1.7,0.6,2.1,1.5C-61.9,106.4-61.9,106.5-62,106.5C-62,106.5-62,106.5-62,106.5z"
	/>
</svg>
