<?xml version="1.0" encoding="utf-8"?>
<!-- Generator: Adobe Illustrator 19.0.0, SVG Export Plug-In . SVG Version: 6.00 Build 0)  -->
<svg version="1.1" id="图层_1" xmlns="http://www.w3.org/2000/svg" xmlns:xlink="http://www.w3.org/1999/xlink" x="0px" y="0px"
	 viewBox="-240.7 238.7 40 23.9" style="enable-background:new -240.7 238.7 40 23.9;" xml:space="preserve">
<style type="text/css">
	.st0{fill:#BBE7F9;}
	.st1{fill:#DBD7FF;}
	.st2{fill:#BDDBFF;}
	.st3{fill:#578EFF;}
	.st4{fill:#FFFFFF;}
</style>
<path class="st0" d="M-201.8,238.9h-13c-0.6,0-1.2,0.5-1.2,1.2c0,0.3,0.1,0.5,0.3,0.7h-4.8c-0.6,0-1.2,0.5-1.2,1.2
	c0,0.6,0.5,1.2,1.2,1.2h1.9c-0.4,0.2-0.6,0.6-0.6,1c0,0.6,0.5,1.2,1.2,1.2h13c0.6,0,1.2-0.5,1.2-1.2c0-0.6-0.5-1.2-1.2-1.2h-1.9
	c0.4-0.2,0.6-0.6,0.6-1c0-0.3-0.1-0.5-0.3-0.7h4.8c0.6,0,1.2-0.5,1.2-1.2C-200.7,239.4-201.2,238.9-201.8,238.9z"/>
<path class="st1" d="M-221.5,256.2H-234c-0.6,0-1.1,0.5-1.1,1.1c0,0.3,0.1,0.5,0.3,0.7h-4.7c-0.6,0-1.1,0.5-1.1,1.1
	c0,0.6,0.5,1.1,1.1,1.1h1.8c-0.3,0.2-0.6,0.6-0.6,1c0,0.6,0.5,1.1,1.1,1.1h12.5c0.6,0,1.1-0.5,1.1-1.1c0-0.6-0.5-1.1-1.1-1.1h-1.8
	c0.3-0.2,0.6-0.6,0.6-1c0-0.3-0.1-0.5-0.3-0.7h4.7c0.6,0,1.1-0.5,1.1-1.1S-220.9,256.2-221.5,256.2z"/>
<g>
	<path class="st2" d="M-204.5,250.4c0,6.4-5.1,11.5-11.5,11.5c-1.2,0-2.4-0.2-3.5-0.5c-0.5-0.2-0.9-0.3-1.4-0.5
		c-3.9-1.8-6.6-5.8-6.6-10.4c0-6.4,5.2-11.5,11.5-11.5c0.5,0,1,0,1.5,0.1c1,0.1,2,0.4,2.9,0.8C-207.5,241.5-204.5,245.6-204.5,250.4
		z"/>
	<path class="st3" d="M-216,262c-1.2,0-2.4-0.2-3.5-0.5c-0.5-0.2-1-0.3-1.4-0.6c-2-0.9-3.6-2.4-4.8-4.2c-1.2-1.9-1.9-4.1-1.9-6.3
		c0-3.1,1.2-6,3.4-8.2c2.2-2.2,5.1-3.4,8.2-3.4c0.5,0,1,0,1.5,0.1c1,0.1,2,0.4,2.9,0.8c2.1,0.9,3.9,2.3,5.2,4.2c1.3,1.9,2,4.2,2,6.5
		c0,3.1-1.2,6-3.4,8.2C-210,260.8-212.9,262-216,262z M-216,239c-6.3,0-11.4,5.1-11.4,11.4c0,4.4,2.6,8.4,6.6,10.3
		c0.4,0.2,0.9,0.4,1.4,0.5c1.1,0.3,2.3,0.5,3.4,0.5c6.3,0,11.4-5.1,11.4-11.4c0-4.6-2.8-8.7-7-10.5c-0.9-0.4-1.9-0.6-2.9-0.8
		C-215,239-215.5,239-216,239z"/>
</g>
<path class="st4" d="M-216.1,257.5l-10.9,3.1c-1.4,0.4-2.8-0.4-3.2-1.8l-2.1-7.3c-0.4-1.4,0.4-2.8,1.8-3.2l10.9-3.1
	c1.4-0.4,2.8,0.4,3.2,1.8l2.1,7.3C-213.9,255.7-214.7,257.1-216.1,257.5z"/>
<path class="st3" d="M-227.7,260.9c-1.2,0-2.3-0.8-2.7-2l-2.1-7.3c-0.2-0.7-0.1-1.5,0.2-2.1c0.4-0.6,0.9-1.1,1.7-1.3l10.9-3.1
	c0.2-0.1,0.5-0.1,0.8-0.1c1.2,0,2.3,0.8,2.7,2l2.1,7.3c0.4,1.5-0.4,3-1.9,3.4l-10.9,3.1C-227.2,260.8-227.5,260.9-227.7,260.9z
	 M-218.9,245.2c-0.2,0-0.5,0-0.7,0.1l-10.9,3.1c-0.6,0.2-1.2,0.6-1.5,1.2c-0.3,0.6-0.4,1.2-0.2,1.9l2.1,7.3c0.3,1,1.3,1.8,2.4,1.8
	c0.2,0,0.5,0,0.7-0.1l10.9-3.1c1.3-0.4,2.1-1.7,1.7-3l-2.1-7.3C-216.9,245.9-217.8,245.2-218.9,245.2z"/>
<path class="st4" d="M-217.1,262.4h-12.7c-1.4,0-2.6-1.2-2.6-2.6v-8.7c0-1.4,1.2-2.6,2.6-2.6h12.7c1.4,0,2.6,1.2,2.6,2.6v8.7
	C-214.5,261.3-215.7,262.4-217.1,262.4z"/>
<path class="st3" d="M-217.1,262.6h-12.7c-1.5,0-2.8-1.2-2.8-2.8v-8.7c0-1.5,1.2-2.8,2.8-2.8h12.7c1.5,0,2.8,1.2,2.8,2.8v8.7
	C-214.3,261.4-215.6,262.6-217.1,262.6z M-229.8,248.7c-1.4,0-2.5,1.1-2.5,2.5v8.7c0,1.4,1.1,2.5,2.5,2.5h12.7
	c1.4,0,2.5-1.1,2.5-2.5v-8.7c0-1.4-1.1-2.5-2.5-2.5H-229.8z"/>
<path class="st4" d="M-216.3,260.8h-14.5v-10.6h14.5"/>
<path class="st3" d="M-216.2,261h-0.8c-0.1,0-0.2-0.1-0.2-0.2c0-0.1,0.1-0.2,0.2-0.2h0.8c0.1,0,0.2,0.1,0.2,0.2
	C-216,260.9-216.1,261-216.2,261z M-218.4,261h-0.8c-0.1,0-0.2-0.1-0.2-0.2c0-0.1,0.1-0.2,0.2-0.2h0.8c0.1,0,0.2,0.1,0.2,0.2
	C-218.2,260.9-218.3,261-218.4,261z M-220.5,261h-0.8c-0.1,0-0.2-0.1-0.2-0.2c0-0.1,0.1-0.2,0.2-0.2h0.8c0.1,0,0.2,0.1,0.2,0.2
	C-220.3,260.9-220.4,261-220.5,261z M-222.7,261h-0.8c-0.1,0-0.2-0.1-0.2-0.2c0-0.1,0.1-0.2,0.2-0.2h0.8c0.1,0,0.2,0.1,0.2,0.2
	C-222.5,260.9-222.6,261-222.7,261z M-224.8,261h-0.8c-0.1,0-0.2-0.1-0.2-0.2c0-0.1,0.1-0.2,0.2-0.2h0.8c0.1,0,0.2,0.1,0.2,0.2
	C-224.6,260.9-224.7,261-224.8,261z M-226.9,261h-0.8c-0.1,0-0.2-0.1-0.2-0.2c0-0.1,0.1-0.2,0.2-0.2h0.8c0.1,0,0.2,0.1,0.2,0.2
	C-226.8,260.9-226.8,261-226.9,261z M-229.1,261h-0.8c-0.1,0-0.2-0.1-0.2-0.2c0-0.1,0.1-0.2,0.2-0.2h0.8c0.1,0,0.2,0.1,0.2,0.2
	C-228.9,260.9-229,261-229.1,261z M-230.7,260.4c-0.1,0-0.2-0.1-0.2-0.2v-0.8c0-0.1,0.1-0.2,0.2-0.2s0.2,0.1,0.2,0.2v0.8
	C-230.5,260.4-230.6,260.4-230.7,260.4z M-230.7,258.3c-0.1,0-0.2-0.1-0.2-0.2v-0.8c0-0.1,0.1-0.2,0.2-0.2s0.2,0.1,0.2,0.2v0.8
	C-230.5,258.2-230.6,258.3-230.7,258.3z M-230.7,256.2c-0.1,0-0.2-0.1-0.2-0.2v-0.8c0-0.1,0.1-0.2,0.2-0.2s0.2,0.1,0.2,0.2v0.8
	C-230.5,256.1-230.6,256.2-230.7,256.2z M-230.7,254c-0.1,0-0.2-0.1-0.2-0.2V253c0-0.1,0.1-0.2,0.2-0.2s0.2,0.1,0.2,0.2v0.8
	C-230.5,253.9-230.6,254-230.7,254z M-230.7,251.9c-0.1,0-0.2-0.1-0.2-0.2v-0.8c0-0.1,0.1-0.2,0.2-0.2s0.2,0.1,0.2,0.2v0.8
	C-230.5,251.8-230.6,251.9-230.7,251.9z M-216.4,250.4h-0.8c-0.1,0-0.2-0.1-0.2-0.2s0.1-0.2,0.2-0.2h0.8c0.1,0,0.2,0.1,0.2,0.2
	S-216.3,250.4-216.4,250.4z M-218.5,250.4h-0.8c-0.1,0-0.2-0.1-0.2-0.2s0.1-0.2,0.2-0.2h0.8c0.1,0,0.2,0.1,0.2,0.2
	S-218.4,250.4-218.5,250.4z M-220.7,250.4h-0.8c-0.1,0-0.2-0.1-0.2-0.2s0.1-0.2,0.2-0.2h0.8c0.1,0,0.2,0.1,0.2,0.2
	S-220.6,250.4-220.7,250.4z M-222.8,250.4h-0.8c-0.1,0-0.2-0.1-0.2-0.2s0.1-0.2,0.2-0.2h0.8c0.1,0,0.2,0.1,0.2,0.2
	S-222.7,250.4-222.8,250.4z M-225,250.4h-0.8c-0.1,0-0.2-0.1-0.2-0.2s0.1-0.2,0.2-0.2h0.8c0.1,0,0.2,0.1,0.2,0.2
	S-224.9,250.4-225,250.4z M-227.1,250.4h-0.8c-0.1,0-0.2-0.1-0.2-0.2s0.1-0.2,0.2-0.2h0.8c0.1,0,0.2,0.1,0.2,0.2
	S-227,250.4-227.1,250.4z M-229.2,250.4h-0.8c-0.1,0-0.2-0.1-0.2-0.2s0.1-0.2,0.2-0.2h0.8c0.1,0,0.2,0.1,0.2,0.2
	S-229.1,250.4-229.2,250.4z M-214.8,257.8h-2.8c-0.9,0-1.6-0.7-1.6-1.6v-1.4c0-0.9,0.7-1.6,1.6-1.6h2.8c0.9,0,1.6,0.7,1.6,1.6v1.4
	C-213.2,257-213.9,257.8-214.8,257.8z"/>
<path class="st4" d="M-215.4,256.4h-1.7c-0.5,0-0.9-0.4-0.9-0.9c0-0.5,0.4-0.9,0.9-0.9h1.7c0.5,0,0.9,0.4,0.9,0.9
	C-214.4,256-214.9,256.4-215.4,256.4z"/>
<path class="st3" d="M-216.7,255.5c0,0.3,0.2,0.5,0.5,0.5c0.3,0,0.5-0.2,0.5-0.5v0c0-0.3-0.2-0.5-0.5-0.5
	C-216.5,255-216.7,255.2-216.7,255.5C-216.7,255.5-216.7,255.5-216.7,255.5z"/>
<path class="st3" d="M-222.7,243.8c0,1.9,1.6,3.5,3.5,3.5c1.9,0,3.5-1.6,3.5-3.5c0-1.9-1.6-3.5-3.5-3.5
	C-221.1,240.4-222.7,241.9-222.7,243.8C-222.7,243.8-222.7,243.8-222.7,243.8z"/>
<path class="st4" d="M-222,243.8c0,1.6,1.3,2.8,2.8,2.8s2.8-1.3,2.8-2.8c0,0,0,0,0,0c0-1.6-1.3-2.8-2.8-2.8
	C-220.8,241-222,242.3-222,243.8C-222,243.8-222,243.8-222,243.8z"/>
<path class="st3" d="M-219.9,244.7l0.5-0.2l-0.2-0.5l-0.6,0.3l-0.1-0.2l0.5-0.2l-1.1-0.9l0.7-0.3l0.6,0.5l0-0.8l0.7-0.3l-0.1,1.4
	l0.5-0.2l0.1,0.2l-0.6,0.3l0.2,0.5l0.5-0.2l0.1,0.2l-0.5,0.2l0.3,0.6l-0.7,0.3l-0.3-0.6l-0.5,0.2L-219.9,244.7z"/>
<path class="st3" d="M-213.2,251c0,2.3,1.9,4.2,4.2,4.2c2.3,0,4.2-1.9,4.2-4.2v0c0-2.3-1.9-4.2-4.2-4.2S-213.2,248.7-213.2,251
	C-213.2,251-213.2,251-213.2,251z"/>
<path class="st4" d="M-212.4,251c0,1.9,1.5,3.4,3.4,3.4c1.9,0,3.4-1.5,3.4-3.4c0,0,0,0,0,0c0-1.9-1.5-3.4-3.4-3.4
	C-210.9,247.6-212.4,249.1-212.4,251C-212.4,251-212.4,251-212.4,251z"/>
<path class="st3" d="M-210.3,251.2l0.7,0.2l0.2-0.6l-0.7-0.3l0.1-0.3l0.6,0.2l-0.2-1.6l0.9,0.3l0.1,1l0.7-0.7l0.9,0.3l-1.2,1.1
	l0.6,0.2l-0.1,0.3l-0.7-0.3l-0.2,0.6l0.7,0.2l-0.1,0.3l-0.7-0.2l-0.3,0.7l-0.8-0.3l0.3-0.7l-0.7-0.2L-210.3,251.2z"/>
<path class="st3" d="M-212.8,242.4l-0.4-0.2c0,0,0,0-0.1,0l-0.4,0.2c0,0-0.1,0-0.1-0.1l0.1-0.4c0,0,0,0,0-0.1l-0.3-0.3
	c0,0,0-0.1,0-0.1l0.4-0.1c0,0,0,0,0,0l0.2-0.4c0,0,0.1,0,0.1,0l0.2,0.4c0,0,0,0,0,0l0.4,0.1c0,0,0.1,0.1,0,0.1l-0.3,0.3
	c0,0,0,0,0,0.1L-212.8,242.4C-212.7,242.4-212.7,242.4-212.8,242.4z M-206.8,259l-0.4-0.2c0,0,0,0-0.1,0l-0.4,0.2c0,0-0.1,0-0.1-0.1
	l0.1-0.4c0,0,0,0,0-0.1l-0.3-0.3c0,0,0-0.1,0-0.1l0.4-0.1c0,0,0,0,0,0l0.2-0.4c0,0,0.1,0,0.1,0l0.2,0.4c0,0,0,0,0,0l0.4,0.1
	c0,0,0.1,0.1,0,0.1l-0.3,0.3c0,0,0,0,0,0.1L-206.8,259C-206.7,259-206.7,259-206.8,259z M-226.9,245.3l-0.4-0.2c0,0,0,0-0.1,0
	l-0.4,0.2c0,0-0.1,0-0.1-0.1l0.1-0.4c0,0,0,0,0-0.1l-0.3-0.3c0,0,0-0.1,0-0.1l0.4-0.1c0,0,0,0,0,0l0.2-0.4c0,0,0.1,0,0.1,0l0.2,0.4
	c0,0,0,0,0,0l0.4,0.1c0,0,0.1,0.1,0,0.1l-0.3,0.3c0,0,0,0,0,0.1L-226.9,245.3C-226.8,245.3-226.9,245.4-226.9,245.3z M-213.9,246.1
	c0.7-0.8,1.1-1.8,1.1-2.9c0-0.1-0.2-0.1-0.2,0c0,1-0.4,2-1.1,2.7C-214.1,246.1-214,246.2-213.9,246.1z M-212.3,246.6
	c0.8-0.9,1.7-1.6,2.8-2c0.1,0,0.1-0.2,0-0.2c-1.1,0.4-2.1,1.1-2.9,2C-212.5,246.6-212.4,246.7-212.3,246.6z M-225.9,244.1
	c0.4,0.1,0.8,0.3,1,0.6c0.1,0.1,0.2,0,0.1-0.1c-0.3-0.4-0.7-0.6-1.1-0.7C-226,243.9-226,244.1-225.9,244.1z"/>
<path class="st4" d="M-208.8,244.3c0,0.2,0.2,0.4,0.4,0.4c0.2,0,0.4-0.2,0.4-0.4c0-0.2-0.2-0.4-0.4-0.4
	C-208.6,244-208.8,244.1-208.8,244.3z"/>
<path class="st3" d="M-208.4,244.9c-0.3,0-0.5-0.2-0.5-0.5c0-0.3,0.2-0.5,0.5-0.5c0.3,0,0.5,0.2,0.5,0.5
	C-207.9,244.6-208.1,244.9-208.4,244.9z M-208.4,244.1c-0.1,0-0.2,0.1-0.2,0.2c0,0.1,0.1,0.2,0.2,0.2c0.1,0,0.2-0.1,0.2-0.2
	C-208.2,244.2-208.3,244.1-208.4,244.1z M-210.5,256.3c0.8,0.3,1.6,0.7,2.2,1.3c0.1,0.1,0.2,0,0.1-0.1c-0.7-0.6-1.4-1.1-2.3-1.4
	C-210.6,256.1-210.6,256.2-210.5,256.3z"/>
<path class="st3" d="M-223.3,256.7c-0.2,0.2-0.4,0.3-0.7,0.4c-0.2,0-0.4,0-0.6,0c0,0,0,0,0,0c-0.5-0.1-0.9-0.5-1-0.9
	c-0.1-0.3,0.1-0.5,0.4-0.5l1.9,0.4C-223.2,256.1-223.1,256.5-223.3,256.7z"/>
<path class="st3" d="M-227.3,254.5c0,0.3,0.3,0.6,0.6,0.6c0.3,0,0.6-0.3,0.6-0.6v0c0-0.3-0.3-0.6-0.6-0.6
	C-227,253.9-227.3,254.1-227.3,254.5C-227.3,254.5-227.3,254.5-227.3,254.5z"/>
<path class="st3" d="M-222.3,255.6c0,0.3,0.3,0.6,0.6,0.6s0.6-0.3,0.6-0.6v0c0-0.3-0.3-0.6-0.6-0.6
	C-222,255-222.3,255.3-222.3,255.6C-222.3,255.6-222.3,255.6-222.3,255.6z"/>
<path class="st4" d="M-223.9,256.9c0,0,0,0.1-0.1,0.1c-0.2,0-0.4,0-0.6,0c-0.2-0.1-0.3-0.4-0.3-0.5c0-0.1,0.3-0.1,0.6,0
	C-224.1,256.6-223.9,256.8-223.9,256.9z"/>
</svg>
