<?xml version="1.0" encoding="utf-8"?>
<!-- Generator: Adobe Illustrator 19.0.0, SVG Export Plug-In . SVG Version: 6.00 Build 0)  -->
<svg version="1.1" id="图层_1" xmlns="http://www.w3.org/2000/svg" xmlns:xlink="http://www.w3.org/1999/xlink" x="0px" y="0px"
	 viewBox="-289 381 32 32" style="enable-background:new -289 381 32 32;" xml:space="preserve">
<style type="text/css">
	.st0{fill:#999999;}
</style>
<path class="st0" d="M-262.9,387.2h-20.2c-1.1,0-1.9,0.9-1.9,2v15.6c0,1.1,0.9,1.9,1.9,1.9h20.2c1.1,0,1.9-0.9,1.9-1.9v-15.6
	C-261,388.1-261.9,387.2-262.9,387.2z M-262.9,404.8h-20.2v-15.6h20.2V404.8z M-268,392.8l-3.9,6.4l-2.9-3.1l-2.9,5l-2.2-2.3l-2.3,5
	h18.3L-268,392.8z M-279.3,396c1.1,0,1.9-0.9,1.9-2c0-1.1-0.9-1.9-1.9-1.9c-1.1,0-1.9,0.9-1.9,1.9C-281.2,395.1-280.3,396-279.3,396
	z"/>
</svg>
