<?xml version="1.0" encoding="utf-8"?>
<!-- Generator: Adobe Illustrator 19.0.0, SVG Export Plug-In . SVG Version: 6.00 Build 0)  -->
<svg version="1.1" id="图层_1" xmlns="http://www.w3.org/2000/svg" xmlns:xlink="http://www.w3.org/1999/xlink" x="0px" y="0px"
	 viewBox="-85.6 78.1 37 45.9" style="enable-background:new -85.6 78.1 37 45.9;" xml:space="preserve">
<style type="text/css">
	.st0{fill:#E14B49;}
	.st1{fill:#F5D73E;}
	.st2{fill:#E0B335;}
	.st3{fill:#F9E999;}
</style>
<path class="st0" d="M-56.9,116.8l6.9,3.7l-6.6-18.4c-0.3-0.9-1.4-1.4-2.3-1.1l-6.6,2.3c-0.9,0.3-1.1,1.1-0.9,2.3l6.6,18.4
	L-56.9,116.8z M-77,116.8l2.9,7.2l6.6-18.4c0.6-1.1,0-2-0.9-2.3l-6.6-2.6c-0.9-0.3-1.7,0.3-2,1.1l-6.6,18.4L-77,116.8z"/>
<path class="st1" d="M-67,113.6l-8.3,0.6l-4.6-6.6l-5.7-6l2.3-8l1.1-8l7.7-2.9l7.5-4.6l7.2,4.3l7.7,2.9l1.1,8l2.3,8l-5.7,6l-4.6,6.6
	C-58.6,114.2-67,113.6-67,113.6z"/>
<path class="st2" d="M-67,109c6.6,0,12-5.4,12-12s-5.4-12-12-12s-12,5.4-12,12C-79,103.6-73.8,109-67,109z"/>
<path class="st3" d="M-63.8,89v14.9h-4v-9.8c-0.6,0.6-1.4,0.9-2,1.1c-0.6,0.6-1.4,0.9-2.3,0.9v-3.4c1.1-0.3,2.3-0.9,3.2-1.4
	c0.9-0.6,1.4-1.4,2-2.6L-63.8,89z"/>
</svg>
