<?xml version="1.0" encoding="utf-8"?>
<!-- Generator: Adobe Illustrator 19.0.0, SVG Export Plug-In . SVG Version: 6.00 Build 0)  -->
<svg version="1.1" id="图层_1" xmlns="http://www.w3.org/2000/svg" xmlns:xlink="http://www.w3.org/1999/xlink" x="0px" y="0px"
	 viewBox="-85.6 78.1 37 45.9" style="enable-background:new -85.6 78.1 37 45.9;" xml:space="preserve">
<style type="text/css">
	.st0{fill:#9B9CCD;}
	.st1{fill:#D09680;}
	.st2{fill:#A97B6A;}
	.st3{fill:#F3C3AA;}
</style>
<path class="st0" d="M-56.9,116.8l6.9,3.7l-6.6-18.4c-0.3-0.9-1.4-1.4-2.3-1.1l-6.6,2.3c-0.9,0.3-1.1,1.4-0.9,2.3l6.6,18.4
	L-56.9,116.8z M-77,116.8l2.9,7.2l6.6-18.4c0.6-0.9,0-2-0.9-2.3l-6.6-2.6c-0.9-0.3-1.7,0.3-2,1.1l-6.6,18.4
	C-83.9,120.2-77,116.8-77,116.8z"/>
<path class="st1" d="M-67,113.3l-8.3,0.6l-4.6-6.9l-5.7-6l2.3-7.7l1.1-8.3l7.7-2.9l7.5-4l7.2,4l7.7,2.9l1.1,8.3l2.3,7.7l-5.7,6
	l-4.6,6.9L-67,113.3z"/>
<path class="st2" d="M-67,109c6.6,0,12-5.4,12-12s-5.4-12-12-12s-12,5.4-12,12C-79,103.6-73.6,109-67,109z"/>
<path class="st3" d="M-69,94.4l-4-0.9c0.3-1.1,0.9-2.3,2-2.9c0.9-0.6,2-1.1,3.7-1.1c2,0,3.2,0.3,4,1.1c0.9,0.6,1.4,1.4,1.4,2.9
	c0,0.6-0.3,1.1-0.6,1.7c0,0.3-0.6,0.9-1.4,1.1c0.6,0.3,1.1,0.3,1.4,0.6c0.6,0.3,0.9,0.9,1.1,1.1c0.3,0.6,0.3,1.1,0.3,1.7
	c0,0.9-0.3,1.7-0.6,2.3c-0.6,0.9-0.9,1.7-1.7,2c-0.9,0.3-2,0.9-3.4,0.9c-1.4,0-2.3-0.3-3.2-0.6s-1.1-0.9-1.7-1.4
	c-0.6-0.6-0.9-1.4-1.1-2.3l4-0.6c0.3,0.9,0.3,1.4,0.6,1.7c0.3,0.3,0.6,0.6,1.4,0.6c0.6,0,1.1-0.3,1.4-0.6c0.3-0.6,0.6-0.9,0.6-1.4
	c0-0.6-0.3-1.1-0.6-1.4c-0.3-0.6-0.9-0.9-1.4-0.9c-0.3,0-0.6,0-1.4,0.3l0.3-2.9h0.6c0.6,0,1.1-0.3,1.4-0.6c0.3-0.3,0.6-0.6,0.6-1.1
	c0-0.6-0.3-0.9-0.3-1.1c-0.3,0-0.9-0.3-1.1-0.3c-0.6,0-0.9,0.3-1.4,0.6C-68.4,93.3-69,93.5-69,94.4z"/>
</svg>
