<?xml version="1.0" encoding="utf-8"?>
<!-- Generator: Adobe Illustrator 19.0.0, SVG Export Plug-In . SVG Version: 6.00 Build 0)  -->
<svg version="1.1" id="图层_1" xmlns="http://www.w3.org/2000/svg" xmlns:xlink="http://www.w3.org/1999/xlink" x="0px" y="0px"
	 viewBox="-289 381 32 32" style="enable-background:new -289 381 32 32;" xml:space="preserve">
<style type="text/css">
	.st0{fill:#999999;}
</style>
<path class="st0" d="M-268.8,390.2c2.4,0,4.6,2.1,4.6,4.6c0,4-8.5,11.1-8.5,11.1h-0.7c0,0-8.5-7.1-8.5-11.1c0-2.5,2.1-4.6,4.6-4.6
	c2.1,0,4.2,2.6,4.2,2.6S-270.7,390.2-268.8,390.2z M-273,383c7.7,0,14,6.3,14,14c0,7.7-6.3,14-14,14c-7.7,0-14-6.3-14-14
	C-287,389.3-280.7,383-273,383z M-273,385c-6.5,0-12,5.5-12,12s5.5,12,12,12c6.5,0,12-5.5,12-12C-261,390.5-266.5,385-273,385z
	 M-272.3,394.7c-0.1,0.3-0.8,1-1.3,0c-0.8-1.5-2-2.6-3.6-2.6c-1.6,0-2.6,0.9-2.6,2.6c0,3.1,6.8,9.1,6.8,9.1s6.8-5.6,6.8-9.1
	c0-1.6-1-2.8-2.6-2.6C-270.1,392.2-271.5,393-272.3,394.7z"/>
</svg>
