<?xml version="1.0" encoding="utf-8"?>
<!-- Generator: Adobe Illustrator 19.0.0, SVG Export Plug-In . SVG Version: 6.00 Build 0)  -->
<svg version="1.1" id="图层_1" xmlns="http://www.w3.org/2000/svg" xmlns:xlink="http://www.w3.org/1999/xlink" x="0px" y="0px"
	 viewBox="-4 -4 40 40" style="enable-background:new -4 -4 40 40;" xml:space="preserve">
<style type="text/css">
	.st0{fill:#588FFF;}
</style>
<path class="st0" d="M18,33c-1.2,0.3-2.4,0.4-3.5,0.4c-8.9,0-16-7.2-16-16c0-8.9,7.2-16,16-16s16,7.2,16,16c0,0.7,0.6,1.2,1.2,1.2
	c0.7-0.1,1.2-0.6,1.2-1.3c0-9.5-7.3-17.4-16.5-18.3v-0.8C16.4-3.1,15.4-4,14.2-4H14c-1.2,0-2.1,0.9-2.1,2.1V-1C2.9,0.3-4,8-4,17.3
	c0,10.2,8.3,18.5,18.5,18.5c1.3,0,2.7-0.2,4-0.4c0.7-0.2,1.1-0.8,0.9-1.4C19.3,33.2,18.7,32.8,18,33L18,33z"/>
<path class="st0" d="M27.9,19.8c-4.5,0-8.1,3.6-8.1,8.1c0,4.5,3.6,8.1,8.1,8.1c4.5,0,8.1-3.6,8.1-8.1C36,23.4,32.4,19.8,27.9,19.8z
	 M33.2,27.9h-9.7c-0.5,0-0.9-0.4-0.9-0.9c0-0.5,0.4-0.9,0.9-0.9h5.1l-0.9-0.8c-0.4-0.3-0.4-0.9-0.1-1.2c0,0,0,0,0,0
	c0.3-0.4,0.9-0.4,1.3-0.1L33.2,27.9z M27.5,33c-0.2,0-0.4-0.1-0.6-0.3l-4.2-3.9h9.6c0.5,0,0.9,0.4,0.9,0.9s-0.4,0.9-0.9,0.9h-5.1
	l0.9,0.8c0.4,0.3,0.4,0.9,0,1.3C27.9,32.9,27.7,33,27.5,33z"/>
<path class="st0" d="M13.7,26.7c-2.4,0-4.4-1-5.8-2.9C6.6,22,6.5,19,8.4,17.4C8.7,17.2,9,17,9.3,16.8c0.8-0.6,1.6-1.1,1.9-2.1
	c0.2-0.6,0.3-1.4,0.4-1.9c0.3-2.5,2.2-4.1,4.8-4.1c2,0,3.9,1,5,2.6c1.5,2.1,1.6,3.7,1.5,5.8c-0.1,2.8-1.2,5.4-3.1,7.1
	C18.1,25.8,15.9,26.7,13.7,26.7z M16.5,10.8c-1.2,0-2.6,0.7-2.8,2.2c-0.1,0.9-0.3,1.7-0.5,2.3c-0.5,1.4-1.2,2.1-2.6,3.1l-0.2,0.2
	c-0.3,0.2-0.5,0.3-0.6,0.5c-0.8,0.7-0.9,2.4-0.2,3.4c0.9,1.3,2.4,2,4,2c1.6,0,3.3-0.7,4.7-2c1.4-1.3,2.3-3.4,2.4-5.6
	c0.1-2.3-0.1-3.1-1.1-4.5C18.9,11.5,17.7,10.8,16.5,10.8z M12.7,20.1c-0.4,0-0.8-0.2-1-0.6c-0.2-0.5,0-1.2,0.5-1.4
	c0.3-0.2,0.6-0.4,0.9-0.8c0.3-0.4,0.4-0.8,0.4-1c0.1-0.5,0.5-0.9,1.1-0.9c0.6,0,1.1,0.5,1.1,1.1c0,0.1,0,0.1,0,0.2
	c-0.1,0.4-0.2,1.1-0.7,1.9c-0.5,0.7-1,1.2-1.7,1.5C13,20,12.9,20.1,12.7,20.1z"/>
</svg>
