<?xml version="1.0" encoding="utf-8"?>
<!-- Generator: Adobe Illustrator 19.0.0, SVG Export Plug-In . SVG Version: 6.00 Build 0)  -->
<svg version="1.1" id="图层_1" xmlns="http://www.w3.org/2000/svg" xmlns:xlink="http://www.w3.org/1999/xlink" x="0px" y="0px"
	 viewBox="-4 -4 40 40" style="enable-background:new -4 -4 40 40;" xml:space="preserve">
<style type="text/css">
	.st0{fill:#588FFF;}
</style>
<path class="st0" d="M18,33c-1.2,0.3-2.4,0.4-3.5,0.4c-8.9,0-16-7.2-16-16c0-8.9,7.2-16,16-16s16,7.2,16,16c0,0.7,0.6,1.2,1.2,1.2
	c0.7-0.1,1.2-0.6,1.2-1.3c0-9.5-7.3-17.4-16.5-18.3v-0.8C16.4-3.1,15.4-4,14.2-4H14c-1.2,0-2.1,0.9-2.1,2.1V-1C2.9,0.3-4,8-4,17.3
	c0,10.2,8.3,18.5,18.5,18.5c1.3,0,2.7-0.2,4-0.4c0.7-0.2,1.1-0.8,0.9-1.4C19.3,33.2,18.7,32.8,18,33L18,33z"/>
<path class="st0" d="M14.6,6.9c-0.6,0-1.2,0.5-1.2,1.1c0,0,0,0,0,0.1v9.2c0,0.7,0.5,1.2,1.2,1.2h8.6c0.6,0,1.2-0.5,1.2-1.1
	c0,0,0,0,0-0.1c-0.1-0.8-0.6-1.3-1.3-1.3h-7.3V8.1C15.7,7.4,15.2,6.9,14.6,6.9L14.6,6.9z M27.9,19.8c-4.5,0-8.1,3.6-8.1,8.1
	c0,4.5,3.6,8.1,8.1,8.1c4.5,0,8.1-3.6,8.1-8.1C36,23.4,32.4,19.8,27.9,19.8z M30.8,31.1c-0.8,0.3-1.8,0.5-2.9,0.5
	c-1.1,0-2.1-0.2-2.9-0.5c-0.7-0.3-1.1-0.7-1.1-1c0-0.3,0.2-0.6,0.6-0.8l0.1,0l0.1,0l0.2,0.1c0.8,0.3,1.9,0.5,3.1,0.5
	c1.2,0,2.2-0.2,3.1-0.5l0.2-0.1l0.1,0l0.1,0c0.4,0.3,0.6,0.5,0.6,0.8C31.9,30.5,31.5,30.8,30.8,31.1z M30.8,29
	c-0.8,0.3-1.8,0.5-2.9,0.5c-1.1,0-2.1-0.2-2.9-0.5c-0.7-0.3-1.1-0.7-1.1-1c0-0.3,0.2-0.6,0.7-0.8l0.1,0l0.1,0c0.1,0,0.1,0,0.2,0.1
	c0.8,0.3,1.9,0.5,3.1,0.5c1.2,0,2.2-0.2,3.1-0.5c0.1,0,0.1,0,0.2-0.1l0.1,0l0.1,0c0,0,0.2,0.1,0.3,0.3c0.3,0.3,0.3,0.5,0.3,0.5
	C31.9,28.3,31.5,28.7,30.8,29L30.8,29z M30.8,26.7c-0.8,0.3-1.8,0.5-2.9,0.5c-1.1,0-2.1-0.2-2.9-0.5c-0.7-0.3-1.1-0.7-1.1-1
	c0-0.4,0.4-0.7,1.1-1c0.8-0.3,1.8-0.5,2.9-0.5c1.1,0,2.1,0.2,2.9,0.5c0.7,0.3,1.1,0.7,1.1,1C31.9,26.1,31.5,26.5,30.8,26.7z"/>
</svg>
