<?xml version="1.0" encoding="utf-8"?>
<!-- Generator: Adobe Illustrator 19.0.0, SVG Export Plug-In . SVG Version: 6.00 Build 0)  -->
<svg version="1.1" id="图层_1" xmlns="http://www.w3.org/2000/svg" xmlns:xlink="http://www.w3.org/1999/xlink" x="0px" y="0px"
	 viewBox="-270.9 381.2 30 30" style="enable-background:new -270.9 381.2 30 30;" xml:space="preserve">
<style type="text/css">
	.st0{fill:#D7D7D7;}
</style>
<path class="st0" d="M-259.1,383.8c5,0,9.2,4.2,9.2,9.1s-4.2,9.1-9.2,9.1c-5,0-9.2-4.2-9.2-9.1S-264,383.8-259.1,383.8
	 M-259.1,381.2c-6.6,0-11.8,5.2-11.8,11.7c0,6.5,5.2,11.7,11.8,11.7c6.6,0,11.8-5.2,11.8-11.7C-247.3,386.4-252.5,381.2-259.1,381.2
	L-259.1,381.2z"/>
<path class="st0" d="M-242,411.2c-0.3,0-0.8,0-1-0.3l-7.9-7.8c-0.5-0.5-0.5-1.3,0-1.8c0.5-0.5,1.3-0.5,1.8,0l7.9,7.8
	c0.5,0.5,0.5,1.3,0,1.8C-241.3,411.2-241.8,411.2-242,411.2z"/>
</svg>
