<?xml version="1.0" encoding="utf-8"?>
<!-- Generator: Adobe Illustrator 19.0.0, SVG Export Plug-In . SVG Version: 6.00 Build 0)  -->
<svg version="1.1" id="图层_1" xmlns="http://www.w3.org/2000/svg" xmlns:xlink="http://www.w3.org/1999/xlink" x="0px" y="0px"
	 viewBox="-286 381 38.1 32" style="enable-background:new -286 381 38.1 32;" xml:space="preserve">
<style type="text/css">
	.st0{fill:#999999;}
</style>
<path class="st0" d="M-267,384.2c-7,0-12.6,5.6-12.6,12.5s5.7,12.5,12.6,12.5c7,0,12.6-5.6,12.6-12.5S-260,384.2-267,384.2v1.5
	c6.1,0,11.1,4.9,11.1,10.9s-5,10.9-11.1,10.9c-6.1,0-11.1-4.9-11.1-10.9s5-10.9,11.1-10.9V384.2L-267,384.2z"/>
<path class="st0" d="M-261.4,409.6c5.2-2.2,8.7-7.2,8.7-12.9c0-7.8-6.4-14-14.2-14c-7.9,0-14.2,6.3-14.2,14c0,1.7,0.3,3.4,0.9,5
	c0.2,0.4,0,0.8-0.4,1c-0.4,0.2-0.8,0-1-0.4c0-0.1-0.1-0.2-0.1-0.3c-0.1,0-0.1,0-0.2,0c-2.2,0-4.1-1.8-4.1-4c0-2,1.5-3.7,3.5-4
	c1.3-7.3,7.7-12.9,15.5-12.9c7.8,0,14.2,5.6,15.5,12.9c2,0.3,3.5,1.9,3.5,4c0,2.2-1.8,4-4.1,4c-0.1,0-0.1,0-0.2,0
	c-1.5,4.1-4.6,7.4-8.7,9.1c0,1-0.9,1.9-2,1.9c-1.1,0-2-0.9-2-2s0.9-2,2-2C-262.3,409-261.8,409.3-261.4,409.6z"/>
<path class="st0" d="M-267,400.1c-1.8,0-3.5-0.3-5-0.9c-0.5-0.2-0.9-0.4-1.3-0.6c-0.2-0.1-0.4-0.2-0.4-0.2c-0.6-0.4-1.4,0.2-1.2,0.9
	c1.1,3.3,4.3,5.6,7.8,5.6c3.6,0,6.7-2.3,7.8-5.6c0.2-0.7-0.6-1.3-1.2-0.9c-0.1,0-0.2,0.1-0.4,0.2c-0.4,0.2-0.8,0.4-1.3,0.6
	C-263.5,399.8-265.1,400.1-267,400.1L-267,400.1z"/>
</svg>
