<?xml version="1.0" encoding="utf-8"?>
<!-- Generator: Adobe Illustrator 19.0.0, SVG Export Plug-In . SVG Version: 6.00 Build 0)  -->
<svg version="1.1" id="图层_1" xmlns="http://www.w3.org/2000/svg" xmlns:xlink="http://www.w3.org/1999/xlink" x="0px" y="0px"
	 viewBox="0 0 60 60" style="enable-background:new 0 0 60 60;" xml:space="preserve">
<style type="text/css">
	.st0{fill:#FFFFFF;}
</style>
<path id="XMLID_2_" class="st0" d="M55.5,11.6L54.6,0l-7.1,9.2l3.2,1c-0.3,1.2-1.3,4.3-3,7.8c-2.1,4.3-5.7,10.2-11.4,14.2
	c-2.4,1.7-5.9,3-9.3,3.6c2.3-5.5,2.6-10.2,0.7-13.2c-1.6-2.4-4.5-3.6-8.6-3.5c-3.1,0.1-6.4,2.6-7.7,6c-1.2,3.1-0.5,6.3,1.8,8.6
	c2.7,2.6,6.8,3.9,11.6,3.5c-1.6,3.2-5.1,8.4-12.1,14.9c-4.3,4-7.9,6.6-7.9,6.6c-0.3,0.2-0.3,0.6-0.1,0.9C4.8,59.9,5,60,5.2,60
	c0.1,0,0.3,0,0.4-0.1c0,0,3.7-2.7,8.1-6.7c7.3-6.7,10.8-12.1,12.4-15.4c0.1-0.2,0.2-0.4,0.3-0.6c3.9-0.5,7.9-2,10.7-3.9
	c5.9-4.2,9.7-10.3,11.9-14.7c1.8-3.7,2.7-6.7,3.1-8L55.5,11.6z M25.5,36c-0.1,0-0.2,0-0.2,0c-4.7,0.4-8.7-0.7-11.2-3.1
	c-2.8-2.7-2.2-5.7-1.6-7.3c1.1-2.9,3.9-5.1,6.6-5.2c0.2,0,0.4,0,0.6,0c3.3,0,5.6,1,6.9,2.9C28.3,26,27.9,30.7,25.5,36z"/>
</svg>
