<?xml version="1.0" encoding="utf-8"?>
<!-- Generator: Adobe Illustrator 19.0.0, SVG Export Plug-In . SVG Version: 6.00 Build 0)  -->
<svg version="1.1" id="图层_1" xmlns="http://www.w3.org/2000/svg" xmlns:xlink="http://www.w3.org/1999/xlink" x="0px" y="0px"
	 viewBox="-75 77 48 48" style="enable-background:new -75 77 48 48;" xml:space="preserve">
<style type="text/css">
	.st0{fill:#565656;}
</style>
<path class="st0" d="M-36.1,102.3l1.5,0l3.7-16.1c0.1-0.2,0.1-0.3,0.1-0.5c0-0.7-0.6-1.3-1.3-1.3l-33.1,0v-2.8l1.8-0.1
	c0.7,0,1.2-0.3,1.2-1c0-0.7-0.6-1.3-1.3-1.3h-7.9c-0.7,0-1.3,0.6-1.3,1.3c0,0.7,0.7,1,1.5,1h3.9l-0.2,23.9c0,2.9,2.3,5.2,5.2,5.2
	h2.6h15.7h11.8c0,0,0-0.6,0-1.9h-30.2c-1.4,0-2.9-1.9-2.9-3.3l0-0.6L-36.1,102.3z M-65.3,86.4H-33l-3.3,14l-29,2.3V87V86.4z"/>
<path class="st0" d="M-62.3,116.6c0,2.6,2.1,4.8,4.8,4.8s4.8-2.1,4.8-4.8s-2.1-4.8-4.8-4.8S-62.3,114-62.3,116.6z M-57.6,113.4
	c1.8,0,3.2,1.4,3.2,3.2c0,1.8-1.4,3.2-3.2,3.2c-1.8,0-3.2-1.4-3.2-3.2S-59.4,113.4-57.6,113.4z M-45.5,116.9c0,2.6,2.1,4.8,4.8,4.8
	c2.6,0,4.8-2.1,4.8-4.8s-2.1-4.8-4.8-4.8C-43.4,112.1-45.5,114.2-45.5,116.9z M-40.7,113.6c1.8,0,3.2,1.4,3.2,3.2
	c0,1.8-1.4,3.2-3.2,3.2c-1.8,0-3.2-1.4-3.2-3.2C-43.9,115.1-42.5,113.6-40.7,113.6z"/>
</svg>
