<?xml version="1.0" encoding="utf-8"?>
<!-- Generator: Adobe Illustrator 19.0.0, SVG Export Plug-In . SVG Version: 6.00 Build 0)  -->
<svg version="1.1" id="图层_1" xmlns="http://www.w3.org/2000/svg" xmlns:xlink="http://www.w3.org/1999/xlink" x="0px" y="0px"
	 viewBox="-75 77 48 48" style="enable-background:new -75 77 48 48;" xml:space="preserve" class='run'>
<style type="text/css">
	.st0{fill:#588FFF;}
	.run {
		animation: 1s run;
	}

	@keyframes run {
		from {
			-webkit-clip-path: circle(0%);
			clip-path: circle(0%);
		}
		to {
			-webkit-clip-path: circle(100%);
			clip-path: circle(100%);
		}
	}
</style>
<path class="st0" d="M-36.1,102.3l1.5,0l3.7-16.1c0.1-0.2,0.1-0.3,0.1-0.5c0-0.7-0.6-1.3-1.3-1.3l-33.1,0v-2.8l1.8-0.1
	c0.7,0,1.2-0.3,1.2-1c0-0.7-0.6-1.3-1.3-1.3h-7.9c-0.7,0-1.3,0.6-1.3,1.3c0,0.7,0.7,1,1.5,1h3.9l-0.2,23.9c0,2.9,2.3,5.2,5.2,5.2
	h2.6h15.7h11.8c0,0,0-0.6,0-1.9h-30.2c-1.4,0-2.9-1.9-2.9-3.3l0-0.6L-36.1,102.3z"/>
<polygon class="st0" points="-65.3,86.4 -33,86.4 -36.3,100.3 -65.3,102.6 -65.3,87 "/>
<circle class="st0" cx="-57.6" cy="116.6" r="4.8"/>
<circle class="st0" cx="-57.6" cy="116.6" r="3.2"/>
<circle class="st0" cx="-40.7" cy="116.9" r="4.8"/>
<circle class="st0" cx="-40.7" cy="116.9" r="3.2"/>
</svg>
