<?xml version="1.0" encoding="utf-8"?>
<!-- Generator: Adobe Illustrator 19.0.0, SVG Export Plug-In . SVG Version: 6.00 Build 0)  -->
<svg version="1.1" id="图层_1" xmlns="http://www.w3.org/2000/svg" xmlns:xlink="http://www.w3.org/1999/xlink" x="0px" y="0px"
	 viewBox="-362 1 40 40" style="enable-background:new -362 1 40 40;" xml:space="preserve">
<style type="text/css">
	.st0{fill:#FA6419;}
</style>
<path class="st0" d="M-342,41c-11,0-20-9-20-20s9-20,20-20s20,9,20,20S-331,41-342,41L-342,41z M-330.8,16.3
	c-0.6-1.4-1.5-2.7-2.6-3.8c-1.1-1.1-2.4-2-3.8-2.6c-1.5-0.6-3.1-0.9-4.7-0.9c-1.6,0-3.2,0.3-4.7,0.9c-1.4,0.6-2.7,1.5-3.8,2.6
	c-1.1,1.1-2,2.4-2.6,3.8c-0.2,0.6-0.4,1.2-0.6,1.8l-0.6-1.3c-0.1-0.3-0.5-0.5-0.8-0.5c-0.1,0-0.3,0-0.4,0.1
	c-0.2,0.1-0.4,0.3-0.5,0.5c-0.1,0.2-0.1,0.5,0,0.7l1.9,4.2c0,0,0,0,0,0.1c0,0,0,0,0,0c0,0,0,0,0,0.1c0,0,0,0,0,0c0,0,0,0,0,0
	c0,0,0,0,0,0c0,0,0,0,0,0c0,0,0,0,0,0l0,0c0,0,0,0,0,0c0,0,0,0,0,0l0,0c0,0,0,0,0,0c0,0,0,0,0,0c0,0,0,0,0,0c0,0,0,0,0,0
	c0,0,0,0,0.1,0c0,0,0,0,0,0c0,0,0,0,0.1,0l0,0c0,0,0.1,0,0.1,0.1c0,0,0,0,0,0c0,0,0,0,0.1,0l0,0l0,0c0,0,0,0,0,0l0,0l0,0h0
	c0,0,0,0,0.1,0c0,0,0,0,0,0h0c0,0,0,0,0,0h0c0,0,0,0,0,0c0,0,0,0,0,0h0h0c0,0,0,0,0.1,0h0h0c0,0,0,0,0.1,0c0,0,0,0,0,0
	c0,0,0,0,0.1,0c0,0,0,0,0,0h0c0,0,0,0,0.1,0l0,0c0,0,0,0,0,0c0,0,0,0,0,0c0,0,0,0,0,0c0,0,0,0,0,0c0,0,0,0,0,0c0,0,0,0,0.1,0
	c0,0,0,0,0,0l0,0c0,0,0.1-0.1,0.1-0.1l3.4-3c0.4-0.3,0.4-0.9,0.1-1.3c-0.2-0.2-0.4-0.3-0.7-0.3c-0.2,0-0.4,0.1-0.6,0.2l-1.6,1.4
	c0.9-4.7,5.1-8.3,10-8.3c5.6,0,10.2,4.6,10.2,10.2s-4.6,10.2-10.2,10.2c-2.4,0-4.8-0.9-6.6-2.5c-0.2-0.1-0.4-0.2-0.6-0.2
	c-0.3,0-0.5,0.1-0.7,0.3c-0.3,0.4-0.3,1,0.1,1.3c2.2,1.9,4.9,2.9,7.8,2.9c1.6,0,3.2-0.3,4.7-0.9c1.4-0.6,2.7-1.5,3.8-2.6
	c1.1-1.1,2-2.4,2.6-3.8c0.6-1.5,0.9-3.1,0.9-4.7C-329.8,19.4-330.2,17.8-330.8,16.3L-330.8,16.3z M-345.5,19.3
	c-0.1,0-0.2,0.1-0.2,0.2v1.5c0,0.1,0.1,0.2,0.2,0.2h2.7v1.2h-2.7c-0.1,0-0.2,0.1-0.2,0.2v1.5c0,0.1,0.1,0.2,0.2,0.2h2.7v2.7
	c0,0.5,0.4,0.9,0.9,0.9s0.9-0.4,0.9-0.9v-2.7h2.7c0.1,0,0.2-0.1,0.2-0.2v-1.5c0-0.1-0.1-0.2-0.2-0.2h-2.7v-1.2h2.7
	c0.1,0,0.2-0.1,0.2-0.2v-1.5c0-0.1-0.1-0.2-0.2-0.2h-1.4l1.5-1.5c0.4-0.4,0.4-0.9,0-1.3c-0.2-0.2-0.4-0.3-0.6-0.3
	c-0.2,0-0.5,0.1-0.6,0.3l-2.4,2.4l-2.4-2.4c-0.2-0.2-0.4-0.3-0.6-0.3c-0.2,0-0.5,0.1-0.6,0.3c-0.4,0.4-0.4,0.9,0,1.3l1.5,1.5
	L-345.5,19.3L-345.5,19.3z"/>
</svg>
