<?xml version="1.0" encoding="utf-8"?>
<!-- Generator: Adobe Illustrator 19.0.0, SVG Export Plug-In . SVG Version: 6.00 Build 0)  -->
<svg version="1.1" id="图层_1" xmlns="http://www.w3.org/2000/svg" xmlns:xlink="http://www.w3.org/1999/xlink" x="0px" y="0px"
	 viewBox="-87 81 40 40" style="enable-background:new -87 81 40 40;" xml:space="preserve">
<style type="text/css">
	.st0{fill:#FA6419;}
</style>
<path class="st0" d="M-67.8,87.7c-7.6,0-13.8,6-13.8,13.3s6.2,13.3,13.8,13.3c7.6,0,13.8-6,13.8-13.3
	C-53.9,93.6-60.1,87.7-67.8,87.7z M-62.3,101.8c0.5,0,1,0.4,1,1c0,0.5-0.4,0.9-1,0.9h-4.4v4.7c0,0.5-0.4,0.9-1,0.9
	c-0.5,0-1-0.4-1-0.9v-4.7h-4.4c-0.5,0-1-0.4-1-0.9c0-0.5,0.4-1,1-1h4.4v-2.2h-4.4c-0.5,0-1-0.4-1-1c0-0.5,0.4-0.9,1-0.9h4.4v-0.3
	l-3.2-3.1l0,0l0,0l0,0l0,0c-0.4-0.4-0.3-0.9,0-1.3c0,0,0,0,0,0c0.4-0.4,1-0.4,1.4,0l0,0l0,0l0,0l0,0l2.7,2.7l2.7-2.7
	c0.4-0.4,1-0.4,1.4,0c0.4,0.3,0.4,0.9,0,1.3c0,0,0,0,0,0l-3.1,3.1v0.3h4.4c0.5,0,1,0.4,1,0.9c0,0.5-0.4,1-1,1h-4.4v2.2L-62.3,101.8
	L-62.3,101.8z M-67.8,81c-6.9,0-12.9,3.2-16.7,8.2l-1.3-0.7c-0.4-0.2-0.9-0.1-1.2,0.3C-87,88.9-87,89-87,89.2l0.4,4.5
	c0,0.3,0.2,0.5,0.4,0.7c0.2,0.1,0.5,0.1,0.8,0l4.2-1.8c0.2-0.1,0.3-0.2,0.4-0.3c0.2-0.4,0.1-0.9-0.3-1.1l-1.2-0.7
	c3.3-4.2,8.5-6.9,14.4-6.9c10,0,18.2,7.8,18.2,17.5c0,9.7-8.1,17.5-18.2,17.5c-6.9,0-12.9-3.7-16-9.2l-2.4,1
	c3.5,6.3,10.4,10.7,18.3,10.7c11.5,0,20.8-9,20.8-20C-47,89.9-56.3,81-67.8,81z"/>
</svg>
