<?xml version="1.0" encoding="utf-8"?>
<!-- Generator: Adobe Illustrator 19.0.0, SVG Export Plug-In . SVG Version: 6.00 Build 0)  -->
<svg version="1.1" id="图层_1" xmlns="http://www.w3.org/2000/svg" xmlns:xlink="http://www.w3.org/1999/xlink" x="0px" y="0px"
	 viewBox="-127 41 120 120" style="enable-background:new -127 41 120 120;" xml:space="preserve">
<style type="text/css">
	.st0{fill:#2AA515;}
</style>
<path class="st0" d="M-68.8,138.9l-40.9-42.3l10.5-8.5l23.7,18.9c9.7-11.7,31.2-35,61-53.5l2.5,5.9
	C-39.4,84.8-61.8,120.6-68.8,138.9z M-17.1,92.8c0.4,2.7,0.7,5.5,0.7,8.2c0,27.9-22.6,50.5-50.5,50.5c-27.9,0-50.5-22.6-50.5-50.5
	c0-27.9,22.6-50.5,50.5-50.5c6.7,0,13.2,1.3,19,3.7V44.1c-6.1-2-12.5-3.1-19-3.1c-8.1,0-16,1.6-23.4,4.7c-7.1,3-13.6,7.3-19.1,12.9
	c-5.5,5.5-9.8,11.9-12.9,19.1c-3.1,7.4-4.7,15.3-4.7,23.4s1.6,16,4.7,23.4c3,7.1,7.3,13.6,12.9,19.1c5.5,5.5,11.9,9.8,19.1,12.9
	c7.4,3.1,15.3,4.7,23.4,4.7s16-1.6,23.4-4.7c7.1-3,13.6-7.3,19.1-12.9c5.5-5.5,9.8-11.9,12.9-19.1C-8.6,117-7,109.1-7,101
	c0-2.8-0.2-5.5-0.6-8.2H-17.1z"/>
</svg>
