<?xml version="1.0" encoding="utf-8"?>
<!-- Generator: Adobe Illustrator 19.0.0, SVG Export Plug-In . SVG Version: 6.00 Build 0)  -->
<svg version="1.1" id="图层_1" xmlns="http://www.w3.org/2000/svg" xmlns:xlink="http://www.w3.org/1999/xlink" x="0px" y="0px"
	 viewBox="-87 81 40 40" style="enable-background:new -87 81 40 40;" xml:space="preserve">
<style type="text/css">
	.st0{fill:#4FB348;}
</style>
<path class="st0" d="M-75.7,92.4c-0.9,0-1.8,0.6-1.8,1.5c0,0.9,0.9,1.5,1.8,1.5c0.9,0,1.5-0.6,1.5-1.5C-74.2,93-74.8,92.4-75.7,92.4
	 M-63.5,101c-0.6,0-1.2,0.6-1.2,1.2c0,0.6,0.6,1.2,1.2,1.2c0.9,0,1.5-0.6,1.5-1.2C-62,101.6-62.6,101-63.5,101 M-47,87.1
	c0-3.4-2.7-6.1-6.1-6.1h-27.8c-3.4,0-6.1,2.7-6.1,6.1v27.8c0,3.4,2.7,6.1,6.1,6.1h27.8c3.4,0,6.1-2.7,6.1-6.1V87.1 M-71.8,107.5
	c-1.5,0-2.7-0.3-4.2-0.6l-4.2,2.1l1.2-3.6c-3-2.1-4.8-4.8-4.8-8c0-5.7,5.4-10.1,11.9-10.1c5.8,0,11,3.6,12,8.4
	c-0.4,0-0.8-0.1-1.1-0.1c-5.6,0-10.1,4.2-10.1,9.4c0,0.9,0.1,1.7,0.4,2.5C-71.1,107.5-71.4,107.5-71.8,107.5 M-54.3,111.7l0.9,3
	l-3.3-1.8c-1.2,0.3-2.4,0.6-3.6,0.6c-5.7,0-10.1-3.9-10.1-8.6c0-4.8,4.5-8.6,10.1-8.6c5.3,0,10.1,3.9,10.1,8.6
	C-50.1,107.5-51.9,109.9-54.3,111.7 M-56.9,101c-0.6,0-1.2,0.6-1.2,1.2c0,0.6,0.6,1.2,1.2,1.2c0.9,0,1.5-0.6,1.5-1.2
	C-55.5,101.6-56,101-56.9,101 M-67.3,95.3c0.9,0,1.5-0.6,1.5-1.5c0-0.9-0.6-1.5-1.5-1.5c-0.9,0-1.8,0.6-1.8,1.5
	C-69.1,94.7-68.2,95.3-67.3,95.3"/>
</svg>
