<?xml version="1.0" encoding="utf-8"?>
<!-- Generator: Adobe Illustrator 19.0.0, SVG Export Plug-In . SVG Version: 6.00 Build 0)  -->
<svg version="1.1" id="图层_1" xmlns="http://www.w3.org/2000/svg" xmlns:xlink="http://www.w3.org/1999/xlink" x="0px" y="0px"
	 viewBox="-76.9 85 19.8 33" style="enable-background:new -76.9 85 19.8 33;" xml:space="preserve">
<style type="text/css">
	.st0{fill:#2AA515;}
</style>
<path class="st0" d="M-57.1,115.7c0,1.3-1.1,2.3-2.4,2.3h-15c-1.3,0-2.4-1-2.4-2.3V87.3c0-1.3,1.1-2.3,2.4-2.3h15
	c1.3,0,2.4,1,2.4,2.3L-57.1,115.7L-57.1,115.7L-57.1,115.7z M-67.3,114.7c-0.7,0-1.2,0.5-1.2,1.1c0,0.6,0.5,1.2,1.2,1.2
	c0.7,0,1.2-0.5,1.2-1.2C-66.1,115.3-66.6,114.7-67.3,114.7L-67.3,114.7z M-75.5,87.5v25.3c0,0.6,0.4,1,1,1h15c0.6,0,1-0.4,1-1V87.5
	c0-0.6-0.4-1-1-1h-15C-75,86.4-75.5,86.9-75.5,87.5z"/>
<path class="st0" d="M-66.9,93.7c-3.4,0-6.1,2.7-6.1,6.1c0,3.4,2.7,6.1,6.1,6.1c3.4,0,6.1-2.7,6.1-6.1
	C-60.8,96.5-63.6,93.7-66.9,93.7L-66.9,93.7z M-67.5,102.9l-2.9-3l0.7-0.6l1.7,1.3c0.7-0.8,2.2-2.5,4.3-3.8l0.2,0.4
	C-65.4,99-67,101.6-67.5,102.9z"/>
</svg>
