<?xml version="1.0" encoding="utf-8"?>
<!-- Generator: Adobe Illustrator 19.0.0, SVG Export Plug-In . SVG Version: 6.00 Build 0)  -->
<svg version="1.1" id="图层_1" xmlns="http://www.w3.org/2000/svg" xmlns:xlink="http://www.w3.org/1999/xlink" x="0px" y="0px"
	 viewBox="-14 -62 212 190" style="enable-background:new -14 -62 212 190;" xml:space="preserve">
<style type="text/css">
	.st0{fill:#C7DBFF;}
</style>
<path class="st0" d="M70,123.7c-0.9,0.4-1.4-0.6-2-0.6c1.1-1.6,3.2-0.5,0-1.6c0,1.6-0.5,2.2-0.5,3.3c0,0-1.5,0.5-1.1,0.5
	c1.5-0.5,1.5,1.1,3.2,0.5C69.7,124.8,69.7,124.3,70,123.7c0.1,1,0.2,1.7-0.4,2.1c1.1,0.5,1.1,1.6,2.6,1.1c0.5-1.1-1.1,0-0.5-1.1
	c1.5,0,4.7-1.1,3.7,1.1v-1.1c-1.1,0.5-1.1,1.1-1.5,1.6c2.1,0,4.7,0.5,5.2-1.1v1.6c0.5,0,0.5-2.2,0.5-3.3c1.1-0.5,0.5,0.5,0.5,0
	c-0.5-1.1-0.5-0.5,0-1.6c-1.5-0.5-3.2-0.5-5.2,0c0-0.5-1.1-1.1-1.5-1.1c0,0.5,0.5,1.1,0,1.1s-0.5-0.5-0.5-1.1
	c-1.1,0.5-2.1,0.5-2.6,0C69.9,122.6,70,123.3,70,123.7z M61.7,124.2c0.7,0.2,1.3,0.4,2.1,0.6c-0.5-1.1,0.5-1.6,0.5-2.2
	c0.5,0-0.5,1.6,0.5,1.1c0.5-1.1-0.5-1.1-0.5-1.6h1.1v-1.7c-1.1,0-1.5,0.5-2.1,0.5c0.5-0.5,0-0.5,0-1.1c-4.3-0.5-7.9-2.2-11.6-3.8
	v0.5c0-1.1-1.5,0-1.1-1.1c-1.1,0-1.5,0.5-2.1-0.5c0,0,0.5,1.1,0,1.1c0,0-0.5,0.5-0.5,0s1.1,0,0.5-1.1c-1.1-1.1-2.1-2.2-4.3-2.2
	c0,0.5-0.5,1.1-1.1,1.1c0-0.5,1.1-0.5,0.5-1.6c-1.5-0.5-2.6-2.2-4.3-2.7l-1.1,1.1c-0.5-0.5-1.1-0.5-1.5-1.1c0.5-2.2-2.6-3.3-4.7-3.8
	c0.5-1.6-1.5-0.5-1.1-2.2c-0.5-0.5-0.5,0.5-1.1,0.5c0-0.5-1.1,0-0.5-1.1c-0.5-0.5-0.5,0.5-1.1,0.5c0.5,0,1.1-0.5,1.1,0
	c-0.5,1.1,0,2.7-1.1,2.7c0.5-1.1-1.1-0.5-1.1-1.1v-1.1h1.3c-1.1-0.5-1.1-1.6,0-2.2c0,0.5,0,0.5,0,0c0-1.1-0.5,0.5-1.5,1.1
	c-0.5,0.5,1.1,0.5,0,1.1c0,0,0-0.5-0.5-0.5c-0.5,0.5-0.5,1.6-0.5,2.7c1.5,0,1.5,1.1,2.6,1.6c0-0.5,0-1.1,0.5-1.1v1.6
	c2.6,1.6,5.2,3.8,8.4,5.3c0.5-2.2,2.1,1.1,3.2-0.5c0,0.5,0.5,0.5,0.5,1.1c-1.1,0-1.1,0.5-1.1,1.6c2.1-0.5,2.6,0.5,3.7,1.6
	c0.5-0.5-1.1-1.1,0-1.6c0.5,0.5,0.5,1.1,0.5,2.2c2.1,0.5,3.7,1.1,5.8,2.2c0.5-1.1-1.1-1.1-1.1-2.2c1.1-0.5,0,1.1,1.1,0.5
	c0.5-0.5,0.5-1.1,0.5-2.2c0.5,0.5,2.1,1.6,1.1,2.7c0,0,0-0.5-0.5-0.5c0,1.1,0.5,1.6,0.5,2.2c2.1-0.5,2.1,0.5,3.7,0.5
	c0-0.5,0.5-1.1,0.5-1.6c0,0,0.5,0.5,0.5,1.6h1.5c-0.5,1.1,0,1.1,0,1.6c1.2,0.4,2.3,0.6,3.4,1C61.5,124.1,61.6,124.2,61.7,124.2z
	 M124.3,93.4c0.6-0.5,1.1-1,1.5-1.6c0.5-0.5-1.1,0.5-0.5-0.5c1.5,0.5,2.1,0,2.1-1.1c0.5,0,0,0.5,0,1.1c1.1,0,0.5-1.6,2.6-1.1
	c0.5-0.5-1.1-1.1,0-1.6c0.4,0.4,0.7,0.5,0.9,0.5l0.1,0.1v-0.1c0.4-0.1,0.6-0.6,0.9-1h0.6v-0.5c0.2-0.1,0.6-0.1,1.1-0.1v-1.1
	c2.6-1.1,3.7-3.8,6.3-5.3c0-2.2,2.1-2.2,2.1-4.4h1.3c0-1.1,1.1-2.7,0-3.8c1.5,0.5,2.1-0.5,2.6-1.1c3.7-7,6.3-11.9,8.4-20.5
	c-1.5-0.5-1.5,1.6-3.2,1.1c-2.1,9.7-4.7,14.1-9.5,20.5c0,1.1,0.5,3.3,0,3.8c-0.5-0.5-1.1-0.5-2.1-0.5c-4.3,5.3-8.9,10.8-14.7,14.6
	v0.5c-2.1-0.5-3.7,1.1-4.7,2.7c-3.7,0.5-6.3,3.8-10.6,4.4c0,0.5,0.5,1.1,0,1.1c-1.1-1.1-3.7,0-4.3,1.6c-0.5,0,0.5-1.6-0.5-1.1
	c-1.5,1.1-4.3,1.1-5.2,2.2c-0.5-1.1-1.5,0-2.1,0.5c-3.2-1.1-7.4,1.1-11.6,0.5c0,0,0,0.5-0.5,0.5c0-0.5,0.5-0.5,0.5-0.5
	c-3.2,0-5.2-0.5-7.4,0.5v-1.1c-1.5,0-2.6,0-3.7-0.5c-1.1,0.5-1.1,1.1-1.1,1.6c0-0.5-0.5-0.5-0.5-0.5c0.5,0,0.5-0.5,0.5-1.1
	c-1.5,0-2.6-0.5-3.7-1.1c0,0.5,0.5,1.1,0,1.1c-1.1-1.1-2.6-1.6-3.7-2.2c0,0.5,0.5,1.1,0,1.1c0,0-0.5,0.5-0.5,0c0,0,0.5,0,0.5-0.5
	c-1.5,0-2.6-0.5-4.3-1.1c-0.5,0,0,1.1-0.5,1.1c0,0-0.5,0.5-0.5,0c0.5,0,0.5,0,0.5-1.1c-1.1-0.5-2.1,0.5-3.2,0c0-0.5,1.5,0.5,1.1-0.5
	c-3.2-0.5-4.3-3.3-7.4-3.8c0,0.5-0.5,1.1-1.1,1.1c-0.5-1.1,0.5-1.1,0.5-1.6c-3.7-2.2-6.9-4.9-10-7c0,0.5,0,1.1-1.1,1.1
	c-0.5,1.1,1.1,0,0.5,1.1c0.5,0,0-1.1,1.1-1.1c0.5,1.1-1.1,1.1-0.5,2.2c1.1-0.5,1.1,0.5,1.5,0.5c0-1.1,0.5-1.6,1.1-2.2
	c-0.5,1.1,0,1.6,0,2.2h-1.1c0.5,1.1,1.5,1.6,2.6,2.2c0.5-1.1-1.1,0-0.5-1.1H46c0,1.1,0.5,1.6,0.5,2.2c0.5,0,0.5-0.5,0.5-0.5
	c1.1,1.6,2.6,3.3,5.8,3.3c-0.5,0.5,0,0.5,0,1.1c1.1,0,1.5,0.5,2.1,0.5c0-0.5,1.1-1.1,1.5-0.5c-0.5,0-0.5,0.5-0.5,1.6
	c1.1,0,2.1,0,2.6,1.1c1.1,0.5,0-1.1,1.1-0.5c-0.5,1.1,1.1,0,0.5,1.1c4.7,1.1,10.6,4.4,15.8,3.3c0.5,0,0,1.1,1.1,1.1s0.5-1.1,1.5-1.1
	v1.1c1.5-0.5,3.2,0,4.7,0.5c-0.5-1.1,0.5-1.1,0.5-1.6c-0.5,0-1.1,1.1-1.5,0c0.5-0.5,1.1-0.5,1.5-1.1c0,0.5,1.1,0,1.1,0.5v0.5
	c-1.1,0-1.1,0-1.1,1.1c3.2,0,5.8-0.5,10-0.5c0-0.5-0.5-1.1,0-1.1v1.1c1.1-1.1,3.7-0.5,4.7-1.6c0,0,0,0.5,0.5,0.5
	c4.3-1.6,9.5-2.2,12.7-4.9c1.5,0,4.3-0.5,4.7-2.2c0,0,0,0.5,0.5,0.5c2-1.6,4.6-2.7,6.6-4.2C124.2,93.5,124.3,93.5,124.3,93.4z
	 M87,125.9c3-0.2,5.3-0.8,6.9,0c1.7-0.4,3.9-0.5,5.6-1c-0.1,0.2-0.4,0.5-0.4,1h1.1c0-0.6,0.1-1,0.1-1.2c0.6-0.2,1.1-0.5,1.4-0.8
	c0.5,0.5-0.5,0.5-0.5,1.1c1.5-0.5,3.7-0.5,4.3-1.6c0.5,0,0.5,0,0.5,0.5c1.1,0,1.1-1.1,2.1-1.1c0,0.5,0,1.1,0.5,1.1
	c1.1-0.5,1.5-1.1,3.2-1.1c0-0.5-0.5-1.6,0-1.6c0.5,1.6,2.1,0.5,3.2,0.5c0-0.4-0.7-0.7-0.7-1.1h0.7v0.5c0.1,0,0.2,0,0.4-0.1
	c0.8-0.1,1.5-0.4,2.4-0.6c0,0.2,0.1,0.4,0.5,0.1c0-0.1,0.1-0.2,0.1-0.2c1.9-0.6,3.7-1.3,5.3-2.1c0.2,0.5,0.6,0.6,0.9,0.2v-0.7
	c1.8-0.8,3.6-1.8,5.2-2.8v0.2h1.5c0-0.5,0.5-1.6,0-1.1c-0.1,0.1-0.4,0.2-0.5,0.2c0.5-0.2,0.9-0.5,1.5-0.8c0-0.5,0-0.5,0,0
	c0.4,0,0.6-0.2,0.8-0.5c0.7-0.4,1.5-0.7,2.4-1.2c0-0.5-0.5-1.1,0-1.6c0,0.5,0,1.1,0.5,1.1c3.7-1.6,6.3-4.4,9.5-6.4
	c0.5-1.1-1.1,0-0.5-1.1c1.1-0.5,0,1.1,1.1,0.5c0-0.5-0.5-1.6,0-1.6s-0.5,1.6,0.5,1.1c3.2-4.4,7.9-7,10.6-11.9c-0.5,0-1.1,0.5-1.1,0
	c0.5,0,0.5-0.5,1.1-0.5v1.1c1.5-0.5,2.1-2.7,3.2-4.4c0.5-0.5,1.1-0.5,1.5-1.1c0.5-0.5,0-1.6,0.5-2.2c0.5-0.5,1.5-1.1,2.1-1.6
	c0.5-1.1,0.5-2.2,1.1-3.3c0-0.5,1.1,0,1.1-0.5v-1.1l1.5-1.6c0.5-1.6,1.1-3.8,1.5-4.9c0.5,0,1.1,0,1.1-0.5s-0.5-1.6,0-2.2
	c0-0.5,1.1-0.5,1.1-1.1v-1.6c0,0,1.1,0,1.1-0.5v-1.6c0,0,1.1-0.5,1.1-1.1c0-1.6,0-3.3,0.5-4.9c0,0,1.1-0.5,1.1-1.1
	c0.5-3.3,0.5-7,1.5-9.7l-4.3-1.1c-2.1,11.9-5.2,22.7-11.6,29.6c-0.5,1.1,1.1,0,0.5,1.1c-0.5,0-0.5,1.1-1.5,0.5
	c-0.5,1.6-1.1,3.3-1.1,5.3l-0.5-0.5c0.5,0,0.5,0,0.5-1.1c-1.1,1.6-2.1,2.7-3.2,4.4c-0.5,0.5,1.1,1.1,0.5,1.6c0,0-0.5,0-0.5-1.1
	c-1.1,1.1-2.1,2.2-2.1,3.8c-0.5,0.5-0.5,0-1.1,0c0,0.5,0,1.6-1.5,1.6c-1.1,2.2-4.7,3.8-3.7,5.9l-1.1-1.1v1.1
	c-3.7,1.1-5.2,4.9-8.9,6.4c0,0.5,0.5,0.5,0.5,0.5c-1.1-0.5-1.5,0.5-2.6,0.5v1.1c-5.2,3.3-10.6,5.3-15.3,8.6
	c-0.5-0.5-3.2,0.5-3.7,1.6c0,0,0-0.5-0.5-0.5c-2.1,1.6-5.8,2.2-8.9,2.7c-0.5,1.1,0.5,0.5,0.5,1.6c-0.5,0-1.1,0.5-1.5,0
	c0.5,0,0.5,0,0.5-0.5c-1.1,0.5,0-1.1-1.1-0.5c-1.5,1.1-5.2,0-6.3,1.6c-1.1-1.1-3.7,0-4.7,0c1.1,1.1-0.5,1.1,0,2.7
	c0.5,0,1.1-0.5,1.1,0s0.5,1.1,0,1.1c0,0-0.5,0-0.5-1.1c-1.1-0.5,0,1.1-1.1,0.5c0.5-1.1-1.1-0.5-1.1-1.1c-0.5-0.5,0.5-0.5,0.5-1.1
	c-1.5,0-1.1,2.7-3.2,1.6c0-0.5-0.5-1.1,0-1.1c1.1-0.5,0,1.6,1.1,1.1v-2.7c-1.1-0.5-1.5,1.1-2.1,0c0,1.1-2.1,0.5-2.6,0.5
	c0,0.5,0.5,1.6,0,1.6c-0.5-1.6-0.5,1.1-1.1,0.5c-0.5-1.1,1.1-1.1,0.5-2.2h-2.6c0,0.5,1.5,0.5,1.5,1.1c0,0,0,1.1-0.5,1.1
	s0-1.1-1.1-0.5c0.5,0.5,1.1,1.6,0,2.7c0.9,0.1,1.8,0.1,2.6,0.1c-0.2,0.2-0.6,0.5-0.9,0.5c0,0.5,0,1.1,0.5,1.1
	C85.4,126.4,86.9,126.4,87,125.9z M86.9,125.9h-0.2H86.9z M151.1-28.5c-0.4,1.7,3.2,1.3,1.8,2.3c0.5,0,0.5-0.5,1.5,0
	c0,0-0.5-0.5,0-0.5c0.5,1.1,0.5,0,1.1,0c0,0.5,1.1,1.1,0.5,2.7h-1.1v1.1c1.1,0,1.1,0,2.1-0.5c0,0.5-0.5,1.1-1.5,1.1
	c1.1,1.1,0.5,1.1,1.5,2.2l5.2-1.6c-0.5,0-1.1,0.5-1.1,0v-1.1c-1.1-0.5-1.5-1.6-2.1-2.7c-0.5-0.5-0.5,1.1-1.1,0c0,0,0.5,0,0.5-0.5
	c-0.5-0.5-1.1-0.5-1.1-1.1c-0.5-0.5-1.1,1.1-1.5,0h1.1c0-0.5-1.1-1.1-1.1-2.2h-1.5v-1.6c-4.3-2.2-4.7-7.5-10.6-7.5
	c0,0,0.5,1.1,0,1.1c0.5-1.1-1.1-1.6,0-2.2c0.6,1.1,0.6-0.4,1.6,0.5c0-1.6-2.1-3.3-3.7-2.2c0,0.5,1.1,0,1.1,0.5
	c-0.5,1.6-2.1,4.4,0,4.9c1.1,0.5,0-1.1,1.1-0.5c0.5,1.1-1.1,0-0.5,1.1c2.1,1.6,3.2,4.4,6.9,4.9c0,0.5-1.5-0.5-1.1,0.5
	c0.5,0,1.1,0.5,1.1,1.6c0.4,0.1,0.5,0.1,0.5,0C150.9-28.4,151-28.5,151.1-28.5z M4.1-4.9c0.7-0.7,0.4-2.5,1.3-2.5
	c0-0.5-1.1-1.1-0.5-1.6c0,0.5,1.1,0,0.5,1.1c0.5,0.5,0-0.5,0.5-0.5l0.5,0.5c-0.5,0-0.5,1.1-1.5,0.5c0.5,1.1-0.5,1.1-0.5,1.6
	c1.1,0,0.5,1.1,1.5,0.5c0.5-1.1-1.1,0-0.5-1.1c0.5,0.5,0-1.1,0.5-1.1c0,0,0,0.5,0.5,0.5c2.6-5.3,5.2-10.8,9.5-14.6v-1.6H17
	c0-2.7,2.6-2.2,3.2-4.9h1.1c0.5-1.6,2.1-3.3,3.7-4.4c2.1-1.6,3.2-3.8,5.2-4.4c0.5-1.1,1.1-1.6,1.5-2.2c1.5,0.5,1.1-1.1,2.6-1.1
	c2.1-3.3,7.4-4.4,10.6-7.5c7.9-2.7,14.7-7,24.8-8.1c0.5-0.5-1.1-0.5,0-1.1c6.3,0.5,14.7-1.1,23.1-0.5c0-0.5,0-1.1,1.1-0.5
	c-0.5,0.5,0.5,0.5,0.5,1.1c2.1-0.5,4.3,1.1,5.2,0c1.1,1.1,4.3,2.2,4.7,0v1.6c1.1,0,2.1,0,2.6,0.5c0.5-1.1-0.5-1.1-0.5-1.6
	c1.1,0.5,0-1.1,1.1-0.5c0.5,1.1-1.1,0-0.5,1.1c0.5,0,0.5,0.5,0.5,1.1c2.1,0,4.3,1.1,5.8,1.6c0,0,0-0.5,0.5-0.5
	c-1.1-0.5,0.5-1.1-0.5-2.2h1c0,0.5,0,0.5,0.5,1.1c-1.1,0.5-1.1,1.1-1.1,2.7c0.5,0.5,0-1.1,0.5-1.1c0,0,0.5-0.5,0.5,0
	c0,0-0.5,0-0.5,0.5c0.5,0,0.5,0,0.5,0.5c0.5,0.5,0.5-0.5,1.1-0.5v1.1c8.4,2.7,14.7,7.5,21.6,11.9c0-0.5,1.1-1.1,1.5-0.5
	c-0.5,0,0,1.1-0.5,1.1c0,0,0-0.5-0.5-0.5c0,0.5,1.1,0.5,1.5,0.5c0.5-1.6,0.5-3.8,0.5-5.3c-1.5,0.5-1.5-1.6-3.2-1.1
	c0.5-0.5,0-0.5,0-1.1c-5.8-3.3-11-6.4-16.8-9.2c-0.5,0,0,1.1-1.1,0.5v-1.1c-2.6,0-4.3-2.7-6.9-1.6c0.5,0,0.5,0,0.5,0.5
	c-1.1,0.5-2.1,0.5-3.2,1.1c0-1.1,1.1-0.5,1.1-1.6c0.5-0.5-0.5,1.1,0.5,0.5c0-0.5,1.1,0,0.5-1.1c-3.7-1.1-7.4-2.2-11.6-2.7
	c0,0.5,0,1.1-0.5,1.1c0.5-1.1-1.1-1.1-2.1-1.1c0,0.5-0.5,1.1-1.5,1.1v-1.6c-2.8-0.4-5,1.6-5.4-0.4c-1.5,0.5-1.5,0-3.2,0.5
	c-1.5-1.1-5.2,0-8.4,0.5c0,1.1-1.5,0.5-0.5,1.6c-0.2,0-0.7,0.1-1.1,0.2v-0.2l-0.2,0.2c-0.2,0-0.4,0-0.4-0.2c0-0.5,1.1-0.5,0.5-1.1
	c-4.3-0.5-6.3,1.1-10,0.5c0.5,0.5-0.5,0.5-0.5,1.1c-2.1-0.5-5.8,1.1-7.9,2.2c-1.1,0.5,0-1.1-1.1-0.5c-2.1,1.1-4.3,1.1-6.3,2.2
	c0,0.5,0.5,1.1,0,1.1c-0.5-1.6-2.1,0-2.6,0c0,0.5,0.5,1.6,0,1.6s0.5-2.2-0.5-1.6l-1.1,1.1C32.8-47,22.8-37.9,13.3-27.1
	c0,0.5,1.1,0.5,1.1,1.1c-1.1-0.5,0,1.1-1.1,0.5c0-0.5,0.5-1.1-0.5-1.1c0-0.5,0.5,1.1,0,1.1c-1.1,0,0.5-0.5-0.5,0.5
	c-0.5,0.5-1.5,0.5-1.5,1.1v1.1c-0.5,0-1.1,0-1.5,0.5c0,0.5,0,1.6-0.5,2.2c-0.5,1.1-0.5,0.5-1.1,1.6L6.6-18c0,0.5,0,1.6-0.5,2.2
	c1.1,0.5,0-1.6,1.1-1.1c0,1.1-0.5,1.6-0.5,2.7c0,0,0.2,0.5,0.4,1.1H6.7c-0.7,0-0.5,0.5-0.7,0.8c1.2-0.8,0.7-0.8,0.7-1.8h-2
	c-1.1,2.2-1.5,4.4-2.6,5.9c0.5,0,0.5,1.6,0,2.2c0,0,0-0.5-0.5-0.5c0.2,0.2,0.2,0.7,0.5,1.1C1-5.4,1.6-2.1,0-3.2
	c0.5-1.1,0.5-1.6,1.1-2.7H0c0,0.5,0.5,2.2-0.5,2.2c0,0.5,1.1,0.5,0.5,1.6h-1.5C-1-1-2-1-2-0.5C-0.9-1-0.9,0-0.5,0
	c0.5-0.5,0-1.6,1.1-1.6C0.1,0,0.1,0.6,0.6,2.2c-0.5,0-1.5,0.5-1.5,0c-0.5-0.5,0.5-0.5,0.5-1.1c-1.5,0.5-1.1-0.5-2.1-0.5
	C-2,2.8-3,3.3-2.5,5h-1.2c0,3.8-1.5,6.4-2.1,10.2c-0.5,3.8,0,4.9-1.1,8.6h4.7C-2.2,13.6,0.4,8.1,3,0.6c0,0-0.5-1.1,0-1.6
	c0.5,0-0.5,2.2,0.5,1.6C3-2.1,4.6-2.1,4.6-3.8C4.4-4,4.3-4.4,4.1-4.9z M3.7-4.6c-0.9,0-1.3-0.2-1.5-0.5v1.6C3-3.5,3.6-3.9,3.7-4.6z
	 M88.5-39.7H90v1.1c1.1,0,1.5-0.5,2.1-1.1c3.2,1.1,3.7,1.1,7.4,1.1v2.2c1.1,0,0-1.6,1.5-1.1c0,0.5-1.1,0.5-0.5,1.6
	c-2.1,0.5-2.1-1.1-4.3-0.5c0-1.1,1.1-0.5,1.5-0.5v-0.5c-1.1-0.5-2.6,0-2.1,1.1c-0.5-1.1-3.2,0-3.7-1.1c-0.5,1.1-1.5,0-2.6,0
	C88.5-39.1,89.1-38.6,88.5-39.7z M128.1-23.6c1.1,0.5,1.5,0.5,3.2,0.5c0,0.5-1.1,0.5-0.5,1.6c-0.5-1.1-2.6-1.1-3.2-1.6
	C127.1-23.6,128.6-22.9,128.1-23.6z M134.4-17.6h1.5c0,0.5,0,0.5,0.5,0.5c-0.5,0.5-0.5,1.1-1.5,1.1
	C134.9-16.5,134.4-16.5,134.4-17.6z M137-17C137-17,137-16.5,137-17c0,1.1,1.5,0,1.1,1.1c-1.1-0.5-0.5,0.5-1.5,0.5
	C136-16.5,137-15.9,137-17z M18.5,14.8V17c-1.1,0-2.1,0.5-2.6,0.5C16.4,17,16.4,14.8,18.5,14.8z M81.8,123.6c0.5,0,0.5,0.5,0.5,1.1
	h-1.1C81.2,123.6,82.2,124.2,81.8,123.6z M88.5,126.9c-0.5-0.5,0-0.5,0-1.1H88v1.1C88.5,126.4,88.5,128,88.5,126.9z M20.7,95.6
	c0.5,1.1-0.5,1.1-0.5,1.6c1.1,0.5,1.1-0.5,1.5-0.5v-1.1H20.7z M19.6,97.3c0-0.5,0.5-1.6-0.5-1.6C19.6,96.2,19,97.3,19.6,97.3z
	 M20.7,99.5c0.5,0,1.1-0.5,1.1-1.1c-1.1,0.5,0-1.1-1.1-0.5V99.5z M83.9-39.1c0.5,0.5,0.5,0.5,0.5,1.1c-3.7-0.5-7.4,1.6-10,0.5
	c-2.1,1.6-6.9,1.1-8.9,2.7c-0.5,0-0.5,0-0.5-0.5c-0.5,1.1-2.1,1.1-3.2,2.2c-7.4,1.6-12.7,6.4-18.4,9.7c0-1.1,1.1-1.6,1.1-2.7
	c0-0.5-0.5,0-1.1,0c3.7-3.3,8.4-5.9,13.6-8.1c0-0.5,1.1-0.5,0.5-1.1c3.7,0,4.7-2.2,8.4-2.2v1.1c0.5,0,0-1.1,0-1.6
	c1.1,1.1,1.5-0.5,1.1,1.1c1.1,0.5,0-1.1,1.1-0.5c0.5-1.1-1.1,0-0.5-1.1c2.1-0.5,5.2-1.6,6.3,0c1.1,0,1.1-1.1,1.5-1.1
	c1.1,0-0.5,1.1,0.5,1.1c1.1,0,0.5-0.5,0.5-1.1c1.1-0.5,4.3-1.1,5.2,0c0-0.5,1.5-0.5,2.1-0.5v1h0.5c0.5,0,0-0.5,0-1.1h2.6
	c0,0.5-0.5,1.1-1.1,1.1c0,0.5,1.1,0.5,1.1,1.1h-2.6C85.4-38.6,84.8-39.1,83.9-39.1z M77.5-38.1c1.1,0,1.5-0.5,2.1-1.1
	C79.1-38.6,78.1-39.1,77.5-38.1z M107-35.3c0-1.1,2.6-1.1,2.6,0c0,0,0-0.5,0.5-0.5c0.5,1.1,2.6,2.2,3.7,1.6v1.1h-1.1
	c0,0.5,0.5,0.5,0.5,0.5c0.5,0,0-1.1,0.5-0.5c0,0.5,0,0.5,0.5,0.5c-0.5,0.5-0.5,0.5-0.5,1.1c-1.5,0-3.2-0.5-3.2-1.6
	c1.1-0.5,0,1.1,1.1,0.5c0-0.5-1.1-1.1-1.1-1.6c-0.5,0,0,1.1,0,1.6c-2.1-0.5-4.3-0.5-5.2-2.7c-1.1,1.1-2.1-0.5-3.7,0V-38
	c1.1-0.5,0.5,0.5,1.5,0.5c-0.5,1.1,0,1.1,0,1.6C105.5-35.3,108.1-37.5,107-35.3z M119.1-31.1c2.2-0.5,1.6,1.1,3.2,1.1
	c0,0.5-1.1,1.6,0,2.2c0-0.5,0.5-1.1,0.5-1.6c1.1-0.5,0,1.1,1.1,0.5c-0.5,1.1-0.5,0.5,0,1.6c-1.1,0-1.5,0-1.5,0.5
	c-1.1-0.5-1.5-1.1-2.6-1.6c0-0.5,0.5-0.5,1.1-1.1C120.2-30,119.6-30,119.1-31.1c-0.5,1.1,1.1,1.1,0.5,2.2c-1.1-0.5-2.1-0.5-2.1-1.6
	c-0.5,0-0.5,1.1-1.5,0.5c0-0.5-0.5-0.5,0-1.1h1.1c0.5-1.1-0.5-0.5-0.5-1.6c1.1,0,1.5,1.1,2.6,0.5L119.1-31.1z M38.6-22.5
	c0.5,0,1.1,0,1.1-0.5h1.1c0.5,0,0-1.1,0-1.1c1.1-0.5,0,1.1,1.1,0.5c0.5-1.1-1.1,0-0.5-1.1c1.1,0,0.5-1.1,1.5-1.1
	c0,1.6-1.1,2.2-0.5,3.8c-1.5,0.5-2.1,2.2-4.3,2.7c0,1.1-1.1,1.6-1.5,2.2h-0.5c0-1.1,1.1-0.5,1.1-1.6c0-0.5-0.5,0-0.5,0
	c-0.5,1.1-1.1,2.2,0,3.3C32-11.6,29.8-5.7,25.1-1.3c0-1.1,0-1.1,0.5-1.1c0-0.5-1.1,0-1.5,0c0.5-1.1,1.5-1.1,1.5-2.7
	c0.5-0.5,0,1.1,0,1.1c0.5-0.5,1.1-1.1,2.1-1.1v-0.6c0-0.5-0.5,0-1.1,0c-0.5-1.1,0.5-1.1,0.5-2.2c1.5,0,1.1-2.2,2.6-1.6v-1.6
	c1.1-0.5,0,1.1,1.1,0.5c-1.5-1.6,1.5-2.2,1.1-3.8c1.1,0.5,2.1-3.3,2.6-1.1c0.5,0,0-1.1,0-1.6c1.1-0.5,1.1-1.6,2.6-1.6
	c0.5,0.5,0,1.6,0,2.2C38-19.2,39-20.3,38.6-22.5z M131.8-21.9c2.1-0.5,2.1,3.3,3.2,1.6c0,1.1-0.5,2.2-1.1,2.7c0-1.1-1.1-1.1-2.1-1.6
	c0-0.5,0.5-1.1,1.5-1.1C132.9-20.8,132.3-20.8,131.8-21.9c-0.5,0.5,0,1.6,0,1.6h-1.1h0.5C131.2-20.8,131.8-21.4,131.8-21.9z
	 M22.7,0.7c0-1.1-0.5-1.6-0.5-2.2c0.5,0,0.5-0.5,0.5-0.5h2.1c0,1.6-1.1,1.1,0,2.2c-2.1,2.2-2.1,6.4-4.3,8.6C21,10.4,20,11,20,11.5
	c-1.1,0-0.5-1.1-1.1-0.5h-0.5c-0.5,0.5,0,2.2,0,2.7c-0.5,0-0.5,0.5-0.5,0.5h-1.5c1.1-5.3,3.2-9.2,4.7-13.5H22.7z M81.8,125.8
	c0,0.5-1.5,0.5-1.1,2.2h-1.1C79.6,126.4,81.2,125.3,81.8,125.8z M124.3-28.4c0.5,0,0.5,1.1,1.1,0.5v1.1c1.5-0.5,1.5,0.5,2.6,0.5v1.6
	c-1.1-0.5-0.5,0.5-1.1,0.5c-0.5,0-1.1-0.5-2.1-0.5c-0.5-0.5,0-1.6-0.5-1.6c0-1.1,1.1-0.5,0.5-1.1C124.9-27.3,124.3-27.3,124.3-28.4z
	 M84.8,71.9c1.1,0,1.5,0.5,1.5,1.1C85.4,73,85.4,72.4,84.8,71.9z"/>
<path class="st0" d="M167.9,43.3c-1.3,0-1.3,0.5-2.5,0.5c0.4-0.9-0.9-0.5-0.9-1.3c-0.4,0-0.4,1.3,0.4,0.9c-3.4,1.7-7.1,3.1-11.4,3.5
	c0-0.9-0.4-1.3-1.3-1.3c0,0.5,0.9,0.9,0.4,1.7c-3.8,0.5-8,3.5-11.9,2.2c-0.4,0,0,0.5-0.4,0.9c-14.8,4.4-30,8.4-44.7,12.9
	c-0.9,0-0.4-0.9-0.9-0.9s0,0.9-0.4,1.3c-3.4,0.5-5.9,1.7-8.5,1.3c0-0.9,1.6,0,1.3-1.3c0.9,0,0.9,0.5,1.3,0.5c0.4,0,0-1.3,0.9-0.9
	c0-0.5-0.4-1.3-0.4-2.2c0.4,0.9,0.9,0.5,0.9-0.5c0.9,0,1.6,0,1.6,0.5c0.4,0,0-0.5,0.4-0.9c6.4-1.3,12.2-3.5,18.6-5.4
	c2.5,0,4.6-0.9,6.8-2.2c1.3,0.9,3-0.9,5.1-0.9c0.4,0.9-0.4,0.5-0.9,0.9c0.9,0.5,1.3-1.3,2.5-2.2c0.9-0.5,1.6,0.5,2.1-0.5
	c0,0.5-0.4,1.3,0.4,1.3c0.4,0,0-0.9,0.4-1.3c5.5-1.3,10.1-3.5,16.9-4c1.6-1.7,5.5-1.7,7.1-3.1c2.1,0.9,5.1-1.7,8.5-1.7
	c0,1.3,1.3,1.3,1.3,2.2c0.4-0.9-1.6-1.3-1.3-2.7c1.3-0.5,0.9,0.9,1.3,0.9s0-0.9,0.4-1.3c1.3,0.5,2.5-0.9,2.5,0
	c2.1-0.9,5.9-2.2,8-1.7c0.4-0.9-0.9,0-0.4-0.9c0.4,0,1.6,0.5,1.6-0.5c3,0.5-1.3,0.5,2.1-0.5c0.4,0.9-0.9,0-0.4,0.9
	c0.9,0,0.9-1.3,1.3-1.3c5.1,0.5,8.9-4,12.6-2.2c0.9-0.5,1.3-2.2,0-2.7c-0.9,0,0.4,1.7-0.9,1.3c0-5.8-3.8-10.3-2.5-15.5
	c0.9-0.5,0,0.9,0.9,0.9c0.9-0.5-0.4-0.9-0.4-1.3c0.4,0,0.4,0,0.4-0.5s-0.9,0-1.3-0.5c-0.4,0,0,0.9-0.4,1.3c-2.1-4.9-3-11.5-5.1-16.9
	c-0.4-0.9,0.4-1.3,0.4-1.7s-0.4,0-0.9-0.5c-1.3-5.4-2.5-9.8-3.8-15.1c1.3,0.9,0.9-1.3,2.1-1.3c-0.9,0-0.9-0.5-1.3-1.3
	c-0.4,0,0,1.3-0.4,2.2c-1.6,0.5-0.4-1.7-1.6-2.2c0-0.5,1.3,0,1.3,0c0.4-0.5,0-1.3,0.9-1.3l-0.9-0.9c-0.9,0,0,1.3-0.4,0.9
	c-0.9,0,0-0.5-0.4-0.9c-1.3-0.5-1.3,0.9-2.1,0.9c0,0.9,0.9,0.9,0.9,1.7c-1.3,0.9-3,1.3-4.2,2.2c-0.9,0.5,0-0.9-0.9-0.9
	c-0.4,0.5,8.9-0.9,7.6-0.9v-1.7h-0.9c-0.4,0.5,0,1.7-0.4,2.2c-9.3,2.2-17.7,5.4-27,7.1V-13c-0.4,0-0.4,0.5-0.9,0.5
	c0.4,0.5,0.9,0.9,0.4,2.2C130-5.9,113.1-1.4,97.1,3.9c-2.5-0.5-4.2,2.2-5.9,0.5c-0.4,0.5-0.4,0.9-0.9,1.3c-1.3-0.9-3.4,0.5-4.6,0.9
	V5.3h-1.3c0.4,0.9,0.4,0.5,0,1.3c-0.9-0.9-1.3,0.5-3,0c-0.4,0,0,0.9-0.4,1.3c-1.6-0.9,1.3-2.2,0-2.7h1.2V4.3c-0.9,0-0.4,0.9-1.3,0.5
	C80.5,5.2,80.5,6,79.6,6c0.4-0.5,0.9-0.5,0.9-1.3c-0.4,0.5-1.3,0.9-2.1,0.9c1.3,0,0.4,1.7,2.1,1.3v1.3C79.6,7.8,79.6,6,78.4,6
	c0,0.9-0.9,1.3-1.3,1.7c0.4,0.9,0.9-0.9,1.6-0.5v0.9c-0.9,0-1.3,0-1.6,0.5C76.6,7.8,75.4,8.3,75,7c-0.9,0.5,0,0.9,0,1.3
	c-0.5-0.5-1.3-1.3-1.3-2.7c-0.9-0.5-0.9,0.5-1.3,0.9c0.4,0.5,0.4,0.9,1.3,0.9v1.7c0.9,0.5,0-0.9,0.9-0.5c0.4,0.9-0.9,0-0.4,0.9
	c-16.5,4.4-33,8.9-49,13.7c-2.1,0-3.4,0.9-5.1,1.3c-0.4,0-0.4-0.5-0.4-0.9h-1.4c-0.4,0.9,0.9,0.5,0.4,1.3c-1.3-0.5-2.5,1.3-3.4,0
	c-0.9,1.7-3.8,2.2-5.5,0.9c0,0.9,0.9,0.5,0.4,1.3c-1.3,0.5-0.4-1.3-1.6-0.9c0,0.5,0.4,0.5,0.4,0.9c-1.6,0.5-1.6-0.5-3-2.2
	c-0.9,0.5,0.4,0.9,0,1.3c-0.9,0,1.3,3.1,0,2.7c0-0.5,2.5-3.1,2.1-3.5c-0.4,0.5-0.4,0.9-0.4,1.3c-1.6,0-2.5,0.5-4.2,0.9
	c0-0.5,0.4-0.5,0.4-0.9c-0.9,0-1.3,0.5-1.3,1.3c-0.4,0-0.4,0-0.4-0.5c-0.4,0,0,0.5-0.4,0.9c-0.9-0.9,3.8-3.1,3-2.2v-0.6
	c-0.9,0-0.9,0.9-1.3,1.3c0.4,0.9,0.4-0.9,1.3-0.5v0.9c-2.5,1.3-3.4,3.5-5.1,2.2c-0.9,0,0.4,0.5,0,0.9c-1.3,0.5-3,0.5-3.8,0.9
	c0-0.9,0-0.9,0.4-1.3c-0.9-0.5-1.6-1.7-2.5-1.3c0.4,0.9,0.9,0.9,2.1,0.9c-0.4,0.9-0.4,1.7-1.3,2.2c-0.9,0-0.4-0.9-0.9-0.9
	c-0.4,0.5-0.4,0.9-0.9,1.3c-1.6,0-3,0.5-4.2,0.9c0-0.5,0.4-1.3-0.4-1.3c-0.4,0,0,0.9-0.4,1.3c0,0.9-0.4-0.5-0.4-0.9
	c-1.3,0.5-1.3,1.7-3,1.3v-1.3c-0.9,0,0.4,1.3-0.9,0.9v-0.9c-0.9,0-0.9-0.5-1.6-0.5c-0.9,0.9-0.4,2.2-0.4,3.5h0.9
	c0.4,0,0-1.3,0.4-1.7c0.9-0.5,0.9,0.5,1.3,0.5c0,1.7,0.4,2.7,0.4,4c0,0-0.4,0-0.4-0.5h-0.2c0-0.9,0.9-0.5,0.4-1.3
	c0.4,0.9,0.4,0.5-0.4,0.5c-0.4,0,0,0.5-0.4,0.9h-1.2c0-2.7-1.3-3.5-1.3-6.2c0.9,0,0.9,0.5,1.3,0.5s0-0.5,0.4-0.9
	c1.6,0.5,2.5-1.3,3.8,0c0.4-0.5,1.3-0.5,1.3-1.3c0.9-0.5,0.9,0.5,0.9,0.9c0-1.7,1.6-0.9,3.4-1.7c-0.4,0.9,0.9,0.5,0.4,1.7h0.9v-0.9
	c0-0.9-1.3,0-0.9-0.5c0.4-0.9,2.1-2.2,3-0.9c0.4,0,0-0.5,0.4-0.9c0.4,0,0.4,0.5,0.9,0.5c2.5-1.7,7.1-1.7,10.1-3.1l-2,0.8
	c3.4-0.9-0.4,0,3.4-0.5C7.9,26.4,9.2,26,9.6,26c0-0.9-0.9-0.5-0.4-1.3c4.2-0.5,7.6-3.1,11.9-2.7c0.4,0,0-0.5,0.4-0.9
	c3-0.9,6.4-1.7,9.3-2.7c4.2-0.5,8-2.2,11.9-3.1c9.3-2.2,18.6-4.9,27-7.6c2.5,0,4.2-1.7,6.8-0.9c0.4,0,0-0.5,0.4-0.9
	c0.4,0,1.6-0.5,1.3,0.5c0-0.5,0.9-0.5,0.9-0.9c21.2-5.9,42.2-12,63.8-17.8c0.9,0,0.4,1.3,1.3,0.9c0.4-0.9-0.9-0.5-0.4-1.3
	c3.8-0.5,7.1-1.7,11-2.7l3.8-1.3c5.1-0.5,8.5-2.2,12.6-3.1c-0.4,0.9,0.4,0.9,0.9,1.3c0.9-0.5-0.9-0.5-0.4-1.3
	c5.5-1.3,0.9-0.9,6.4-1.7c0,2.2,1.3,3.5,0.4,4.9c0,0.5,0.4,0,0.9,0.5c0,3.1,2.5,6.2,1.3,8.9c1.3,1.3,1.3,4.4,2.1,6.2
	c-0.9,0-0.4-0.9-1.3-0.5c2.1,1.3,3,4.4,2.5,7.6c0.9,0-0.4-1.7,0.9-1.3c-0.4,2.7,2.1,4.9,0.9,7.1c2.5,3.1,1.6,9.3,4.2,12.5
	c0.4,5.4,2.1,8.4,3,12.9c-9.7,2.7-9.7,3.5-19,6.2h-5.9v-0.2H167.9z M86,5.2c0,0.9,1.3,0.5,1.3,0.9c-0.4-0.9,0.4-0.9,0.4-1.3
	C87.7,4.8,87.3,5.7,86,5.2z M177.3-20.1c0-0.9-0.4-1.3-1.3-0.9C175.9-20.5,176.4-20.1,177.3-20.1z M176.8-13.4
	c0-0.9-0.4-1.3-0.9-1.3C175.9-14.8,175.9-13.9,176.8-13.4z M165-16.1c0.4-0.5,1.3-0.5,1.3-0.9H165V-16.1z M148-12.6
	c1.3,0.5,0.9-0.9,2.1-0.5V-14C148.9-14.3,148.5-13.4,148-12.6z M144.7-12.1c0.4-0.9-0.4-0.9-0.9-0.9
	C143.9-12.1,144.3-12.1,144.7-12.1z M179.8,2.1c0.4-0.5,1.3-0.5,1.3-0.9h-0.9C180.5,1.6,179.3,1.1,179.8,2.1z M181,5.2
	c0.9,0,0.4-1.3,0.4-2.2c-0.9,0-0.9,0-1.3-0.5C180.1,3.8,181.4,3.4,181,5.2z M186.5,22.1v-1.3h-0.9C185.3,21.6,186,21.6,186.5,22.1z
	 M187.8,22.1h-0.9c0.4,1.3-0.9,0.9-0.9,2.2c0.4,0,0.9,0,0.9,0.5c0.9,0,0.4-0.9,1.3-0.5V23c-0.9-0.5,0,1.3-0.9,1.3
	c0-0.5-0.9-0.5-0.9-0.9h0.9C187.8,22.9,187.8,22.5,187.8,22.1z M187.8,28.3c0.4-0.5,0.9-0.9,0.9-1.7
	C188.1,26.5,188.1,27.4,187.8,28.3z M167,43v-1h-0.9C165.8,43,166.3,43.3,167,43z M97,60.7h0.9c0-0.5-0.4-0.9-0.9-0.9V60.7z
	 M94,62.4v-1.3h-0.8C92.8,62,93.2,62.4,94,62.4z M21.4,23.4c0.9,0.5,1.3-1.3,0.4-0.9C21.8,22.9,21.4,22.9,21.4,23.4z M7.9,26.9
	c0,0.5-1.3,0-0.9,0.9c1.3,0,1.6-0.5,1.6-1.3H7.7v0.3L7.9,26.9z M5.8,27.4v-1H4.9C4.5,26.9,4.9,27.4,5.8,27.4z M-1.8,30.5
	c0.4-0.9-0.9-0.5-1.3-0.5C-3.6,31-2.2,30.5-1.8,30.5z M-9.8,32.2c0-0.9-0.4-1.3-0.9-1.3C-10.3,31-10.7,32.2-9.8,32.2z M-7.7,32.2
	v-0.8h-0.9C-8.6,31.8-8.6,32.2-7.7,32.2z M-9.7,56.4v-1.7c-0.4,0-0.4,1.3-0.9,0.5c0.9-5.4-2.1-10.6-3-16c-0.9-0.5,0,0.9-0.9,0.5
	c0-0.9,1.3-2.7,0-3.1v2.2c-0.4,0-0.4,0.5-0.9,0.5c0-0.9-0.4-0.9-0.9-0.9c-0.4,0.9-0.4,1.7-1.3,0.9c0.4,0.9,0.4,1.3,0.4,2.7
	c0.4,0.5,1.3,0,1.3,0.5c0,0.9-1.3,0-0.9,0.9c1.6,2.7,1.3,7.6,3.8,9.3c-0.9,1.3,0.4,4.9,1.3,5.8c0,0.5-0.4,0.5-0.4,0.9l6.4,24
	c0.4,0.5,1.3,0,1.3,0.5c-0.4,0.5,0,0.9-0.4,0.9s-0.4-0.5-0.9-0.5c0,1.7,0,3.1,1.3,3.5c-1.3,0.9,0,2.2,0,3.1
	c9.3-2.2,4.2-0.5,13.5-2.7l3.8-1.7c2.1-0.9,4.6-1.7,7.1-2.2c0-0.9-1.6-0.9-0.9-1.7c0.4,0.5,0.9,0.9,0.9,1.3
	c12.2-2.2,23.2-6.2,35-9.3c0.4-0.5,0-0.9,0.4-0.9c1.6,0.9,3.4-0.5,5.1-0.5c0.4-0.5,0-0.9,0.4-0.9c2.9,0.7,8.8-2.4,13.4-2.9
	c0.4-0.5-0.9-0.9,0-0.9c-0.4,0.9,0.9,0.5,1.3,0.5c0.4-0.5,0.4-1.7,1.3-2.7c0.4,0,0.4,1.7,0,1.7c2.5,0.5,3.4-0.9,5.5-0.9
	c0.4-0.9-1.3,0-0.9-0.9c-0.9-0.5,0,0.9-0.9,0.5c-0.4-0.9,0.9,0,0.4-0.9c-1.3,0.5-2.1,1.3-3,2.2c0.4-1.7,0.4-1.7,0.4-2.7
	c0.4,0.5,1.3,0.5,1.6,0.9c0-1.3,0.9-1.7,1.6-2.2c0.4,1.7,2.1,0.9,3.8,0.9C85,64,85.8,64,85.8,64.4c-0.4-0.5-0.4-1.3-1.3-1.3
	c0,0.5,0,0.5-0.4,0.5c-0.4,0.9,0.9,0,0.4,0.9c-0.4-0.5-1.3,0-1.3-0.5s0.4-0.5,0.4-0.9c-2.1,0.5-3.8,1.3-6.4,1.3
	c0.4,1.7-2.1,0.5-0.9,1.7c-0.9,0-1.6-0.5-0.9-0.9c-1.3,0-3,0.5-2.1,1.3c0-0.5,0-0.5,0.4-0.5c-0.4,0.5,0,1.3-0.4,1.3
	c-0.4-0.5-0.9-0.5-1.3-0.9c0-0.5,0.4-0.5,0.4-0.9c-0.8-0.5-1.1,0.4-1.6,0.9c-1.6-0.9-4.6,1.3-7.1,1.3c-0.4,0.5,0,0.9-0.4,0.9
	c-0.9,0.5-1.3-0.5-1.6-0.5c0,1.3-1.6,1.3-2.1,2.2C59.2,69.4,60,69.8,60,69c-0.9,0.5-1.6,1.3-2.5,0.5c-0.4,0.9-1.6,0.9-3,0.9
	c-4.6,1.3-9.7,3.1-15.2,4c-0.9,0.5,0,0.9-0.4,1.3c0-0.5-0.4-0.9-0.9-0.9c-0.4,0.5,0,0.9-0.4,0.9c0-0.5-0.4-0.5-1.3-0.5
	c-15.6,4.9-19,4.4-35,9.3c0.4,0,0.4,0,0.4,0.5c-1.3,0.5-0.9-0.9-2.1-0.5c-0.4,0.9-0.9,1.7-1.3,2.7c-1.6-1.3,0-3.1-0.9-4.9
	c-0.4,0.5-1.3,1.3-1.6,0.5c0-0.9,0.9-0.5,1.3-0.5v-1.7c-0.4,0-0.4,0.5-0.9,0.5c0.9-3.1-1.3-5.8-1.3-9.3c-0.4-0.5-0.9,0-0.9-0.5
	s-0.4-0.9-0.4-0.5c0.4,1.7-1.3,1.7-1.3,3.1c-0.4,0-0.9,0-0.9-0.5c1.3-0.5,0.9-3.1,2.1-4C-6.9,65-7.8,61-9.9,57.9V57
	c0.2-0.1,0.4-0.2,0.4-0.8C-9.4,56.4-9.5,56.4-9.7,56.4z M-13.2,33.6c0-0.9-0.4-1.3-1.3-1.3C-14.5,32.7-14.5,33.6-13.2,33.6z"/>
<g>
	<path class="st0" d="M63.7,38.4l-22.5,6.2l2.9,11.1c0.4,1.5,1.3,2.1,2.8,1.7l18.6-5.1c0.8-0.2,1.4-0.6,1.8-1.2
		c0.5-0.9,0.3-3.4-0.6-7.5l2.8,0.1c0.8,4.7,1,7.6,0.4,8.8c-0.6,1-1.6,1.7-3,2.2l-20,5.5c-2.7,0.7-4.5-0.3-5.3-3.3l-5.1-19.6l2.6-0.7
		l1.4,5.3l19.9-5.5l-2.5-9.7l-24.4,6.7l-0.7-2.6l27.1-7.4L63.7,38.4z"/>
	<path class="st0" d="M72.5,30.1L72.7,19l2.7-0.3l-0.2,7.9l6.4-1.7c0-3.1-0.3-6.3-0.7-9.6l2.7-0.4c0.4,3.1,0.6,6.1,0.7,9.3l17-4.7
		L102,22l-17.7,4.9c0,1.9-0.1,3.4-0.3,4.6l14.8-4.1l0.6,2.3c-0.1,3.5-1.4,6.9-3.6,10.3c3.4,1,7.4,1.6,12,1.9l-0.7,2.9
		c-5.1-0.5-9.5-1.3-13-2.5c-2.4,2.9-5.6,5.9-9.5,8.9l-2-2.1c3.6-2.6,6.6-5.2,8.8-7.8c-3.4-1.4-6-3.3-7.9-5.6
		c-1.1,6.6-3.3,12.2-6.5,16.8l-2-2.1c4-6.2,6.2-13.8,6.6-22.8L72.5,30.1z M85.1,33.9c1.9,2.2,4.6,4,8.1,5.3c2.1-2.9,3.4-5.7,3.7-8.5
		L85.1,33.9z M89.8,13.2c3.1,1.3,5.8,2.7,8.1,4.3L96.5,20c-2-1.5-4.7-3-8-4.5L89.8,13.2z"/>
	<path class="st0" d="M111.2,15.2c-1.2,1.5-2.6,2.9-4,4.3l-1.5-2.4c3.9-3.6,6.4-7.1,7.7-10.7l2.4,0.5c-0.6,1.8-1.5,3.7-2.6,5.5
		l2.4,9l-2.5,0.7L111.2,15.2z M126.8,24.7c0.8,4.9,0.5,8.5-0.8,10.7c-1.4,2.6-5.2,5.1-11.6,7.5l-1.7-2.1c5.7-1.9,9.3-4,10.8-6.3
		c1.2-2.2,1.5-5.2,0.7-9.3L126.8,24.7z M135.8,17.6l2.9,11.1l-2.7,0.7l-2.3-8.6l-17.4,4.8l2.4,9.1l-2.6,0.7l-3-11.6L135.8,17.6z
		 M126.7,17.9c-2.2,0.6-3.6-0.1-4.1-2.2l-0.4-1.6l-4.2,2.6l-2-1.7c1.8-1.1,3.7-2.2,5.5-3.4l-1.7-6.5l2.5-0.7l1.5,5.6
		c3.8-2.7,6.7-5.4,8.8-7.9l2.1,1.3c-2.8,3.2-6.3,6.3-10.3,9.1l0.5,1.9c0.2,0.9,0.8,1.2,1.8,0.9l6.7-1.8c0.8-0.2,1.3-0.5,1.6-1
		s0.3-1.7,0-3.6l2.6,0.1c0.4,2.6,0.3,4.3-0.3,5.1c-0.6,0.7-1.5,1.2-2.8,1.5L126.7,17.9z M129.6,31.3c4.9,0,9.6,0.5,14.1,1.4
		l-0.9,2.7c-4.6-1-9.3-1.6-14-1.7L129.6,31.3z"/>
</g>
</svg>
