<?xml version="1.0" encoding="utf-8"?>
<!-- Generator: Adobe Illustrator 19.0.0, SVG Export Plug-In . SVG Version: 6.00 Build 0)  -->
<svg version="1.1" id="图层_1" xmlns="http://www.w3.org/2000/svg" xmlns:xlink="http://www.w3.org/1999/xlink" x="0px" y="0px"
	 viewBox="-90.4 -79 212 190" style="enable-background:new -90.4 -79 212 190;" xml:space="preserve">
<style type="text/css">
	.st0{fill:#C7DBFF;}
</style>
<path class="st0" d="M-1.3,106.7c-0.9,0.4-1.4-0.6-2-0.6c1.1-1.6,3.2-0.5,0-1.6c0,1.6-0.5,2.2-0.5,3.3c0,0-1.5,0.5-1.1,0.5
	c1.5-0.5,1.5,1.1,3.2,0.5C-1.6,107.8-1.6,107.3-1.3,106.7c0.1,1,0.2,1.7-0.4,2.1c1.1,0.5,1.1,1.6,2.6,1.1c0.5-1.1-1.1,0-0.5-1.1
	c1.5,0,4.7-1.1,3.7,1.1v-1.1c-1.1,0.5-1.1,1.1-1.5,1.6c2.1,0,4.7,0.5,5.2-1.1v1.6c0.5,0,0.5-2.2,0.5-3.3c1.1-0.5,0.5,0.5,0.5,0
	c-0.5-1.1-0.5-0.5,0-1.6c-1.5-0.5-3.2-0.5-5.2,0c0-0.5-1.1-1.1-1.5-1.1c0,0.5,0.5,1.1,0,1.1s-0.5-0.5-0.5-1.1
	c-1.1,0.5-2.1,0.5-2.6,0C-1.4,105.6-1.3,106.3-1.3,106.7z M-9.6,107.2c0.7,0.2,1.3,0.4,2.1,0.6c-0.5-1.1,0.5-1.6,0.5-2.2
	c0.5,0-0.5,1.6,0.5,1.1c0.5-1.1-0.5-1.1-0.5-1.6h1.1v-1.7c-1.1,0-1.5,0.5-2.1,0.5c0.5-0.5,0-0.5,0-1.1c-4.3-0.5-7.9-2.2-11.6-3.8
	v0.5c0-1.1-1.5,0-1.1-1.1c-1.1,0-1.5,0.5-2.1-0.5c0,0,0.5,1.1,0,1.1c0,0-0.5,0.5-0.5,0s1.1,0,0.5-1.1c-1.1-1.1-2.1-2.2-4.3-2.2
	c0,0.5-0.5,1.1-1.1,1.1c0-0.5,1.1-0.5,0.5-1.6c-1.5-0.5-2.6-2.2-4.3-2.7l-1.1,1.1c-0.5-0.5-1.1-0.5-1.5-1.1c0.5-2.2-2.6-3.3-4.7-3.8
	c0.5-1.6-1.5-0.5-1.1-2.2c-0.5-0.5-0.5,0.5-1.1,0.5c0-0.5-1.1,0-0.5-1.1c-0.5-0.5-0.5,0.5-1.1,0.5c0.5,0,1.1-0.5,1.1,0
	c-0.5,1.1,0,2.7-1.1,2.7c0.5-1.1-1.1-0.5-1.1-1.1v-1.1h1.3c-1.1-0.5-1.1-1.6,0-2.2c0,0.5,0,0.5,0,0c0-1.1-0.5,0.5-1.5,1.1
	c-0.5,0.5,1.1,0.5,0,1.1c0,0,0-0.5-0.5-0.5c-0.5,0.5-0.5,1.6-0.5,2.7c1.5,0,1.5,1.1,2.6,1.6c0-0.5,0-1.1,0.5-1.1v1.6
	c2.6,1.6,5.2,3.8,8.4,5.3c0.5-2.2,2.1,1.1,3.2-0.5c0,0.5,0.5,0.5,0.5,1.1c-1.1,0-1.1,0.5-1.1,1.6c2.1-0.5,2.6,0.5,3.7,1.6
	c0.5-0.5-1.1-1.1,0-1.6c0.5,0.5,0.5,1.1,0.5,2.2c2.1,0.5,3.7,1.1,5.8,2.2c0.5-1.1-1.1-1.1-1.1-2.2c1.1-0.5,0,1.1,1.1,0.5
	c0.5-0.5,0.5-1.1,0.5-2.2c0.5,0.5,2.1,1.6,1.1,2.7c0,0,0-0.5-0.5-0.5c0,1.1,0.5,1.6,0.5,2.2c2.1-0.5,2.1,0.5,3.7,0.5
	c0-0.5,0.5-1.1,0.5-1.6c0,0,0.5,0.5,0.5,1.6h1.5c-0.5,1.1,0,1.1,0,1.6c1.2,0.4,2.3,0.6,3.4,1C-9.8,107.1-9.7,107.2-9.6,107.2z
	 M53,76.4c0.6-0.5,1.1-1,1.5-1.6c0.5-0.5-1.1,0.5-0.5-0.5c1.5,0.5,2.1,0,2.1-1.1c0.5,0,0,0.5,0,1.1c1.1,0,0.5-1.6,2.6-1.1
	c0.5-0.5-1.1-1.1,0-1.6c0.4,0.4,0.7,0.5,0.9,0.5l0.1,0.1v-0.1c0.4-0.1,0.6-0.6,0.9-1h0.6v-0.5c0.2-0.1,0.6-0.1,1.1-0.1v-1.1
	c2.6-1.1,3.7-3.8,6.3-5.3c0-2.2,2.1-2.2,2.1-4.4H72c0-1.1,1.1-2.7,0-3.8c1.5,0.5,2.1-0.5,2.6-1.1c3.7-7,6.3-11.9,8.4-20.5
	c-1.5-0.5-1.5,1.6-3.2,1.1c-2.1,9.7-4.7,14.1-9.5,20.5c0,1.1,0.5,3.3,0,3.8c-0.5-0.5-1.1-0.5-2.1-0.5c-4.3,5.3-8.9,10.8-14.7,14.6
	v0.5c-2.1-0.5-3.7,1.1-4.7,2.7c-3.7,0.5-6.3,3.8-10.6,4.4c0,0.5,0.5,1.1,0,1.1c-1.1-1.1-3.7,0-4.3,1.6c-0.5,0,0.5-1.6-0.5-1.1
	c-1.5,1.1-4.3,1.1-5.2,2.2c-0.5-1.1-1.5,0-2.1,0.5c-3.2-1.1-7.4,1.1-11.6,0.5c0,0,0,0.5-0.5,0.5c0-0.5,0.5-0.5,0.5-0.5
	c-3.2,0-5.2-0.5-7.4,0.5v-1.1c-1.5,0-2.6,0-3.7-0.5c-1.1,0.5-1.1,1.1-1.1,1.6c0-0.5-0.5-0.5-0.5-0.5c0.5,0,0.5-0.5,0.5-1.1
	c-1.5,0-2.6-0.5-3.7-1.1c0,0.5,0.5,1.1,0,1.1c-1.1-1.1-2.6-1.6-3.7-2.2c0,0.5,0.5,1.1,0,1.1c0,0-0.5,0.5-0.5,0c0,0,0.5,0,0.5-0.5
	c-1.5,0-2.6-0.5-4.3-1.1c-0.5,0,0,1.1-0.5,1.1c0,0-0.5,0.5-0.5,0c0.5,0,0.5,0,0.5-1.1c-1.1-0.5-2.1,0.5-3.2,0c0-0.5,1.5,0.5,1.1-0.5
	c-3.2-0.5-4.3-3.3-7.4-3.8c0,0.5-0.5,1.1-1.1,1.1c-0.5-1.1,0.5-1.1,0.5-1.6c-3.7-2.2-6.9-4.9-10-7c0,0.5,0,1.1-1.1,1.1
	c-0.5,1.1,1.1,0,0.5,1.1c0.5,0,0-1.1,1.1-1.1c0.5,1.1-1.1,1.1-0.5,2.2c1.1-0.5,1.1,0.5,1.5,0.5c0-1.1,0.5-1.6,1.1-2.2
	c-0.5,1.1,0,1.6,0,2.2h-1.1c0.5,1.1,1.5,1.6,2.6,2.2c0.5-1.1-1.1,0-0.5-1.1h1.1c0,1.1,0.5,1.6,0.5,2.2c0.5,0,0.5-0.5,0.5-0.5
	c1.1,1.6,2.6,3.3,5.8,3.3c-0.5,0.5,0,0.5,0,1.1c1.1,0,1.5,0.5,2.1,0.5c0-0.5,1.1-1.1,1.5-0.5c-0.5,0-0.5,0.5-0.5,1.6
	c1.1,0,2.1,0,2.6,1.1c1.1,0.5,0-1.1,1.1-0.5c-0.5,1.1,1.1,0,0.5,1.1c4.7,1.1,10.6,4.4,15.8,3.3c0.5,0,0,1.1,1.1,1.1s0.5-1.1,1.5-1.1
	v1.1c1.5-0.5,3.2,0,4.7,0.5c-0.5-1.1,0.5-1.1,0.5-1.6c-0.5,0-1.1,1.1-1.5,0c0.5-0.5,1.1-0.5,1.5-1.1c0,0.5,1.1,0,1.1,0.5v0.5
	c-1.1,0-1.1,0-1.1,1.1c3.2,0,5.8-0.5,10-0.5c0-0.5-0.5-1.1,0-1.1v1.1c1.1-1.1,3.7-0.5,4.7-1.6c0,0,0,0.5,0.5,0.5
	c4.3-1.6,9.5-2.2,12.7-4.9c1.5,0,4.3-0.5,4.7-2.2c0,0,0,0.5,0.5,0.5c2-1.6,4.6-2.7,6.6-4.2C52.9,76.5,53,76.5,53,76.4z M15.7,108.9
	c3-0.2,5.3-0.8,6.9,0c1.7-0.4,3.9-0.5,5.6-1c-0.1,0.2-0.4,0.5-0.4,1h1.1c0-0.6,0.1-1,0.1-1.2c0.6-0.2,1.1-0.5,1.4-0.8
	c0.5,0.5-0.5,0.5-0.5,1.1c1.5-0.5,3.7-0.5,4.3-1.6c0.5,0,0.5,0,0.5,0.5c1.1,0,1.1-1.1,2.1-1.1c0,0.5,0,1.1,0.5,1.1
	c1.1-0.5,1.5-1.1,3.2-1.1c0-0.5-0.5-1.6,0-1.6c0.5,1.6,2.1,0.5,3.2,0.5c0-0.4-0.7-0.7-0.7-1.1h0.7v0.5c0.1,0,0.2,0,0.4-0.1
	c0.8-0.1,1.5-0.4,2.4-0.6c0,0.2,0.1,0.4,0.5,0.1c0-0.1,0.1-0.2,0.1-0.2c1.9-0.6,3.7-1.3,5.3-2.1c0.2,0.5,0.6,0.6,0.9,0.2v-0.7
	c1.8-0.8,3.6-1.8,5.2-2.8v0.2H60c0-0.5,0.5-1.6,0-1.1c-0.1,0.1-0.4,0.2-0.5,0.2c0.5-0.2,0.9-0.5,1.5-0.8c0-0.5,0-0.5,0,0
	c0.4,0,0.6-0.2,0.8-0.5c0.7-0.4,1.5-0.7,2.4-1.2c0-0.5-0.5-1.1,0-1.6c0,0.5,0,1.1,0.5,1.1c3.7-1.6,6.3-4.4,9.5-6.4
	c0.5-1.1-1.1,0-0.5-1.1c1.1-0.5,0,1.1,1.1,0.5c0-0.5-0.5-1.6,0-1.6c0.5,0-0.5,1.6,0.5,1.1c3.2-4.4,7.9-7,10.6-11.9
	c-0.5,0-1.1,0.5-1.1,0c0.5,0,0.5-0.5,1.1-0.5v1.1c1.5-0.5,2.1-2.7,3.2-4.4c0.5-0.5,1.1-0.5,1.5-1.1c0.5-0.5,0-1.6,0.5-2.2
	c0.5-0.5,1.5-1.1,2.1-1.6c0.5-1.1,0.5-2.2,1.1-3.3c0-0.5,1.1,0,1.1-0.5v-1.1l1.5-1.6c0.5-1.6,1.1-3.8,1.5-4.9c0.5,0,1.1,0,1.1-0.5
	s-0.5-1.6,0-2.2c0-0.5,1.1-0.5,1.1-1.1v-1.6c0,0,1.1,0,1.1-0.5v-1.6c0,0,1.1-0.5,1.1-1.1c0-1.6,0-3.3,0.5-4.9c0,0,1.1-0.5,1.1-1.1
	c0.5-3.3,0.5-7,1.5-9.7l-4.3-1.1c-2.1,11.9-5.2,22.7-11.6,29.6c-0.5,1.1,1.1,0,0.5,1.1c-0.5,0-0.5,1.1-1.5,0.5
	c-0.5,1.6-1.1,3.3-1.1,5.3l-0.5-0.5c0.5,0,0.5,0,0.5-1.1c-1.1,1.6-2.1,2.7-3.2,4.4c-0.5,0.5,1.1,1.1,0.5,1.6c0,0-0.5,0-0.5-1.1
	c-1.1,1.1-2.1,2.2-2.1,3.8c-0.5,0.5-0.5,0-1.1,0c0,0.5,0,1.6-1.5,1.6c-1.1,2.2-4.7,3.8-3.7,5.9l-1.1-1.1v1.1
	c-3.7,1.1-5.2,4.9-8.9,6.4c0,0.5,0.5,0.5,0.5,0.5c-1.1-0.5-1.5,0.5-2.6,0.5v1.1c-5.2,3.3-10.6,5.3-15.3,8.6
	c-0.5-0.5-3.2,0.5-3.7,1.6c0,0,0-0.5-0.5-0.5c-2.1,1.6-5.8,2.2-8.9,2.7c-0.5,1.1,0.5,0.5,0.5,1.6c-0.5,0-1.1,0.5-1.5,0
	c0.5,0,0.5,0,0.5-0.5c-1.1,0.5,0-1.1-1.1-0.5c-1.5,1.1-5.2,0-6.3,1.6c-1.1-1.1-3.7,0-4.7,0c1.1,1.1-0.5,1.1,0,2.7
	c0.5,0,1.1-0.5,1.1,0c0,0.5,0.5,1.1,0,1.1c0,0-0.5,0-0.5-1.1c-1.1-0.5,0,1.1-1.1,0.5c0.5-1.1-1.1-0.5-1.1-1.1
	c-0.5-0.5,0.5-0.5,0.5-1.1c-1.5,0-1.1,2.7-3.2,1.6c0-0.5-0.5-1.1,0-1.1c1.1-0.5,0,1.6,1.1,1.1v-2.7c-1.1-0.5-1.5,1.1-2.1,0
	c0,1.1-2.1,0.5-2.6,0.5c0,0.5,0.5,1.6,0,1.6c-0.5-1.6-0.5,1.1-1.1,0.5c-0.5-1.1,1.1-1.1,0.5-2.2h-2.6c0,0.5,1.5,0.5,1.5,1.1
	c0,0,0,1.1-0.5,1.1s0-1.1-1.1-0.5c0.5,0.5,1.1,1.6,0,2.7c0.9,0.1,1.8,0.1,2.6,0.1c-0.2,0.2-0.6,0.5-0.9,0.5c0,0.5,0,1.1,0.5,1.1
	C14.1,109.4,15.6,109.4,15.7,108.9z M15.6,108.9h-0.2H15.6z M79.8-45.5c-0.4,1.7,3.2,1.3,1.8,2.3c0.5,0,0.5-0.5,1.5,0
	c0,0-0.5-0.5,0-0.5c0.5,1.1,0.5,0,1.1,0c0,0.5,1.1,1.1,0.5,2.7h-1.1v1.1c1.1,0,1.1,0,2.1-0.5c0,0.5-0.5,1.1-1.5,1.1
	c1.1,1.1,0.5,1.1,1.5,2.2l5.2-1.6c-0.5,0-1.1,0.5-1.1,0v-1.1c-1.1-0.5-1.5-1.6-2.1-2.7c-0.5-0.5-0.5,1.1-1.1,0c0,0,0.5,0,0.5-0.5
	c-0.5-0.5-1.1-0.5-1.1-1.1c-0.5-0.5-1.1,1.1-1.5,0h1.1c0-0.5-1.1-1.1-1.1-2.2H83v-1.6c-4.3-2.2-4.7-7.5-10.6-7.5c0,0,0.5,1.1,0,1.1
	c0.5-1.1-1.1-1.6,0-2.2C73-55.4,73-56.9,74-56c0-1.6-2.1-3.3-3.7-2.2c0,0.5,1.1,0,1.1,0.5c-0.5,1.6-2.1,4.4,0,4.9
	c1.1,0.5,0-1.1,1.1-0.5c0.5,1.1-1.1,0-0.5,1.1c2.1,1.6,3.2,4.4,6.9,4.9c0,0.5-1.5-0.5-1.1,0.5c0.5,0,1.1,0.5,1.1,1.6
	c0.4,0.1,0.5,0.1,0.5,0C79.6-45.4,79.7-45.5,79.8-45.5z M-67.2-21.9c0.7-0.7,0.4-2.5,1.3-2.5c0-0.5-1.1-1.1-0.5-1.6
	c0,0.5,1.1,0,0.5,1.1c0.5,0.5,0-0.5,0.5-0.5l0.5,0.5c-0.5,0-0.5,1.1-1.5,0.5c0.5,1.1-0.5,1.1-0.5,1.6c1.1,0,0.5,1.1,1.5,0.5
	c0.5-1.1-1.1,0-0.5-1.1c0.5,0.5,0-1.1,0.5-1.1c0,0,0,0.5,0.5,0.5c2.6-5.3,5.2-10.8,9.5-14.6v-1.6h1.1c0-2.7,2.6-2.2,3.2-4.9h1.1
	c0.5-1.6,2.1-3.3,3.7-4.4c2.1-1.6,3.2-3.8,5.2-4.4c0.5-1.1,1.1-1.6,1.5-2.2c1.5,0.5,1.1-1.1,2.6-1.1c2.1-3.3,7.4-4.4,10.6-7.5
	c7.9-2.7,14.7-7,24.8-8.1c0.5-0.5-1.1-0.5,0-1.1c6.3,0.5,14.7-1.1,23.1-0.5c0-0.5,0-1.1,1.1-0.5c-0.5,0.5,0.5,0.5,0.5,1.1
	c2.1-0.5,4.3,1.1,5.2,0c1.1,1.1,4.3,2.2,4.7,0v1.6c1.1,0,2.1,0,2.6,0.5c0.5-1.1-0.5-1.1-0.5-1.6c1.1,0.5,0-1.1,1.1-0.5
	c0.5,1.1-1.1,0-0.5,1.1c0.5,0,0.5,0.5,0.5,1.1c2.1,0,4.3,1.1,5.8,1.6c0,0,0-0.5,0.5-0.5c-1.1-0.5,0.5-1.1-0.5-2.2H43
	c0,0.5,0,0.5,0.5,1.1c-1.1,0.5-1.1,1.1-1.1,2.7c0.5,0.5,0-1.1,0.5-1.1c0,0,0.5-0.5,0.5,0c0,0-0.5,0-0.5,0.5c0.5,0,0.5,0,0.5,0.5
	c0.5,0.5,0.5-0.5,1.1-0.5v1.1c8.4,2.7,14.7,7.5,21.6,11.9c0-0.5,1.1-1.1,1.5-0.5c-0.5,0,0,1.1-0.5,1.1c0,0,0-0.5-0.5-0.5
	c0,0.5,1.1,0.5,1.5,0.5c0.5-1.6,0.5-3.8,0.5-5.3c-1.5,0.5-1.5-1.6-3.2-1.1c0.5-0.5,0-0.5,0-1.1c-5.8-3.3-11-6.4-16.8-9.2
	c-0.5,0,0,1.1-1.1,0.5v-1.1c-2.6,0-4.3-2.7-6.9-1.6c0.5,0,0.5,0,0.5,0.5c-1.1,0.5-2.1,0.5-3.2,1.1c0-1.1,1.1-0.5,1.1-1.6
	c0.5-0.5-0.5,1.1,0.5,0.5c0-0.5,1.1,0,0.5-1.1c-3.7-1.1-7.4-2.2-11.6-2.7c0,0.5,0,1.1-0.5,1.1c0.5-1.1-1.1-1.1-2.1-1.1
	c0,0.5-0.5,1.1-1.5,1.1v-1.6C21.5-79,19.3-77,18.9-79c-1.5,0.5-1.5,0-3.2,0.5c-1.5-1.1-5.2,0-8.4,0.5c0,1.1-1.5,0.5-0.5,1.6
	c-0.2,0-0.7,0.1-1.1,0.2v-0.2l-0.2,0.2c-0.2,0-0.4,0-0.4-0.2c0-0.5,1.1-0.5,0.5-1.1c-4.3-0.5-6.3,1.1-10,0.5
	c0.5,0.5-0.5,0.5-0.5,1.1c-2.1-0.5-5.8,1.1-7.9,2.2c-1.1,0.5,0-1.1-1.1-0.5c-2.1,1.1-4.3,1.1-6.3,2.2c0,0.5,0.5,1.1,0,1.1
	c-0.5-1.6-2.1,0-2.6,0c0,0.5,0.5,1.6,0,1.6s0.5-2.2-0.5-1.6l-1.1,1.1C-38.5-64-48.5-54.9-58-44.1c0,0.5,1.1,0.5,1.1,1.1
	c-1.1-0.5,0,1.1-1.1,0.5c0-0.5,0.5-1.1-0.5-1.1c0-0.5,0.5,1.1,0,1.1c-1.1,0,0.5-0.5-0.5,0.5c-0.5,0.5-1.5,0.5-1.5,1.1v1.1
	c-0.5,0-1.1,0-1.5,0.5c0,0.5,0,1.6-0.5,2.2c-0.5,1.1-0.5,0.5-1.1,1.6l-1.1,0.5c0,0.5,0,1.6-0.5,2.2c1.1,0.5,0-1.6,1.1-1.1
	c0,1.1-0.5,1.6-0.5,2.7c0,0,0.2,0.5,0.4,1.1h-0.4c-0.7,0-0.5,0.5-0.7,0.8c1.2-0.8,0.7-0.8,0.7-1.8h-2c-1.1,2.2-1.5,4.4-2.6,5.9
	c0.5,0,0.5,1.6,0,2.2c0,0,0-0.5-0.5-0.5c0.2,0.2,0.2,0.7,0.5,1.1c-1.1,0-0.5,3.3-2.1,2.2c0.5-1.1,0.5-1.6,1.1-2.7h-1.1
	c0,0.5,0.5,2.2-0.5,2.2c0,0.5,1.1,0.5,0.5,1.6h-1.5c0.5,1.1-0.5,1.1-0.5,1.6c1.1-0.5,1.1,0.5,1.5,0.5c0.5-0.5,0-1.6,1.1-1.6
	c-0.5,1.6-0.5,2.2,0,3.8c-0.5,0-1.5,0.5-1.5,0c-0.5-0.5,0.5-0.5,0.5-1.1c-1.5,0.5-1.1-0.5-2.1-0.5c0.5,2.2-0.5,2.7,0,4.4H-75
	c0,3.8-1.5,6.4-2.1,10.2c-0.5,3.8,0,4.9-1.1,8.6h4.7c0-10.2,2.6-15.7,5.2-23.2c0,0-0.5-1.1,0-1.6c0.5,0-0.5,2.2,0.5,1.6
	c-0.5-2.7,1.1-2.7,1.1-4.4C-66.9-21-67-21.4-67.2-21.9z M-67.6-21.6c-0.9,0-1.3-0.2-1.5-0.5v1.6C-68.3-20.5-67.7-20.9-67.6-21.6z
	 M17.2-56.7h1.5v1.1c1.1,0,1.5-0.5,2.1-1.1c3.2,1.1,3.7,1.1,7.4,1.1v2.2c1.1,0,0-1.6,1.5-1.1c0,0.5-1.1,0.5-0.5,1.6
	c-2.1,0.5-2.1-1.1-4.3-0.5c0-1.1,1.1-0.5,1.5-0.5v-0.5c-1.1-0.5-2.6,0-2.1,1.1c-0.5-1.1-3.2,0-3.7-1.1c-0.5,1.1-1.5,0-2.6,0
	C17.2-56.1,17.8-55.6,17.2-56.7z M56.8-40.6c1.1,0.5,1.5,0.5,3.2,0.5c0,0.5-1.1,0.5-0.5,1.6c-0.5-1.1-2.6-1.1-3.2-1.6
	C55.8-40.6,57.3-39.9,56.8-40.6z M63.1-34.6h1.5c0,0.5,0,0.5,0.5,0.5c-0.5,0.5-0.5,1.1-1.5,1.1C63.6-33.5,63.1-33.5,63.1-34.6z
	 M65.7-34C65.7-34,65.7-33.5,65.7-34c0,1.1,1.5,0,1.1,1.1c-1.1-0.5-0.5,0.5-1.5,0.5C64.7-33.5,65.7-32.9,65.7-34z M-52.8-2.2V0
	c-1.1,0-2.1,0.5-2.6,0.5C-54.9,0-54.9-2.2-52.8-2.2z M10.5,106.6c0.5,0,0.5,0.5,0.5,1.1H9.9C9.9,106.6,10.9,107.2,10.5,106.6z
	 M17.2,109.9c-0.5-0.5,0-0.5,0-1.1h-0.5v1.1C17.2,109.4,17.2,111,17.2,109.9z M-50.6,78.6c0.5,1.1-0.5,1.1-0.5,1.6
	c1.1,0.5,1.1-0.5,1.5-0.5v-1.1L-50.6,78.6z M-51.7,80.3c0-0.5,0.5-1.6-0.5-1.6C-51.7,79.2-52.3,80.3-51.7,80.3z M-50.6,82.5
	c0.5,0,1.1-0.5,1.1-1.1c-1.1,0.5,0-1.1-1.1-0.5V82.5z M12.6-56.1c0.5,0.5,0.5,0.5,0.5,1.1c-3.7-0.5-7.4,1.6-10,0.5
	c-2.1,1.6-6.9,1.1-8.9,2.7c-0.5,0-0.5,0-0.5-0.5c-0.5,1.1-2.1,1.1-3.2,2.2c-7.4,1.6-12.7,6.4-18.4,9.7c0-1.1,1.1-1.6,1.1-2.7
	c0-0.5-0.5,0-1.1,0c3.7-3.3,8.4-5.9,13.6-8.1c0-0.5,1.1-0.5,0.5-1.1c3.7,0,4.7-2.2,8.4-2.2v1.1c0.5,0,0-1.1,0-1.6
	c1.1,1.1,1.5-0.5,1.1,1.1c1.1,0.5,0-1.1,1.1-0.5c0.5-1.1-1.1,0-0.5-1.1c2.1-0.5,5.2-1.6,6.3,0c1.1,0,1.1-1.1,1.5-1.1
	c1.1,0-0.5,1.1,0.5,1.1c1.1,0,0.5-0.5,0.5-1.1c1.1-0.5,4.3-1.1,5.2,0c0-0.5,1.5-0.5,2.1-0.5v1h0.5c0.5,0,0-0.5,0-1.1h2.6
	c0,0.5-0.5,1.1-1.1,1.1c0,0.5,1.1,0.5,1.1,1.1h-2.6C14.1-55.6,13.5-56.1,12.6-56.1z M6.2-55.1c1.1,0,1.5-0.5,2.1-1.1
	C7.8-55.6,6.8-56.1,6.2-55.1z M35.7-52.3c0-1.1,2.6-1.1,2.6,0c0,0,0-0.5,0.5-0.5c0.5,1.1,2.6,2.2,3.7,1.6v1.1h-1.1
	c0,0.5,0.5,0.5,0.5,0.5c0.5,0,0-1.1,0.5-0.5c0,0.5,0,0.5,0.5,0.5c-0.5,0.5-0.5,0.5-0.5,1.1c-1.5,0-3.2-0.5-3.2-1.6
	c1.1-0.5,0,1.1,1.1,0.5c0-0.5-1.1-1.1-1.1-1.6c-0.5,0,0,1.1,0,1.6c-2.1-0.5-4.3-0.5-5.2-2.7c-1.1,1.1-2.1-0.5-3.7,0V-55
	c1.1-0.5,0.5,0.5,1.5,0.5c-0.5,1.1,0,1.1,0,1.6C34.2-52.3,36.8-54.5,35.7-52.3z M47.8-48.1C50-48.6,49.4-47,51-47
	c0,0.5-1.1,1.6,0,2.2c0-0.5,0.5-1.1,0.5-1.6c1.1-0.5,0,1.1,1.1,0.5c-0.5,1.1-0.5,0.5,0,1.6c-1.1,0-1.5,0-1.5,0.5
	c-1.1-0.5-1.5-1.1-2.6-1.6c0-0.5,0.5-0.5,1.1-1.1C48.9-47,48.3-47,47.8-48.1c-0.5,1.1,1.1,1.1,0.5,2.2c-1.1-0.5-2.1-0.5-2.1-1.6
	c-0.5,0-0.5,1.1-1.5,0.5c0-0.5-0.5-0.5,0-1.1h1.1c0.5-1.1-0.5-0.5-0.5-1.6c1.1,0,1.5,1.1,2.6,0.5L47.8-48.1z M-32.7-39.5
	c0.5,0,1.1,0,1.1-0.5h1.1c0.5,0,0-1.1,0-1.1c1.1-0.5,0,1.1,1.1,0.5c0.5-1.1-1.1,0-0.5-1.1c1.1,0,0.5-1.1,1.5-1.1
	c0,1.6-1.1,2.2-0.5,3.8c-1.5,0.5-2.1,2.2-4.3,2.7c0,1.1-1.1,1.6-1.5,2.2h-0.5c0-1.1,1.1-0.5,1.1-1.6c0-0.5-0.5,0-0.5,0
	c-0.5,1.1-1.1,2.2,0,3.3c-4.7,3.8-6.9,9.7-11.6,14.1c0-1.1,0-1.1,0.5-1.1c0-0.5-1.1,0-1.5,0c0.5-1.1,1.5-1.1,1.5-2.7
	c0.5-0.5,0,1.1,0,1.1c0.5-0.5,1.1-1.1,2.1-1.1v-0.6c0-0.5-0.5,0-1.1,0c-0.5-1.1,0.5-1.1,0.5-2.2c1.5,0,1.1-2.2,2.6-1.6v-1.6
	c1.1-0.5,0,1.1,1.1,0.5c-1.5-1.6,1.5-2.2,1.1-3.8c1.1,0.5,2.1-3.3,2.6-1.1c0.5,0,0-1.1,0-1.6c1.1-0.5,1.1-1.6,2.6-1.6
	c0.5,0.5,0,1.6,0,2.2C-33.3-36.2-32.3-37.3-32.7-39.5z M60.5-38.9c2.1-0.5,2.1,3.3,3.2,1.6c0,1.1-0.5,2.2-1.1,2.7
	c0-1.1-1.1-1.1-2.1-1.6c0-0.5,0.5-1.1,1.5-1.1C61.6-37.8,61-37.8,60.5-38.9c-0.5,0.5,0,1.6,0,1.6h-1.1h0.5
	C59.9-37.8,60.5-38.4,60.5-38.9z M-48.6-16.3c0-1.1-0.5-1.6-0.5-2.2c0.5,0,0.5-0.5,0.5-0.5h2.1c0,1.6-1.1,1.1,0,2.2
	c-2.1,2.2-2.1,6.4-4.3,8.6c0.5,1.6-0.5,2.2-0.5,2.7c-1.1,0-0.5-1.1-1.1-0.5h-0.5c-0.5,0.5,0,2.2,0,2.7c-0.5,0-0.5,0.5-0.5,0.5h-1.5
	c1.1-5.3,3.2-9.2,4.7-13.5H-48.6z M10.5,108.8c0,0.5-1.5,0.5-1.1,2.2H8.3C8.3,109.4,9.9,108.3,10.5,108.8z M53-45.4
	c0.5,0,0.5,1.1,1.1,0.5v1.1c1.5-0.5,1.5,0.5,2.6,0.5v1.6c-1.1-0.5-0.5,0.5-1.1,0.5c-0.5,0-1.1-0.5-2.1-0.5c-0.5-0.5,0-1.6-0.5-1.6
	c0-1.1,1.1-0.5,0.5-1.1C53.6-44.3,53-44.3,53-45.4z M13.5,54.9c1.1,0,1.5,0.5,1.5,1.1C14.1,56,14.1,55.4,13.5,54.9z"/>
<path class="st0" d="M96.6,26.3c-1.3,0-1.3,0.5-2.5,0.5c0.4-0.9-0.9-0.5-0.9-1.3c-0.4,0-0.4,1.3,0.4,0.9c-3.4,1.7-7.1,3.1-11.4,3.5
	c0-0.9-0.4-1.3-1.3-1.3c0,0.5,0.9,0.9,0.4,1.7c-3.8,0.5-8,3.5-11.9,2.2c-0.4,0,0,0.5-0.4,0.9c-14.8,4.4-30,8.4-44.7,12.9
	c-0.9,0-0.4-0.9-0.9-0.9s0,0.9-0.4,1.3c-3.4,0.5-5.9,1.7-8.5,1.3c0-0.9,1.6,0,1.3-1.3c0.9,0,0.9,0.5,1.3,0.5s0-1.3,0.9-0.9
	c0-0.5-0.4-1.3-0.4-2.2c0.4,0.9,0.9,0.5,0.9-0.5c0.9,0,1.6,0,1.6,0.5c0.4,0,0-0.5,0.4-0.9c6.4-1.3,12.2-3.5,18.6-5.4
	c2.5,0,4.6-0.9,6.8-2.2c1.3,0.9,3-0.9,5.1-0.9c0.4,0.9-0.4,0.5-0.9,0.9c0.9,0.5,1.3-1.3,2.5-2.2c0.9-0.5,1.6,0.5,2.1-0.5
	c0,0.5-0.4,1.3,0.4,1.3c0.4,0,0-0.9,0.4-1.3c5.5-1.3,10.1-3.5,16.9-4c1.6-1.7,5.5-1.7,7.1-3.1c2.1,0.9,5.1-1.7,8.5-1.7
	c0,1.3,1.3,1.3,1.3,2.2c0.4-0.9-1.6-1.3-1.3-2.7c1.3-0.5,0.9,0.9,1.3,0.9c0.4,0,0-0.9,0.4-1.3c1.3,0.5,2.5-0.9,2.5,0
	c2.1-0.9,5.9-2.2,8-1.7c0.4-0.9-0.9,0-0.4-0.9c0.4,0,1.6,0.5,1.6-0.5c3,0.5-1.3,0.5,2.1-0.5c0.4,0.9-0.9,0-0.4,0.9
	c0.9,0,0.9-1.3,1.3-1.3c5.1,0.5,8.9-4,12.6-2.2c0.9-0.5,1.3-2.2,0-2.7c-0.9,0,0.4,1.7-0.9,1.3c0-5.8-3.8-10.3-2.5-15.5
	c0.9-0.5,0,0.9,0.9,0.9c0.9-0.5-0.4-0.9-0.4-1.3c0.4,0,0.4,0,0.4-0.5s-0.9,0-1.3-0.5c-0.4,0,0,0.9-0.4,1.3c-2.1-4.9-3-11.5-5.1-16.9
	c-0.4-0.9,0.4-1.3,0.4-1.7s-0.4,0-0.9-0.5c-1.3-5.4-2.5-9.8-3.8-15.1c1.3,0.9,0.9-1.3,2.1-1.3c-0.9,0-0.9-0.5-1.3-1.3
	c-0.4,0,0,1.3-0.4,2.2c-1.6,0.5-0.4-1.7-1.6-2.2c0-0.5,1.3,0,1.3,0c0.4-0.5,0-1.3,0.9-1.3l-0.9-0.9c-0.9,0,0,1.3-0.4,0.9
	c-0.9,0,0-0.5-0.4-0.9c-1.3-0.5-1.3,0.9-2.1,0.9c0,0.9,0.9,0.9,0.9,1.7c-1.3,0.9-3,1.3-4.2,2.2c-0.9,0.5,0-0.9-0.9-0.9
	c-0.4,0.5,8.9-0.9,7.6-0.9v-1.7h-0.9c-0.4,0.5,0,1.7-0.4,2.2c-9.3,2.2-17.7,5.4-27,7.1V-30c-0.4,0-0.4,0.5-0.9,0.5
	c0.4,0.5,0.9,0.9,0.4,2.2c-16.5,4.4-33.4,8.9-49.4,14.2c-2.5-0.5-4.2,2.2-5.9,0.5c-0.4,0.5-0.4,0.9-0.9,1.3
	c-1.3-0.9-3.4,0.5-4.6,0.9v-1.3h-1.3c0.4,0.9,0.4,0.5,0,1.3c-0.9-0.9-1.3,0.5-3,0c-0.4,0,0,0.9-0.4,1.3c-1.6-0.9,1.3-2.2,0-2.7h1.2
	v-0.9c-0.9,0-0.4,0.9-1.3,0.5C9.2-11.8,9.2-11,8.3-11c0.4-0.5,0.9-0.5,0.9-1.3c-0.4,0.5-1.3,0.9-2.1,0.9c1.3,0,0.4,1.7,2.1,1.3v1.3
	C8.3-9.2,8.3-11,7.1-11c0,0.9-0.9,1.3-1.3,1.7c0.4,0.9,0.9-0.9,1.6-0.5v0.9c-0.9,0-1.3,0-1.6,0.5C5.3-9.2,4.1-8.7,3.7-10
	c-0.9,0.5,0,0.9,0,1.3C3.2-9.2,2.4-10,2.4-11.4c-0.9-0.5-0.9,0.5-1.3,0.9C1.5-10,1.5-9.6,2.4-9.6v1.7c0.9,0.5,0-0.9,0.9-0.5
	c0.4,0.9-0.9,0-0.4,0.9c-16.5,4.4-33,8.9-49,13.7c-2.1,0-3.4,0.9-5.1,1.3c-0.4,0-0.4-0.5-0.4-0.9H-53c-0.4,0.9,0.9,0.5,0.4,1.3
	c-1.3-0.5-2.5,1.3-3.4,0c-0.9,1.7-3.8,2.2-5.5,0.9c0,0.9,0.9,0.5,0.4,1.3c-1.3,0.5-0.4-1.3-1.6-0.9c0,0.5,0.4,0.5,0.4,0.9
	c-1.6,0.5-1.6-0.5-3-2.2c-0.9,0.5,0.4,0.9,0,1.3c-0.9,0,1.3,3.1,0,2.7c0-0.5,2.5-3.1,2.1-3.5c-0.4,0.5-0.4,0.9-0.4,1.3
	c-1.6,0-2.5,0.5-4.2,0.9c0-0.5,0.4-0.5,0.4-0.9c-0.9,0-1.3,0.5-1.3,1.3c-0.4,0-0.4,0-0.4-0.5c-0.4,0,0,0.5-0.4,0.9
	c-0.9-0.9,3.8-3.1,3-2.2V8.6c-0.9,0-0.9,0.9-1.3,1.3c0.4,0.9,0.4-0.9,1.3-0.5v0.9c-2.5,1.3-3.4,3.5-5.1,2.2c-0.9,0,0.4,0.5,0,0.9
	c-1.3,0.5-3,0.5-3.8,0.9c0-0.9,0-0.9,0.4-1.3c-0.9-0.5-1.6-1.7-2.5-1.3c0.4,0.9,0.9,0.9,2.1,0.9c-0.4,0.9-0.4,1.7-1.3,2.2
	c-0.9,0-0.4-0.9-0.9-0.9c-0.4,0.5-0.4,0.9-0.9,1.3c-1.6,0-3,0.5-4.2,0.9c0-0.5,0.4-1.3-0.4-1.3c-0.4,0,0,0.9-0.4,1.3
	c0,0.9-0.4-0.5-0.4-0.9c-1.3,0.5-1.3,1.7-3,1.3v-1.3c-0.9,0,0.4,1.3-0.9,0.9v-0.9c-0.9,0-0.9-0.5-1.6-0.5c-0.9,0.9-0.4,2.2-0.4,3.5
	h0.9c0.4,0,0-1.3,0.4-1.7c0.9-0.5,0.9,0.5,1.3,0.5c0,1.7,0.4,2.7,0.4,4c0,0-0.4,0-0.4-0.5h-0.2c0-0.9,0.9-0.5,0.4-1.3
	c0.4,0.9,0.4,0.5-0.4,0.5c-0.4,0,0,0.5-0.4,0.9h-1.2c0-2.7-1.3-3.5-1.3-6.2c0.9,0,0.9,0.5,1.3,0.5c0.4,0,0-0.5,0.4-0.9
	c1.6,0.5,2.5-1.3,3.8,0c0.4-0.5,1.3-0.5,1.3-1.3c0.9-0.5,0.9,0.5,0.9,0.9c0-1.7,1.6-0.9,3.4-1.7c-0.4,0.9,0.9,0.5,0.4,1.7h0.9v-0.9
	c0-0.9-1.3,0-0.9-0.5c0.4-0.9,2.1-2.2,3-0.9c0.4,0,0-0.5,0.4-0.9c0.4,0,0.4,0.5,0.9,0.5c2.5-1.7,7.1-1.7,10.1-3.1l-2,0.8
	c3.4-0.9-0.4,0,3.4-0.5c-0.4,1.3,0.9,0.9,1.3,0.9c0-0.9-0.9-0.5-0.4-1.3c4.2-0.5,7.6-3.1,11.9-2.7c0.4,0,0-0.5,0.4-0.9
	c3-0.9,6.4-1.7,9.3-2.7c4.2-0.5,8-2.2,11.9-3.1c9.3-2.2,18.6-4.9,27-7.6c2.5,0,4.2-1.7,6.8-0.9c0.4,0,0-0.5,0.4-0.9
	c0.4,0,1.6-0.5,1.3,0.5c0-0.5,0.9-0.5,0.9-0.9C29-17.4,50-23.5,71.6-29.3c0.9,0,0.4,1.3,1.3,0.9c0.4-0.9-0.9-0.5-0.4-1.3
	c3.8-0.5,7.1-1.7,11-2.7l3.8-1.3c5.1-0.5,8.5-2.2,12.6-3.1c-0.4,0.9,0.4,0.9,0.9,1.3c0.9-0.5-0.9-0.5-0.4-1.3
	c5.5-1.3,0.9-0.9,6.4-1.7c0,2.2,1.3,3.5,0.4,4.9c0,0.5,0.4,0,0.9,0.5c0,3.1,2.5,6.2,1.3,8.9c1.3,1.3,1.3,4.4,2.1,6.2
	c-0.9,0-0.4-0.9-1.3-0.5c2.1,1.3,3,4.4,2.5,7.6c0.9,0-0.4-1.7,0.9-1.3c-0.4,2.7,2.1,4.9,0.9,7.1c2.5,3.1,1.6,9.3,4.2,12.5
	c0.4,5.4,2.1,8.4,3,12.9c-9.7,2.7-9.7,3.5-19,6.2h-5.9V26.3z M14.7-11.8c0,0.9,1.3,0.5,1.3,0.9c-0.4-0.9,0.4-0.9,0.4-1.3
	C16.4-12.2,16-11.3,14.7-11.8z M106-37.1c0-0.9-0.4-1.3-1.3-0.9C104.6-37.5,105.1-37.1,106-37.1z M105.5-30.4c0-0.9-0.4-1.3-0.9-1.3
	C104.6-31.8,104.6-30.9,105.5-30.4z M93.7-33.1c0.4-0.5,1.3-0.5,1.3-0.9h-1.3V-33.1z M76.7-29.6c1.3,0.5,0.9-0.9,2.1-0.5V-31
	C77.6-31.3,77.2-30.4,76.7-29.6z M73.4-29.1c0.4-0.9-0.4-0.9-0.9-0.9C72.6-29.1,73-29.1,73.4-29.1z M108.5-14.9
	c0.4-0.5,1.3-0.5,1.3-0.9h-0.9C109.2-15.4,108-15.9,108.5-14.9z M109.7-11.8c0.9,0,0.4-1.3,0.4-2.2c-0.9,0-0.9,0-1.3-0.5
	C108.8-13.2,110.1-13.6,109.7-11.8z M115.2,5.1V3.8h-0.9C114,4.6,114.7,4.6,115.2,5.1z M116.5,5.1h-0.9c0.4,1.3-0.9,0.9-0.9,2.2
	c0.4,0,0.9,0,0.9,0.5c0.9,0,0.4-0.9,1.3-0.5V6c-0.9-0.5,0,1.3-0.9,1.3c0-0.5-0.9-0.5-0.9-0.9h0.9C116.5,5.9,116.5,5.5,116.5,5.1z
	 M116.5,11.3c0.4-0.5,0.9-0.9,0.9-1.7C116.8,9.5,116.8,10.4,116.5,11.3z M95.7,26V25h-0.9C94.5,26,95,26.3,95.7,26z M25.7,43.7h0.9
	c0-0.5-0.4-0.9-0.9-0.9V43.7z M22.7,45.4v-1.3h-0.8C21.5,45,21.9,45.4,22.7,45.4z M-49.9,6.4c0.9,0.5,1.3-1.3,0.4-0.9
	C-49.5,5.9-49.9,5.9-49.9,6.4z M-63.4,9.9c0,0.5-1.3,0-0.9,0.9c1.3,0,1.6-0.5,1.6-1.3h-0.9v0.3L-63.4,9.9z M-65.5,10.4V9.4h-0.9
	C-66.8,9.9-66.4,10.4-65.5,10.4z M-73.1,13.5c0.4-0.9-0.9-0.5-1.3-0.5C-74.9,14-73.5,13.5-73.1,13.5z M-81.1,15.2
	c0-0.9-0.4-1.3-0.9-1.3C-81.6,14-82,15.2-81.1,15.2z M-79,15.2v-0.8h-0.9C-79.9,14.8-79.9,15.2-79,15.2z M-81,39.4v-1.7
	c-0.4,0-0.4,1.3-0.9,0.5c0.9-5.4-2.1-10.6-3-16c-0.9-0.5,0,0.9-0.9,0.5c0-0.9,1.3-2.7,0-3.1v2.2c-0.4,0-0.4,0.5-0.9,0.5
	c0-0.9-0.4-0.9-0.9-0.9c-0.4,0.9-0.4,1.7-1.3,0.9c0.4,0.9,0.4,1.3,0.4,2.7c0.4,0.5,1.3,0,1.3,0.5c0,0.9-1.3,0-0.9,0.9
	c1.6,2.7,1.3,7.6,3.8,9.3c-0.9,1.3,0.4,4.9,1.3,5.8c0,0.5-0.4,0.5-0.4,0.9l6.4,24c0.4,0.5,1.3,0,1.3,0.5c-0.4,0.5,0,0.9-0.4,0.9
	s-0.4-0.5-0.9-0.5c0,1.7,0,3.1,1.3,3.5c-1.3,0.9,0,2.2,0,3.1c9.3-2.2,4.2-0.5,13.5-2.7l3.8-1.7c2.1-0.9,4.6-1.7,7.1-2.2
	c0-0.9-1.6-0.9-0.9-1.7c0.4,0.5,0.9,0.9,0.9,1.3c12.2-2.2,23.2-6.2,35-9.3c0.4-0.5,0-0.9,0.4-0.9c1.6,0.9,3.4-0.5,5.1-0.5
	c0.4-0.5,0-0.9,0.4-0.9C-7.5,56-1.6,52.9,3,52.4c0.4-0.5-0.9-0.9,0-0.9c-0.4,0.9,0.9,0.5,1.3,0.5c0.4-0.5,0.4-1.7,1.3-2.7
	c0.4,0,0.4,1.7,0,1.7c2.5,0.5,3.4-0.9,5.5-0.9c0.4-0.9-1.3,0-0.9-0.9c-0.9-0.5,0,0.9-0.9,0.5c-0.4-0.9,0.9,0,0.4-0.9
	c-1.3,0.5-2.1,1.3-3,2.2c0.4-1.7,0.4-1.7,0.4-2.7c0.4,0.5,1.3,0.5,1.6,0.9c0-1.3,0.9-1.7,1.6-2.2c0.4,1.7,2.1,0.9,3.8,0.9
	c-0.4-0.9,0.4-0.9,0.4-0.5c-0.4-0.5-0.4-1.3-1.3-1.3c0,0.5,0,0.5-0.4,0.5c-0.4,0.9,0.9,0,0.4,0.9c-0.4-0.5-1.3,0-1.3-0.5
	c0-0.5,0.4-0.5,0.4-0.9c-2.1,0.5-3.8,1.3-6.4,1.3c0.4,1.7-2.1,0.5-0.9,1.7c-0.9,0-1.6-0.5-0.9-0.9c-1.3,0-3,0.5-2.1,1.3
	c0-0.5,0-0.5,0.4-0.5c-0.4,0.5,0,1.3-0.4,1.3c-0.4-0.5-0.9-0.5-1.3-0.9c0-0.5,0.4-0.5,0.4-0.9C0.3,48,0,48.9-0.5,49.4
	c-1.6-0.9-4.6,1.3-7.1,1.3c-0.4,0.5,0,0.9-0.4,0.9c-0.9,0.5-1.3-0.5-1.6-0.5c0,1.3-1.6,1.3-2.1,2.2c-0.4-0.9,0.4-0.5,0.4-1.3
	c-0.9,0.5-1.6,1.3-2.5,0.5c-0.4,0.9-1.6,0.9-3,0.9c-4.6,1.3-9.7,3.1-15.2,4c-0.9,0.5,0,0.9-0.4,1.3c0-0.5-0.4-0.9-0.9-0.9
	c-0.4,0.5,0,0.9-0.4,0.9c0-0.5-0.4-0.5-1.3-0.5c-15.6,4.9-19,4.4-35,9.3c0.4,0,0.4,0,0.4,0.5c-1.3,0.5-0.9-0.9-2.1-0.5
	c-0.4,0.9-0.9,1.7-1.3,2.7c-1.6-1.3,0-3.1-0.9-4.9c-0.4,0.5-1.3,1.3-1.6,0.5c0-0.9,0.9-0.5,1.3-0.5v-1.7c-0.4,0-0.4,0.5-0.9,0.5
	c0.9-3.1-1.3-5.8-1.3-9.3c-0.4-0.5-0.9,0-0.9-0.5s-0.4-0.9-0.4-0.5c0.4,1.7-1.3,1.7-1.3,3.1c-0.4,0-0.9,0-0.9-0.5
	c1.3-0.5,0.9-3.1,2.1-4c-0.4-4.4-1.3-8.4-3.4-11.5v-0.9c0.2-0.1,0.4-0.2,0.4-0.8C-80.7,39.4-80.8,39.4-81,39.4z M-84.5,16.6
	c0-0.9-0.4-1.3-1.3-1.3C-85.8,15.7-85.8,16.6-84.5,16.6z"/>
<g>
	<path class="st0" d="M-9,25.3l-22.5,6.2l2.9,11.1c0.4,1.5,1.3,2.1,2.8,1.7l18.6-5.1c0.8-0.2,1.4-0.6,1.8-1.2
		c0.5-0.9,0.3-3.4-0.6-7.5l2.8,0.1c0.8,4.7,1,7.6,0.4,8.8c-0.6,1-1.6,1.7-3,2.2l-20,5.5c-2.7,0.7-4.5-0.3-5.3-3.3l-5.1-19.6l2.6-0.7
		l1.4,5.3l19.9-5.5l-2.5-9.7l-24.4,6.7l-0.7-2.6l27.1-7.4L-9,25.3z"/>
	<path class="st0" d="M5,4.3c-0.1,2.6-0.5,5.3-1.1,8.1l6.8,26l-2.6,0.7L2.5,17.6c-0.7,2.2-1.7,4.5-3,6.8L-2,21.9
		C0.6,16.2,2,10.2,2.2,3.8L5,4.3z M7.6,11.3l13.9-3.8l-2.1-8L22-1.2l2.1,8l5.2-1.4L30,7.9l-5.2,1.4l5.1,19.4
		c0.7,2.5-0.1,4.1-2.4,4.7l-5.3,1.4L21,32.5c1.9-0.4,3.6-0.8,5-1.2c1.1-0.3,1.5-1.1,1.2-2.5l-4.9-18.7L8.3,13.9L7.6,11.3z M12.7,17
		c3.7,2.6,6.6,4.9,8.7,7l-1.8,2.2c-2.3-2.3-5.2-4.7-8.7-7.3L12.7,17z"/>
	<path class="st0" d="M31.7-0.2l7.7-2.1L38.4-6l2.5-0.7L41.8-3l6.7-1.8l0.6,2.4l-6.7,1.8l0.8,3.2l5.8-1.6l0.6,2.3L35,7.2L34.4,5
		l6.4-1.8L40,0l-7.7,2.1L31.7-0.2z M36.1,15.7l17-4.7l0.6,2.3l-7.1,2l2.4,9.3c0.5,1.9-0.2,3.2-2.3,3.8l-3.1,0.9l-1.1-2.3
		c1.1-0.2,2-0.4,2.8-0.6c0.9-0.3,1.3-0.8,1.1-1.7L44.1,16l-7.4,2L36.1,15.7z M37,9.9l12.4-3.4L50,8.8l-12.4,3.4L37,9.9z M42.2,18.8
		c-0.1,3.1-0.7,5.9-1.6,8.4l-2.3-0.7c1-2.4,1.6-4.9,1.7-7.6L42.2,18.8z M50.9,15.5c1.4,1.5,2.8,3.1,4.1,5L53.2,22
		c-1.3-2-2.8-3.7-4.2-5.3L50.9,15.5z M53.7-9.4c0.3,1.8,0.4,3.6,0.6,5.5L64-6.6l0.4,1.6c0.3,3.4,0.4,6.7,0.3,9.9l-2.6,0
		c0.2-2.7,0.2-5.5,0-8.3l-7.7,2.1c0,3.3-0.4,6.2-1.3,8.5l-2.4-0.9c1.3-4,1.5-9.1,0.5-15.4L53.7-9.4z M59.1,0.7
		c0.6,2.4,1.1,4.7,1.4,6.7c3.1,5.4,7,9.4,11.8,11.7l-1.2,2.5c-3.9-2.3-7.3-5.4-10.1-9.4l0,1c0,4.6-1.6,8.9-4.8,12.8l-2.1-1.5
		c2.8-3.4,4.2-7,4.4-11c0-3.4-0.6-7.4-1.8-12.2L59.1,0.7z"/>
</g>
</svg>
