<?xml version="1.0" encoding="utf-8"?>
<!-- Generator: Adobe Illustrator 19.0.0, SVG Export Plug-In . SVG Version: 6.00 Build 0)  -->
<svg version="1.1" id="图层_1" xmlns="http://www.w3.org/2000/svg" xmlns:xlink="http://www.w3.org/1999/xlink" x="0px" y="0px"
	 viewBox="-87 81 40 39.9" style="enable-background:new -87 81 40 39.9;" xml:space="preserve">
<style type="text/css">
	.st0{fill:#FF9B49;}
</style>
<path class="st0" d="M-63.4,105.7h-2.2v-1.1h2.2c0.6,0,1.1-0.5,1.1-1.1s-0.5-1.1-1.1-1.1h-2.2v-0.1l2.6-2.7c0.4-0.5,0.2-0.9-0.2-1.3
	c-0.4-0.4-1.1-0.5-1.5-0.1l-2.2,2.4l-2.4-2.4c-0.3-0.3-0.9-0.2-1.3,0.2c-0.4,0.4-0.5,1-0.2,1.3l2.5,2.5c0,0.1-0.1,0.1-0.1,0.2h-2
	c-0.6,0-1.1,0.5-1.1,1.1s0.5,1.1,1.1,1.1h2.2v1.1h-2.2c-0.6,0-1.1,0.5-1.1,1.1s0.5,1.1,1.1,1.1h2.2v1.1h0c0,0.1,0,0.2,0,0.3
	c0,0.8,0.6,1.4,1.4,1.4c0.8,0,1.4-0.6,1.4-1.4c0-0.1,0-0.2,0-0.3h0v-1.1h2.2c0.6,0,1.1-0.5,1.1-1.1
	C-62.3,106.2-62.8,105.7-63.4,105.7z"/>
<path class="st0" d="M-47,108.1V87.4c0-3.5-2.9-6.4-6.4-6.4h-27.2c-3.5,0-6.4,2.9-6.4,6.4v27.1c0,3.5,2.9,6.4,6.4,6.4h27.2
	c3.5,0,6.4-2.9,6.4-6.4V108.1z M-72.2,86.8L-72.2,86.8c0-0.1,2.7-0.6,5-0.6c2.4,0,4.9,0.6,4.9,0.6l0,0.1c0.3,0.1,0.5,0.4,0.5,0.8
	c0,0.1,0,0.1,0,0.2l0,0.1l-0.2,0.3c0,0,0,0,0,0l-2,2.5h-6.6l-2-2.5c0,0,0,0,0,0l-0.2-0.3l0-0.1c0-0.1,0-0.1,0-0.2
	C-72.7,87.3-72.5,87-72.2,86.8z M-67,115.7c-9.1,0-12.9-3.3-12.9-10c0-5.6,4.3-11.4,9.6-13.3h6.7c5.2,1.8,9.6,7.7,9.6,13.3
	C-54,112.4-57.9,115.7-67,115.7z"/>
</svg>
