<?xml version="1.0" encoding="utf-8"?>
<!-- Generator: Adobe Illustrator 19.0.0, SVG Export Plug-In . SVG Version: 6.00 Build 0)  -->
<svg version="1.1" id="图层_1" xmlns="http://www.w3.org/2000/svg" xmlns:xlink="http://www.w3.org/1999/xlink" x="0px" y="0px"
	 viewBox="-78.1 81 40 40" style="enable-background:new -78.1 81 40 40;" xml:space="preserve">
<style type="text/css">
	.st0{fill:#08A1F8;}
</style>
<path class="st0" d="M-76.1,106.5c-0.4,1.7,0.7,5.9,7.3,5.9c4.1,0,8-2.5,11.2-6.6c-4.5-2.2-8.3-3.3-12.5-3.3
	C-73.8,102.5-75.8,104.8-76.1,106.5z"/>
<path class="st0" d="M-68.1,115.4c-6.3,0-10.4-3.9-9.9-8.6c0.3-3.1,2.5-8.2,11.7-7.3c4.9,0.5,7.1,1.4,11,2.7c1-1.9,1.9-3.9,2.5-6.1
	h-17.6v-1.7h8.7v-3.1h-10.6v-1.9h10.6v-4.5c0,0,0.1-0.7,0.9-0.7h4.3v5.2h11.3v1.9h-11.3v3.1h9.2c-0.8,3.5-2.1,6.6-3.7,9.4
	c2,0.7,9.3,3,12.8,4.1v-21c0-3.2-2.6-5.8-5.8-5.8h-28.4c-3.2,0-5.8,2.6-5.8,5.8v28.4c0,3.2,2.6,5.8,5.8,5.8h28.4
	c3.2,0,5.8-2.6,5.8-5.8v-0.5c-3.8-1.7-11.3-4.9-15.6-7C-57.7,112.5-61.9,115.4-68.1,115.4z"/>
</svg>
