<?xml version="1.0" encoding="utf-8"?>
<!-- Generator: Adobe Illustrator 19.0.0, SVG Export Plug-In . SVG Version: 6.00 Build 0)  -->
<svg version="1.1" id="图层_1" xmlns="http://www.w3.org/2000/svg" xmlns:xlink="http://www.w3.org/1999/xlink" x="0px" y="0px"
	 viewBox="-358 2 32 32" style="enable-background:new -358 2 32 32;" xml:space="preserve">
<style type="text/css">
	.st0{fill:#4DBDFF;}
	.st1{fill:#F5F6F6;}
	.st2{fill:#E8E8E8;}
	.st3{fill:#FFFFFF;}
	.st4{fill:#49494A;}
	.st5{fill:#3D3D3F;}
	.st6{fill:#C8C8C8;}
	.st7{fill:#E9BEAF;}
	.st8{fill:#F6CDBF;}
	.st9{fill:#F3908F;}
</style>
<path class="st0" d="M-357.2,18c0,8.4,6.8,15.2,15.2,15.2s15.2-6.8,15.2-15.2S-333.6,2.8-342,2.8S-357.2,9.6-357.2,18z"/>
<path class="st1" d="M-345.2,21.2l-4.2,1.6c0,0-0.9,0.3-1.4,1.6s-1.9,4.4-1.9,4.4s4,4.4,10.6,4.4l0.1-2.4
	C-342,30.8-345.2,21.2-345.2,21.2z M-338.8,21.2l4.2,1.6c0,0,0.9,0.3,1.4,1.6s1.9,4.4,1.9,4.4s-4,4.4-10.6,4.4l-0.1-2.4
	C-342,30.8-338.8,21.2-338.8,21.2z"/>
<path class="st2" d="M-345.3,20.8l3.1,7.8h0.4l3.1-7.8l-3.3,1.8L-345.3,20.8z"/>
<path class="st3" d="M-338.7,20.8l1.5,0.7l0.9,3.7l-2.4,0.9l1.2,1.4l-4.5,3.3v-2L-338.7,20.8z"/>
<path class="st1" d="M-342.2,30.8h0.4v2.4h-0.4V30.8z"/>
<path class="st4" d="M-337.3,9.8c0.1-0.2,0.2-0.4,0.1-0.7c-0.8-2-5.1-1.8-5.1-1.8s-5.1,0.2-5.2,4.6c0.1,2.2,1.2,2.9,1.2,2.9v-2
	c3.6-0.8,7.8-2.1,7.8-2.1s0.2,0,0.4-0.2v3.9c0,0,1.9-1.1,1.9-3.3C-336.3,10.2-336.9,9.9-337.3,9.8z"/>
<path class="st3" d="M-345.3,20.8l-1.5,0.7l-0.9,3.7l2.4,0.9l-1.2,1.4l4.5,3.3v-2L-345.3,20.8z"/>
<path class="st5" d="M-345.4,20.2c0,0-2,0-2,2.2V24c-0.6,0.1-1.1,0.7-1.1,1.3c0,0.8,0.6,1.4,1.4,1.4c0.8,0,1.4-0.6,1.4-1.4
	c0-0.7-0.5-1.3-1.2-1.4v-1.6c0,0-0.1-1.7,1.5-1.7h2v-0.5C-343.5,20.2-345.4,20.2-345.4,20.2z"/>
<path class="st6" d="M-348,25.4c0,0.5,0.4,0.9,0.9,0.9s0.9-0.4,0.9-0.9s-0.4-0.9-0.9-0.9S-348,24.9-348,25.4z"/>
<path class="st5" d="M-336.6,23.3v-0.9c0-2.2-2-2.2-2-2.2h-2v0.5h2c1.6,0,1.5,1.7,1.5,1.7v0.9c-0.8,0.1-1.4,0.6-1.4,1.3v2.8h0
	c0,0.1,0.1,0.2,0.1,0.2s0.6,0.6,0.8,0.6s0.3-0.3,0.3-0.3v-1c0-0.2-0.2-0.2-0.2-0.2h-0.5v-2.1c0.1-0.6,0.5-0.8,1.1-0.8
	c0.6,0,1.1,0.1,1.1,0.8v2.1h-0.5c0,0-0.2,0-0.2,0.2v1c0,0,0.1,0.3,0.3,0.3s0.8-0.6,0.8-0.6s0.1-0.1,0.1-0.2h0v-2.8
	C-335.2,24-335.8,23.4-336.6,23.3z"/>
<path class="st7" d="M-345.3,20.9v-2.1l6.7,0.1v2l-3.3,1.9L-345.3,20.9z"/>
<path class="st8" d="M-338.1,13.6l0-3.1l-8.2,2.3l0,0.8c0,0-1.2,0-1.2,1.9c0,1.6,1.4,1.6,1.4,1.6l0.8,2.1l1.9,1.5h2.6l1.9-1.5
	l0.8-2.1c0,0,1.4,0,1.4-1.6C-336.6,13.7-338.1,13.6-338.1,13.6z"/>
<path class="st8" d="M-338.1,13.6h-8.2c0,0-1.2,0-1.2,1.9c0,1.6,1.4,1.6,1.4,1.6h8.1c0,0,1.4,0,1.4-1.6
	C-336.6,13.7-338.1,13.6-338.1,13.6z"/>
<path class="st9" d="M-343.8,17.6c0,0,1.7,0.5,3.5,0c0,0-0.3,1.2-1.7,1.2C-343.5,18.8-343.8,17.6-343.8,17.6z"/>
</svg>
