<?xml version="1.0" encoding="utf-8"?>
<!-- Generator: Adobe Illustrator 19.0.0, SVG Export Plug-In . SVG Version: 6.00 Build 0)  -->
<svg version="1.1" id="图层_1" xmlns="http://www.w3.org/2000/svg" xmlns:xlink="http://www.w3.org/1999/xlink" x="0px" y="0px"
	 viewBox="-358 2 32 32" style="enable-background:new -358 2 32 32;" xml:space="preserve">
<style type="text/css">
	.st0{fill:#1296DB;}
</style>
<path class="st0" d="M-342,2c-8.8,0-16,7.2-16,16s7.2,16,16,16s16-7.2,16-16S-333.2,2-342,2z M-333.2,23c-0.4,0.4-1.1,0-1.8-1
	c-0.3,0.8-0.7,1.5-1.1,2.2c1,0.3,1.6,0.9,1.6,1.5c0,1-1.9,1.9-4.1,1.9c-1.4,0-2.6-0.3-3.3-0.8c-0.8,0.5-2,0.8-3.3,0.8
	c-2.3,0-4.1-0.8-4.1-1.9c0-0.6,0.6-1.1,1.6-1.5c-0.5-0.7-0.8-1.4-1.1-2.2c-0.7,0.9-1.4,1.4-1.8,1c-0.6-0.5-0.4-2.4,0.5-4.2
	c0.2-0.4,0.4-0.8,0.6-1.1c0.1-5.2,3.5-9.3,7.7-9.3h0c4.2,0,7.6,4.1,7.7,9.3c0.2,0.3,0.4,0.7,0.6,1.1
	C-332.8,20.6-332.6,22.5-333.2,23L-333.2,23z"/>
</svg>
