<?xml version="1.0" encoding="utf-8"?>
<!-- Generator: Adobe Illustrator 19.0.0, SVG Export Plug-In . SVG Version: 6.00 Build 0)  -->
<svg version="1.1" id="图层_1" xmlns="http://www.w3.org/2000/svg" xmlns:xlink="http://www.w3.org/1999/xlink" x="0px" y="0px"
	 viewBox="-85.5 89.2 37 23.5" style="enable-background:new -85.5 89.2 37 23.5;" xml:space="preserve">
<style type="text/css">
	.st0{fill:#588FFF;}
</style>
<path class="st0" d="M-67,89.2c-10.2,0-18.5,8.4-18.5,11.8c0,3.4,8.3,11.8,18.5,11.8s18.5-8.4,18.5-11.8
	C-48.5,97.6-56.8,89.2-67,89.2L-67,89.2z M-67,109.4c-4.6,0-8.4-3.8-8.4-8.4c0-4.6,3.8-8.4,8.4-8.4c4.6,0,8.4,3.8,8.4,8.4
	C-58.6,105.6-62.4,109.4-67,109.4L-67,109.4z"/>
<path class="st0" d="M-67,95.2c-3.2,0-5.8,2.6-5.8,5.8c0,3.2,2.6,5.8,5.8,5.8c3.2,0,5.8-2.6,5.8-5.8C-61.2,97.8-63.8,95.2-67,95.2
	L-67,95.2z"/>
</svg>
