<?xml version="1.0" encoding="utf-8"?>
<!-- Generator: Adobe Illustrator 19.0.0, SVG Export Plug-In . SVG Version: 6.00 Build 0)  -->
<svg version="1.1" id="图层_1" xmlns="http://www.w3.org/2000/svg" xmlns:xlink="http://www.w3.org/1999/xlink" x="0px" y="0px"
	 viewBox="-358 2 32 32" style="enable-background:new -358 2 32 32;" xml:space="preserve">
<style type="text/css">
	.st0{fill:#57BC4C;}
</style>
<path class="st0" d="M-342,4c-7.7,0-14,6.3-14,14c0,7.7,6.3,14,14,14c7.7,0,14-6.3,14-14C-328,10.3-334.3,4-342,4z M-336.7,27.4
	c-1.1,1.1-5.2,0.1-9.3-4c-4.1-4-5.1-8.2-4-9.3c1-1,2.1-2.6,3.9-0.5c1.8,2.2,0.9,2.8-0.1,3.8c-0.7,0.7,0.8,2.4,2.3,3.9
	c1.5,1.5,3.3,2.9,3.9,2.2c1-1,1.6-1.9,3.8-0.1C-334.1,25.3-335.7,26.4-336.7,27.4z M-342.5,14.5c0.3-0.3,0.8-0.2,0.8-0.2
	c1.1,0.2,2.3,0.7,3.3,1.7c0.9,0.9,1.5,2.1,1.7,3.3c0,0,0.1,0.5-0.2,0.8c-0.3,0.3-0.9,0.3-1.2,0c-0.2-0.2-0.2-0.5-0.2-0.5
	c-0.1-0.6-0.3-1.4-1.2-2.3c-0.9-0.9-1.7-1.1-2.3-1.2c0,0-0.3,0-0.5-0.2C-342.9,15.4-342.9,14.8-342.5,14.5z M-333.6,20.2
	c0,0,0,0.3-0.3,0.6c-0.3,0.3-0.9,0.4-1.2,0c-0.3-0.3-0.2-0.8-0.2-0.8c0.2-1.5-0.5-3.4-2.1-5c-1.7-1.7-3.5-2.4-5-2.1
	c0,0-0.5,0.1-0.8-0.2c-0.4-0.4-0.3-0.9,0-1.2c0.2-0.2,0.6-0.3,0.6-0.3c1.3-0.2,3.9,0,6.5,2.6C-333.7,16.2-333.5,18.9-333.6,20.2z"/>
</svg>
